<svg id="Layer_2" data-name="Layer 2" xmlns="http://www.w3.org/2000/svg" width="331.93" height="503.64" viewBox="0 0 331.93 503.64">
  <title>newbookArtboard 6</title>
  <g>
    <path d="M290.93,431.9H41a4.54,4.54,0,0,1-4.53-4.53V56.08A4.54,4.54,0,0,1,41,51.55H290.93a4.54,4.54,0,0,1,4.53,4.53V427.37A4.54,4.54,0,0,1,290.93,431.9ZM41,52.55a3.54,3.54,0,0,0-3.53,3.53V427.37A3.54,3.54,0,0,0,41,430.9H290.93a3.54,3.54,0,0,0,3.53-3.53V56.08a3.54,3.54,0,0,0-3.53-3.53Z" style="fill: #fff"/>
    <path d="M287,427.7H44.92a4.43,4.43,0,0,1-4.42-4.42V59.32a4.43,4.43,0,0,1,4.42-4.42H287a4.43,4.43,0,0,1,4.42,4.42V423.27A4.43,4.43,0,0,1,287,427.7ZM44.92,55.9a3.43,3.43,0,0,0-3.42,3.42V423.27a3.43,3.43,0,0,0,3.42,3.42H287a3.43,3.43,0,0,0,3.42-3.42V59.32A3.43,3.43,0,0,0,287,55.9Z" style="fill: #fff"/>
    <path d="M312.24,503.64H19.69A19.71,19.71,0,0,1,0,484V19.69A19.71,19.71,0,0,1,19.69,0H312.24a19.71,19.71,0,0,1,19.69,19.69V484A19.71,19.71,0,0,1,312.24,503.64ZM19.69,1A18.71,18.71,0,0,0,1,19.69V484a18.71,18.71,0,0,0,18.69,18.69H312.24A18.71,18.71,0,0,0,330.93,484V19.69A18.71,18.71,0,0,0,312.24,1Z" style="fill: #fff"/>
    <path d="M307.74,496.32H24.19a19.12,19.12,0,0,1-19.1-19.1V26.42a19.12,19.12,0,0,1,19.1-19.1H307.74a19.12,19.12,0,0,1,19.1,19.1v450.8A19.12,19.12,0,0,1,307.74,496.32ZM24.19,8.32a18.12,18.12,0,0,0-18.1,18.1v450.8a18.12,18.12,0,0,0,18.1,18.1H307.74a18.12,18.12,0,0,0,18.1-18.1V26.42a18.12,18.12,0,0,0-18.1-18.1Z" style="fill: #fff"/>
    <path d="M52.64,29.27a3.22,3.22,0,1,1,3.22-3.22A3.22,3.22,0,0,1,52.64,29.27Zm0-5.43a2.22,2.22,0,1,0,2.22,2.22A2.22,2.22,0,0,0,52.64,23.83Z" style="fill: #fff"/>
    <path d="M65.41,29.27a3.22,3.22,0,1,1,3.22-3.22A3.22,3.22,0,0,1,65.41,29.27Zm0-5.43a2.22,2.22,0,1,0,2.22,2.22A2.22,2.22,0,0,0,65.41,23.83Z" style="fill: #fff"/>
    <path d="M166,469.43a9.31,9.31,0,1,1,9.31-9.31A9.32,9.32,0,0,1,166,469.43Zm0-17.61a8.31,8.31,0,1,0,8.31,8.31A8.32,8.32,0,0,0,166,451.82Z" style="fill: #fff"/>
    <g>
      <path d="M92.92,105.65a23.9,23.9,0,0,0-.86,9.61c.25,2.83.18,5.66.31,8.5.18,4.19.37,8.37.62,12.62.12,3,.31,6,.43,8.93a23.5,23.5,0,0,0,.25,3.63c.37,2-.62,3.26-3.82,4.31-.37-1.66-.55-2-.62-2.4a5.25,5.25,0,0,1-.25-1.42c-.12-5-.12-10-.31-15-.12-3.14-.55-6.28-.74-9.42s-.55-6.34-.55-9.54a34.68,34.68,0,0,0-1.72-9.6c-1.17-3.94-2.77-7.82-4.19-11.7-.12-.31-.31-.62-.43-.92a6.29,6.29,0,0,1-.49-1.42,2.76,2.76,0,0,1,1.17-2.65c1.72-1,2.77.55,3.14,1.48,1.23,3.14,2.4,6.28,3.57,9.48q.46,1.2.92,2.59c.74-2.52,1.54-5,2.28-7.51.43-1.42.86-2.89,1.42-4.25a2.49,2.49,0,0,1,2.65-1.6,1.73,1.73,0,0,1,1.54,1.79A5.82,5.82,0,0,1,97,92.29C95.69,96.79,94.4,101.22,92.92,105.65Z" style="fill: #fff"/>
      <path d="M120.2,130.53c-.25,3.45-.43,6.83-.86,10.22a67.65,67.65,0,0,1-1.6,7.82,5.09,5.09,0,0,1-4,4.25,6,6,0,0,1-6-2.83,9.42,9.42,0,0,1-1.11-3c-.49-2.59-.92-5.23-1.66-9.05h.25c-.31-1.91-.68-3.76-.8-5.66-.25-4-.37-8.07-.37-12.07,0-3.75.12-7.57.43-11.33a59.4,59.4,0,0,1,1.17-7.27A39.86,39.86,0,0,1,107.39,95a22.5,22.5,0,0,1,2.89-5c1.23-1.72,5.17-1.23,6.34-.12a9.33,9.33,0,0,1,3.51,6.83c.12,2,.74,4.06.8,6.16.12,3.39,0,6.77,0,10.16,0,2,0,4.13-.06,6.22C120.69,123,120.45,126.77,120.2,130.53Zm-6-36.45a2.66,2.66,0,0,0-.43-.37,2.16,2.16,0,0,1-.43-.55c-.06-.12,0,.06-.18.18-1.66,1.54-2.28,3.69-2.71,6-.92,5.36-1.66,10.71-2.09,16.13-.31,4.56-.12,9.11-.12,13.61.74,4.86,1.42,9.67,2.15,14.47a11.57,11.57,0,0,0,1.17,3.82,2.77,2.77,0,0,0,1.54,1c-.06-.06-.06-.12-.12-.12.18-.25.31-.62.43-.8a8.64,8.64,0,0,0,.43-1.35,13.49,13.49,0,0,0,.43-1.48,38,38,0,0,0,1.29-8.8c.25-3,.31-6.09.68-9.11.37-3.51.18-7.08.25-10.65s.25-6.9.12-10.34c-.06-2.71-.68-5.42-.86-8.13A4.38,4.38,0,0,0,114.23,94.08Z" style="fill: #fff"/>
      <path d="M137.07,127.26c.25-4.62.49-8,.62-11.45.06-2.16-.12-4.37-.06-6.53.06-2.34.25-4.74.37-7.08.12-3.26.25-6.53.31-9.79.06-1.29.31-2.89,2.52-2.71s2.34,2,2.28,3.08c-.25,3.26-.37,6.46-.55,9.73-.25,4.8-.49,9.6-.68,14.35-.25,5.66-.43,11.33-.74,17-.12,2.28-.37,4.56-.68,6.9-.25,1.91-.43,3.82-.86,5.73a30.45,30.45,0,0,1-1.54,4.56c-1.11,2.52-5.48,2.28-6.77.37-1.79-2.71-2.09-5.66-2.46-8.74q-.83-6.19-1.11-12.38c-.12-3.76.25-7.57.37-11.33.06-3.32,0-6.65.06-9.91,0-1,.18-2.09.18-3.14.06-3.88.12-7.7.18-11.51,0-.43-.06-.86-.06-1.29a15,15,0,0,1,0-1.66v-.37a2.11,2.11,0,0,1,.12-.8,1.91,1.91,0,0,1,1.91-1.42c1.91,0,2.16,1.66,2.16,2.59,0,5.42-.12,10.84-.19,16.25,0,3,0,6-.06,9.05-.06,4.56-.43,9.17-.18,13.73.31,4.86.43,9.85,1.72,14.59.18.62.18,1.23.31,1.85.06.25.06.43.12.62.31-.92.55-1.79.86-2.71a20.92,20.92,0,0,0,.8-3.51c.55-4.31.8-8.68,1.17-13.05a5.31,5.31,0,0,0,.06-1Z" style="fill: #fff"/>
      <path d="M170.38,147.89c.92-.06,2-.19,2.83-.19,1.79,0,3.63.68,3.26,2.89-.31,1.91-7.08,2.46-9.11,2a2.39,2.39,0,0,1-2-2.71c.06-1.48.12-3,.12-4.49.12-7.08.25-14.22.43-21.37.06-3.94.31-7.94.31-11.94,0-4.43-.18-8.87-.31-13.3-.06-2.34-.18-4.68-.12-7,0-.74.18-2.59,2-2.89A1.94,1.94,0,0,1,170,90.26a3.59,3.59,0,0,1,.18,1.42c.12,5.73.19,11.45.25,17.18,0,4.49.12,9,0,13.48-.06,4.31-.43,8.56-.43,12.87,0,4.13.25,8.25.31,12.38,0,.06.06.12.06.18Z" style="fill: #fff"/>
      <path d="M199,130.53c-.25,3.45-.43,6.83-.86,10.22a67.65,67.65,0,0,1-1.6,7.82,5.09,5.09,0,0,1-4,4.25,6,6,0,0,1-6-2.83,9.42,9.42,0,0,1-1.11-3c-.49-2.59-.92-5.23-1.66-9.05h.25c-.31-1.91-.68-3.76-.8-5.66-.25-4-.37-8.07-.37-12.07,0-3.75.12-7.57.43-11.33a59.4,59.4,0,0,1,1.17-7.27A39.86,39.86,0,0,1,186.21,95a22.5,22.5,0,0,1,2.89-5c1.23-1.72,5.17-1.23,6.34-.12A9.33,9.33,0,0,1,199,96.66c.12,2,.74,4.06.8,6.16.12,3.39,0,6.77,0,10.16,0,2,0,4.13-.06,6.22C199.5,123,199.26,126.77,199,130.53Zm-6-36.45a2.66,2.66,0,0,0-.43-.37,2.16,2.16,0,0,1-.43-.55c-.06-.12,0,.06-.18.18-1.66,1.54-2.28,3.69-2.71,6-.92,5.36-1.66,10.71-2.09,16.13-.31,4.56-.12,9.11-.12,13.61.74,4.86,1.42,9.67,2.15,14.47a11.57,11.57,0,0,0,1.17,3.82,2.77,2.77,0,0,0,1.54,1c-.06-.06-.06-.12-.12-.12.18-.25.31-.62.43-.8a8.64,8.64,0,0,0,.43-1.35,13.49,13.49,0,0,0,.43-1.48,38,38,0,0,0,1.29-8.8c.25-3,.31-6.09.68-9.11.37-3.51.18-7.08.25-10.65s.25-6.9.12-10.34c-.06-2.71-.68-5.42-.86-8.13A4.38,4.38,0,0,0,193,94.08Z" style="fill: #fff"/>
      <path d="M222.66,130.53c-.25,3.45-.43,6.83-.86,10.22a67.65,67.65,0,0,1-1.6,7.82,5.09,5.09,0,0,1-4,4.25,6,6,0,0,1-6-2.83,9.42,9.42,0,0,1-1.11-3c-.49-2.59-.92-5.23-1.66-9.05h.25c-.31-1.91-.68-3.76-.8-5.66-.25-4-.37-8.07-.37-12.07,0-3.75.12-7.57.43-11.33a59.4,59.4,0,0,1,1.17-7.27A39.86,39.86,0,0,1,209.85,95a22.5,22.5,0,0,1,2.89-5c1.23-1.72,5.17-1.23,6.34-.12a9.33,9.33,0,0,1,3.51,6.83c.12,2,.74,4.06.8,6.16.12,3.39,0,6.77,0,10.16,0,2,0,4.13-.06,6.22C223.15,123,222.9,126.77,222.66,130.53Zm-6-36.45a2.66,2.66,0,0,0-.43-.37,2.16,2.16,0,0,1-.43-.55c-.06-.12,0,.06-.18.18-1.66,1.54-2.28,3.69-2.71,6-.92,5.36-1.66,10.71-2.09,16.13-.31,4.56-.12,9.11-.12,13.61.74,4.86,1.42,9.67,2.15,14.47A11.57,11.57,0,0,0,214,147.4a2.77,2.77,0,0,0,1.54,1c-.06-.06-.06-.12-.12-.12.18-.25.31-.62.43-.8a8.64,8.64,0,0,0,.43-1.35,13.49,13.49,0,0,0,.43-1.48,38,38,0,0,0,1.29-8.8c.25-3,.31-6.09.68-9.11.37-3.51.18-7.08.25-10.65s.25-6.9.12-10.34c-.06-2.71-.68-5.42-.86-8.13A4.38,4.38,0,0,0,216.68,94.08Z" style="fill: #fff"/>
      <path d="M235,111.81c.49-1.17,1.11-2.34,1.66-3.57,1.23-2.77,2.4-5.54,3.57-8.31,1.29-3.08,2.46-6.16,3.69-9.24a4.6,4.6,0,0,1,.62-1.23,2,2,0,0,1,2.4-.37A2.57,2.57,0,0,1,248,92.6c-1.23,2.83-2.15,5.79-3.39,8.62-2.22,4.93-4.56,9.73-6.77,14.65-.43.92-.86,1.85-1.23,2.77,0,.06.06.12.12.25.8,1.91,1.72,3.88,2.59,5.79a32.77,32.77,0,0,1,1.29,3.08c.74,2,1.42,4.06,2.09,6.1,1.23,3.94,2.46,7.88,3.63,11.82a13.87,13.87,0,0,1,.49,4.25,2.88,2.88,0,0,1-2.09,2.59c-1.6.37-2.46-1.29-2.65-2-.8-3.14-1.54-7.39-2.34-10.59-.37-1.35-.92-2.65-1.29-4.06a35.2,35.2,0,0,0-3.63-9.36c0,.62-.06,1.23-.06,1.79-.06,1.72-.06,3.45-.06,5.17.12,5.42.18,10.84.31,16.25a2.76,2.76,0,0,1-3,3.2,2.6,2.6,0,0,1-1.91-2.34c0-2.89.18-5.79.18-8.68.06-5.17,0-10.34.06-15.52,0-4.37.06-8.74.25-13.11.18-3.57.55-7.14.74-10.71.12-3.39.12-6.71.18-10.1a2,2,0,0,1-.18-.55A1.71,1.71,0,0,1,232,90a2,2,0,0,1,2-1c1.54.18,2.22,5.54,2.09,7.76-.31,4.92-.8,9.79-1,14.71Z" style="fill: #fff"/>
      <path d="M79.72,221.78c.92-.06,2-.19,2.83-.19,1.79,0,3.63.68,3.26,2.89-.31,1.91-7.08,2.46-9.11,2a2.39,2.39,0,0,1-2-2.71c.06-1.48.12-3,.12-4.49.12-7.08.25-14.22.43-21.37.06-3.94.31-7.94.31-11.94,0-4.43-.18-8.87-.31-13.3-.06-2.34-.18-4.68-.12-7,0-.74.18-2.59,2-2.89a1.94,1.94,0,0,1,2.15,1.42,3.59,3.59,0,0,1,.18,1.42c.12,5.73.19,11.45.25,17.18,0,4.49.12,9,0,13.48-.06,4.31-.43,8.56-.43,12.87,0,4.13.25,8.25.31,12.38,0,.06.06.12.06.18Z" style="fill: #fff"/>
      <path d="M94.86,171.17l2.83-3c-.31,6.53-.55,11.33-.68,16.19-.12,4.06-.06,8.13-.12,12.25-.06,3.63-.25,7.27-.31,10.9,0,1.6.18,3.2.25,4.86.06,3.94.18,7.88.12,11.88a2.79,2.79,0,0,1-2.34,2.46,2.44,2.44,0,0,1-2.4-2.77c.12-4.12.18-8.31.18-12.44,0-4.62-.06-9.24-.06-13.79,0-3.32,0-6.65.06-10,.12-3.82.43-7.57.49-11.33.06-3.57-.12-7.2-.25-10.77,0-1,.18-3,2.46-3a2.05,2.05,0,0,1,2,1.29,11.13,11.13,0,0,1,.18,1.42c.12,1.42.25,2.83.49,5.48Z" style="fill: #fff"/>
      <path d="M109.95,185.7c.49-1.17,1.11-2.34,1.66-3.57,1.23-2.77,2.4-5.54,3.57-8.31,1.29-3.08,2.46-6.16,3.69-9.24a4.62,4.62,0,0,1,.62-1.23,2,2,0,0,1,2.4-.37,2.57,2.57,0,0,1,1.11,3.51c-1.23,2.83-2.15,5.79-3.39,8.62-2.22,4.93-4.56,9.73-6.77,14.65-.43.92-.86,1.85-1.23,2.77,0,.06.06.12.12.25.8,1.91,1.72,3.88,2.59,5.79a32.64,32.64,0,0,1,1.29,3.08c.74,2,1.42,4.06,2.09,6.1,1.23,3.94,2.46,7.88,3.63,11.82a13.87,13.87,0,0,1,.49,4.25,2.88,2.88,0,0,1-2.09,2.59c-1.6.37-2.46-1.29-2.65-2-.8-3.14-1.54-7.39-2.34-10.59-.37-1.35-.92-2.65-1.29-4.06a35.2,35.2,0,0,0-3.63-9.36c0,.62-.06,1.23-.06,1.79-.06,1.72-.06,3.45-.06,5.17.12,5.42.18,10.84.31,16.25a2.76,2.76,0,0,1-3,3.2,2.6,2.6,0,0,1-1.91-2.34c0-2.89.18-5.79.18-8.68.06-5.17,0-10.34.06-15.52,0-4.37.06-8.74.25-13.11.18-3.57.55-7.14.74-10.71.12-3.39.12-6.71.18-10.1a2,2,0,0,1-.18-.55,1.71,1.71,0,0,1,.55-1.91,2,2,0,0,1,2-1c1.54.18,2.22,5.54,2.09,7.76-.31,4.92-.8,9.79-1,14.71Z" style="fill: #fff"/>
      <path d="M139.07,222.33a2.41,2.41,0,0,1,1.29,1,1.84,1.84,0,0,0,.25.49c0,.06.06.18.86,1.29-1.23.8-1.42,1-1.6,1.11a2.84,2.84,0,0,1-1.35.49,35,35,0,0,1-3.57-.31l-1-.18a10.35,10.35,0,0,1-1.85-.25,2.47,2.47,0,0,1-2.15-2.52c0-.49,0-1.11.06-2,.12-2.77.18-5.54.25-8.25s.25-5.6.25-8.37c.06-4.19-.06-8.37.06-12.56.06-4,.37-8.07.43-12.13.06-4.37-.06-8.74-.06-13.11,0-.31-.12-.68-.12-1a2.47,2.47,0,0,1,.37-1.72,4.62,4.62,0,0,1,2.89-1.54c2.22-.18,4.49-.06,6.71-.12.74,0,2.71.12,2.77,2.28a2.49,2.49,0,0,1-2.71,2.59h-5.6v14.1a27.78,27.78,0,0,0,3.26-.43,2.21,2.21,0,0,1,2.83,1.79,2.33,2.33,0,0,1-2.22,2.89c-1.35.06-2.71.18-4.06.18-.06,3.88-.18,7.76-.25,11.64-.12,6.16-.19,12.31-.31,18.47v5.36A18.58,18.58,0,0,1,139.07,222.33Z" style="fill: #fff"/>
      <path d="M167.7,167.1c-2.09-.06-3-.74-2.89-2.52.06-.55,1.85-1.66,4.37-1.72,1.79-.06,3.88,0,5.29,0s2.77,0,4.19-.12c1-.06,2.89.06,3,2.28.12,2.4-2.09,2.52-2.89,2.52-1-.06-2-.06-3-.12,0,5.73-.06,11.33,0,16.93,0,3.45.18,6.9.31,10.28.12,2.89.31,5.73.37,8.62.12,5.36.06,10.78.12,16.13,0,1.66.18,3.26.12,4.86a3,3,0,0,1-1.91,2.4,2.21,2.21,0,0,1-2.89-2.34c.06-2,.06-3.94.06-5.85.06-5.36.12-10.65.06-16-.06-4.56-.43-9.11-.62-13.67-.12-2.59-.25-5.23-.25-7.82,0-3.57.12-7.2.12-10.84a15.93,15.93,0,0,0-.31-2.89A27.32,27.32,0,0,0,167.7,167.1Z" style="fill: #fff"/>
      <path d="M201.38,226.09c-2,.37-2.59-1.79-2.59-2.71.06-3.51.12-7.08,0-10.65-.12-4-.49-8-.74-12a5.94,5.94,0,0,1,0-1c.06-.25-.12-.25-.43-.25-1.72.06-3.45.18-5.23.31v2.15c.12,3.51.25,7,.31,10.53.06,2.28-.06,4.56,0,6.77,0,1.6.25,3.2.25,4.8a3.09,3.09,0,0,1-.86,2.22,2.49,2.49,0,0,1-2.77.25,3,3,0,0,1-1.11-2.28c0-2.71.18-5.42.18-8.13-.06-5.48-.25-11-.12-16.44.12-6,.62-12.07.92-18.1.06-2-.06-3.88-.06-5.85-.06-3.14-.06-7.26-.06-10.41a2.49,2.49,0,0,1,1.72-2.22,2.34,2.34,0,0,1,2.34,1.23,4,4,0,0,1,.43,2c-.06,2.89-.12,6.77-.25,9.67-.12,4.74-.25,9.42-.43,14.16-.06,1.54-.12,3.14-.18,4.74h5.36v-2.34c0-3.76,0-7.51-.06-11.33,0-3-.06-6-.12-9-.06-2.22-.25-4.5-.25-6.71,0-.92.12-2.65,2.22-2.77a2.28,2.28,0,0,1,2.46,2.59c0,2.09-.06,4.25-.06,6.34,0,2.83.06,5.67.06,8.5-.06,3.51-.31,7-.25,10.53.19,6.59.55,13.24.8,19.83.19,3.76.43,7.51.62,11.27,0,.06,0,.06.06.12a2.71,2.71,0,0,1,0,1.85C203.23,224.55,202.43,225.9,201.38,226.09Z" style="fill: #fff"/>
      <path d="M229.58,226.09c-.25.18-.49.31-1.72,1.17-.8-1.23-1-1.42-1.11-1.6a2.08,2.08,0,0,1-.55-1.23c-.19-2-.25-4.06-.49-6.1-.37-3.69-.86-7.39-1.35-11,0-.06-.12-.06-.19-.12a18.16,18.16,0,0,0-8.5-.49c-.06,1-.19,2-.25,3.08-.12,3.14-.25,6.22-.31,9.36-.06,1.54,0,3.08-.06,4.68-.06,1.35-.86,3.14-4.25,2.34,0-2.71-.06-4.43,0-6.16.12-4.19.25-8.43.55-12.62.25-3.2.74-6.34,1.11-9.54.49-4.12.86-8.19,1.35-12.31.49-3.76,1.11-7.51,1.66-11.27.19-1.48.25-3,.43-4.56a40.35,40.35,0,0,1,.92-4.74,2.62,2.62,0,0,1,1-1.23c.25-.18.55-.43,2.09-1.72.92,1.85,1.17,2.28,1.42,2.71a4.14,4.14,0,0,1,.62,1.6c.68,3.51,1.17,7,1.66,10.53s.74,6.9,1.29,10.34c.62,3.82,1.48,7.57,2.15,11.39.74,4.25,1.48,8.56,2.09,12.81.43,3,.74,5.85,1.11,8.74.18,1.17.37,2.28.55,3.39,0,.18.06.43.06.68a1.59,1.59,0,0,1-.49,1.23A2.6,2.6,0,0,1,229.58,226.09ZM216,202.32l7.63.37c-2.09-8.93-2.65-18.1-4.25-27.09Z" style="fill: #fff"/>
      <path d="M240.24,167.1c-2.09-.06-3-.74-2.89-2.52.06-.55,1.85-1.66,4.37-1.72,1.79-.06,3.88,0,5.29,0s2.77,0,4.19-.12c1-.06,2.89.06,3,2.28.12,2.4-2.09,2.52-2.89,2.52-1-.06-2-.06-3-.12,0,5.73-.06,11.33,0,16.93,0,3.45.18,6.9.31,10.28.12,2.89.31,5.73.37,8.62.12,5.36.06,10.78.12,16.13,0,1.66.18,3.26.12,4.86a3,3,0,0,1-1.91,2.4,2.21,2.21,0,0,1-2.89-2.34c.06-2,.06-3.94.06-5.85.06-5.36.12-10.65.06-16-.06-4.56-.43-9.11-.62-13.67-.12-2.59-.25-5.23-.25-7.82,0-3.57.12-7.2.12-10.84a15.93,15.93,0,0,0-.31-2.89A27.32,27.32,0,0,0,240.24,167.1Z" style="fill: #fff"/>
      <path d="M142.77,294.93a10.2,10.2,0,0,1-1.48,3.57c-2,3.14-6.22,2.65-8.44-.18a8,8,0,0,1-1.42-3.26c-.43-1.79-.49-3.63-1-5.42-1-3.26-1-6.65-1.23-10a100.86,100.86,0,0,1,.19-12.19c.12-3.82.37-7.63.8-11.45A109.6,109.6,0,0,1,132,245a41.06,41.06,0,0,1,1.91-5.48c1-2.77,5.91-3.88,8.13-1.91,1.35.74,4.62,3.82,3.88,5.54a1.85,1.85,0,0,1-1.17,1,2.56,2.56,0,0,1-2.59-.62l-.62-.62-.18-.18a3.56,3.56,0,0,1-.86-.49c-.18-.12-.31-.25-.49-.37-1.42-.86-2-.68-2.46,1-.92,3.51-1.72,7-2.4,10.53a68.53,68.53,0,0,0-.8,7.14c-.31,3.2-.62,6.4-.74,9.6-.12,2.4.25,4.74.12,7.14a61.16,61.16,0,0,0,1.35,13.36,18.35,18.35,0,0,0,1.6,4.68c.12.25.43.62.55.62s.43-.12.55-.62c.92-4.12,2-8.25,2.77-12.37.49-2.83.55-5.73.8-8.74a12.79,12.79,0,0,1-2.71-.18c-.8-.12-2.77-1.29-2.71-2.22a2.72,2.72,0,0,1,3.2-2.71c1.6.25,3.14.18,4.68.49a3.12,3.12,0,0,1,2.22,2.71c-.25,3.57-.55,7.2-1,10.71C144.37,287,143.57,291,142.77,294.93Z" style="fill: #fff"/>
      <path d="M155,245.06l2.83-3c-.31,6.53-.55,11.33-.68,16.19-.12,4.06-.06,8.13-.12,12.25-.06,3.63-.25,7.27-.31,10.9,0,1.6.18,3.2.25,4.86.06,3.94.18,7.88.12,11.88a2.79,2.79,0,0,1-2.34,2.46,2.44,2.44,0,0,1-2.4-2.77c.12-4.12.18-8.31.18-12.44,0-4.62-.06-9.24-.06-13.79,0-3.32,0-6.65.06-10,.12-3.82.43-7.57.49-11.33.06-3.57-.12-7.2-.25-10.77,0-1,.18-3,2.46-3a2.05,2.05,0,0,1,2,1.29,11.13,11.13,0,0,1,.18,1.42c.12,1.42.25,2.83.49,5.48Z" style="fill: #fff"/>
      <path d="M177.86,298.38a57,57,0,0,0-1.11-6.34c-1-3.94-2.16-7.88-3.2-11.76-1.17-4.12-2.28-8.19-3.45-12.25-.12-.37-.25-.74-.37-1v4.62c0,2.77,0,5.54.06,8.31,0,1.23.25,2.46.25,3.69,0,1.91-.25,3.82-.18,5.79.06,2.77.31,5.48.55,8.25a3,3,0,0,1,.06.74,2.24,2.24,0,0,1-.12.86,2,2,0,0,1-2,1.29,2.46,2.46,0,0,1-2.65-2.77c.06-3.26-.06-6.53-.19-9.85-.06-3-.18-5.85-.18-8.8,0-3.76.18-7.45.18-11.21s-.25-7.26-.18-10.9c0-2.28.43-4.49.55-6.71.12-3.69.12-7.39.25-11.14a2.38,2.38,0,0,1,.31-1.11c.06-.25.18-.43.74-1.85,1.66.74,2.09,1,2.52,1.17l1.11.74c1.29,1,2.65,2.09,4,3.14a6.11,6.11,0,0,1,1.91,2.71,19.66,19.66,0,0,1,.8,2.71c1.23,5-1.11,8.8-3.88,11.94a3,3,0,0,1-.74.62l-.49.25c.43,1.54.92,3.08,1.35,4.56,1.11,4,2.34,8,3.45,12s1.91,7.82,2.89,11.7c.74,3,1.48,5.85,2.22,8.74a10,10,0,0,1,.18,1.23c.19.8.37,2.71-1.79,3A2.4,2.4,0,0,1,177.86,298.38Zm-7.94-42.85c1.54-1.23,3.14-3.63,3.26-5.29.31-3.51-.92-5.54-2.77-7Z" style="fill: #fff"/>
      <path d="M193.87,295.67c.92-.06,2-.19,2.83-.19,1.79,0,3.63.68,3.26,2.89-.31,1.91-7.08,2.46-9.11,2a2.39,2.39,0,0,1-2-2.71c.06-1.48.12-3,.12-4.49.12-7.08.25-14.22.43-21.37.06-3.94.31-7.94.31-11.94,0-4.43-.18-8.87-.31-13.3-.06-2.34-.18-4.68-.12-7,0-.74.18-2.59,2-2.89A1.94,1.94,0,0,1,193.5,238a3.59,3.59,0,0,1,.18,1.42c.12,5.73.19,11.45.25,17.18,0,4.49.12,9,0,13.48-.06,4.31-.43,8.56-.43,12.87,0,4.13.25,8.25.31,12.38,0,.06.06.12.06.18Z" style="fill: #fff"/>
    </g>
    <g>
      <path d="M102,391.49c.6,0,1.27-.12,1.83-.12,1.15,0,2.35.44,2.11,1.87-.2,1.23-4.58,1.59-5.89,1.27a1.55,1.55,0,0,1-1.27-1.75c0-1,.08-1.91.08-2.91.08-4.58.16-9.2.28-13.81,0-2.55.2-5.13.2-7.72,0-2.87-.12-5.73-.2-8.6,0-1.51-.12-3-.08-4.54a1.72,1.72,0,0,1,1.31-1.87,1.25,1.25,0,0,1,1.39.92,2.32,2.32,0,0,1,.12.92c.08,3.7.12,7.41.16,11.11,0,2.91.08,5.81,0,8.72s-.28,5.53-.28,8.32.16,5.33.2,8c0,0,0,.08,0,.12Z" style="fill: #fff"/>
      <path d="M111.76,358.76l1.83-1.91c-.2,4.22-.36,7.33-.44,10.47-.08,2.63,0,5.25-.08,7.92,0,2.35-.16,4.7-.2,7,0,1,.12,2.07.16,3.14,0,2.55.12,5.1.08,7.68a1.8,1.8,0,0,1-1.51,1.59,1.57,1.57,0,0,1-1.55-1.79c.08-2.67.12-5.37.12-8,0-3,0-6,0-8.92,0-2.15,0-4.3,0-6.45.08-2.47.28-4.9.32-7.33s-.08-4.66-.16-7c0-.64.12-1.91,1.59-1.91a1.33,1.33,0,0,1,1.31.84,7.17,7.17,0,0,1,.12.92c.08.92.16,1.83.32,3.54Z" style="fill: #fff"/>
      <path d="M127.52,392.6c-.92,1.19-2.35,2.55-4.54,2a5.4,5.4,0,0,1-1.63-1,7,7,0,0,1-2.47-4.3c-.2-.8-.24-1.63-.44-2.43a1.44,1.44,0,1,1,2.83-.52c.16,1,.24,2,.48,2.91a3.86,3.86,0,0,0,2,2.55c.32.16.76.12,1.35-.64a8.29,8.29,0,0,0,1.51-4.86,33.71,33.71,0,0,0-.44-9,8.31,8.31,0,0,0-.6-1.75c-.28-.64-.6-1.27-.84-1.91a20.16,20.16,0,0,0-3.07-4.46,15.63,15.63,0,0,1-3-5.61,2.75,2.75,0,0,1,0-1.27,10.84,10.84,0,0,0,.2-1.11c.24-1.55.4-3.18.76-4.7a5.31,5.31,0,0,1,1.55-2.79,3.34,3.34,0,0,1,3.07,0,4.56,4.56,0,0,1,2.59,4.14,1.45,1.45,0,0,0,.12.44,5.34,5.34,0,0,1,.2.76,3,3,0,0,1,0,1.19c-.2.84-1.51.92-1.91.48a3.27,3.27,0,0,1-.48-1c-.24-.56-.4-1.12-.6-1.67a8.16,8.16,0,0,0-.6-1.47c-.28-.52-.52-.48-.92.08a3.52,3.52,0,0,0-.72,1.67c-.12.64-.12,1.31-.24,2q-.18,1.31-.24,2.63a3.76,3.76,0,0,0,.88,2.47c.2.28.4.6.6.88.76,1.12,1.59,2.15,2.35,3.22a24.78,24.78,0,0,1,2.23,3.58,21.84,21.84,0,0,1,1.87,10.63c-.08,1.23,0,2.51-.08,3.7A9.86,9.86,0,0,1,127.52,392.6Z" style="fill: #fff"/>
      <path d="M145.79,394.28c-.16.12-.32.2-1.11.76-.52-.8-.64-.92-.72-1a1.35,1.35,0,0,1-.36-.8c-.12-1.31-.16-2.63-.32-3.94-.24-2.39-.56-4.78-.88-7.13,0,0-.08,0-.12-.08a11.74,11.74,0,0,0-5.49-.32c0,.64-.12,1.31-.16,2-.08,2-.16,4-.2,6.05,0,1,0,2,0,3,0,.88-.56,2-2.75,1.51,0-1.75,0-2.87,0-4,.08-2.71.16-5.45.36-8.16.16-2.07.48-4.1.72-6.17.32-2.67.56-5.29.88-8,.32-2.43.72-4.86,1.08-7.29.12-1,.16-2,.28-2.95a26.22,26.22,0,0,1,.6-3.07,1.7,1.7,0,0,1,.64-.8c.16-.12.36-.28,1.35-1.11.6,1.19.76,1.47.92,1.75a2.68,2.68,0,0,1,.4,1c.44,2.27.76,4.54,1.07,6.81s.48,4.46.84,6.69c.4,2.47,1,4.9,1.39,7.37.48,2.75,1,5.53,1.35,8.28.28,1.91.48,3.78.72,5.65.12.76.24,1.47.36,2.19,0,.12,0,.28,0,.44a1,1,0,0,1-.32.8A1.7,1.7,0,0,1,145.79,394.28ZM137,378.91l4.94.24c-1.35-5.77-1.71-11.7-2.75-17.52Z" style="fill: #fff"/>
      <path d="M165.09,390.33c0-1.23.2-2.47.24-3.7.12-3.54.16-7.09.24-10.63,0-2.79.08-5.61.08-8.4,0-3.34,0-6.69.08-10,0-.08,0-.12,0-.2a5.66,5.66,0,0,0,0-.88.29.29,0,0,0,0-.2s0,0-.08,0a5.75,5.75,0,0,0-.92,0c-.8,0-2.23-.68-2-1.75s1.27-1.27,2.51-1.23,2.31,0,3.5,0a4.73,4.73,0,0,1,1.67.32,1.52,1.52,0,0,1-.2,2.95,2.57,2.57,0,0,1-.56,0c-.08,0-.2,0-.28,0a5.31,5.31,0,0,1-.8,0l0,1.79,0,1.16c0,1.35,0,2.67,0,4.06a24,24,0,0,1-.2,2.43c0,.64,0,1.27,0,1.87v3.74c0,1.23.12,2.47.12,3.7,0,2.47-.12,5-.16,7.44,0,2.15-.08,4.3-.16,6.45a8.28,8.28,0,0,1-.44,2.95,4.11,4.11,0,0,1-2.95,2.51,2.47,2.47,0,0,1-2.91-2.11,29.37,29.37,0,0,1-.6-3.82c-.2-2.11-.36-4.22-.48-6.37a2,2,0,0,1,1.19-1.79c1.31-.48,1.75.76,1.79,1.51.12,1.39.12,2.79.28,4.18.16,1.71.4,3.38.68,5.1A1.24,1.24,0,0,0,165.09,390.33Z" style="fill: #fff"/>
      <path d="M187.86,394.28c-.16.12-.32.2-1.11.76-.52-.8-.64-.92-.72-1a1.35,1.35,0,0,1-.36-.8c-.12-1.31-.16-2.63-.32-3.94-.24-2.39-.56-4.78-.88-7.13,0,0-.08,0-.12-.08a11.74,11.74,0,0,0-5.49-.32c0,.64-.12,1.31-.16,2-.08,2-.16,4-.2,6.05,0,1,0,2,0,3,0,.88-.56,2-2.75,1.51,0-1.75,0-2.87,0-4,.08-2.71.16-5.45.36-8.16.16-2.07.48-4.1.72-6.17.32-2.67.56-5.29.88-8,.32-2.43.72-4.86,1.08-7.29.12-1,.16-2,.28-2.95a26.22,26.22,0,0,1,.6-3.07,1.7,1.7,0,0,1,.64-.8c.16-.12.36-.28,1.35-1.11.6,1.19.76,1.47.92,1.75a2.68,2.68,0,0,1,.4,1c.44,2.27.76,4.54,1.07,6.81s.48,4.46.84,6.69c.4,2.47,1,4.9,1.39,7.37.48,2.75,1,5.53,1.35,8.28.28,1.91.48,3.78.72,5.65.12.76.24,1.47.36,2.19,0,.12,0,.28,0,.44a1,1,0,0,1-.32.8A1.7,1.7,0,0,1,187.86,394.28Zm-8.8-15.37,4.94.24c-1.35-5.77-1.71-11.7-2.75-17.52Z" style="fill: #fff"/>
      <path d="M196,368.16c.32-.76.72-1.51,1.07-2.31.8-1.79,1.55-3.58,2.31-5.37.84-2,1.59-4,2.39-6a3,3,0,0,1,.4-.8,1.26,1.26,0,0,1,1.55-.24,1.66,1.66,0,0,1,.72,2.27c-.8,1.83-1.39,3.74-2.19,5.57-1.43,3.18-2.95,6.29-4.38,9.47-.28.6-.56,1.19-.8,1.79,0,0,0,.08.08.16.52,1.23,1.11,2.51,1.67,3.74a21.31,21.31,0,0,1,.84,2c.48,1.31.92,2.63,1.35,3.94.8,2.55,1.59,5.1,2.35,7.64a9,9,0,0,1,.32,2.75,1.86,1.86,0,0,1-1.35,1.67c-1,.24-1.59-.84-1.71-1.31-.52-2-1-4.78-1.51-6.85-.24-.88-.6-1.71-.84-2.63a22.75,22.75,0,0,0-2.35-6.05c0,.4,0,.8,0,1.15,0,1.12,0,2.23,0,3.34.08,3.5.12,7,.2,10.51a1.79,1.79,0,0,1-1.91,2.07,1.68,1.68,0,0,1-1.23-1.51c0-1.87.12-3.74.12-5.61,0-3.34,0-6.69,0-10,0-2.83,0-5.65.16-8.48.12-2.31.36-4.62.48-6.93s.08-4.34.12-6.53a1.27,1.27,0,0,1-.12-.36A1.11,1.11,0,0,1,194,354a1.27,1.27,0,0,1,1.31-.68c1,.12,1.43,3.58,1.35,5-.2,3.19-.52,6.33-.68,9.51Z" style="fill: #fff"/>
      <path d="M214.93,378.15c.16-3,.32-5.18.4-7.4,0-1.39-.08-2.83,0-4.22s.16-3.07.24-4.58c.08-2.11.16-4.22.2-6.33,0-.84.2-1.87,1.63-1.75s1.51,1.27,1.47,2c-.16,2.11-.24,4.18-.36,6.29-.16,3.11-.32,6.21-.44,9.28-.16,3.66-.28,7.32-.48,11-.08,1.47-.24,2.95-.44,4.46-.16,1.23-.28,2.47-.56,3.7a19.72,19.72,0,0,1-1,2.95c-.72,1.63-3.54,1.47-4.38.24a12.33,12.33,0,0,1-1.59-5.65q-.54-4-.72-8c-.08-2.43.16-4.9.24-7.32,0-2.15,0-4.3,0-6.41,0-.68.12-1.35.12-2,0-2.51.08-5,.12-7.44,0-.28,0-.56,0-.84a9.63,9.63,0,0,1,0-1.08v-.24a1.36,1.36,0,0,1,.08-.52,1.23,1.23,0,0,1,1.23-.92c1.23,0,1.39,1.08,1.39,1.67,0,3.5-.08,7-.12,10.51,0,2,0,3.9,0,5.85,0,2.95-.28,5.93-.12,8.88a47,47,0,0,0,1.11,9.43c.12.4.12.8.2,1.19,0,.16,0,.28.08.4.2-.6.36-1.15.56-1.75a13.51,13.51,0,0,0,.52-2.27c.36-2.79.52-5.61.76-8.44a3.4,3.4,0,0,0,0-.64Z" style="fill: #fff"/>
      <path d="M228,393.44a5.16,5.16,0,0,1-2.43,1.19c-1.43.4-2-.72-2-1.75.08-2.15.16-4.34.2-6.53,0-2-.12-4.1-.08-6.13,0-1.75.16-3.54.2-5.29,0-.64-.12-1.31-.12-2,0-3.82-.2-7.6,0-11.39a54,54,0,0,0-.44-6.73,1.53,1.53,0,0,1,1.23-1.51,5.08,5.08,0,0,1,5,3.07c.24.52.52,1,.76,1.43a6.76,6.76,0,0,1,.72,1.63c.76,2.71,1.43,5.33.88,8.28a8.15,8.15,0,0,1-3.15,4.9,5.18,5.18,0,0,0,1,.68,4.17,4.17,0,0,1,2,2,20.65,20.65,0,0,1,.8,2.19,9.74,9.74,0,0,1,.6,3,24.64,24.64,0,0,1-.28,4.54C232.16,388.54,230.13,391.17,228,393.44Zm-1.55-22.65.08,0a5.14,5.14,0,0,0,2.83-5.26,10.9,10.9,0,0,0-.32-2c-.16-.72-.36-1.43-.48-2.15a8.56,8.56,0,0,0-2.11-4.34Zm0,3.9v16a8.08,8.08,0,0,0,2.19-2.59c.24-.56.56-1.12.84-1.71a6.65,6.65,0,0,0,.6-1.51,12.9,12.9,0,0,0-.52-6.93A4.84,4.84,0,0,0,226.43,374.69Z" style="fill: #fff"/>
    </g>
  </g>
</svg>
