<svg id="Layer_2" data-name="Layer 2" xmlns="http://www.w3.org/2000/svg" width="331.93" height="503.64" viewBox="0 0 331.93 503.64">
  <title>newbookArtboard 4</title>
  <g>
    <path d="M290.93,431.9H41a4.54,4.54,0,0,1-4.53-4.53V56.08A4.54,4.54,0,0,1,41,51.55H290.93a4.54,4.54,0,0,1,4.53,4.53V427.37A4.54,4.54,0,0,1,290.93,431.9ZM41,52.55a3.54,3.54,0,0,0-3.53,3.53V427.37A3.54,3.54,0,0,0,41,430.9H290.93a3.54,3.54,0,0,0,3.53-3.53V56.08a3.54,3.54,0,0,0-3.53-3.53Z" style="fill: #fff"/>
    <path d="M287,427.7H44.92a4.43,4.43,0,0,1-4.42-4.42V59.32a4.43,4.43,0,0,1,4.42-4.42H287a4.43,4.43,0,0,1,4.42,4.42V423.27A4.43,4.43,0,0,1,287,427.7ZM44.92,55.9a3.43,3.43,0,0,0-3.42,3.42V423.27a3.43,3.43,0,0,0,3.42,3.42H287a3.43,3.43,0,0,0,3.42-3.42V59.32A3.43,3.43,0,0,0,287,55.9Z" style="fill: #fff"/>
    <path d="M312.24,503.64H19.69A19.71,19.71,0,0,1,0,484V19.69A19.71,19.71,0,0,1,19.69,0H312.24a19.71,19.71,0,0,1,19.69,19.69V484A19.71,19.71,0,0,1,312.24,503.64ZM19.69,1A18.71,18.71,0,0,0,1,19.69V484a18.71,18.71,0,0,0,18.69,18.69H312.24A18.71,18.71,0,0,0,330.93,484V19.69A18.71,18.71,0,0,0,312.24,1Z" style="fill: #fff"/>
    <path d="M307.74,496.32H24.19a19.12,19.12,0,0,1-19.1-19.1V26.42a19.12,19.12,0,0,1,19.1-19.1H307.74a19.12,19.12,0,0,1,19.1,19.1v450.8A19.12,19.12,0,0,1,307.74,496.32ZM24.19,8.32a18.12,18.12,0,0,0-18.1,18.1v450.8a18.12,18.12,0,0,0,18.1,18.1H307.74a18.12,18.12,0,0,0,18.1-18.1V26.42a18.12,18.12,0,0,0-18.1-18.1Z" style="fill: #fff"/>
    <path d="M52.64,29.27a3.22,3.22,0,1,1,3.22-3.22A3.22,3.22,0,0,1,52.64,29.27Zm0-5.43a2.22,2.22,0,1,0,2.22,2.22A2.22,2.22,0,0,0,52.64,23.83Z" style="fill: #fff"/>
    <path d="M65.41,29.27a3.22,3.22,0,1,1,3.22-3.22A3.22,3.22,0,0,1,65.41,29.27Zm0-5.43a2.22,2.22,0,1,0,2.22,2.22A2.22,2.22,0,0,0,65.41,23.83Z" style="fill: #fff"/>
    <path d="M166,469.43a9.31,9.31,0,1,1,9.31-9.31A9.32,9.32,0,0,1,166,469.43Zm0-17.61a8.31,8.31,0,1,0,8.31,8.31A8.32,8.32,0,0,0,166,451.82Z" style="fill: #fff"/>
    <g>
      <path d="M87.48,81.86c-1.79-.05-2.58-.63-2.48-2.16.05-.47,1.58-1.42,3.74-1.47,1.53-.05,3.32,0,4.53,0s2.37,0,3.58-.11c.84-.05,2.48.05,2.53,1.95.11,2.05-1.79,2.16-2.48,2.16-.9-.05-1.74-.05-2.58-.11,0,4.9-.05,9.69,0,14.49,0,3,.16,5.9.26,8.8.11,2.48.26,4.9.32,7.37.11,4.58.05,9.22.11,13.8,0,1.42.16,2.79.1,4.16a2.54,2.54,0,0,1-1.63,2.05,1.89,1.89,0,0,1-2.48-2c.05-1.69.05-3.37.05-5,.05-4.58.11-9.11.05-13.7-.05-3.9-.37-7.8-.53-11.69-.1-2.21-.21-4.48-.21-6.69,0-3.06.11-6.16.11-9.27A13.64,13.64,0,0,0,90.21,82,23.33,23.33,0,0,0,87.48,81.86Z" style="fill: #fff"/>
      <path d="M116.29,132.33c-1.74.32-2.21-1.53-2.21-2.32.05-3,.11-6.06,0-9.11-.11-3.42-.42-6.85-.63-10.27a5.08,5.08,0,0,1,0-.9c.05-.21-.11-.21-.37-.21-1.47.05-2.95.16-4.48.26v1.84c.11,3,.21,6,.26,9,.05,1.95-.05,3.9,0,5.79,0,1.37.21,2.74.21,4.11a2.65,2.65,0,0,1-.74,1.9,2.13,2.13,0,0,1-2.37.21,2.58,2.58,0,0,1-.95-1.95c0-2.32.16-4.64.16-7-.05-4.69-.21-9.38-.11-14.06.11-5.16.53-10.32.79-15.49.05-1.69-.05-3.32-.05-5-.05-2.69-.05-6.21-.05-8.9a2.13,2.13,0,0,1,1.47-1.9,2,2,0,0,1,2,1.05,3.43,3.43,0,0,1,.37,1.74c-.05,2.48-.11,5.79-.21,8.27-.11,4.06-.21,8.06-.37,12.11-.05,1.32-.11,2.69-.16,4.06h4.58v-2c0-3.21,0-6.43-.05-9.69,0-2.58-.05-5.16-.11-7.69-.05-1.9-.21-3.85-.21-5.74,0-.79.11-2.26,1.9-2.37a2,2,0,0,1,2.11,2.21c0,1.79-.05,3.63-.05,5.42,0,2.42.05,4.85.05,7.27-.05,3-.26,6-.21,9,.16,5.64.47,11.32.69,17,.16,3.21.37,6.43.53,9.64,0,.05,0,.05.05.11a2.32,2.32,0,0,1,0,1.58C117.87,131,117.18,132.17,116.29,132.33Z" style="fill: #fff"/>
      <path d="M132.2,129.11a2.06,2.06,0,0,1,1.11.9,1.57,1.57,0,0,0,.21.42c0,.05.05.16.74,1.11-1.05.68-1.21.84-1.37.95a2.42,2.42,0,0,1-1.16.42,30.13,30.13,0,0,1-3.06-.26l-.9-.16a8.84,8.84,0,0,1-1.58-.21,2.11,2.11,0,0,1-1.84-2.16c0-.42,0-.95.05-1.69.11-2.37.16-4.74.21-7.06s.21-4.79.21-7.16c.05-3.58-.05-7.16.05-10.75.05-3.42.32-6.9.37-10.38.05-3.74-.05-7.48-.05-11.22,0-.26-.11-.58-.11-.84a2.11,2.11,0,0,1,.32-1.47,4,4,0,0,1,2.48-1.32c1.9-.16,3.85-.05,5.74-.11A2.05,2.05,0,0,1,136,80.07a2.13,2.13,0,0,1-2.32,2.21h-4.79V94.35a23.74,23.74,0,0,0,2.79-.37,1.89,1.89,0,0,1,2.42,1.53A2,2,0,0,1,132.2,98c-1.16.05-2.32.16-3.48.16-.05,3.32-.16,6.64-.21,10-.11,5.27-.16,10.53-.26,15.8v4.58A15.87,15.87,0,0,1,132.2,129.11Z" style="fill: #fff"/>
      <path d="M164.75,82a14.78,14.78,0,0,1,.69-2.16c.26-.63,1.47-1.69,2.16-1.47a3.26,3.26,0,0,1,1.95,1.58,7.67,7.67,0,0,1,.42,2.79c.05,2.05-.11,4.11-.05,6.16.11,4,.26,7.85.47,11.75.16,3.42.37,6.9.58,10.32.21,2.9.58,5.85.68,8.8.16,3.27.11,6.53.11,9.8v.53a2.05,2.05,0,0,1-1.69,2.84,2.12,2.12,0,0,1-2.27-2.42,35.92,35.92,0,0,0,.26-4.11c-.05-3.37-.26-6.69-.42-10.06-.05-1-.16-2-.21-3.05a32.93,32.93,0,0,1-.05-4,21.36,21.36,0,0,0-.21-3.69c-.11-1.42-.32-2.84-.42-4.27-.21-2.48-.37-5-.53-7.43-.05-1.21-.11-2.48-.11-3.69l-.21.68c-.53,1.79-.79,3.69-1.21,5.53a2.68,2.68,0,0,1-2.37,2.26c-1.95.16-2.32-1.47-2.48-2.21-.32-1.69-.63-3.37-1.05-5.06a5.64,5.64,0,0,0-.37-1,3.23,3.23,0,0,0-.26-.63c.05,2.32.11,4.64.11,7,.05,4.85-.05,9.69,0,14.59,0,3.32.05,6.69.16,10,.1,2.63.47,5.27.53,7.85a2.59,2.59,0,0,1-1.74,2.26c-1.9.58-2.37-1.32-2.37-2,0-3.79-.11-7.53-.16-11.27-.05-2.58-.16-5.16-.16-7.69,0-3.21.1-6.37.1-9.53-.05-4.21-.21-8.43-.26-12.64-.05-1.79.05-3.58.05-5.37,0-.32-.11-.69-.11-1a5.57,5.57,0,0,1-.1-1.37c.05-.53.37-1.84,1.32-2.21a2.06,2.06,0,0,1,3,1.16c.9,2.63,1.84,5.21,2.79,7.85.32.95.63,1.95.9,2.9Z" style="fill: #fff"/>
      <path d="M194,132.33c-.21.16-.42.26-1.47,1-.69-1.05-.84-1.21-.95-1.37a1.78,1.78,0,0,1-.47-1.05c-.16-1.74-.21-3.48-.42-5.21-.32-3.16-.74-6.32-1.16-9.43,0-.05-.11-.05-.16-.11a15.52,15.52,0,0,0-7.27-.42c-.05.84-.16,1.74-.21,2.63-.11,2.69-.21,5.32-.26,8-.05,1.32,0,2.63-.05,4-.05,1.16-.74,2.69-3.63,2,0-2.32-.05-3.79,0-5.27.1-3.58.21-7.22.47-10.8.21-2.74.63-5.43.95-8.16.42-3.53.74-7,1.16-10.54.42-3.21.95-6.43,1.42-9.64.16-1.26.21-2.58.37-3.9a34.54,34.54,0,0,1,.79-4.06A2.25,2.25,0,0,1,184,79c.21-.16.47-.37,1.79-1.47.79,1.58,1,1.95,1.21,2.32a3.54,3.54,0,0,1,.53,1.37c.58,3,1,6,1.42,9s.63,5.9,1.11,8.85c.53,3.27,1.26,6.48,1.84,9.75.63,3.63,1.26,7.32,1.79,11,.37,2.53.63,5,.95,7.48.16,1,.32,1.95.47,2.9,0,.16.05.37.05.58a1.36,1.36,0,0,1-.42,1.05A2.24,2.24,0,0,1,194,132.33ZM182.4,112l6.53.32c-1.79-7.64-2.27-15.49-3.63-23.18Z" style="fill: #fff"/>
      <path d="M212.37,128a8.73,8.73,0,0,1-1.26,3.05c-1.74,2.69-5.32,2.27-7.22-.16a6.85,6.85,0,0,1-1.21-2.79c-.37-1.53-.42-3.11-.84-4.64-.84-2.79-.84-5.69-1.05-8.58a86.32,86.32,0,0,1,.16-10.43c.11-3.27.32-6.53.68-9.8a93.79,93.79,0,0,1,1.53-9.38,35.17,35.17,0,0,1,1.63-4.69c.84-2.37,5.06-3.32,7-1.63,1.16.63,4,3.27,3.32,4.74a1.58,1.58,0,0,1-1,.84,2.19,2.19,0,0,1-2.21-.53l-.53-.53-.16-.16a3.07,3.07,0,0,1-.74-.42c-.16-.11-.26-.21-.42-.32-1.21-.74-1.74-.58-2.11.84-.79,3-1.47,6-2.05,9a58.52,58.52,0,0,0-.68,6.11c-.26,2.74-.53,5.48-.63,8.22-.1,2.05.21,4.06.11,6.11a52.3,52.3,0,0,0,1.16,11.43,15.71,15.71,0,0,0,1.37,4c.11.21.37.53.47.53s.37-.11.47-.53c.79-3.53,1.74-7.06,2.37-10.59.42-2.42.47-4.9.69-7.48a10.92,10.92,0,0,1-2.32-.16c-.68-.11-2.37-1.11-2.32-1.9a2.32,2.32,0,0,1,2.74-2.32c1.37.21,2.69.16,4,.42a2.67,2.67,0,0,1,1.9,2.32c-.21,3.05-.47,6.16-.9,9.17C213.74,121.21,213.05,124.64,212.37,128Z" style="fill: #fff"/>
      <path d="M222.85,85.34l2.42-2.53c-.26,5.58-.47,9.69-.58,13.85-.11,3.48-.05,7-.11,10.48-.05,3.11-.21,6.21-.26,9.32,0,1.37.16,2.74.21,4.16.05,3.37.16,6.74.11,10.17a2.39,2.39,0,0,1-2,2.11,2.08,2.08,0,0,1-2.05-2.37c.11-3.53.16-7.11.16-10.64,0-4-.05-7.9-.05-11.8,0-2.84,0-5.69.05-8.53.11-3.27.37-6.48.42-9.69.05-3.05-.11-6.16-.21-9.22,0-.84.16-2.53,2.11-2.53a1.76,1.76,0,0,1,1.74,1.11,9.52,9.52,0,0,1,.16,1.21c.11,1.21.21,2.42.42,4.69Z" style="fill: #fff"/>
      <path d="M243.13,130.11c-.95,1.74-2.9,3.21-5,2.69a5.81,5.81,0,0,1-4-3.58c-1.63-3.53-1.74-7.22-2-11.06-.16-2.53-.47-5.11-.53-7.69-.05-2.42.21-4.79.32-7.22.05-1.9-.11-3.84.05-5.74a81.25,81.25,0,0,1,1.05-10.11,44.56,44.56,0,0,1,2.53-7.16c.74-1.95,3.32-2.32,5.11-2a4.12,4.12,0,0,1,3.06,3.11,18.63,18.63,0,0,1,.79,4.64c.05.63-.26,3-3.27,1.9-.26-1.63-.37-2.74-.58-3.79a2.31,2.31,0,0,0-.37-1,3.62,3.62,0,0,0-.63-.63c-.05-.11-.1-.26-.16-.21a1.58,1.58,0,0,0-1,.84,26.08,26.08,0,0,0-1.63,5.48c-.53,2.84-.9,5.74-1.16,8.69-.16,2.16,0,4.42-.05,6.64,0,1.9-.21,3.79-.21,5.69s.16,3.79.26,5.64c.21,2.69.37,5.43.63,8.11a8.24,8.24,0,0,0,1.9,5c2.05,2.26,3.21-6.32,3.32-7.48a2,2,0,0,1,2.32-2,2,2,0,0,1,1.84,2.53c-.37,1.42-.68,2.9-1.05,4.32A20.25,20.25,0,0,1,243.13,130.11Z" style="fill: #fff"/>
      <path d="M163.33,177c-.21,2.95-.37,5.85-.74,8.74a58,58,0,0,1-1.37,6.69,4.36,4.36,0,0,1-3.42,3.63,5.16,5.16,0,0,1-5.11-2.42,8.07,8.07,0,0,1-.95-2.58c-.42-2.21-.79-4.48-1.42-7.74h.21c-.26-1.63-.58-3.21-.68-4.85-.21-3.42-.32-6.9-.32-10.32,0-3.21.1-6.48.37-9.69a50.8,50.8,0,0,1,1-6.22,34.08,34.08,0,0,1,1.48-5.64,19.23,19.23,0,0,1,2.48-4.32c1.05-1.47,4.42-1.05,5.43-.11a8,8,0,0,1,3,5.85c.11,1.74.63,3.48.68,5.27.11,2.9,0,5.79,0,8.69,0,1.74,0,3.53-.05,5.32C163.75,170.52,163.54,173.78,163.33,177Zm-5.11-31.18a2.31,2.31,0,0,0-.37-.32,1.84,1.84,0,0,1-.37-.47c-.05-.11,0,.05-.16.16-1.42,1.32-1.95,3.16-2.32,5.16-.79,4.58-1.42,9.17-1.79,13.8-.26,3.9-.11,7.8-.11,11.64.63,4.16,1.21,8.27,1.84,12.38a9.91,9.91,0,0,0,1,3.27,2.37,2.37,0,0,0,1.32.84c-.05-.05-.05-.11-.11-.11.16-.21.26-.53.37-.68a7.46,7.46,0,0,0,.37-1.16,11.52,11.52,0,0,0,.37-1.26,32.54,32.54,0,0,0,1.11-7.53c.21-2.58.26-5.21.58-7.8.32-3,.16-6.06.21-9.11s.21-5.9.11-8.85c-.05-2.32-.58-4.63-.74-7A3.75,3.75,0,0,0,158.22,145.82Z" style="fill: #fff"/>
      <path d="M173.81,171.73c-.05,1.37-.21,2.74-.21,4.11.05,2.05.26,4.16.32,6.27.05,3.05-.05,6.11-.11,9.17a13.66,13.66,0,0,1-.16,2.95,2.56,2.56,0,0,1-1.74,1.84c-1.84.42-2.21-1.26-2.16-2.11.16-2.53.42-5.11.53-7.64.05-1.69-.11-3.37-.11-5,0-2.05.11-4.11.11-6.11a78,78,0,0,1,.05-7.85c.42-3.58-.05-7.11.16-10.69.21-3.37.47-6.74.63-10.11a17.79,17.79,0,0,0-.16-2.32,2.15,2.15,0,0,1,2-2.42c.79-.11,1.63-.37,2.42-.42a20.92,20.92,0,0,1,3.63.05,2.49,2.49,0,0,1,1.95,1.9,2.08,2.08,0,0,1-2.11,2.32,7.78,7.78,0,0,1-1.11-.05c-.32,0-.58-.05-.9-.05a14.76,14.76,0,0,0-2.16,0l-.58,13.33,1.69.32a4.5,4.5,0,0,1,1.21.26,1.69,1.69,0,0,1,1,1.9c-.26,1.84-2.05,1.79-2.95,1.58a4.52,4.52,0,0,0-.9-.16C174.07,165.78,173.92,168.73,173.81,171.73Z" style="fill: #fff"/>
      <path d="M115.79,257.38a48.71,48.71,0,0,0-.95-5.43c-.84-3.37-1.84-6.74-2.74-10.06-1-3.53-1.95-7-2.95-10.48-.11-.32-.21-.63-.32-.9v4c0,2.37,0,4.74.05,7.11,0,1.05.21,2.11.21,3.16,0,1.63-.21,3.27-.16,5,.05,2.37.26,4.69.47,7.06a2.57,2.57,0,0,1,.05.63,1.92,1.92,0,0,1-.11.74,1.71,1.71,0,0,1-1.74,1.11,2.11,2.11,0,0,1-2.26-2.37c.05-2.79-.05-5.58-.16-8.43-.05-2.53-.16-5-.16-7.53,0-3.21.16-6.37.16-9.59S105,225.09,105,222c0-1.95.37-3.85.47-5.74.11-3.16.11-6.32.21-9.53a2,2,0,0,1,.26-.95c.05-.21.16-.37.63-1.58,1.42.63,1.79.84,2.16,1l.95.63c1.11.9,2.27,1.79,3.42,2.69a5.22,5.22,0,0,1,1.63,2.32,16.79,16.79,0,0,1,.69,2.32c1.05,4.27-.95,7.53-3.32,10.22a2.54,2.54,0,0,1-.63.53l-.42.21c.37,1.32.79,2.63,1.16,3.9.95,3.42,2,6.85,2.95,10.27s1.63,6.69,2.48,10c.63,2.53,1.26,5,1.9,7.48a8.56,8.56,0,0,1,.16,1.05c.16.68.32,2.32-1.53,2.53A2.06,2.06,0,0,1,115.79,257.38ZM109,220.72a7.92,7.92,0,0,0,2.79-4.53c.26-3-.79-4.74-2.37-6Z" style="fill: #fff"/>
      <path d="M133.07,255.54a2.06,2.06,0,0,1,1.11.9,1.57,1.57,0,0,0,.21.42c0,.05.05.16.74,1.11-1.05.68-1.21.84-1.37.95a2.42,2.42,0,0,1-1.16.42,30.13,30.13,0,0,1-3.06-.26l-.9-.16a8.84,8.84,0,0,1-1.58-.21,2.11,2.11,0,0,1-1.84-2.16c0-.42,0-.95.05-1.69.11-2.37.16-4.74.21-7.06s.21-4.79.21-7.16c.05-3.58-.05-7.16.05-10.75.05-3.42.32-6.9.37-10.38.05-3.74-.05-7.48-.05-11.22,0-.26-.1-.58-.1-.84a2.11,2.11,0,0,1,.32-1.47,4,4,0,0,1,2.48-1.32c1.9-.16,3.85-.05,5.74-.11a2.05,2.05,0,0,1,2.37,1.95,2.13,2.13,0,0,1-2.32,2.21h-4.79v12.06a23.73,23.73,0,0,0,2.79-.37,1.89,1.89,0,0,1,2.42,1.53,2,2,0,0,1-1.9,2.48c-1.16.05-2.32.16-3.48.16-.05,3.32-.16,6.64-.21,10-.11,5.27-.16,10.53-.26,15.8v4.58A15.87,15.87,0,0,1,133.07,255.54Z" style="fill: #fff"/>
      <path d="M158,258.75c-.21.16-.42.26-1.47,1-.69-1.05-.84-1.21-.95-1.37a1.78,1.78,0,0,1-.47-1.05c-.16-1.74-.21-3.48-.42-5.21-.32-3.16-.74-6.32-1.16-9.43,0-.05-.11-.05-.16-.11a15.52,15.52,0,0,0-7.27-.42c-.05.84-.16,1.74-.21,2.63-.11,2.69-.21,5.32-.26,8-.05,1.32,0,2.63-.05,4-.05,1.16-.74,2.69-3.63,2,0-2.32-.05-3.79,0-5.27.1-3.58.21-7.22.47-10.8.21-2.74.63-5.43.95-8.16.42-3.53.74-7,1.16-10.54.42-3.21.95-6.43,1.42-9.64.16-1.26.21-2.58.37-3.9a34.54,34.54,0,0,1,.79-4.06,2.25,2.25,0,0,1,.84-1.05c.21-.16.47-.37,1.79-1.47.79,1.58,1,1.95,1.21,2.32a3.54,3.54,0,0,1,.53,1.37c.58,3,1,6,1.42,9s.63,5.9,1.11,8.85c.53,3.27,1.26,6.48,1.84,9.75.63,3.63,1.26,7.32,1.79,11,.37,2.53.63,5,.95,7.48.16,1,.32,1.95.47,2.9,0,.16.05.37.05.58a1.36,1.36,0,0,1-.42,1.05A2.24,2.24,0,0,1,158,258.75Zm-11.64-20.33,6.53.32c-1.79-7.64-2.27-15.49-3.63-23.18Z" style="fill: #fff"/>
      <path d="M168.89,255.06c.79-.05,1.69-.16,2.42-.16,1.53,0,3.11.58,2.79,2.48-.26,1.63-6.06,2.11-7.8,1.69a2,2,0,0,1-1.69-2.32c.05-1.26.1-2.53.1-3.84.11-6.06.21-12.17.37-18.28.05-3.37.26-6.79.26-10.22,0-3.79-.16-7.58-.26-11.38-.05-2-.16-4-.1-6a2.27,2.27,0,0,1,1.74-2.48,1.66,1.66,0,0,1,1.84,1.21,3.07,3.07,0,0,1,.16,1.21c.11,4.9.16,9.8.21,14.7,0,3.84.11,7.69,0,11.54-.05,3.69-.37,7.32-.37,11,0,3.53.21,7.06.26,10.59,0,.05.05.11.05.16Z" style="fill: #fff"/>
      <path d="M181.85,211.77l2.42-2.53c-.26,5.58-.47,9.69-.58,13.85-.11,3.48-.05,7-.11,10.48-.05,3.11-.21,6.21-.26,9.32,0,1.37.16,2.74.21,4.16.05,3.37.16,6.74.11,10.17a2.39,2.39,0,0,1-2,2.11,2.08,2.08,0,0,1-2.05-2.37c.11-3.53.16-7.11.16-10.64,0-4-.05-7.9-.05-11.8,0-2.84,0-5.69.05-8.53.11-3.27.37-6.48.42-9.69.05-3.05-.11-6.16-.21-9.22,0-.84.16-2.53,2.11-2.53a1.76,1.76,0,0,1,1.74,1.11,9.52,9.52,0,0,1,.16,1.21c.11,1.21.21,2.42.42,4.69Z" style="fill: #fff"/>
      <path d="M193.12,208.29c-1.79-.05-2.58-.63-2.48-2.16.05-.47,1.58-1.42,3.74-1.47,1.53-.05,3.32,0,4.53,0s2.37,0,3.58-.11c.84-.05,2.48.05,2.53,1.95.11,2.05-1.79,2.16-2.48,2.16-.9-.05-1.74-.05-2.58-.11,0,4.9-.05,9.69,0,14.49,0,3,.16,5.9.26,8.8.11,2.48.26,4.9.32,7.37.11,4.58.05,9.22.11,13.8,0,1.42.16,2.79.1,4.16a2.54,2.54,0,0,1-1.63,2.05,1.89,1.89,0,0,1-2.48-2c.05-1.69.05-3.37.05-5,.05-4.58.11-9.11.05-13.7-.05-3.9-.37-7.8-.53-11.69-.1-2.21-.21-4.48-.21-6.69,0-3.06.11-6.16.11-9.27a13.64,13.64,0,0,0-.26-2.48A23.33,23.33,0,0,0,193.12,208.29Z" style="fill: #fff"/>
      <path d="M221.25,218.93a20.46,20.46,0,0,0-.74,8.22c.21,2.42.16,4.85.26,7.27.16,3.58.32,7.16.53,10.8.11,2.53.26,5.11.37,7.64a20.06,20.06,0,0,0,.21,3.11c.32,1.74-.53,2.79-3.27,3.69-.32-1.42-.47-1.74-.53-2.05a4.48,4.48,0,0,1-.21-1.21c-.1-4.27-.1-8.59-.26-12.85-.11-2.69-.47-5.37-.63-8.06s-.47-5.43-.47-8.17a29.67,29.67,0,0,0-1.48-8.22c-1-3.37-2.37-6.69-3.58-10-.11-.26-.26-.53-.37-.79a5.38,5.38,0,0,1-.42-1.21,2.36,2.36,0,0,1,1-2.26c1.48-.9,2.37.47,2.69,1.26,1.05,2.69,2.05,5.37,3.06,8.11q.39,1,.79,2.21c.63-2.16,1.32-4.27,1.95-6.43.37-1.21.74-2.48,1.21-3.63a2.13,2.13,0,0,1,2.27-1.37,1.48,1.48,0,0,1,1.32,1.53,5,5,0,0,1-.16,1C223.62,211.35,222.51,215.14,221.25,218.93Z" style="fill: #fff"/>
    </g>
    <g>
      <path d="M66,372.24a36.87,36.87,0,0,0-.72-4.1c-.64-2.55-1.39-5.1-2.07-7.6-.76-2.67-1.47-5.29-2.23-7.92-.08-.24-.16-.48-.24-.68v3c0,1.79,0,3.58,0,5.37,0,.8.16,1.59.16,2.39,0,1.23-.16,2.47-.12,3.74,0,1.79.2,3.54.36,5.33a1.93,1.93,0,0,1,0,.48,1.45,1.45,0,0,1-.08.56,1.29,1.29,0,0,1-1.31.84,1.59,1.59,0,0,1-1.71-1.79c0-2.11,0-4.22-.12-6.37,0-1.91-.12-3.78-.12-5.69,0-2.43.12-4.82.12-7.25s-.16-4.7-.12-7c0-1.47.28-2.91.36-4.34.08-2.39.08-4.78.16-7.21a1.54,1.54,0,0,1,.2-.72c0-.16.12-.28.48-1.19,1.08.48,1.35.64,1.63.76l.72.48c.84.68,1.71,1.35,2.59,2A4,4,0,0,1,65.27,337a12.77,12.77,0,0,1,.52,1.75c.8,3.22-.72,5.69-2.51,7.72a1.93,1.93,0,0,1-.48.4l-.32.16c.28,1,.6,2,.88,2.95.72,2.59,1.51,5.17,2.23,7.76s1.23,5.06,1.87,7.56c.48,1.91,1,3.78,1.43,5.65a6.52,6.52,0,0,1,.12.8c.12.52.24,1.75-1.15,1.91A1.55,1.55,0,0,1,66,372.24Zm-5.14-27.71A6,6,0,0,0,63,341.11a4.64,4.64,0,0,0-1.79-4.5Z" style="fill: #fff"/>
      <path d="M74.86,337.76l1.83-1.91c-.2,4.22-.36,7.33-.44,10.47-.08,2.63,0,5.25-.08,7.92,0,2.35-.16,4.7-.2,7,0,1,.12,2.07.16,3.14,0,2.55.12,5.1.08,7.68a1.8,1.8,0,0,1-1.51,1.59,1.57,1.57,0,0,1-1.55-1.79c.08-2.67.12-5.37.12-8,0-3,0-6,0-8.92,0-2.15,0-4.3,0-6.45.08-2.47.28-4.9.32-7.33s-.08-4.66-.16-7c0-.64.12-1.91,1.59-1.91a1.33,1.33,0,0,1,1.31.84,7.17,7.17,0,0,1,.12.92c.08.92.16,1.83.32,3.54Z" style="fill: #fff"/>
      <path d="M90.19,371.6a3.53,3.53,0,0,1-3.74,2,4.39,4.39,0,0,1-3-2.71c-1.23-2.67-1.31-5.45-1.51-8.36-.12-1.91-.36-3.86-.4-5.81s.16-3.62.24-5.45c0-1.43-.08-2.91,0-4.34a61.43,61.43,0,0,1,.8-7.64,33.68,33.68,0,0,1,1.91-5.41c.56-1.47,2.51-1.75,3.86-1.51a3.11,3.11,0,0,1,2.31,2.35,14.08,14.08,0,0,1,.6,3.5c0,.48-.2,2.27-2.47,1.43-.2-1.23-.28-2.07-.44-2.87a1.75,1.75,0,0,0-.28-.76,2.71,2.71,0,0,0-.48-.48c0-.08-.08-.2-.12-.16a1.2,1.2,0,0,0-.76.64,19.72,19.72,0,0,0-1.23,4.14c-.4,2.15-.68,4.34-.88,6.57-.12,1.63,0,3.34,0,5,0,1.43-.16,2.87-.16,4.3s.12,2.87.2,4.26c.16,2,.28,4.1.48,6.13a6.23,6.23,0,0,0,1.43,3.78C88.08,372,89,365.47,89,364.6a1.53,1.53,0,0,1,1.75-1.51A1.47,1.47,0,0,1,92.18,365c-.28,1.07-.52,2.19-.8,3.26A15.29,15.29,0,0,1,90.19,371.6Z" style="fill: #fff"/>
      <path d="M104.52,373.27c-1.31.24-1.67-1.15-1.67-1.75,0-2.27.08-4.58,0-6.89-.08-2.59-.32-5.18-.48-7.76a3.87,3.87,0,0,1,0-.68c0-.16-.08-.16-.28-.16-1.11,0-2.23.12-3.38.2v1.39c.08,2.27.16,4.54.2,6.81,0,1.47,0,2.95,0,4.38,0,1,.16,2.07.16,3.11a2,2,0,0,1-.56,1.43,1.61,1.61,0,0,1-1.79.16A2,2,0,0,1,96,372c0-1.75.12-3.5.12-5.25,0-3.54-.16-7.09-.08-10.63.08-3.9.4-7.8.6-11.7,0-1.27,0-2.51,0-3.78,0-2,0-4.7,0-6.73a1.61,1.61,0,0,1,1.11-1.43,1.51,1.51,0,0,1,1.51.8,2.59,2.59,0,0,1,.28,1.31c0,1.87-.08,4.38-.16,6.25-.08,3.07-.16,6.09-.28,9.16,0,1-.08,2-.12,3.07h3.46v-1.51c0-2.43,0-4.86,0-7.33,0-2,0-3.9-.08-5.81,0-1.43-.16-2.91-.16-4.34,0-.6.08-1.71,1.43-1.79a1.47,1.47,0,0,1,1.59,1.67c0,1.35,0,2.75,0,4.1,0,1.83,0,3.66,0,5.49,0,2.27-.2,4.54-.16,6.81.12,4.26.36,8.56.52,12.82.12,2.43.28,4.86.4,7.29,0,0,0,0,0,.08a1.76,1.76,0,0,1,0,1.19C105.71,372.28,105.19,373.16,104.52,373.27Z" style="fill: #fff"/>
      <path d="M122.75,373.27c-.16.12-.32.2-1.11.76-.52-.8-.64-.92-.72-1a1.35,1.35,0,0,1-.36-.8c-.12-1.31-.16-2.63-.32-3.94-.24-2.39-.56-4.78-.88-7.13,0,0-.08,0-.12-.08a11.74,11.74,0,0,0-5.49-.32c0,.64-.12,1.31-.16,2-.08,2-.16,4-.2,6.05,0,1,0,2,0,3,0,.88-.56,2-2.75,1.51,0-1.75,0-2.87,0-4,.08-2.71.16-5.45.36-8.16.16-2.07.48-4.1.72-6.17.32-2.67.56-5.29.88-8,.32-2.43.72-4.86,1.08-7.29.12-1,.16-2,.28-2.95a26.22,26.22,0,0,1,.6-3.07,1.7,1.7,0,0,1,.64-.8c.16-.12.36-.28,1.35-1.11.6,1.19.76,1.47.92,1.75a2.68,2.68,0,0,1,.4,1c.44,2.27.76,4.54,1.07,6.81s.48,4.46.84,6.69c.4,2.47,1,4.9,1.39,7.37.48,2.75,1,5.53,1.35,8.28.28,1.91.48,3.78.72,5.65.12.76.24,1.47.36,2.19,0,.12,0,.28,0,.44a1,1,0,0,1-.32.8A1.7,1.7,0,0,1,122.75,373.27Zm-8.8-15.37,4.94.24c-1.35-5.77-1.71-11.7-2.75-17.52Z" style="fill: #fff"/>
      <path d="M135.88,372.24a36.87,36.87,0,0,0-.72-4.1c-.64-2.55-1.39-5.1-2.07-7.6-.76-2.67-1.47-5.29-2.23-7.92-.08-.24-.16-.48-.24-.68v3c0,1.79,0,3.58,0,5.37,0,.8.16,1.59.16,2.39,0,1.23-.16,2.47-.12,3.74,0,1.79.2,3.54.36,5.33a1.93,1.93,0,0,1,0,.48,1.45,1.45,0,0,1-.08.56,1.29,1.29,0,0,1-1.31.84,1.59,1.59,0,0,1-1.71-1.79c0-2.11,0-4.22-.12-6.37,0-1.91-.12-3.78-.12-5.69,0-2.43.12-4.82.12-7.25s-.16-4.7-.12-7c0-1.47.28-2.91.36-4.34.08-2.39.08-4.78.16-7.21a1.54,1.54,0,0,1,.2-.72c0-.16.12-.28.48-1.19,1.08.48,1.35.64,1.63.76l.72.48c.84.68,1.71,1.35,2.59,2a4,4,0,0,1,1.23,1.75,12.77,12.77,0,0,1,.52,1.75c.8,3.22-.72,5.69-2.51,7.72a1.93,1.93,0,0,1-.48.4l-.32.16c.28,1,.6,2,.88,2.95.72,2.59,1.51,5.17,2.23,7.76s1.23,5.06,1.87,7.56c.48,1.91,1,3.78,1.43,5.65a6.52,6.52,0,0,1,.12.8c.12.52.24,1.75-1.15,1.91A1.55,1.55,0,0,1,135.88,372.24Zm-5.14-27.71a6,6,0,0,0,2.11-3.42,4.64,4.64,0,0,0-1.79-4.5Z" style="fill: #fff"/>
      <path d="M152,363.6a18.78,18.78,0,0,1-1,2.63,5.23,5.23,0,0,0-.2.76,6.65,6.65,0,0,1-1.67,3.18,41.11,41.11,0,0,1-2.91,3c-1.19,1.15-2.11.28-2.63-.32a2.32,2.32,0,0,1-.68-1.63c0-.4.08-.8.08-1.19.12-2.55.24-5.06.28-7.6.08-3.14.12-6.25.12-9.4,0-4,0-8,0-12,0-1.43.2-2.87.24-4.34a20.73,20.73,0,0,0-.12-2.19c0-1.79,1-2.55,2.71-1.91a9.4,9.4,0,0,1,6.05,5.65,16.1,16.1,0,0,1,1.23,7.17,37.77,37.77,0,0,1,.16,4.3c-.12,2.31-.36,4.66-.64,7S152.48,361.29,152,363.6Zm-5.89,5.73a11.72,11.72,0,0,0,3-5.29,52.94,52.94,0,0,0,1.23-6.65,26.09,26.09,0,0,0,.36-3.54c.08-2.43,0-4.9.12-7.36a20.06,20.06,0,0,0-1-7,5.69,5.69,0,0,0-3.3-3.58Z" style="fill: #fff"/>
      <path d="M177.16,363.6a18.78,18.78,0,0,1-1,2.63,5.23,5.23,0,0,0-.2.76,6.65,6.65,0,0,1-1.67,3.18,41.11,41.11,0,0,1-2.91,3c-1.19,1.15-2.11.28-2.63-.32a2.32,2.32,0,0,1-.68-1.63c0-.4.08-.8.08-1.19.12-2.55.24-5.06.28-7.6.08-3.14.12-6.25.12-9.4,0-4,0-8,0-12,0-1.43.2-2.87.24-4.34a20.73,20.73,0,0,0-.12-2.19c0-1.79,1-2.55,2.71-1.91a9.4,9.4,0,0,1,6.05,5.65,16.1,16.1,0,0,1,1.23,7.17,37.77,37.77,0,0,1,.16,4.3c-.12,2.31-.36,4.66-.64,7S177.59,361.29,177.16,363.6Zm-5.89,5.73a11.72,11.72,0,0,0,3-5.29,52.94,52.94,0,0,0,1.23-6.65,26.09,26.09,0,0,0,.36-3.54c.08-2.43,0-4.9.12-7.36a20.06,20.06,0,0,0-1-7,5.69,5.69,0,0,0-3.3-3.58Z" style="fill: #fff"/>
      <path d="M195.42,373.27c-.16.12-.32.2-1.11.76-.52-.8-.64-.92-.72-1a1.35,1.35,0,0,1-.36-.8c-.12-1.31-.16-2.63-.32-3.94-.24-2.39-.56-4.78-.88-7.13,0,0-.08,0-.12-.08a11.74,11.74,0,0,0-5.49-.32c0,.64-.12,1.31-.16,2-.08,2-.16,4-.2,6.05,0,1,0,2,0,3,0,.88-.56,2-2.75,1.51,0-1.75,0-2.87,0-4,.08-2.71.16-5.45.36-8.16.16-2.07.48-4.1.72-6.17.32-2.67.56-5.29.88-8,.32-2.43.72-4.86,1.08-7.29.12-1,.16-2,.28-2.95a26.22,26.22,0,0,1,.6-3.07,1.7,1.7,0,0,1,.64-.8c.16-.12.36-.28,1.35-1.11.6,1.19.76,1.47.92,1.75a2.68,2.68,0,0,1,.4,1c.44,2.27.76,4.54,1.07,6.81s.48,4.46.84,6.69c.4,2.47,1,4.9,1.39,7.37.48,2.75,1,5.53,1.35,8.28.28,1.91.48,3.78.72,5.65.12.76.24,1.47.36,2.19,0,.12,0,.28,0,.44a1,1,0,0,1-.32.8A1.7,1.7,0,0,1,195.42,373.27Zm-8.8-15.37,4.94.24c-1.35-5.77-1.71-11.7-2.75-17.52Z" style="fill: #fff"/>
      <path d="M210.19,359.46c.44-2.95,1-5.89,1.43-8.88s.76-6.17,1.11-9.28c.16-1.63.24-3.3.36-4.94.08-.76.08-1.51.2-2.27,0-.32,1-1.47,1.71-1,.48.32,1,.88,1,1.31a19.24,19.24,0,0,1-.12,3c-.32,3.11-.72,6.17-1.11,9.24-.32,2.71-.76,5.37-1.11,8.08-.28,2.15-.56,4.3-.8,6.41-.32,2.63-.64,5.21-.92,7.8a17.75,17.75,0,0,0-.12,2.91c0,.92-.32,2-1.75,1.87a1.42,1.42,0,0,1-1.43-1.23c0-.16,0-.32,0-.48a6.87,6.87,0,0,0-.28-1.23c-.12-.48-.28-1-.4-1.43-.24-1.11-.52-2.19-.76-3.26-.48,2.07-1,4.14-1.35,6.21a1.4,1.4,0,0,1-1.75,1.19,1.72,1.72,0,0,1-1.19-1.43c-.2-2.71-.36-5.45-.52-8.2-.16-2.23-.32-4.5-.52-6.73-.24-2.83-.56-5.69-.72-8.52-.16-2.23-.12-4.42-.24-6.65-.12-2.71-.28-5.37-.44-8a1.15,1.15,0,0,1,.48-1.27c1.11-1,1.71.28,1.83.72a11.06,11.06,0,0,1,.48,2.55c.16,2.59.16,5.18.32,7.76s.28,5.06.48,7.6.36,5.06.6,7.56c.12,1.55.28,3.07.4,4.62.28-1.08.44-2.11.72-3.15a1.66,1.66,0,0,1,1-1.15,1.53,1.53,0,0,1,1.51.48A4,4,0,0,1,209,361c.24.92.48,1.87.72,2.79C209.87,362.33,210,360.89,210.19,359.46Z" style="fill: #fff"/>
      <path d="M223.44,347.16c.32-.76.72-1.51,1.07-2.31.8-1.79,1.55-3.58,2.31-5.37.84-2,1.59-4,2.39-6a3,3,0,0,1,.4-.8,1.26,1.26,0,0,1,1.55-.24,1.66,1.66,0,0,1,.72,2.27c-.8,1.83-1.39,3.74-2.19,5.57-1.43,3.18-2.95,6.29-4.38,9.47-.28.6-.56,1.19-.8,1.79,0,0,0,.08.08.16.52,1.23,1.11,2.51,1.67,3.74a21.31,21.31,0,0,1,.84,2c.48,1.31.92,2.63,1.35,3.94.8,2.55,1.59,5.1,2.35,7.64a9,9,0,0,1,.32,2.75,1.86,1.86,0,0,1-1.35,1.67c-1,.24-1.59-.84-1.71-1.31-.52-2-1-4.78-1.51-6.85-.24-.88-.6-1.71-.84-2.63a22.75,22.75,0,0,0-2.35-6.05c0,.4,0,.8,0,1.15,0,1.12,0,2.23,0,3.34.08,3.5.12,7,.2,10.51a1.79,1.79,0,0,1-1.91,2.07,1.68,1.68,0,0,1-1.23-1.51c0-1.87.12-3.74.12-5.61,0-3.34,0-6.69,0-10,0-2.83,0-5.65.16-8.48.12-2.31.36-4.62.48-6.93s.08-4.34.12-6.53a1.27,1.27,0,0,1-.12-.36,1.11,1.11,0,0,1,.36-1.23,1.27,1.27,0,0,1,1.31-.68c1,.12,1.43,3.58,1.35,5-.2,3.19-.52,6.33-.68,9.51Z" style="fill: #fff"/>
      <path d="M238.05,337.76l1.83-1.91c-.2,4.22-.36,7.33-.44,10.47-.08,2.63,0,5.25-.08,7.92,0,2.35-.16,4.7-.2,7,0,1,.12,2.07.16,3.14,0,2.55.12,5.1.08,7.68a1.8,1.8,0,0,1-1.51,1.59,1.57,1.57,0,0,1-1.55-1.79c.08-2.67.12-5.37.12-8,0-3,0-6,0-8.92,0-2.15,0-4.3,0-6.45.08-2.47.28-4.9.32-7.33s-.08-4.66-.16-7c0-.64.12-1.91,1.59-1.91a1.33,1.33,0,0,1,1.31.84,7.17,7.17,0,0,1,.12.92c.08.92.16,1.83.32,3.54Z" style="fill: #fff"/>
      <path d="M255,358.07c0-1.08-.16-2.15-.16-3.19,0-2.35,0-4.7,0-7,0-3.07,0-6.13,0-9.16,0-1.59,0-3.19.16-4.78a1.81,1.81,0,0,1,.68-1.15,7.26,7.26,0,0,0,.84-1,9.9,9.9,0,0,0,.72,1,1.81,1.81,0,0,1,.52,1.12c0,3-.16,6-.16,9s0,6.13,0,9.16c0,2,.16,4.06.2,6.09v13.58c0,1.43-.88,2.15-1.87,2a2.28,2.28,0,0,1-2-2c-.24-2.15-.44-4.34-.8-6.49-.4-2.51-1-5-1.47-7.52-.2-.84-.52-1.67-.72-2.51-.24-1-.44-2.07-.64-3.11-.56-2.63-1.08-5.21-1.71-7.8-.44-1.87-1-3.7-1.55-5.57a8,8,0,0,0-.44-1l.72-.36a4,4,0,0,1,.36,1.55c0,.56,0,1.11,0,1.71,0,1.55,0,3.1.08,4.7,0,.8.08,1.59.08,2.39,0,3,0,6.05,0,9,0,2.19.24,4.34.32,6.53.08,2.59.12,5.22.24,7.8a1.57,1.57,0,0,1-1.63,1.79c-.44,0-1.63-.64-1.47-1.51a15,15,0,0,0,.16-3.54c-.08-1.23-.2-2.47-.2-3.66,0-1.63-.12-8.52-.16-9.67-.08-2.59,0-5.14,0-7.72,0-1.27.08-2.55,0-3.82,0-1-.2-2-.24-2.91-.08-1.51-.08-3-.12-4.54,0-.12,0-.4,0-.52a1.53,1.53,0,0,1,1-2.15,1.82,1.82,0,0,1,2.35,1.11,45.23,45.23,0,0,1,1.63,4.42c.76,2.71,1.35,5.49,2,8.24.92,3.82,1.87,7.6,2.71,11.46.12.6.24,1.15.36,1.75C255,359.18,255,358.62,255,358.07Z" style="fill: #fff"/>
      <path d="M272,371.6c-.92,1.19-2.35,2.55-4.54,2a5.4,5.4,0,0,1-1.63-1,7,7,0,0,1-2.47-4.3c-.2-.8-.24-1.63-.44-2.43a1.44,1.44,0,1,1,2.83-.52c.16,1,.24,2,.48,2.91a3.86,3.86,0,0,0,2,2.55c.32.16.76.12,1.35-.64a8.29,8.29,0,0,0,1.51-4.86,33.71,33.71,0,0,0-.44-9,8.31,8.31,0,0,0-.6-1.75c-.28-.64-.6-1.27-.84-1.91a20.16,20.16,0,0,0-3.07-4.46,15.63,15.63,0,0,1-3-5.61,2.75,2.75,0,0,1,0-1.27,10.84,10.84,0,0,0,.2-1.11c.24-1.55.4-3.18.76-4.7a5.31,5.31,0,0,1,1.55-2.79,3.34,3.34,0,0,1,3.07,0,4.56,4.56,0,0,1,2.59,4.14,1.45,1.45,0,0,0,.12.44,5.34,5.34,0,0,1,.2.76,3,3,0,0,1,0,1.19c-.2.84-1.51.92-1.91.48a3.27,3.27,0,0,1-.48-1c-.24-.56-.4-1.12-.6-1.67a8.16,8.16,0,0,0-.6-1.47c-.28-.52-.52-.48-.92.08a3.52,3.52,0,0,0-.72,1.67c-.12.64-.12,1.31-.24,2q-.18,1.31-.24,2.63a3.76,3.76,0,0,0,.88,2.47c.2.28.4.6.6.88.76,1.12,1.59,2.15,2.35,3.22A24.78,24.78,0,0,1,272,352a21.84,21.84,0,0,1,1.87,10.63c-.08,1.23,0,2.51-.08,3.7A9.86,9.86,0,0,1,272,371.6Z" style="fill: #fff"/>
    </g>
    <g>
      <path d="M53,284.77c.05,1.48.1,3,.13,4.47,0,.94,0,1.9,0,2.86,0,.68.1,1.33.1,2a.79.79,0,0,1-.21.55.49.49,0,0,1-.49.05.68.68,0,0,1-.26-.52c0-1.14.08-2.29.08-3.43,0-2.31-.1-4.6-.05-6.92.05-2.55.26-5.1.39-7.64,0-.83,0-1.66,0-2.5,0-1.33,0-3.07,0-4.39a.53.53,0,0,1,.31-.42.57.57,0,0,1,.44.26,1.12,1.12,0,0,1,.1.6c0,1.22-.05,2.86-.1,4.08-.05,2-.1,4-.18,6,0,.86-.08,1.72-.1,2.55h3.33v-1.51c0-1.59,0-3.2,0-4.78,0-1.27,0-2.55-.05-3.82,0-.94-.1-1.87-.1-2.81,0-.26,0-.62.44-.65s.49.26.49.57c0,.88,0,1.79,0,2.68,0,1.2,0,2.37,0,3.56,0,1.51-.13,3-.1,4.47.08,2.81.23,5.62.34,8.4.08,1.59.16,3.17.26,4.76,0,.21.16.44.08.6s-.31.65-.52.68-.49-.23-.49-.62c0-1.51.05-3,0-4.5-.05-1.72-.21-3.41-.31-5.12a1.05,1.05,0,0,1,0-.29c.1-.6-.26-.75-.73-.73-.88,0-1.74.1-2.7.13Z" style="fill: #fff"/>
      <path d="M59.87,286.53c-.13-1.69-.16-3.38-.16-5.07s.08-3.17.18-4.73a23.48,23.48,0,0,1,.49-3,18.75,18.75,0,0,1,.68-2.7,9.63,9.63,0,0,1,1.17-2c.26-.36,1.53-.34,1.92,0a3.55,3.55,0,0,1,1.3,2.55c.05.86.31,1.72.34,2.6.05,1.4,0,2.83,0,4.26,0,.86,0,1.72,0,2.6-.08,1.59-.18,3.2-.29,4.78-.1,1.43-.18,2.86-.36,4.29-.13,1.09-.42,2.16-.65,3.22a1.66,1.66,0,0,1-1.3,1.4,2,2,0,0,1-2-.94,4.08,4.08,0,0,1-.39-1.12c-.23-1.09-.42-2.18-.6-3.28a.1.1,0,0,1,.08,0A26.51,26.51,0,0,1,59.87,286.53Zm1.51,4.89a6.18,6.18,0,0,0,.52,1.79,1.83,1.83,0,0,0,1,.68c.16,0,.52-.39.68-.68a10.34,10.34,0,0,0,.39-1.27c.7-2.5.57-5.1.86-7.64a44.71,44.71,0,0,0,.1-4.58c0-1.46.1-2.91.05-4.37,0-1.17-.31-2.31-.36-3.46a2.52,2.52,0,0,0-.83-1.87.74.74,0,0,1-.26-.23c-.26-.47-.52-.34-.86,0a4.77,4.77,0,0,0-1.3,2.83,66.89,66.89,0,0,0-.91,6.87c-.13,1.92-.05,3.87-.05,5.8C60.75,287.34,61,289.39,61.38,291.42Z" style="fill: #fff"/>
      <path d="M71.36,290c-.34,1.4-.68,2.81-.94,4.24-.08.36-.31.39-.49.34a.56.56,0,0,1-.39-.44c-.13-1.79-.23-3.59-.34-5.38-.1-1.46-.21-2.91-.34-4.39-.16-1.85-.36-3.69-.47-5.54-.1-1.46-.08-2.89-.16-4.34-.08-1.77-.18-3.54-.29-5.3,0-.1-.1-.16.13-.36s.34.1.36.21a8.21,8.21,0,0,1,.29,1.56c.1,1.69.1,3.38.21,5.07s.18,3.33.31,5,.23,3.3.39,5,.29,3.12.44,4.71c0,.1.1.23.21.47.21-.7.44-1.3.6-1.92s.31-1.48.49-2.24a.72.72,0,0,1,.31-.36.62.62,0,0,1,.44.16,1.66,1.66,0,0,1,.34.68c.34,1.22.62,2.47,1,3.69a.39.39,0,0,0,.26.29c.08-.57.16-1.12.21-1.69.13-1.12.23-2.24.39-3.33.29-2,.65-3.87.91-5.8s.52-4.06.75-6.08c.1-1.07.16-2.16.23-3.22.05-.49.05-1,.13-1.48,0-.1.29-.31.31-.29.18.1.44.29.44.44a11.63,11.63,0,0,1-.05,1.9c-.21,2-.49,4-.75,6-.21,1.77-.49,3.51-.73,5.28-.21,1.4-.36,2.81-.52,4.21-.21,1.69-.42,3.38-.6,5.1a12.5,12.5,0,0,0-.08,2c0,.44-.1.7-.6.68s-.44-.26-.47-.65a11.58,11.58,0,0,0-.44-1.82L72,288.67s-.05-.05-.21-.13C71.65,289.06,71.47,289.52,71.36,290Z" style="fill: #fff"/>
      <path d="M88.81,290c-.34,1.4-.68,2.81-.94,4.24-.08.36-.31.39-.49.34a.56.56,0,0,1-.39-.44c-.13-1.79-.23-3.59-.34-5.38-.1-1.46-.21-2.91-.34-4.39-.16-1.85-.36-3.69-.47-5.54-.1-1.46-.08-2.89-.16-4.34-.08-1.77-.18-3.54-.29-5.3,0-.1-.1-.16.13-.36s.34.1.36.21a8.25,8.25,0,0,1,.29,1.56c.1,1.69.1,3.38.21,5.07s.18,3.33.31,5,.23,3.3.39,5,.29,3.12.44,4.71c0,.1.1.23.21.47.21-.7.44-1.3.6-1.92s.31-1.48.49-2.24a.72.72,0,0,1,.31-.36.62.62,0,0,1,.44.16,1.67,1.67,0,0,1,.34.68c.34,1.22.62,2.47,1,3.69a.39.39,0,0,0,.26.29c.08-.57.16-1.12.21-1.69.13-1.12.23-2.24.39-3.33.29-2,.65-3.87.91-5.8s.52-4.06.75-6.08c.1-1.07.16-2.16.23-3.22.05-.49.05-1,.13-1.48,0-.1.29-.31.31-.29.18.1.44.29.44.44a11.57,11.57,0,0,1-.05,1.9c-.21,2-.49,4-.75,6-.21,1.77-.49,3.51-.73,5.28-.21,1.4-.36,2.81-.52,4.21-.21,1.69-.42,3.38-.6,5.1a12.39,12.39,0,0,0-.08,2c0,.44-.1.7-.6.68s-.44-.26-.47-.65a11.52,11.52,0,0,0-.44-1.82l-.86-3.61s-.05-.05-.21-.13C89.09,289.06,88.91,289.52,88.81,290Z" style="fill: #fff"/>
      <path d="M97.52,276.81a17.48,17.48,0,0,0,2-.23c.39-.08.55.08.6.31a.5.5,0,0,1-.47.62l-1.74.08c-.34,0-.47.13-.47.47,0,1.66-.08,3.3-.1,5-.05,2.6-.08,5.2-.13,7.8v2.31c0,.31.05.47.49.47a6.51,6.51,0,0,1,1.85.29c.18.05.29.36.42.55-.18.1-.34.31-.52.31a13.83,13.83,0,0,1-1.46-.13l-.44-.08c-1.27-.13-1.25-.13-1.2-1.46.05-1.17.05-2.34.1-3.51s.1-2.37.1-3.54c0-1.77,0-3.51,0-5.28s.16-3.43.18-5.15,0-3.69,0-5.54c0-.29-.13-.65,0-.81a1.35,1.35,0,0,1,.86-.47c.94-.05,1.87,0,2.78-.05.34,0,.62.05.65.44s-.23.57-.62.57H97.52Z" style="fill: #fff"/>
      <path d="M110.7,281.13c.36.81.75,1.64,1.12,2.47.18.39.36.83.52,1.25.31.83.6,1.69.88,2.55.52,1.66,1,3.33,1.53,5a5.52,5.52,0,0,1,.18,1.59.68.68,0,0,1-.47.65c-.29.05-.44-.29-.49-.49-.36-1.33-.65-3.12-1-4.47-.16-.57-.39-1.12-.55-1.72a14.55,14.55,0,0,0-1.61-4.08,13.83,13.83,0,0,1-.7-1.82.33.33,0,0,0-.16,0c-.05.94-.1,1.87-.13,2.81,0,.73,0,1.46,0,2.21.05,2.26.08,4.55.13,6.84a1,1,0,0,1-.1.57.83.83,0,0,1-.57.26.6.6,0,0,1-.34-.47c0-1.22.08-2.44.08-3.67,0-2.18,0-4.37,0-6.53,0-1.85,0-3.72.1-5.56.08-1.48.23-3,.31-4.5s.05-2.86.08-4.29c0-.23-.31-.52.05-.7a.34.34,0,0,1,.39-.26c.52.05.47,2,.42,2.73-.1,2.08-.31,4.13-.44,6.21-.05.65,0,1.3,0,1.95a.79.79,0,0,0,.21.05c.49-1,1-2.05,1.48-3.09s1-2.34,1.53-3.54,1-2.6,1.53-3.87c.1-.26.21-.6.57-.42s.36.42.21.81c-.49,1.2-.88,2.44-1.43,3.64-.91,2.08-1.9,4.11-2.83,6.16a10.75,10.75,0,0,0-.55,1.25A.75.75,0,0,0,110.7,281.13Z" style="fill: #fff"/>
      <path d="M118.24,273.61c0,1,0,2.05.05,3.07,0,.52.05,1,.05,1.59,0,2,0,3.93,0,5.9,0,1.4.16,2.83.21,4.26.05,1.69.08,3.41.16,5.1,0,.44-.21.62-.55.62-.16,0-.47-.26-.44-.36a22.88,22.88,0,0,0,0-4.81c0-1.07-.08-5.59-.1-6.34-.05-1.66,0-3.33,0-5,0-.83.05-1.69,0-2.52,0-.62-.13-1.25-.16-1.9-.05-1-.05-2-.08-3a2.3,2.3,0,0,0-.05-.44c-.1-.36-.1-.68.31-.78s.73-.08.91.42c.34.94.81,1.87,1.07,2.83.49,1.77.88,3.56,1.3,5.36.6,2.5,1.22,5,1.79,7.49.34,1.56.57,3.15.86,4.71a1,1,0,0,0,.34.6c0-1.17,0-2.34,0-3.51,0-.6.1-1.22.1-1.85s-.1-1.4-.1-2.11c0-1.53,0-3,0-4.58,0-2,0-4,0-6,0-1,0-2.05.1-3.09,0-.18.29-.36.42-.55.13.18.34.36.34.52,0,2-.1,3.9-.1,5.85s0,4,0,6c0,1.3.1,2.63.13,4v8.87c0,.44-.13.75-.6.81a1,1,0,0,1-.88-.86c-.16-1.43-.29-2.86-.52-4.26-.29-1.66-.62-3.3-1-4.94-.1-.55-.34-1.09-.47-1.66s-.26-1.35-.42-2c-.36-1.69-.68-3.38-1.09-5.07-.29-1.25-.68-2.47-1-3.67-.1-.34-.29-.65-.42-1h-.18Z" style="fill: #fff"/>
      <path d="M127.26,286.53c-.13-1.69-.16-3.38-.16-5.07s.08-3.17.18-4.73a23.48,23.48,0,0,1,.49-3,18.75,18.75,0,0,1,.68-2.7,9.63,9.63,0,0,1,1.17-2c.26-.36,1.53-.34,1.92,0a3.55,3.55,0,0,1,1.3,2.55c.05.86.31,1.72.34,2.6.05,1.4,0,2.83,0,4.26,0,.86,0,1.72,0,2.6-.08,1.59-.18,3.2-.29,4.78-.1,1.43-.18,2.86-.36,4.29-.13,1.09-.42,2.16-.65,3.22a1.66,1.66,0,0,1-1.3,1.4,2,2,0,0,1-2-.94,4.08,4.08,0,0,1-.39-1.12c-.23-1.09-.42-2.18-.6-3.28a.1.1,0,0,1,.08,0A26.51,26.51,0,0,1,127.26,286.53Zm1.51,4.89a6.18,6.18,0,0,0,.52,1.79,1.83,1.83,0,0,0,1,.68c.16,0,.52-.39.68-.68a10.34,10.34,0,0,0,.39-1.27c.7-2.5.57-5.1.86-7.64a44.71,44.71,0,0,0,.1-4.58c0-1.46.1-2.91.05-4.37,0-1.17-.31-2.31-.36-3.46a2.52,2.52,0,0,0-.83-1.87.74.74,0,0,1-.26-.23c-.26-.47-.52-.34-.86,0a4.77,4.77,0,0,0-1.3,2.83,66.89,66.89,0,0,0-.91,6.87c-.13,1.92-.05,3.87-.05,5.8C128.15,287.34,128.43,289.39,128.77,291.42Z" style="fill: #fff"/>
      <path d="M138.75,290c-.34,1.4-.68,2.81-.94,4.24-.08.36-.31.39-.49.34a.56.56,0,0,1-.39-.44c-.13-1.79-.23-3.59-.34-5.38-.1-1.46-.21-2.91-.34-4.39-.16-1.85-.36-3.69-.47-5.54-.1-1.46-.08-2.89-.16-4.34-.08-1.77-.18-3.54-.29-5.3,0-.1-.1-.16.13-.36s.34.1.36.21a8.21,8.21,0,0,1,.29,1.56c.1,1.69.1,3.38.21,5.07s.18,3.33.31,5,.23,3.3.39,5,.29,3.12.44,4.71c0,.1.1.23.21.47.21-.7.44-1.3.6-1.92s.31-1.48.49-2.24a.72.72,0,0,1,.31-.36.62.62,0,0,1,.44.16,1.66,1.66,0,0,1,.34.68c.34,1.22.62,2.47,1,3.69a.39.39,0,0,0,.26.29c.08-.57.16-1.12.21-1.69.13-1.12.23-2.24.39-3.33.29-2,.65-3.87.91-5.8s.52-4.06.75-6.08c.1-1.07.16-2.16.23-3.22.05-.49.05-1,.13-1.48,0-.1.29-.31.31-.29.18.1.44.29.44.44a11.63,11.63,0,0,1-.05,1.9c-.21,2-.49,4-.75,6-.21,1.77-.49,3.51-.73,5.28-.21,1.4-.36,2.81-.52,4.21-.21,1.69-.42,3.38-.6,5.1a12.5,12.5,0,0,0-.08,2c0,.44-.1.7-.6.68s-.44-.26-.47-.65a11.58,11.58,0,0,0-.44-1.82l-.86-3.61s-.05-.05-.21-.13C139,289.06,138.86,289.52,138.75,290Z" style="fill: #fff"/>
      <path d="M156.2,290c-.34,1.4-.68,2.81-.94,4.24-.08.36-.31.39-.49.34a.56.56,0,0,1-.39-.44c-.13-1.79-.23-3.59-.34-5.38-.1-1.46-.21-2.91-.34-4.39-.16-1.85-.36-3.69-.47-5.54-.1-1.46-.08-2.89-.16-4.34-.08-1.77-.18-3.54-.29-5.3,0-.1-.1-.16.13-.36s.34.1.36.21a8.25,8.25,0,0,1,.29,1.56c.1,1.69.1,3.38.21,5.07s.18,3.33.31,5,.23,3.3.39,5,.29,3.12.44,4.71c0,.1.1.23.21.47.21-.7.44-1.3.6-1.92s.31-1.48.49-2.24a.72.72,0,0,1,.31-.36.62.62,0,0,1,.44.16,1.67,1.67,0,0,1,.34.68c.34,1.22.62,2.47,1,3.69a.39.39,0,0,0,.26.29c.08-.57.16-1.12.21-1.69.13-1.12.23-2.24.39-3.33.29-2,.65-3.87.91-5.8s.52-4.06.75-6.08c.1-1.07.16-2.16.23-3.22.05-.49.05-1,.13-1.48,0-.1.29-.31.31-.29.18.1.44.29.44.44a11.57,11.57,0,0,1-.05,1.9c-.21,2-.49,4-.75,6-.21,1.77-.49,3.51-.73,5.28-.21,1.4-.36,2.81-.52,4.21-.21,1.69-.42,3.38-.6,5.1a12.39,12.39,0,0,0-.08,2c0,.44-.1.7-.6.68s-.44-.26-.47-.65a11.52,11.52,0,0,0-.44-1.82l-.86-3.61s-.05-.05-.21-.13C156.49,289.06,156.3,289.52,156.2,290Z" style="fill: #fff"/>
      <path d="M164.44,284.77c.05,1.48.1,3,.13,4.47,0,.94,0,1.9,0,2.86,0,.68.1,1.33.1,2a.79.79,0,0,1-.21.55.49.49,0,0,1-.49.05.68.68,0,0,1-.26-.52c0-1.14.08-2.29.08-3.43,0-2.31-.1-4.6-.05-6.92.05-2.55.26-5.1.39-7.64,0-.83,0-1.66,0-2.5,0-1.33,0-3.07,0-4.39a.53.53,0,0,1,.31-.42.57.57,0,0,1,.44.26,1.12,1.12,0,0,1,.1.6c0,1.22-.05,2.86-.1,4.08-.05,2-.1,4-.18,6,0,.86-.08,1.72-.1,2.55h3.33v-1.51c0-1.59,0-3.2,0-4.78,0-1.27,0-2.55-.05-3.82,0-.94-.1-1.87-.1-2.81,0-.26,0-.62.44-.65s.49.26.49.57c0,.88,0,1.79,0,2.68,0,1.2,0,2.37,0,3.56,0,1.51-.13,3-.1,4.47.08,2.81.23,5.62.34,8.4.08,1.59.16,3.17.26,4.76,0,.21.16.44.08.6s-.31.65-.52.68-.49-.23-.49-.62c0-1.51.05-3,0-4.5-.05-1.72-.21-3.41-.31-5.12a1.05,1.05,0,0,1,0-.29c.1-.6-.26-.75-.73-.73-.88,0-1.74.1-2.7.13Z" style="fill: #fff"/>
      <path d="M174.89,269.84c.26,1.46.49,2.94.7,4.39s.29,2.94.52,4.39c.26,1.61.62,3.2.91,4.81.31,1.82.62,3.61.91,5.41.18,1.22.31,2.47.47,3.69.05.47.13.94.21,1.43a.93.93,0,0,1,0,.39,3.19,3.19,0,0,1-.57.39c-.1-.18-.29-.34-.31-.52-.1-.86-.1-1.72-.21-2.57-.16-1.56-.36-3.12-.6-4.68a.72.72,0,0,0-.44-.47,7.88,7.88,0,0,0-4.19-.13c-.05.55-.13,1.12-.16,1.69-.05,1.33-.1,2.65-.13,4,0,.65,0,1.33,0,2,0,.42-.18.75-.75.6,0-.73,0-1.43,0-2.16.05-1.77.1-3.56.23-5.33.1-1.33.31-2.65.47-4,.18-1.72.36-3.46.57-5.17s.47-3.17.7-4.76c.08-.65.08-1.27.18-1.92a12,12,0,0,1,.39-1.92c.05-.21.34-.34.6-.57A4.75,4.75,0,0,1,174.89,269.84Zm-.57,1.46a.87.87,0,0,0-.26,0c-.6,4.73-1.2,9.49-1.79,14.12l4.5.21C175.54,280.94,175.46,276,174.32,271.3Z" style="fill: #fff"/>
      <path d="M183.91,268.8c.6,0,1.2,0,1.79-.05.39,0,.7,0,.7.47s-.34.52-.7.52l-1.79-.08c0,2.63,0,5.17,0,7.7,0,1.46.08,2.91.13,4.37.05,1.2.13,2.42.16,3.61.05,2.26,0,4.55.05,6.84,0,.65.08,1.33.05,2a.68.68,0,0,1-.44.55c-.31.1-.55-.1-.55-.49,0-.83,0-1.64,0-2.47,0-2.26.05-4.5,0-6.76,0-1.92-.18-3.87-.26-5.8-.05-1.09-.1-2.18-.1-3.28,0-1.51,0-3,.05-4.58a7.5,7.5,0,0,0-.18-1.53c0-.1-.26-.21-.39-.21a13,13,0,0,0-1.43-.05c-.7,0-.73-.16-.7-.49S182.72,268.8,183.91,268.8Z" style="fill: #fff"/>
      <path d="M190.13,276.94a31.58,31.58,0,0,1,2.94,4.39,13.43,13.43,0,0,1,1.2,6.68c-.05.78,0,1.61-.05,2.39a6.19,6.19,0,0,1-1,3.17,2.29,2.29,0,0,1-2.44,1.09,3,3,0,0,1-.88-.57,4,4,0,0,1-1.4-2.52c-.13-.52-.18-1-.29-1.56-.08-.31,0-.52.34-.57s.42.13.47.42a15.7,15.7,0,0,0,.31,1.92,3,3,0,0,0,1.56,2c.55.31,1.09.05,1.56-.55a6,6,0,0,0,1.09-3.43,22.11,22.11,0,0,0-.31-6,13.33,13.33,0,0,0-1-2.5,12.72,12.72,0,0,0-2.08-3,9.58,9.58,0,0,1-1.85-3.48,4,4,0,0,1,.13-1.35c.16-1,.26-2,.49-3a2.75,2.75,0,0,1,.81-1.51,1.74,1.74,0,0,1,1.48,0,2.44,2.44,0,0,1,1.38,2.26c0,.29.18.57.23.86a1.42,1.42,0,0,1,0,.57c0,.05-.29.1-.34.05a2.58,2.58,0,0,1-.23-.47,14.68,14.68,0,0,0-.81-2.11c-.42-.81-.91-.73-1.46,0a4.92,4.92,0,0,0-.73,2.6,13.21,13.21,0,0,0-.16,1.77A4.12,4.12,0,0,0,190.13,276.94Z" style="fill: #fff"/>
      <path d="M205.05,279.93c.49,1.69,1,3.38,1.46,5.07s.83,3.3,1.25,4.94c.31,1.25.62,2.47.94,3.69a3.7,3.7,0,0,0,.08.52c.05.29.05.55-.34.6s-.55-.13-.6-.52a23.4,23.4,0,0,0-.47-2.7c-.42-1.69-.91-3.35-1.38-5s-1-3.46-1.46-5.17a21,21,0,0,0-1.07-2.83,2.1,2.1,0,0,0-.08.39c0,1.35,0,2.73,0,4.11,0,1.17,0,2.34,0,3.51,0,.52.1,1,.1,1.56,0,.81-.1,1.64-.08,2.44,0,1.2.13,2.37.23,3.54,0,.34.08.65-.36.65s-.6-.18-.6-.62c0-1.4,0-2.81-.08-4.19s-.08-2.47-.08-3.72c0-1.59.08-3.15.08-4.73s-.1-3.07-.08-4.6c0-.94.21-1.87.23-2.81.08-1.59.05-3.15.08-4.71a2.62,2.62,0,0,1,.23-.57,3.27,3.27,0,0,1,.52.26,1.47,1.47,0,0,1,.39.26l1.69,1.33a3.11,3.11,0,0,1,1,2c.49,1.85-.36,3.28-1.53,4.58a.56.56,0,0,1-.18.16l-.55.31C204.61,278.42,204.84,279.18,205.05,279.93Zm.81-5.9a3.67,3.67,0,0,0-2.18-3.9c-.1,2.31-.18,4.63-.29,6.94C204.45,276.89,205.75,275.17,205.86,274Z" style="fill: #fff"/>
      <path d="M211.58,276.81a17.48,17.48,0,0,0,2-.23c.39-.08.55.08.6.31a.5.5,0,0,1-.47.62l-1.74.08c-.34,0-.47.13-.47.47,0,1.66-.08,3.3-.1,5-.05,2.6-.08,5.2-.13,7.8v2.31c0,.31.05.47.49.47a6.51,6.51,0,0,1,1.85.29c.18.05.29.36.42.55-.18.1-.34.31-.52.31a13.83,13.83,0,0,1-1.46-.13l-.44-.08c-1.27-.13-1.25-.13-1.2-1.46.05-1.17.05-2.34.1-3.51s.1-2.37.1-3.54c0-1.77,0-3.51,0-5.28s.16-3.43.18-5.15,0-3.69,0-5.54c0-.29-.13-.65,0-.81a1.35,1.35,0,0,1,.86-.47c.94-.05,1.87,0,2.78-.05.34,0,.62.05.65.44s-.23.57-.62.57h-2.89Z" style="fill: #fff"/>
      <path d="M220.18,269.84c.26,1.46.49,2.94.7,4.39s.29,2.94.52,4.39c.26,1.61.62,3.2.91,4.81.31,1.82.62,3.61.91,5.41.18,1.22.31,2.47.47,3.69.05.47.13.94.21,1.43,0,.13,0,.31,0,.39a3.17,3.17,0,0,1-.57.39c-.1-.18-.29-.34-.31-.52-.1-.86-.1-1.72-.21-2.57-.16-1.56-.36-3.12-.6-4.68a.72.72,0,0,0-.44-.47,7.87,7.87,0,0,0-4.19-.13c-.05.55-.13,1.12-.16,1.69-.05,1.33-.1,2.65-.13,4,0,.65,0,1.33,0,2,0,.42-.18.75-.75.6,0-.73,0-1.43,0-2.16.05-1.77.1-3.56.23-5.33.1-1.33.31-2.65.47-4,.18-1.72.36-3.46.57-5.17s.47-3.17.7-4.76c.08-.65.08-1.27.18-1.92a12.06,12.06,0,0,1,.39-1.92c.05-.21.34-.34.6-.57A4.77,4.77,0,0,1,220.18,269.84Zm-.57,1.46a.87.87,0,0,0-.26,0c-.6,4.73-1.2,9.49-1.79,14.12l4.5.21C220.83,280.94,220.76,276,219.61,271.3Z" style="fill: #fff"/>
      <path d="M229.28,294.23c-.1.65-2.5.57-3.22.39-.34-.08-.42-.29-.42-.6,0-.62.05-1.27.05-1.9.05-3,.1-6,.18-9,0-1.69.13-3.38.13-5.07,0-1.87-.08-3.74-.13-5.62,0-1-.08-2-.05-3,0-.23,0-.62.42-.7s.39.44.39.68c.05,2.42.08,4.84.1,7.25,0,1.9.05,3.8,0,5.69s-.18,3.61-.18,5.43.1,3.48.13,5.25a1.65,1.65,0,0,1,.05.65C227.65,293.74,229.47,293.24,229.28,294.23Z" style="fill: #fff"/>
      <path d="M234.56,294.23c-.1.65-2.5.57-3.22.39-.34-.08-.42-.29-.42-.6,0-.62.05-1.27.05-1.9.05-3,.1-6,.18-9,0-1.69.13-3.38.13-5.07,0-1.87-.08-3.74-.13-5.62,0-1-.08-2-.05-3,0-.23,0-.62.42-.7s.39.44.39.68c.05,2.42.08,4.84.1,7.25,0,1.9.05,3.8,0,5.69s-.18,3.61-.18,5.43.1,3.48.13,5.25a1.64,1.64,0,0,1,.05.65C232.92,293.74,234.74,293.24,234.56,294.23Z" style="fill: #fff"/>
      <path d="M239.76,293.79c-.05-2.11-.05-4.21-.13-6.32-.05-1.35-.23-2.68-.31-4s-.23-2.68-.23-4a14.35,14.35,0,0,0-.75-4.21c-.49-1.66-1.17-3.3-1.77-4.94a4.42,4.42,0,0,1-.36-.91.73.73,0,0,1,.23-.6c.31-.18.49.1.6.36.49,1.33,1,2.65,1.48,4,.29.78.57,1.56.91,2.57.05-.16.1-.26.13-.36.44-1.43.86-2.89,1.3-4.32a12.44,12.44,0,0,1,.6-1.74A.5.5,0,0,1,242,269c.31,0,.18.42.13.6-.55,1.87-1.09,3.74-1.72,5.62a10.76,10.76,0,0,0-.39,4.26c.1,1.17.08,2.37.13,3.56.08,1.77.16,3.54.26,5.33.05,1.25.13,2.52.18,3.77a10.58,10.58,0,0,0,.1,1.59c.1.55-.08.86-.7,1.07A3.47,3.47,0,0,1,239.76,293.79Z" style="fill: #fff"/>
      <path d="M254.11,268.8c.6,0,1.2,0,1.79-.05.39,0,.7,0,.7.47s-.34.52-.7.52l-1.79-.08c0,2.63,0,5.17,0,7.7,0,1.46.08,2.91.13,4.37.05,1.2.13,2.42.16,3.61.05,2.26,0,4.55.05,6.84,0,.65.08,1.33.05,2a.68.68,0,0,1-.44.55c-.31.1-.55-.1-.55-.49,0-.83,0-1.64,0-2.47,0-2.26.05-4.5,0-6.76,0-1.92-.18-3.87-.26-5.8-.05-1.09-.1-2.18-.1-3.28,0-1.51,0-3,.05-4.58a7.5,7.5,0,0,0-.18-1.53c0-.1-.26-.21-.39-.21a13,13,0,0,0-1.43-.05c-.7,0-.73-.16-.7-.49S252.92,268.8,254.11,268.8Z" style="fill: #fff"/>
      <path d="M260.87,279.93c.49,1.69,1,3.38,1.46,5.07s.83,3.3,1.25,4.94c.31,1.25.62,2.47.94,3.69a3.7,3.7,0,0,0,.08.52c.05.29.05.55-.34.6s-.55-.13-.6-.52a23.4,23.4,0,0,0-.47-2.7c-.42-1.69-.91-3.35-1.38-5s-1-3.46-1.46-5.17a21,21,0,0,0-1.07-2.83,2.1,2.1,0,0,0-.08.39c0,1.35,0,2.73,0,4.11,0,1.17,0,2.34,0,3.51,0,.52.1,1,.1,1.56,0,.81-.1,1.64-.08,2.44,0,1.2.13,2.37.23,3.54,0,.34.08.65-.36.65s-.6-.18-.6-.62c0-1.4,0-2.81-.08-4.19s-.08-2.47-.08-3.72c0-1.59.08-3.15.08-4.73s-.1-3.07-.08-4.6c0-.94.21-1.87.23-2.81.08-1.59.05-3.15.08-4.71a2.62,2.62,0,0,1,.23-.57,3.27,3.27,0,0,1,.52.26,1.47,1.47,0,0,1,.39.26l1.69,1.33a3.11,3.11,0,0,1,1,2c.49,1.85-.36,3.28-1.53,4.58a.56.56,0,0,1-.18.16l-.55.31C260.43,278.42,260.66,279.18,260.87,279.93Zm.81-5.9a3.67,3.67,0,0,0-2.18-3.9c-.1,2.31-.18,4.63-.29,6.94C260.27,276.89,261.57,275.17,261.68,274Z" style="fill: #fff"/>
      <path d="M270.41,279.64c0-.94-.05-1.85,0-2.76s.1-2,.16-3c.05-1.35.1-2.73.13-4.11,0-.36.05-.68.52-.65s.49.31.47.73c-.1,1.38-.16,2.76-.23,4.13-.1,2-.21,4.06-.29,6.06-.1,2.39-.18,4.78-.31,7.18-.05,1-.18,1.92-.29,2.86a23.49,23.49,0,0,1-.36,2.37,9.55,9.55,0,0,1-.6,1.85,1.3,1.3,0,0,1-1.95.05,7.66,7.66,0,0,1-1-3.43c-.21-1.74-.39-3.46-.47-5.2-.05-1.56.1-3.15.16-4.73,0-1.4,0-2.81,0-4.21,0-.44.08-.88.08-1.33,0-1.61.05-3.22.08-4.86,0-.39-.08-.81-.05-1.2,0-.21,0-.62.36-.62s.39.39.39.57c0,2.29-.05,4.58-.08,6.84,0,1.3,0,2.57,0,3.85,0,2-.21,3.9-.08,5.82a28.72,28.72,0,0,0,.73,6.29,3.92,3.92,0,0,0,.39,1.4,4.91,4.91,0,0,1,.36.39c.13-.13.31-.23.36-.39a21.38,21.38,0,0,0,.81-3.07c.26-1.85.34-3.69.49-5.56,0-.31,0-.62,0-.94h0C270.26,282.53,270.36,281.07,270.41,279.64Z" style="fill: #fff"/>
      <path d="M274.78,276.81a17.46,17.46,0,0,0,2-.23c.39-.08.55.08.6.31a.5.5,0,0,1-.47.62l-1.74.08c-.34,0-.47.13-.47.47,0,1.66-.08,3.3-.1,5-.05,2.6-.08,5.2-.13,7.8v2.31c0,.31.05.47.49.47a6.51,6.51,0,0,1,1.85.29c.18.05.29.36.42.55-.18.1-.34.31-.52.31a13.83,13.83,0,0,1-1.46-.13l-.44-.08c-1.27-.13-1.25-.13-1.2-1.46.05-1.17.05-2.34.1-3.51s.1-2.37.1-3.54c0-1.77,0-3.51,0-5.28s.16-3.43.18-5.15,0-3.69,0-5.54c0-.29-.13-.65,0-.81a1.35,1.35,0,0,1,.86-.47c.94-.05,1.87,0,2.78-.05.34,0,.62.05.65.44s-.23.57-.62.57h-2.89Z" style="fill: #fff"/>
    </g>
  </g>
</svg>
