<svg id="Layer_2" data-name="Layer 2" xmlns="http://www.w3.org/2000/svg" width="331.93" height="503.64" viewBox="0 0 331.93 503.64">
  <title>newbookArtboard 7</title>
  <g>
    <path d="M290.93,431.9H41a4.54,4.54,0,0,1-4.53-4.53V56.08A4.54,4.54,0,0,1,41,51.55H290.93a4.54,4.54,0,0,1,4.53,4.53V427.37A4.54,4.54,0,0,1,290.93,431.9ZM41,52.55a3.54,3.54,0,0,0-3.53,3.53V427.37A3.54,3.54,0,0,0,41,430.9H290.93a3.54,3.54,0,0,0,3.53-3.53V56.08a3.54,3.54,0,0,0-3.53-3.53Z" style="fill: #fff"/>
    <path d="M287,427.7H44.92a4.43,4.43,0,0,1-4.42-4.42V59.32a4.43,4.43,0,0,1,4.42-4.42H287a4.43,4.43,0,0,1,4.42,4.42V423.27A4.43,4.43,0,0,1,287,427.7ZM44.92,55.9a3.43,3.43,0,0,0-3.42,3.42V423.27a3.43,3.43,0,0,0,3.42,3.42H287a3.43,3.43,0,0,0,3.42-3.42V59.32A3.43,3.43,0,0,0,287,55.9Z" style="fill: #fff"/>
    <path d="M312.24,503.64H19.69A19.71,19.71,0,0,1,0,484V19.69A19.71,19.71,0,0,1,19.69,0H312.24a19.71,19.71,0,0,1,19.69,19.69V484A19.71,19.71,0,0,1,312.24,503.64ZM19.69,1A18.71,18.71,0,0,0,1,19.69V484a18.71,18.71,0,0,0,18.69,18.69H312.24A18.71,18.71,0,0,0,330.93,484V19.69A18.71,18.71,0,0,0,312.24,1Z" style="fill: #fff"/>
    <path d="M307.74,496.32H24.19a19.12,19.12,0,0,1-19.1-19.1V26.42a19.12,19.12,0,0,1,19.1-19.1H307.74a19.12,19.12,0,0,1,19.1,19.1V477.22A19.12,19.12,0,0,1,307.74,496.32ZM24.19,8.33a18.12,18.12,0,0,0-18.1,18.1V477.22a18.12,18.12,0,0,0,18.1,18.1H307.74a18.12,18.12,0,0,0,18.1-18.1V26.42a18.12,18.12,0,0,0-18.1-18.1Z" style="fill: #fff"/>
    <path d="M52.64,29.27a3.22,3.22,0,1,1,3.22-3.22A3.22,3.22,0,0,1,52.64,29.27Zm0-5.43a2.22,2.22,0,1,0,2.22,2.22A2.22,2.22,0,0,0,52.64,23.83Z" style="fill: #fff"/>
    <path d="M65.41,29.27a3.22,3.22,0,1,1,3.22-3.22A3.22,3.22,0,0,1,65.41,29.27Zm0-5.43a2.22,2.22,0,1,0,2.22,2.22A2.22,2.22,0,0,0,65.41,23.83Z" style="fill: #fff"/>
    <path d="M166,469.43a9.31,9.31,0,1,1,9.31-9.31A9.32,9.32,0,0,1,166,469.43Zm0-17.61a8.31,8.31,0,1,0,8.31,8.31A8.32,8.32,0,0,0,166,451.82Z" style="fill: #fff"/>
    <g>
      <path d="M118.38,149.61c-1.42,1.85-3.63,3.94-7,3.08a8.37,8.37,0,0,1-2.52-1.6c-2.4-1.72-3.2-4.31-3.82-6.65-.31-1.23-.37-2.52-.68-3.76a2.23,2.23,0,1,1,4.37-.8c.25,1.48.37,3,.74,4.5a6,6,0,0,0,3.08,3.94c.49.25,1.17.18,2.09-1,1.66-2.09,2.15-4.62,2.34-7.51a52.09,52.09,0,0,0-.68-13.85,12.79,12.79,0,0,0-.92-2.71c-.43-1-.92-2-1.29-3-1-2.59-3.08-4.74-4.74-6.9a24.17,24.17,0,0,1-4.68-8.68,4.26,4.26,0,0,1,0-2A16.88,16.88,0,0,0,105,101c.37-2.4.62-4.93,1.17-7.27a8.21,8.21,0,0,1,2.4-4.31c1.29-1,3.63-.62,4.74-.06,2.71,1.23,3.82,3.69,4,6.4a2.23,2.23,0,0,0,.18.68,8.25,8.25,0,0,1,.31,1.17,4.67,4.67,0,0,1,0,1.85c-.31,1.29-2.34,1.42-3,.74a5.07,5.07,0,0,1-.74-1.54c-.37-.86-.62-1.72-.92-2.59a12.6,12.6,0,0,0-.92-2.28c-.43-.8-.8-.74-1.42.12a5.45,5.45,0,0,0-1.11,2.59c-.18,1-.18,2-.37,3q-.28,2-.37,4.06a5.82,5.82,0,0,0,1.35,3.82c.31.43.62.92.92,1.35,1.17,1.72,2.46,3.32,3.63,5a38.18,38.18,0,0,1,3.45,5.54,33.78,33.78,0,0,1,2.89,16.44c-.12,1.91.06,3.88-.12,5.73C120.78,144.13,120.35,147.15,118.38,149.61Z" style="fill: #fff"/>
      <path d="M137,148.44a2.41,2.41,0,0,1,1.29,1,1.84,1.84,0,0,0,.25.49c0,.06.06.18.86,1.29-1.23.8-1.42,1-1.6,1.11a2.84,2.84,0,0,1-1.35.49,35,35,0,0,1-3.57-.31l-1-.18a10.35,10.35,0,0,1-1.85-.25,2.47,2.47,0,0,1-2.15-2.52c0-.49,0-1.11.06-2,.12-2.77.18-5.54.25-8.25s.25-5.6.25-8.37c.06-4.19-.06-8.37.06-12.56.06-4,.37-8.07.43-12.13.06-4.37-.06-8.74-.06-13.11,0-.31-.12-.68-.12-1a2.47,2.47,0,0,1,.37-1.72A4.62,4.62,0,0,1,132,89c2.22-.18,4.49-.06,6.71-.12.74,0,2.71.12,2.77,2.28a2.49,2.49,0,0,1-2.71,2.59h-5.6v14.1a27.78,27.78,0,0,0,3.26-.43,2.21,2.21,0,0,1,2.83,1.79,2.33,2.33,0,0,1-2.22,2.89c-1.35.06-2.71.18-4.06.18-.06,3.88-.18,7.76-.25,11.64-.12,6.16-.19,12.31-.31,18.47v5.36A18.58,18.58,0,0,1,137,148.44Z" style="fill: #fff"/>
      <path d="M150.28,93.22c-2.09-.06-3-.74-2.89-2.52.06-.55,1.85-1.66,4.37-1.72,1.79-.06,3.88,0,5.29,0s2.77,0,4.19-.12c1-.06,2.89.06,3,2.28.12,2.4-2.09,2.52-2.89,2.52-1-.06-2-.06-3-.12,0,5.73-.06,11.33,0,16.93,0,3.45.18,6.9.31,10.28.12,2.89.31,5.73.37,8.62.12,5.36.06,10.78.12,16.13,0,1.66.18,3.26.12,4.86a3,3,0,0,1-1.91,2.4,2.21,2.21,0,0,1-2.89-2.34c.06-2,.06-3.94.06-5.85.06-5.36.12-10.65.06-16-.06-4.56-.43-9.11-.62-13.67-.12-2.59-.25-5.23-.25-7.82,0-3.57.12-7.2.12-10.84a15.93,15.93,0,0,0-.31-2.89A27.32,27.32,0,0,0,150.28,93.22Z" style="fill: #fff"/>
      <path d="M173.68,93.22c-2.09-.06-3-.74-2.89-2.52.06-.55,1.85-1.66,4.37-1.72,1.79-.06,3.88,0,5.29,0s2.77,0,4.19-.12c1-.06,2.89.06,3,2.28.12,2.4-2.09,2.52-2.89,2.52-1-.06-2-.06-3-.12,0,5.73-.06,11.33,0,16.93,0,3.45.18,6.9.31,10.28.12,2.89.31,5.73.37,8.62.12,5.36.06,10.78.12,16.13,0,1.66.18,3.26.12,4.86a3,3,0,0,1-1.91,2.4,2.21,2.21,0,0,1-2.89-2.34c.06-2,.06-3.94.06-5.85.06-5.36.12-10.65.06-16-.06-4.56-.43-9.11-.62-13.67-.12-2.59-.25-5.23-.25-7.82,0-3.57.12-7.2.12-10.84a15.93,15.93,0,0,0-.31-2.89A27.32,27.32,0,0,0,173.68,93.22Z" style="fill: #fff"/>
      <path d="M199.17,147.89c.92-.06,2-.19,2.83-.19,1.79,0,3.63.68,3.26,2.89-.31,1.91-7.08,2.46-9.11,2a2.39,2.39,0,0,1-2-2.71c.06-1.48.12-3,.12-4.49.12-7.08.25-14.22.43-21.37.06-3.94.31-7.94.31-11.94,0-4.43-.18-8.87-.31-13.3-.06-2.34-.18-4.68-.12-7,0-.74.18-2.59,2-2.89a1.94,1.94,0,0,1,2.15,1.42,3.59,3.59,0,0,1,.18,1.42c.12,5.73.19,11.45.25,17.18,0,4.49.12,9,0,13.48-.06,4.31-.43,8.56-.43,12.87,0,4.13.25,8.25.31,12.38,0,.06.06.12.06.18Z" style="fill: #fff"/>
      <path d="M220.84,148.44a2.41,2.41,0,0,1,1.29,1,1.84,1.84,0,0,0,.25.49c0,.06.06.18.86,1.29-1.23.8-1.42,1-1.6,1.11a2.84,2.84,0,0,1-1.35.49,35,35,0,0,1-3.57-.31l-1-.18a10.35,10.35,0,0,1-1.85-.25,2.47,2.47,0,0,1-2.15-2.52c0-.49,0-1.11.06-2,.12-2.77.18-5.54.25-8.25s.25-5.6.25-8.37c.06-4.19-.06-8.37.06-12.56.06-4,.37-8.07.43-12.13.06-4.37-.06-8.74-.06-13.11,0-.31-.12-.68-.12-1a2.47,2.47,0,0,1,.37-1.72A4.62,4.62,0,0,1,215.79,89c2.22-.18,4.49-.06,6.71-.12.74,0,2.71.12,2.77,2.28a2.49,2.49,0,0,1-2.71,2.59H217v14.1a27.78,27.78,0,0,0,3.26-.43,2.21,2.21,0,0,1,2.83,1.79,2.33,2.33,0,0,1-2.22,2.89c-1.35.06-2.71.18-4.06.18-.06,3.88-.18,7.76-.25,11.64-.12,6.16-.19,12.31-.31,18.47v5.36A18.58,18.58,0,0,1,220.84,148.44Z" style="fill: #fff"/>
      <path d="M139.19,198.26c-.06,1.6-.25,3.2-.25,4.8.06,2.4.31,4.86.37,7.33.06,3.57-.06,7.14-.12,10.71a16,16,0,0,1-.18,3.45,3,3,0,0,1-2,2.15c-2.15.49-2.59-1.48-2.52-2.46.18-3,.49-6,.62-8.93.06-2-.12-3.94-.12-5.85,0-2.4.12-4.8.12-7.14a91.13,91.13,0,0,1,.06-9.17c.49-4.19-.06-8.31.18-12.5.25-3.94.55-7.88.74-11.82a20.75,20.75,0,0,0-.19-2.71,2.52,2.52,0,0,1,2.34-2.83c.92-.12,1.91-.43,2.83-.49a24.5,24.5,0,0,1,4.25.06,2.9,2.9,0,0,1,2.28,2.22,2.43,2.43,0,0,1-2.46,2.71,9.1,9.1,0,0,1-1.29-.06c-.37,0-.68-.06-1-.06a17.29,17.29,0,0,0-2.52,0l-.68,15.58,2,.37a5.31,5.31,0,0,1,1.42.31,2,2,0,0,1,1.17,2.22c-.31,2.16-2.4,2.09-3.45,1.85a5.29,5.29,0,0,0-1-.18C139.5,191.3,139.32,194.75,139.19,198.26Z" style="fill: #fff"/>
      <path d="M169.92,204.41c-.25,3.45-.43,6.83-.86,10.22a67.65,67.65,0,0,1-1.6,7.82,5.09,5.09,0,0,1-4,4.25,6,6,0,0,1-6-2.83,9.42,9.42,0,0,1-1.11-3c-.49-2.59-.92-5.23-1.66-9.05H155c-.31-1.91-.68-3.76-.8-5.66-.25-4-.37-8.07-.37-12.07,0-3.75.12-7.57.43-11.33a59.4,59.4,0,0,1,1.17-7.27,39.86,39.86,0,0,1,1.72-6.59,22.5,22.5,0,0,1,2.89-5c1.23-1.72,5.17-1.23,6.34-.12a9.33,9.33,0,0,1,3.51,6.83c.12,2,.74,4.06.8,6.16.12,3.39,0,6.77,0,10.16,0,2,0,4.13-.06,6.22C170.41,196.84,170.17,200.66,169.92,204.41Zm-6-36.45a2.66,2.66,0,0,0-.43-.37,2.16,2.16,0,0,1-.43-.55c-.06-.12,0,.06-.18.18-1.66,1.54-2.28,3.69-2.71,6-.92,5.36-1.66,10.71-2.09,16.13-.31,4.56-.12,9.11-.12,13.61.74,4.86,1.42,9.67,2.16,14.47a11.57,11.57,0,0,0,1.17,3.82,2.77,2.77,0,0,0,1.54,1c-.06-.06-.06-.12-.12-.12.18-.25.31-.62.43-.8a8.64,8.64,0,0,0,.43-1.35,13.38,13.38,0,0,0,.43-1.48,38,38,0,0,0,1.29-8.8c.25-3,.31-6.09.68-9.11.37-3.51.18-7.08.25-10.65s.25-6.9.12-10.34c-.06-2.71-.68-5.42-.86-8.13A4.38,4.38,0,0,0,163.95,168Z" style="fill: #fff"/>
      <path d="M190,224.49a57,57,0,0,0-1.11-6.34c-1-3.94-2.16-7.88-3.2-11.76-1.17-4.12-2.28-8.19-3.45-12.25-.12-.37-.25-.74-.37-1v4.62c0,2.77,0,5.54.06,8.31,0,1.23.25,2.46.25,3.69,0,1.91-.25,3.82-.18,5.79.06,2.77.31,5.48.55,8.25a3,3,0,0,1,.06.74,2.24,2.24,0,0,1-.12.86,2,2,0,0,1-2,1.29,2.46,2.46,0,0,1-2.65-2.77c.06-3.26-.06-6.53-.19-9.85-.06-3-.18-5.85-.18-8.8,0-3.76.18-7.45.18-11.21s-.25-7.26-.18-10.9c0-2.28.43-4.49.55-6.71.12-3.69.12-7.39.25-11.14a2.38,2.38,0,0,1,.31-1.11c.06-.25.18-.43.74-1.85,1.66.74,2.09,1,2.52,1.17l1.11.74c1.29,1,2.65,2.09,4,3.14a6.11,6.11,0,0,1,1.91,2.71,19.66,19.66,0,0,1,.8,2.71c1.23,5-1.11,8.8-3.88,11.94a3,3,0,0,1-.74.62l-.49.25c.43,1.54.92,3.08,1.35,4.56,1.11,4,2.34,8,3.45,12s1.91,7.82,2.89,11.7c.74,3,1.48,5.85,2.22,8.74a10,10,0,0,1,.18,1.23c.19.8.37,2.71-1.79,3A2.4,2.4,0,0,1,190,224.49ZM182,181.63c1.54-1.23,3.14-3.63,3.26-5.29.31-3.51-.92-5.54-2.77-7Z" style="fill: #fff"/>
      <path d="M132.79,241.12a17.23,17.23,0,0,1,.8-2.52c.31-.74,1.72-2,2.52-1.72a3.81,3.81,0,0,1,2.28,1.85,9,9,0,0,1,.49,3.26c.06,2.4-.12,4.8-.06,7.2.12,4.62.31,9.17.55,13.73.18,4,.43,8.07.68,12.07.25,3.39.68,6.83.8,10.28.18,3.82.12,7.63.12,11.45v.62a2.4,2.4,0,0,1-2,3.32,2.48,2.48,0,0,1-2.65-2.83,41.82,41.82,0,0,0,.31-4.8c-.06-3.94-.31-7.82-.49-11.76-.06-1.17-.18-2.34-.25-3.57a38.46,38.46,0,0,1-.06-4.62,25,25,0,0,0-.25-4.31c-.12-1.66-.37-3.32-.49-5-.25-2.89-.43-5.79-.62-8.68-.06-1.42-.12-2.89-.12-4.31l-.25.8c-.62,2.09-.92,4.31-1.42,6.46a3.13,3.13,0,0,1-2.77,2.65c-2.28.18-2.71-1.72-2.89-2.59-.37-2-.74-3.94-1.23-5.91a6.56,6.56,0,0,0-.43-1.17,3.75,3.75,0,0,0-.31-.74c.06,2.71.12,5.42.12,8.13.06,5.66-.06,11.33,0,17.05,0,3.88.06,7.82.19,11.7.12,3.08.55,6.16.62,9.17a3,3,0,0,1-2,2.65c-2.22.68-2.77-1.54-2.77-2.34,0-4.43-.12-8.8-.18-13.18-.06-3-.18-6-.18-9,0-3.75.12-7.45.12-11.14-.06-4.93-.25-9.85-.31-14.78-.06-2.09.06-4.19.06-6.28,0-.37-.12-.8-.12-1.17a6.51,6.51,0,0,1-.12-1.6c.06-.62.43-2.16,1.54-2.59a2.41,2.41,0,0,1,3.51,1.35c1,3.08,2.15,6.09,3.26,9.17.37,1.11.74,2.28,1,3.39Z" style="fill: #fff"/>
      <path d="M164.38,278.3c-.25,3.45-.43,6.83-.86,10.22a67.65,67.65,0,0,1-1.6,7.82,5.09,5.09,0,0,1-4,4.25,6,6,0,0,1-6-2.83,9.42,9.42,0,0,1-1.11-3c-.49-2.59-.92-5.23-1.66-9.05h.25c-.31-1.91-.68-3.76-.8-5.66-.25-4-.37-8.07-.37-12.07,0-3.75.12-7.57.43-11.33a59.4,59.4,0,0,1,1.17-7.27,39.86,39.86,0,0,1,1.72-6.59,22.5,22.5,0,0,1,2.89-5c1.23-1.72,5.17-1.23,6.34-.12a9.33,9.33,0,0,1,3.51,6.83c.12,2,.74,4.06.8,6.16.12,3.39,0,6.77,0,10.16,0,2,0,4.13-.06,6.22C164.87,270.73,164.62,274.55,164.38,278.3Zm-6-36.45a2.66,2.66,0,0,0-.43-.37,2.16,2.16,0,0,1-.43-.55c-.06-.12,0,.06-.18.18-1.66,1.54-2.28,3.69-2.71,6-.92,5.36-1.66,10.71-2.09,16.13-.31,4.56-.12,9.11-.12,13.61.74,4.86,1.42,9.67,2.16,14.47a11.57,11.57,0,0,0,1.17,3.82,2.77,2.77,0,0,0,1.54,1c-.06-.06-.06-.12-.12-.12.18-.25.31-.62.43-.8a8.64,8.64,0,0,0,.43-1.35,13.38,13.38,0,0,0,.43-1.48,38,38,0,0,0,1.29-8.8c.25-3,.31-6.09.68-9.11.37-3.51.18-7.08.25-10.65s.25-6.9.12-10.34c-.06-2.71-.68-5.42-.86-8.13A4.38,4.38,0,0,0,158.41,241.85Z" style="fill: #fff"/>
      <path d="M184.45,298.38a57,57,0,0,0-1.11-6.34c-1-3.94-2.16-7.88-3.2-11.76-1.17-4.12-2.28-8.19-3.45-12.25-.12-.37-.25-.74-.37-1v4.62c0,2.77,0,5.54.06,8.31,0,1.23.25,2.46.25,3.69,0,1.91-.25,3.82-.18,5.79.06,2.77.31,5.48.55,8.25a3,3,0,0,1,.06.74,2.24,2.24,0,0,1-.12.86,2,2,0,0,1-2,1.29,2.46,2.46,0,0,1-2.65-2.77c.06-3.26-.06-6.53-.19-9.85-.06-3-.18-5.85-.18-8.8,0-3.76.18-7.45.18-11.21s-.25-7.26-.18-10.9c0-2.28.43-4.49.55-6.71.12-3.69.12-7.39.25-11.14A2.38,2.38,0,0,1,173,238c.06-.25.18-.43.74-1.85,1.66.74,2.09,1,2.52,1.17l1.11.74c1.29,1,2.65,2.09,4,3.14a6.11,6.11,0,0,1,1.91,2.71,19.66,19.66,0,0,1,.8,2.71c1.23,5-1.11,8.8-3.88,11.94a3,3,0,0,1-.74.62l-.49.25c.43,1.54.92,3.08,1.35,4.56,1.11,4,2.34,8,3.45,12s1.91,7.82,2.89,11.7c.74,3,1.48,5.85,2.22,8.74a10,10,0,0,1,.18,1.23c.19.8.37,2.71-1.79,3A2.4,2.4,0,0,1,184.45,298.38Zm-7.94-42.85c1.54-1.23,3.14-3.63,3.26-5.29.31-3.51-.92-5.54-2.77-7Z" style="fill: #fff"/>
      <path d="M204.65,296.22a2.41,2.41,0,0,1,1.29,1,1.84,1.84,0,0,0,.25.49c0,.06.06.18.86,1.29-1.23.8-1.42,1-1.6,1.11a2.84,2.84,0,0,1-1.35.49,35,35,0,0,1-3.57-.31l-1-.18a10.35,10.35,0,0,1-1.85-.25,2.47,2.47,0,0,1-2.15-2.52c0-.49,0-1.11.06-2,.12-2.77.18-5.54.25-8.25s.25-5.6.25-8.37c.06-4.19-.06-8.37.06-12.56.06-4,.37-8.07.43-12.13.06-4.37-.06-8.74-.06-13.11,0-.31-.12-.68-.12-1a2.47,2.47,0,0,1,.37-1.72,4.62,4.62,0,0,1,2.89-1.54c2.22-.18,4.49-.06,6.71-.12.74,0,2.71.12,2.77,2.28a2.49,2.49,0,0,1-2.71,2.59h-5.6v14.1a27.78,27.78,0,0,0,3.26-.43,2.21,2.21,0,0,1,2.83,1.79,2.33,2.33,0,0,1-2.22,2.89c-1.35.06-2.71.18-4.06.18-.06,3.88-.18,7.76-.25,11.64-.12,6.16-.19,12.31-.31,18.47v5.36A18.58,18.58,0,0,1,204.65,296.22Z" style="fill: #fff"/>
    </g>
    <g>
      <path d="M98.29,356.22a11.06,11.06,0,0,1,.52-1.63c.2-.48,1.11-1.27,1.63-1.12a2.47,2.47,0,0,1,1.47,1.19,5.8,5.8,0,0,1,.32,2.11c0,1.55-.08,3.11,0,4.66.08,3,.2,5.93.36,8.88.12,2.59.28,5.21.44,7.8.16,2.19.44,4.42.52,6.65.12,2.47.08,4.94.08,7.4v.4a1.55,1.55,0,0,1-1.27,2.15,1.6,1.6,0,0,1-1.71-1.83,27.06,27.06,0,0,0,.2-3.11c0-2.55-.2-5.06-.32-7.6,0-.76-.12-1.51-.16-2.31a24.88,24.88,0,0,1,0-3,16.13,16.13,0,0,0-.16-2.79c-.08-1.08-.24-2.15-.32-3.22-.16-1.87-.28-3.74-.4-5.61,0-.92-.08-1.87-.08-2.79l-.16.52c-.4,1.35-.6,2.79-.92,4.18a2,2,0,0,1-1.79,1.71c-1.47.12-1.75-1.12-1.87-1.67-.24-1.27-.48-2.55-.8-3.82a4.29,4.29,0,0,0-.28-.76,2.45,2.45,0,0,0-.2-.48c0,1.75.08,3.5.08,5.25,0,3.66,0,7.33,0,11,0,2.51,0,5.06.12,7.56.08,2,.36,4,.4,5.93a2,2,0,0,1-1.31,1.71c-1.43.44-1.79-1-1.79-1.51,0-2.87-.08-5.69-.12-8.52,0-2-.12-3.9-.12-5.81,0-2.43.08-4.82.08-7.21,0-3.18-.16-6.37-.2-9.55,0-1.35,0-2.71,0-4.06,0-.24-.08-.52-.08-.76a4.23,4.23,0,0,1-.08-1c0-.4.28-1.39,1-1.67a1.56,1.56,0,0,1,2.27.88c.68,2,1.39,3.94,2.11,5.93.24.72.48,1.47.68,2.19Z" style="fill: #fff"/>
      <path d="M114.21,391.85a1.57,1.57,0,0,1,.84.68,1.17,1.17,0,0,0,.16.32s0,.12.56.84c-.8.52-.92.64-1,.72a1.83,1.83,0,0,1-.88.32,22.73,22.73,0,0,1-2.31-.2l-.68-.12a6.58,6.58,0,0,1-1.19-.16,1.6,1.6,0,0,1-1.39-1.63c0-.32,0-.72,0-1.27.08-1.79.12-3.58.16-5.33s.16-3.62.16-5.41c0-2.71,0-5.41,0-8.12s.24-5.21.28-7.84c0-2.83,0-5.65,0-8.48,0-.2-.08-.44-.08-.64a1.59,1.59,0,0,1,.24-1.11,3,3,0,0,1,1.87-1c1.43-.12,2.91,0,4.34-.08a1.55,1.55,0,0,1,1.79,1.47,1.61,1.61,0,0,1-1.75,1.67H111.7v9.12a18.06,18.06,0,0,0,2.11-.28,1.43,1.43,0,0,1,1.83,1.15,1.51,1.51,0,0,1-1.43,1.87c-.88,0-1.75.12-2.63.12,0,2.51-.12,5-.16,7.52-.08,4-.12,8-.2,11.94v3.46A12,12,0,0,1,114.21,391.85Z" style="fill: #fff"/>
      <path d="M129.73,391a6.61,6.61,0,0,1-1,2.31c-1.31,2-4,1.71-5.45-.12a5.17,5.17,0,0,1-.92-2.11c-.28-1.15-.32-2.35-.64-3.5a29.57,29.57,0,0,1-.8-6.49,65.27,65.27,0,0,1,.12-7.88c.08-2.47.24-4.94.52-7.4a71,71,0,0,1,1.15-7.09,26.64,26.64,0,0,1,1.23-3.54c.64-1.79,3.82-2.51,5.25-1.23.88.48,3,2.47,2.51,3.58a1.2,1.2,0,0,1-.76.64,1.66,1.66,0,0,1-1.67-.4l-.4-.4-.12-.12a2.32,2.32,0,0,1-.56-.32l-.32-.24c-.92-.56-1.31-.44-1.59.64-.6,2.27-1.11,4.5-1.55,6.81a44.32,44.32,0,0,0-.52,4.62c-.2,2.07-.4,4.14-.48,6.21-.08,1.55.16,3.07.08,4.62a39.55,39.55,0,0,0,.88,8.64,11.85,11.85,0,0,0,1,3c.08.16.28.4.36.4s.28-.08.36-.4c.6-2.67,1.31-5.33,1.79-8,.32-1.83.36-3.7.52-5.65a8.28,8.28,0,0,1-1.75-.12c-.52-.08-1.79-.84-1.75-1.43a1.76,1.76,0,0,1,2.07-1.75c1,.16,2,.12,3,.32a2,2,0,0,1,1.43,1.75c-.16,2.31-.36,4.66-.68,6.93C130.77,385.87,130.25,388.46,129.73,391Z" style="fill: #fff"/>
      <path d="M143.94,364.18a15.46,15.46,0,0,0-.56,6.21c.16,1.83.12,3.66.2,5.49.12,2.71.24,5.41.4,8.16.08,1.91.2,3.86.28,5.77a15.15,15.15,0,0,0,.16,2.35c.24,1.31-.4,2.11-2.47,2.79-.24-1.08-.36-1.31-.4-1.55a3.39,3.39,0,0,1-.16-.92c-.08-3.22-.08-6.49-.2-9.71-.08-2-.36-4.06-.48-6.09s-.36-4.1-.36-6.17a22.42,22.42,0,0,0-1.11-6.21c-.76-2.55-1.79-5.06-2.71-7.56-.08-.2-.2-.4-.28-.6a4.06,4.06,0,0,1-.32-.92,1.78,1.78,0,0,1,.76-1.71c1.11-.68,1.79.36,2,1,.8,2,1.55,4.06,2.31,6.13q.3.78.6,1.67c.48-1.63,1-3.22,1.47-4.86.28-.92.56-1.87.92-2.75a1.61,1.61,0,0,1,1.71-1,1.12,1.12,0,0,1,1,1.16,3.79,3.79,0,0,1-.12.76C145.73,358.45,144.9,361.31,143.94,364.18Z" style="fill: #fff"/>
      <path d="M161.49,379.07c0-1.08-.16-2.15-.16-3.19,0-2.35,0-4.7,0-7,0-3.07,0-6.13,0-9.16,0-1.59,0-3.19.16-4.78a1.81,1.81,0,0,1,.68-1.15,7.26,7.26,0,0,0,.84-1,9.9,9.9,0,0,0,.72,1,1.81,1.81,0,0,1,.52,1.12c0,3-.16,6-.16,9s0,6.13,0,9.16c0,2,.16,4.06.2,6.09v13.58c0,1.43-.88,2.15-1.87,2a2.28,2.28,0,0,1-2-2c-.24-2.15-.44-4.34-.8-6.49-.4-2.51-1-5-1.47-7.52-.2-.84-.52-1.67-.72-2.51-.24-1-.44-2.07-.64-3.11-.56-2.63-1.08-5.21-1.71-7.8-.44-1.87-1-3.7-1.55-5.57a8,8,0,0,0-.44-1l.72-.36a4,4,0,0,1,.36,1.55c0,.56,0,1.11,0,1.71,0,1.55,0,3.1.08,4.7,0,.8.08,1.59.08,2.39,0,3,0,6.05,0,9,0,2.19.24,4.34.32,6.53.08,2.59.12,5.22.24,7.8a1.57,1.57,0,0,1-1.63,1.79c-.44,0-1.63-.64-1.47-1.51a15,15,0,0,0,.16-3.54c-.08-1.23-.2-2.47-.2-3.66,0-1.63-.12-8.52-.16-9.67-.08-2.59,0-5.14,0-7.72,0-1.27.08-2.55,0-3.82,0-1-.2-2-.24-2.91-.08-1.51-.08-3-.12-4.54,0-.12,0-.4,0-.52a1.53,1.53,0,0,1,1-2.15,1.82,1.82,0,0,1,2.35,1.11,45.23,45.23,0,0,1,1.63,4.42c.76,2.71,1.35,5.49,2,8.24.92,3.82,1.87,7.6,2.71,11.46.12.6.24,1.15.36,1.75C161.41,380.18,161.49,379.62,161.49,379.07Z" style="fill: #fff"/>
      <path d="M182.43,368.16c.32-.76.72-1.51,1.07-2.31.8-1.79,1.55-3.58,2.31-5.37.84-2,1.59-4,2.39-6a3,3,0,0,1,.4-.8,1.26,1.26,0,0,1,1.55-.24,1.66,1.66,0,0,1,.72,2.27c-.8,1.83-1.39,3.74-2.19,5.57-1.43,3.18-2.95,6.29-4.38,9.47-.28.6-.56,1.19-.8,1.79,0,0,0,.08.08.16.52,1.23,1.11,2.51,1.67,3.74a21.18,21.18,0,0,1,.84,2c.48,1.31.92,2.63,1.35,3.94.8,2.55,1.59,5.1,2.35,7.64a9,9,0,0,1,.32,2.75,1.86,1.86,0,0,1-1.35,1.67c-1,.24-1.59-.84-1.71-1.31-.52-2-1-4.78-1.51-6.85-.24-.88-.6-1.71-.84-2.63a22.75,22.75,0,0,0-2.35-6.05c0,.4,0,.8,0,1.15,0,1.12,0,2.23,0,3.34.08,3.5.12,7,.2,10.51a1.79,1.79,0,0,1-1.91,2.07,1.68,1.68,0,0,1-1.23-1.51c0-1.87.12-3.74.12-5.61,0-3.34,0-6.69,0-10,0-2.83,0-5.65.16-8.48.12-2.31.36-4.62.48-6.93s.08-4.34.12-6.53a1.27,1.27,0,0,1-.12-.36,1.11,1.11,0,0,1,.36-1.23,1.27,1.27,0,0,1,1.31-.68c1,.12,1.43,3.58,1.35,5-.2,3.19-.52,6.33-.68,9.51Z" style="fill: #fff"/>
      <path d="M201.25,391.85a1.57,1.57,0,0,1,.84.68,1.17,1.17,0,0,0,.16.32s0,.12.56.84c-.8.52-.92.64-1,.72a1.83,1.83,0,0,1-.88.32,22.73,22.73,0,0,1-2.31-.2l-.68-.12a6.58,6.58,0,0,1-1.19-.16,1.6,1.6,0,0,1-1.39-1.63c0-.32,0-.72,0-1.27.08-1.79.12-3.58.16-5.33s.16-3.62.16-5.41c0-2.71,0-5.41,0-8.12s.24-5.21.28-7.84c0-2.83,0-5.65,0-8.48,0-.2-.08-.44-.08-.64a1.59,1.59,0,0,1,.24-1.11,3,3,0,0,1,1.87-1c1.43-.12,2.91,0,4.34-.08a1.55,1.55,0,0,1,1.79,1.47,1.61,1.61,0,0,1-1.75,1.67h-3.62v9.12a18.06,18.06,0,0,0,2.11-.28,1.43,1.43,0,0,1,1.83,1.15,1.51,1.51,0,0,1-1.43,1.87c-.88,0-1.75.12-2.63.12,0,2.51-.12,5-.16,7.52-.08,4-.12,8-.2,11.94v3.46A12,12,0,0,1,201.25,391.85Z" style="fill: #fff"/>
      <path d="M211.16,391.49c.6,0,1.27-.12,1.83-.12,1.15,0,2.35.44,2.11,1.87-.2,1.23-4.58,1.59-5.89,1.27a1.55,1.55,0,0,1-1.27-1.75c0-1,.08-1.91.08-2.91.08-4.58.16-9.2.28-13.81,0-2.55.2-5.13.2-7.72,0-2.87-.12-5.73-.2-8.6,0-1.51-.12-3-.08-4.54a1.72,1.72,0,0,1,1.31-1.87,1.25,1.25,0,0,1,1.39.92,2.32,2.32,0,0,1,.12.92c.08,3.7.12,7.41.16,11.11,0,2.91.08,5.81,0,8.72s-.28,5.53-.28,8.32.16,5.33.2,8c0,0,0,.08,0,.12Z" style="fill: #fff"/>
      <path d="M222.47,391.49c.6,0,1.27-.12,1.83-.12,1.15,0,2.35.44,2.11,1.87-.2,1.23-4.58,1.59-5.89,1.27a1.55,1.55,0,0,1-1.27-1.75c0-1,.08-1.91.08-2.91.08-4.58.16-9.2.28-13.81,0-2.55.2-5.13.2-7.72,0-2.87-.12-5.73-.2-8.6,0-1.51-.12-3-.08-4.54a1.72,1.72,0,0,1,1.31-1.87,1.25,1.25,0,0,1,1.39.92,2.32,2.32,0,0,1,.12.92c.08,3.7.12,7.41.16,11.11,0,2.91.08,5.81,0,8.72s-.28,5.53-.28,8.32.16,5.33.2,8c0,0,0,.08,0,.12Z" style="fill: #fff"/>
      <path d="M238.55,364.18a15.46,15.46,0,0,0-.56,6.21c.16,1.83.12,3.66.2,5.49.12,2.71.24,5.41.4,8.16.08,1.91.2,3.86.28,5.77a15.15,15.15,0,0,0,.16,2.35c.24,1.31-.4,2.11-2.47,2.79-.24-1.08-.36-1.31-.4-1.55a3.39,3.39,0,0,1-.16-.92c-.08-3.22-.08-6.49-.2-9.71-.08-2-.36-4.06-.48-6.09s-.36-4.1-.36-6.17a22.42,22.42,0,0,0-1.11-6.21c-.76-2.55-1.79-5.06-2.71-7.56-.08-.2-.2-.4-.28-.6a4.06,4.06,0,0,1-.32-.92,1.78,1.78,0,0,1,.76-1.71c1.11-.68,1.79.36,2,1,.8,2,1.55,4.06,2.31,6.13q.3.78.6,1.67c.48-1.63,1-3.22,1.47-4.86.28-.92.56-1.87.92-2.75a1.61,1.61,0,0,1,1.71-1,1.12,1.12,0,0,1,1,1.16,3.79,3.79,0,0,1-.12.76C240.34,358.45,239.5,361.31,238.55,364.18Z" style="fill: #fff"/>
    </g>
  </g>
</svg>
