<svg id="Layer_2" data-name="Layer 2" xmlns="http://www.w3.org/2000/svg" width="331.93" height="503.64" viewBox="0 0 331.93 503.64">
  <title>newbookArtboard 5</title>
  <g>
    <path d="M290.93,431.9H41a4.54,4.54,0,0,1-4.53-4.53V56.08A4.54,4.54,0,0,1,41,51.55H290.93a4.54,4.54,0,0,1,4.53,4.53V427.37A4.54,4.54,0,0,1,290.93,431.9ZM41,52.55a3.54,3.54,0,0,0-3.53,3.53V427.37A3.54,3.54,0,0,0,41,430.9H290.93a3.54,3.54,0,0,0,3.53-3.53V56.08a3.54,3.54,0,0,0-3.53-3.53Z" style="fill: #fff"/>
    <path d="M287,427.7H44.92a4.43,4.43,0,0,1-4.42-4.42V59.33a4.43,4.43,0,0,1,4.42-4.42H287a4.43,4.43,0,0,1,4.42,4.42V423.27A4.43,4.43,0,0,1,287,427.7ZM44.92,55.9a3.43,3.43,0,0,0-3.42,3.42V423.27a3.43,3.43,0,0,0,3.42,3.42H287a3.43,3.43,0,0,0,3.42-3.42V59.33A3.43,3.43,0,0,0,287,55.9Z" style="fill: #fff"/>
    <path d="M312.24,503.64H19.69A19.71,19.71,0,0,1,0,484V19.69A19.71,19.71,0,0,1,19.69,0H312.24a19.71,19.71,0,0,1,19.69,19.69V484A19.71,19.71,0,0,1,312.24,503.64ZM19.69,1A18.71,18.71,0,0,0,1,19.69V484a18.71,18.71,0,0,0,18.69,18.69H312.24A18.71,18.71,0,0,0,330.93,484V19.69A18.71,18.71,0,0,0,312.24,1Z" style="fill: #fff"/>
    <path d="M307.74,496.32H24.19a19.12,19.12,0,0,1-19.1-19.1V26.42a19.12,19.12,0,0,1,19.1-19.1H307.74a19.12,19.12,0,0,1,19.1,19.1v450.8A19.12,19.12,0,0,1,307.74,496.32ZM24.19,8.33a18.12,18.12,0,0,0-18.1,18.1v450.8a18.12,18.12,0,0,0,18.1,18.1H307.74a18.12,18.12,0,0,0,18.1-18.1V26.42a18.12,18.12,0,0,0-18.1-18.1Z" style="fill: #fff"/>
    <path d="M52.64,29.27a3.22,3.22,0,1,1,3.22-3.22A3.22,3.22,0,0,1,52.64,29.27Zm0-5.43a2.22,2.22,0,1,0,2.22,2.22A2.22,2.22,0,0,0,52.64,23.83Z" style="fill: #fff"/>
    <path d="M65.41,29.27a3.22,3.22,0,1,1,3.22-3.22A3.22,3.22,0,0,1,65.41,29.27Zm0-5.43a2.22,2.22,0,1,0,2.22,2.22A2.22,2.22,0,0,0,65.41,23.83Z" style="fill: #fff"/>
    <path d="M166,469.43a9.31,9.31,0,1,1,9.31-9.31A9.32,9.32,0,0,1,166,469.43Zm0-17.61a8.31,8.31,0,1,0,8.31,8.31A8.32,8.32,0,0,0,166,451.82Z" style="fill: #fff"/>
    <g>
      <path d="M56.78,81.86c-1.79-.05-2.58-.63-2.48-2.16.05-.47,1.58-1.42,3.74-1.47,1.53-.05,3.32,0,4.53,0s2.37,0,3.58-.11c.84-.05,2.48.05,2.53,1.95.11,2.05-1.79,2.16-2.48,2.16-.9-.05-1.74-.05-2.58-.11,0,4.9-.05,9.69,0,14.48,0,3,.16,5.9.26,8.8.1,2.48.26,4.9.32,7.38.11,4.58.05,9.22.11,13.8,0,1.42.16,2.79.11,4.16a2.55,2.55,0,0,1-1.63,2.05,1.89,1.89,0,0,1-2.48-2c.05-1.69.05-3.37.05-5,.05-4.58.11-9.11.05-13.7-.05-3.9-.37-7.79-.53-11.69-.11-2.21-.21-4.48-.21-6.69,0-3.05.1-6.16.1-9.27A13.65,13.65,0,0,0,59.52,82,23.33,23.33,0,0,0,56.78,81.86Z" style="fill: #fff"/>
      <path d="M85.6,132.33c-1.74.32-2.21-1.53-2.21-2.32.05-3,.11-6.06,0-9.11-.11-3.42-.42-6.85-.63-10.27a5.12,5.12,0,0,1,0-.89c.05-.21-.1-.21-.37-.21-1.47.05-2.95.16-4.48.26v1.84c.11,3,.21,6,.26,9,.05,1.95-.05,3.9,0,5.79,0,1.37.21,2.74.21,4.11a2.64,2.64,0,0,1-.74,1.9,2.13,2.13,0,0,1-2.37.21,2.58,2.58,0,0,1-.95-1.95c0-2.32.16-4.63.16-7-.05-4.69-.21-9.37-.11-14.06.11-5.16.53-10.32.79-15.49.05-1.69-.05-3.32-.05-5-.05-2.69-.05-6.21-.05-8.9a2.13,2.13,0,0,1,1.47-1.9,2,2,0,0,1,2,1.05,3.42,3.42,0,0,1,.37,1.74c-.05,2.47-.11,5.79-.21,8.27-.11,4.05-.21,8.06-.37,12.11-.05,1.32-.11,2.69-.16,4.06h4.58v-2c0-3.21,0-6.43-.05-9.69,0-2.58-.05-5.16-.11-7.69-.05-1.9-.21-3.85-.21-5.74,0-.79.11-2.27,1.9-2.37a2,2,0,0,1,2.11,2.21c0,1.79-.05,3.63-.05,5.43,0,2.42.05,4.85.05,7.27-.05,3-.26,6-.21,9,.16,5.64.47,11.32.69,17,.16,3.21.37,6.43.53,9.64,0,.05,0,.05.05.11a2.32,2.32,0,0,1,0,1.58C87.18,131,86.49,132.17,85.6,132.33Z" style="fill: #fff"/>
      <path d="M101.5,129.11a2.06,2.06,0,0,1,1.11.9,1.57,1.57,0,0,0,.21.42c0,.05.05.16.74,1.11-1.05.68-1.21.84-1.37.95a2.42,2.42,0,0,1-1.16.42,29.85,29.85,0,0,1-3.06-.26l-.9-.16a8.84,8.84,0,0,1-1.58-.21,2.11,2.11,0,0,1-1.84-2.16c0-.42,0-.95.05-1.69.11-2.37.16-4.74.21-7.06s.21-4.79.21-7.16c.05-3.58-.05-7.16.05-10.75.05-3.42.32-6.9.37-10.38.05-3.74-.05-7.48-.05-11.22,0-.26-.1-.58-.1-.84a2.11,2.11,0,0,1,.32-1.47,4,4,0,0,1,2.48-1.32c1.9-.16,3.85-.05,5.74-.11a2.05,2.05,0,0,1,2.37,1.95A2.13,2.13,0,0,1,103,82.29H98.19V94.35A23.73,23.73,0,0,0,101,94a1.89,1.89,0,0,1,2.42,1.53A2,2,0,0,1,101.5,98c-1.16.05-2.32.16-3.48.16-.05,3.32-.16,6.64-.21,10-.11,5.27-.16,10.53-.26,15.8v4.58A15.87,15.87,0,0,1,101.5,129.11Z" style="fill: #fff"/>
      <path d="M135.59,130.11c-1.21,1.58-3.11,3.37-6,2.63a7.19,7.19,0,0,1-2.16-1.37c-2.05-1.47-2.74-3.69-3.27-5.69-.26-1.05-.32-2.16-.58-3.21a1.91,1.91,0,1,1,3.74-.69c.21,1.27.32,2.58.63,3.85a5.1,5.1,0,0,0,2.63,3.37c.42.21,1,.16,1.79-.84,1.42-1.79,1.84-4,2-6.43a44.59,44.59,0,0,0-.58-11.85,11,11,0,0,0-.79-2.32c-.37-.84-.79-1.69-1.11-2.53-.9-2.21-2.63-4.05-4.06-5.9a20.67,20.67,0,0,1-4-7.43,3.64,3.64,0,0,1,0-1.69,14.32,14.32,0,0,0,.26-1.47c.32-2.05.53-4.21,1-6.21a7,7,0,0,1,2.05-3.69c1.11-.84,3.11-.53,4.06-.05a6,6,0,0,1,3.42,5.48,1.92,1.92,0,0,0,.16.58,6.93,6.93,0,0,1,.26,1,4,4,0,0,1,0,1.58c-.26,1.11-2,1.21-2.53.63a4.34,4.34,0,0,1-.63-1.32c-.32-.74-.53-1.47-.79-2.21a10.72,10.72,0,0,0-.79-1.95c-.37-.69-.68-.63-1.21.11a4.64,4.64,0,0,0-.95,2.21c-.16.84-.16,1.74-.32,2.58q-.24,1.74-.32,3.48A5,5,0,0,0,128.69,94c.26.37.53.79.79,1.16,1,1.47,2.11,2.85,3.11,4.27a32.73,32.73,0,0,1,2.95,4.74A28.89,28.89,0,0,1,138,118.26c-.11,1.63.05,3.32-.11,4.9C137.64,125.42,137.27,128,135.59,130.11Z" style="fill: #fff"/>
      <path d="M151.7,111c.21-4,.42-6.85.53-9.8.05-1.84-.1-3.74-.05-5.58.05-2,.21-4.06.32-6.06.1-2.79.21-5.58.26-8.37.05-1.11.26-2.48,2.16-2.32s2,1.69,1.95,2.63c-.21,2.79-.32,5.53-.47,8.32-.21,4.11-.42,8.22-.58,12.27-.21,4.85-.37,9.69-.63,14.54-.11,1.95-.32,3.9-.58,5.9-.21,1.63-.37,3.27-.74,4.9a26.08,26.08,0,0,1-1.32,3.9c-.95,2.16-4.69,1.95-5.79.32-1.53-2.32-1.79-4.85-2.11-7.48q-.71-5.29-.95-10.59c-.11-3.21.21-6.48.32-9.69.05-2.84,0-5.69.05-8.48,0-.89.16-1.79.16-2.69.05-3.32.11-6.58.16-9.85,0-.37-.05-.74-.05-1.11a12.79,12.79,0,0,1,0-1.42V80a1.8,1.8,0,0,1,.11-.68,1.63,1.63,0,0,1,1.63-1.21c1.63,0,1.84,1.42,1.84,2.21,0,4.63-.11,9.27-.16,13.91,0,2.58,0,5.16-.05,7.74-.05,3.9-.37,7.85-.16,11.75.26,4.16.37,8.43,1.48,12.48.16.53.16,1.05.26,1.58.05.21.05.37.11.53.26-.79.47-1.53.74-2.32a17.81,17.81,0,0,0,.69-3c.47-3.69.68-7.43,1-11.17a4.51,4.51,0,0,0,.05-.84Z" style="fill: #fff"/>
      <path d="M169,131.22a6.84,6.84,0,0,1-3.21,1.58c-1.9.53-2.69-.95-2.63-2.32.1-2.84.21-5.74.26-8.64,0-2.69-.16-5.42-.11-8.11,0-2.32.21-4.69.26-7,.05-.84-.16-1.74-.16-2.58-.05-5.06-.26-10.06-.05-15.06a71.43,71.43,0,0,0-.58-8.9,2,2,0,0,1,1.63-2A6.72,6.72,0,0,1,171,82.23c.32.69.68,1.26,1,1.9a8.88,8.88,0,0,1,.95,2.16c1,3.58,1.9,7.06,1.16,11a10.78,10.78,0,0,1-4.16,6.48,6.91,6.91,0,0,0,1.26.9,5.51,5.51,0,0,1,2.58,2.69,27.32,27.32,0,0,1,1.05,2.9,12.89,12.89,0,0,1,.79,4,32.55,32.55,0,0,1-.37,6C174.51,124.74,171.83,128.22,169,131.22Zm-2.05-30,.1-.05c2.79-1.42,3.9-3.9,3.74-7a14.45,14.45,0,0,0-.42-2.63c-.21-.95-.47-1.89-.63-2.84A11.34,11.34,0,0,0,166.93,83Zm0,5.16v21.12a10.69,10.69,0,0,0,2.9-3.42c.32-.74.74-1.47,1.11-2.27a8.73,8.73,0,0,0,.79-2,17.07,17.07,0,0,0-.68-9.17A6.4,6.4,0,0,0,166.93,106.41Z" style="fill: #fff"/>
      <path d="M183.84,81.86c-1.79-.05-2.58-.63-2.48-2.16.05-.47,1.58-1.42,3.74-1.47,1.53-.05,3.32,0,4.53,0s2.37,0,3.58-.11c.84-.05,2.48.05,2.53,1.95.11,2.05-1.79,2.16-2.48,2.16-.9-.05-1.74-.05-2.58-.11,0,4.9-.05,9.69,0,14.48,0,3,.16,5.9.26,8.8.1,2.48.26,4.9.32,7.38.11,4.58.05,9.22.11,13.8,0,1.42.16,2.79.11,4.16a2.55,2.55,0,0,1-1.63,2.05,1.89,1.89,0,0,1-2.48-2c.05-1.69.05-3.37.05-5,.05-4.58.11-9.11.05-13.7-.05-3.9-.37-7.79-.53-11.69-.11-2.21-.21-4.48-.21-6.69,0-3.05.1-6.16.1-9.27a13.65,13.65,0,0,0-.26-2.48A23.33,23.33,0,0,0,183.84,81.86Z" style="fill: #fff"/>
      <path d="M205.65,128.64c.79-.05,1.69-.16,2.42-.16,1.53,0,3.11.58,2.79,2.47-.26,1.63-6.06,2.11-7.8,1.69a2,2,0,0,1-1.69-2.32c.05-1.26.11-2.53.11-3.84.11-6.06.21-12.17.37-18.28.05-3.37.26-6.79.26-10.22,0-3.79-.16-7.59-.26-11.38-.05-2-.16-4-.1-6a2.27,2.27,0,0,1,1.74-2.48,1.66,1.66,0,0,1,1.84,1.21,3.06,3.06,0,0,1,.16,1.21c.1,4.9.16,9.8.21,14.7,0,3.85.11,7.69,0,11.54-.05,3.69-.37,7.32-.37,11,0,3.53.21,7.06.26,10.59,0,.05.05.11.05.16Z" style="fill: #fff"/>
      <path d="M224.19,129.11a2.06,2.06,0,0,1,1.11.9,1.57,1.57,0,0,0,.21.42c0,.05.05.16.74,1.11-1.05.68-1.21.84-1.37.95a2.42,2.42,0,0,1-1.16.42,29.85,29.85,0,0,1-3.06-.26l-.9-.16a8.84,8.84,0,0,1-1.58-.21,2.11,2.11,0,0,1-1.84-2.16c0-.42,0-.95.05-1.69.11-2.37.16-4.74.21-7.06s.21-4.79.21-7.16c.05-3.58-.05-7.16.05-10.75.05-3.42.32-6.9.37-10.38.05-3.74-.05-7.48-.05-11.22,0-.26-.1-.58-.1-.84a2.11,2.11,0,0,1,.32-1.47,4,4,0,0,1,2.48-1.32c1.9-.16,3.85-.05,5.74-.11A2.05,2.05,0,0,1,228,80.07a2.13,2.13,0,0,1-2.32,2.21h-4.79V94.35a23.73,23.73,0,0,0,2.79-.37,1.89,1.89,0,0,1,2.42,1.53,2,2,0,0,1-1.9,2.48c-1.16.05-2.32.16-3.48.16-.05,3.32-.16,6.64-.21,10-.11,5.27-.16,10.53-.26,15.8v4.58A15.87,15.87,0,0,1,224.19,129.11Z" style="fill: #fff"/>
      <path d="M70.37,195.54c-.21.16-.42.26-1.47,1-.69-1.05-.84-1.21-.95-1.37a1.78,1.78,0,0,1-.47-1.05c-.16-1.74-.21-3.48-.42-5.21-.32-3.16-.74-6.32-1.16-9.43,0-.05-.11-.05-.16-.11a15.51,15.51,0,0,0-7.27-.42c-.05.84-.16,1.74-.21,2.63-.11,2.69-.21,5.32-.26,8-.05,1.32,0,2.63-.05,4-.05,1.16-.74,2.69-3.63,2,0-2.32-.05-3.79,0-5.27.1-3.58.21-7.21.47-10.8.21-2.74.63-5.43.95-8.16.42-3.53.74-7,1.16-10.54.42-3.21.95-6.43,1.42-9.64.16-1.27.21-2.58.37-3.9a34.56,34.56,0,0,1,.79-4.06,2.25,2.25,0,0,1,.84-1.05c.21-.16.47-.37,1.79-1.47.79,1.58,1,1.95,1.21,2.32a3.55,3.55,0,0,1,.53,1.37c.58,3,1,6,1.42,9s.63,5.9,1.11,8.85c.53,3.27,1.26,6.48,1.84,9.74.63,3.63,1.26,7.32,1.79,11,.37,2.53.63,5,.95,7.48.16,1,.32,1.95.47,2.9,0,.16.05.37.05.58a1.36,1.36,0,0,1-.42,1.05A2.25,2.25,0,0,1,70.37,195.54ZM58.73,175.21l6.53.32C63.47,167.89,63,160,61.63,152.35Z" style="fill: #fff"/>
      <path d="M87.76,194.17a48.71,48.71,0,0,0-.95-5.43C86,185.37,85,182,84.07,178.68c-1-3.53-1.95-7-2.95-10.48-.11-.31-.21-.63-.32-.89v4c0,2.37,0,4.74.05,7.11,0,1.05.21,2.11.21,3.16,0,1.63-.21,3.27-.16,5,.05,2.37.26,4.69.47,7.06a2.57,2.57,0,0,1,.05.63,1.92,1.92,0,0,1-.11.74A1.71,1.71,0,0,1,79.59,196a2.11,2.11,0,0,1-2.26-2.37c.05-2.79-.05-5.58-.16-8.43-.05-2.53-.16-5-.16-7.53,0-3.21.16-6.37.16-9.59s-.21-6.22-.16-9.32c0-1.95.37-3.85.47-5.74.11-3.16.11-6.32.21-9.53a2,2,0,0,1,.26-.95c.05-.21.16-.37.63-1.58,1.42.63,1.79.84,2.16,1l.95.63c1.11.89,2.27,1.79,3.42,2.69a5.22,5.22,0,0,1,1.63,2.32,16.77,16.77,0,0,1,.69,2.32c1.05,4.27-.95,7.53-3.32,10.22a2.55,2.55,0,0,1-.63.53l-.42.21c.37,1.32.79,2.63,1.16,3.9.95,3.42,2,6.85,2.95,10.27s1.63,6.69,2.48,10c.63,2.53,1.26,5,1.9,7.48a8.57,8.57,0,0,1,.16,1.05c.16.69.32,2.32-1.53,2.53A2.06,2.06,0,0,1,87.76,194.17ZM81,157.51A7.92,7.92,0,0,0,83.75,153c.26-3-.79-4.74-2.37-6Z" style="fill: #fff"/>
      <path d="M99.66,145.08c-1.79-.05-2.58-.63-2.48-2.16.05-.47,1.58-1.42,3.74-1.47,1.53-.05,3.32,0,4.53,0s2.37,0,3.58-.11c.84-.05,2.48.05,2.53,1.95.11,2.05-1.79,2.16-2.48,2.16-.9-.05-1.74-.05-2.58-.11,0,4.9-.05,9.69,0,14.48,0,3,.16,5.9.26,8.8.11,2.48.26,4.9.32,7.38.11,4.58.05,9.22.11,13.8,0,1.42.16,2.79.1,4.16a2.55,2.55,0,0,1-1.63,2.05,1.89,1.89,0,0,1-2.48-2c.05-1.69.05-3.37.05-5,.05-4.58.11-9.11.05-13.7-.05-3.9-.37-7.79-.53-11.69-.1-2.21-.21-4.48-.21-6.69,0-3.05.11-6.16.11-9.27a13.65,13.65,0,0,0-.26-2.48A23.33,23.33,0,0,0,99.66,145.08Z" style="fill: #fff"/>
      <path d="M144.17,177c-.21,2.95-.37,5.85-.74,8.74a58,58,0,0,1-1.37,6.69,4.36,4.36,0,0,1-3.42,3.63,5.16,5.16,0,0,1-5.11-2.42,8.06,8.06,0,0,1-.95-2.58c-.42-2.21-.79-4.48-1.42-7.74h.21c-.26-1.63-.58-3.21-.68-4.85-.21-3.42-.32-6.9-.32-10.32,0-3.21.1-6.48.37-9.69a50.79,50.79,0,0,1,1-6.21,34.07,34.07,0,0,1,1.48-5.64,19.2,19.2,0,0,1,2.48-4.32c1.05-1.47,4.42-1.05,5.43-.11a8,8,0,0,1,3,5.85c.11,1.74.63,3.48.68,5.27.11,2.9,0,5.79,0,8.69,0,1.74,0,3.53-.05,5.32C144.59,170.52,144.38,173.78,144.17,177Zm-5.11-31.18a2.31,2.31,0,0,0-.37-.32,1.84,1.84,0,0,1-.37-.47c-.05-.11,0,.05-.16.16-1.42,1.32-1.95,3.16-2.32,5.16-.79,4.58-1.42,9.17-1.79,13.8-.26,3.9-.11,7.79-.11,11.64.63,4.16,1.21,8.27,1.84,12.38a9.92,9.92,0,0,0,1,3.27,2.37,2.37,0,0,0,1.32.84c-.05-.05-.05-.11-.11-.11.16-.21.26-.53.37-.68a7.47,7.47,0,0,0,.37-1.16,11.4,11.4,0,0,0,.37-1.26,32.52,32.52,0,0,0,1.11-7.53c.21-2.58.26-5.21.58-7.8.32-3,.16-6.06.21-9.11s.21-5.9.11-8.85c-.05-2.32-.58-4.63-.74-7A3.75,3.75,0,0,0,139.06,145.82Z" style="fill: #fff"/>
      <path d="M154.66,171.73c-.05,1.37-.21,2.74-.21,4.11.05,2.05.26,4.16.32,6.27.05,3.05-.05,6.11-.11,9.17a13.66,13.66,0,0,1-.16,2.95,2.56,2.56,0,0,1-1.74,1.84c-1.84.42-2.21-1.26-2.16-2.11.16-2.53.42-5.11.53-7.64.05-1.69-.11-3.37-.11-5,0-2.05.11-4.11.11-6.11a78,78,0,0,1,.05-7.85c.42-3.58-.05-7.11.16-10.69.21-3.37.47-6.74.63-10.11a17.78,17.78,0,0,0-.16-2.32,2.15,2.15,0,0,1,2-2.42c.79-.11,1.63-.37,2.42-.42a20.92,20.92,0,0,1,3.63.05,2.49,2.49,0,0,1,1.95,1.9,2.08,2.08,0,0,1-2.11,2.32,7.78,7.78,0,0,1-1.11-.05c-.32,0-.58-.05-.9-.05a14.76,14.76,0,0,0-2.16,0L155,158.88l1.69.32a4.5,4.5,0,0,1,1.21.26,1.69,1.69,0,0,1,1,1.9c-.26,1.84-2.05,1.79-2.95,1.58a4.52,4.52,0,0,0-.9-.16C154.92,165.78,154.76,168.73,154.66,171.73Z" style="fill: #fff"/>
      <path d="M68,238.63c0-1.42-.21-2.84-.21-4.21-.05-3.11-.05-6.22-.05-9.32-.05-4.05,0-8.11.05-12.12,0-2.11.05-4.21.21-6.32a2.4,2.4,0,0,1,.9-1.53c.11-.05.16-.16,1.11-1.32a13.35,13.35,0,0,0,.95,1.37,2.4,2.4,0,0,1,.68,1.47c0,4-.21,7.9-.21,11.85s-.05,8.11,0,12.12c0,2.69.21,5.37.26,8.06v18c0,1.9-1.16,2.85-2.48,2.69a3,3,0,0,1-2.63-2.69c-.32-2.84-.58-5.74-1.05-8.58-.53-3.32-1.26-6.64-1.95-10-.26-1.11-.69-2.21-.95-3.32-.32-1.37-.58-2.74-.84-4.11-.74-3.48-1.42-6.9-2.27-10.32-.58-2.48-1.37-4.9-2.05-7.37a10.79,10.79,0,0,0-.58-1.37l.95-.47a5.35,5.35,0,0,1,.47,2.05c.05.74.05,1.47.05,2.27.05,2.05.05,4.11.11,6.21.05,1.05.1,2.11.1,3.16,0,4,0,8,.05,12,.05,2.9.32,5.74.42,8.64.11,3.42.16,6.9.32,10.32a2.08,2.08,0,0,1-2.16,2.37c-.58,0-2.16-.84-1.95-2a19.87,19.87,0,0,0,.21-4.69c-.11-1.63-.26-3.27-.26-4.85-.05-2.16-.16-11.27-.21-12.8-.11-3.42-.05-6.79-.05-10.22,0-1.69.11-3.37.05-5.06,0-1.32-.26-2.58-.32-3.85-.11-2-.11-4-.16-6-.05-.16,0-.53-.05-.69a2,2,0,0,1,1.37-2.84,2.41,2.41,0,0,1,3.11,1.47,59.84,59.84,0,0,1,2.16,5.85c1,3.58,1.79,7.27,2.69,10.9,1.21,5.06,2.48,10.06,3.58,15.17.16.79.32,1.53.47,2.32C67.9,240.1,68,239.37,68,238.63Z" style="fill: #fff"/>
      <path d="M92.23,240.21c-.21,2.95-.37,5.85-.74,8.74a58,58,0,0,1-1.37,6.69,4.36,4.36,0,0,1-3.42,3.63,5.16,5.16,0,0,1-5.11-2.42,8.06,8.06,0,0,1-.95-2.58c-.42-2.21-.79-4.48-1.42-7.74h.21c-.26-1.63-.58-3.21-.68-4.85-.21-3.42-.32-6.9-.32-10.32,0-3.21.1-6.48.37-9.69a50.79,50.79,0,0,1,1-6.21,34.07,34.07,0,0,1,1.48-5.64,19.2,19.2,0,0,1,2.48-4.32c1.05-1.47,4.42-1.05,5.43-.11a8,8,0,0,1,3,5.85c.11,1.74.63,3.48.68,5.27.11,2.9,0,5.79,0,8.69,0,1.74,0,3.53-.05,5.32C92.65,233.73,92.44,237,92.23,240.21ZM87.12,209a2.31,2.31,0,0,0-.37-.32,1.84,1.84,0,0,1-.37-.47c-.05-.11,0,.05-.16.16-1.42,1.32-1.95,3.16-2.32,5.16-.79,4.58-1.42,9.17-1.79,13.8-.26,3.9-.11,7.79-.11,11.64.63,4.16,1.21,8.27,1.84,12.38a9.92,9.92,0,0,0,1,3.27,2.37,2.37,0,0,0,1.32.84c-.05-.05-.05-.11-.11-.11.16-.21.26-.53.37-.68a7.47,7.47,0,0,0,.37-1.16,11.4,11.4,0,0,0,.37-1.26,32.52,32.52,0,0,0,1.11-7.53c.21-2.58.26-5.21.58-7.8.32-3,.16-6.06.21-9.11s.21-5.9.11-8.85c-.05-2.32-.58-4.63-.74-7A3.75,3.75,0,0,0,87.12,209Z" style="fill: #fff"/>
      <path d="M101.14,208.29c-1.79-.05-2.58-.63-2.48-2.16.05-.47,1.58-1.42,3.74-1.47,1.53-.05,3.32,0,4.53,0s2.37,0,3.58-.11c.84-.05,2.48.05,2.53,1.95.11,2.05-1.79,2.16-2.48,2.16-.9-.05-1.74-.05-2.58-.11,0,4.9-.05,9.69,0,14.48,0,3,.16,5.9.26,8.8.1,2.48.26,4.9.32,7.38.11,4.58.05,9.22.11,13.8,0,1.42.16,2.79.11,4.16a2.55,2.55,0,0,1-1.63,2.05,1.89,1.89,0,0,1-2.48-2c.05-1.69.05-3.37.05-5,.05-4.58.11-9.11.05-13.7-.05-3.9-.37-7.79-.53-11.69-.11-2.21-.21-4.48-.21-6.69,0-3.05.1-6.16.1-9.27a13.65,13.65,0,0,0-.26-2.48A23.33,23.33,0,0,0,101.14,208.29Z" style="fill: #fff"/>
      <path d="M143.54,254.43a8.73,8.73,0,0,1-1.26,3.05c-1.74,2.69-5.32,2.27-7.22-.16a6.84,6.84,0,0,1-1.21-2.79c-.37-1.53-.42-3.11-.84-4.64-.84-2.79-.84-5.69-1.05-8.58a86.32,86.32,0,0,1,.16-10.43c.11-3.27.32-6.53.68-9.8a93.91,93.91,0,0,1,1.53-9.38A35.16,35.16,0,0,1,136,207c.84-2.37,5.06-3.32,7-1.63,1.16.63,4,3.27,3.32,4.74a1.58,1.58,0,0,1-1,.84,2.2,2.2,0,0,1-2.21-.53l-.53-.53-.16-.16a3.11,3.11,0,0,1-.74-.42c-.16-.11-.26-.21-.42-.32-1.21-.74-1.74-.58-2.11.84-.79,3-1.47,6-2.05,9a58.63,58.63,0,0,0-.68,6.11c-.26,2.74-.53,5.48-.63,8.22-.1,2.05.21,4.06.11,6.11A52.34,52.34,0,0,0,137,250.75a15.74,15.74,0,0,0,1.37,4c.11.21.37.53.47.53s.37-.11.47-.53c.79-3.53,1.74-7.06,2.37-10.59.42-2.42.47-4.9.69-7.48a10.92,10.92,0,0,1-2.32-.16c-.68-.11-2.37-1.11-2.32-1.89a2.32,2.32,0,0,1,2.74-2.32c1.37.21,2.69.16,4,.42a2.66,2.66,0,0,1,1.9,2.32c-.21,3.05-.47,6.16-.9,9.17C144.91,247.64,144.22,251.06,143.54,254.43Z" style="fill: #fff"/>
      <path d="M154,211.77l2.42-2.53c-.26,5.58-.47,9.69-.58,13.85-.11,3.48-.05,7-.11,10.48-.05,3.11-.21,6.21-.26,9.32,0,1.37.16,2.74.21,4.16.05,3.37.16,6.74.11,10.17a2.39,2.39,0,0,1-2,2.11,2.08,2.08,0,0,1-2.05-2.37c.1-3.53.16-7.11.16-10.64,0-4-.05-7.9-.05-11.8,0-2.85,0-5.69.05-8.53.11-3.27.37-6.48.42-9.69.05-3.05-.11-6.16-.21-9.22,0-.84.16-2.53,2.11-2.53a1.76,1.76,0,0,1,1.74,1.11,9.56,9.56,0,0,1,.16,1.21c.11,1.21.21,2.42.42,4.69Z" style="fill: #fff"/>
      <path d="M175.41,205.71a1.64,1.64,0,0,1,1.63-1.16,1.63,1.63,0,0,1,1.79,1.21,3.48,3.48,0,0,1,.05.68c0,.11-.05.21-.05.32-.1,1.95-.37,3.85-.63,5.74-.63,5-1.37,9.9-2,14.8-.9,6.58-1.79,13.17-2.63,19.75-.42,3.27-.79,6.58-1.11,9.9a2.51,2.51,0,0,1-2.58,2.37c-1.53-.05-1.9-1.32-2-2.42-.32-4.48-.63-9-1.11-13.48-.37-3.37-.95-6.74-1.32-10.17-.32-3.27-.47-6.53-.68-9.85-.05-.42-.05-.89-.11-1.37l-1.26-12c-.11-1-.42-2-.58-3a2.2,2.2,0,0,1,.11-.9,6,6,0,0,1,.26-1.11c2.21-.47,3.27.32,3.48,1.79.32,2.58.79,5.16,1,7.74.42,4.37.58,8.74,1,13.12.37,3.74.9,7.43,1.32,11.17.16,1.37.26,2.74.42,4.11l.26-2.16c.32-2.74.84-5.43,1.21-8.11.47-3.11.95-6.22,1.37-9.38.42-2.84.79-5.74,1.16-8.59.32-2.58.53-5.16.79-7.69a1.49,1.49,0,0,1,.11-.95A1,1,0,0,1,175.41,205.71Z" style="fill: #fff"/>
      <path d="M186.79,211.77l2.42-2.53c-.26,5.58-.47,9.69-.58,13.85-.11,3.48-.05,7-.11,10.48-.05,3.11-.21,6.21-.26,9.32,0,1.37.16,2.74.21,4.16.05,3.37.16,6.74.11,10.17a2.39,2.39,0,0,1-2,2.11,2.08,2.08,0,0,1-2.05-2.37c.11-3.53.16-7.11.16-10.64,0-4-.05-7.9-.05-11.8,0-2.85,0-5.69.05-8.53.11-3.27.37-6.48.42-9.69.05-3.05-.11-6.16-.21-9.22,0-.84.16-2.53,2.11-2.53a1.76,1.76,0,0,1,1.74,1.11,9.47,9.47,0,0,1,.16,1.21c.11,1.21.21,2.42.42,4.69Z" style="fill: #fff"/>
      <path d="M209.28,238.63c0-1.42-.21-2.84-.21-4.21-.05-3.11-.05-6.22-.05-9.32-.05-4.05,0-8.11.05-12.12,0-2.11.05-4.21.21-6.32a2.4,2.4,0,0,1,.9-1.53c.11-.05.16-.16,1.11-1.32a13.35,13.35,0,0,0,.95,1.37,2.4,2.4,0,0,1,.68,1.47c0,4-.21,7.9-.21,11.85s-.05,8.11,0,12.12c0,2.69.21,5.37.26,8.06v18c0,1.9-1.16,2.85-2.48,2.69a3,3,0,0,1-2.63-2.69c-.32-2.84-.58-5.74-1.05-8.58-.53-3.32-1.26-6.64-1.95-10-.26-1.11-.69-2.21-.95-3.32-.32-1.37-.58-2.74-.84-4.11-.74-3.48-1.42-6.9-2.27-10.32-.58-2.48-1.37-4.9-2.05-7.37a10.79,10.79,0,0,0-.58-1.37l.95-.47a5.35,5.35,0,0,1,.47,2.05c.05.74.05,1.47.05,2.27.05,2.05.05,4.11.11,6.21.05,1.05.1,2.11.1,3.16,0,4,0,8,.05,12,.05,2.9.32,5.74.42,8.64.11,3.42.16,6.9.32,10.32a2.08,2.08,0,0,1-2.16,2.37c-.58,0-2.16-.84-1.95-2a19.87,19.87,0,0,0,.21-4.69c-.11-1.63-.26-3.27-.26-4.85-.05-2.16-.16-11.27-.21-12.8-.11-3.42-.05-6.79-.05-10.22,0-1.69.11-3.37.05-5.06,0-1.32-.26-2.58-.32-3.85-.11-2-.11-4-.16-6-.05-.16,0-.53-.05-.69a2,2,0,0,1,1.37-2.84,2.41,2.41,0,0,1,3.11,1.47,59.84,59.84,0,0,1,2.16,5.85c1,3.58,1.79,7.27,2.69,10.9,1.21,5.06,2.48,10.06,3.58,15.17.16.79.32,1.53.47,2.32C209.17,240.1,209.28,239.37,209.28,238.63Z" style="fill: #fff"/>
      <path d="M231.4,254.43a8.73,8.73,0,0,1-1.26,3.05c-1.74,2.69-5.32,2.27-7.22-.16a6.84,6.84,0,0,1-1.21-2.79c-.37-1.53-.42-3.11-.84-4.64-.84-2.79-.84-5.69-1.05-8.58a86.32,86.32,0,0,1,.16-10.43c.11-3.27.32-6.53.68-9.8a93.91,93.91,0,0,1,1.53-9.38,35.16,35.16,0,0,1,1.63-4.69c.84-2.37,5.06-3.32,7-1.63,1.16.63,4,3.27,3.32,4.74a1.58,1.58,0,0,1-1,.84,2.2,2.2,0,0,1-2.21-.53l-.53-.53-.16-.16a3.11,3.11,0,0,1-.74-.42c-.16-.11-.26-.21-.42-.32-1.21-.74-1.74-.58-2.11.84-.79,3-1.47,6-2.05,9a58.63,58.63,0,0,0-.68,6.11c-.26,2.74-.53,5.48-.63,8.22-.1,2.05.21,4.06.11,6.11a52.34,52.34,0,0,0,1.16,11.43,15.74,15.74,0,0,0,1.37,4c.11.21.37.53.47.53s.37-.11.47-.53c.79-3.53,1.74-7.06,2.37-10.59.42-2.42.47-4.9.69-7.48a10.92,10.92,0,0,1-2.32-.16c-.68-.11-2.37-1.11-2.32-1.89a2.32,2.32,0,0,1,2.74-2.32c1.37.21,2.69.16,4,.42a2.66,2.66,0,0,1,1.9,2.32c-.21,3.05-.47,6.16-.9,9.17C232.77,247.64,232.09,251.06,231.4,254.43Z" style="fill: #fff"/>
      <path d="M70.37,322c-.21.16-.42.26-1.47,1-.69-1.05-.84-1.21-.95-1.37a1.78,1.78,0,0,1-.47-1.05c-.16-1.74-.21-3.48-.42-5.21-.32-3.16-.74-6.32-1.16-9.43,0-.05-.11-.05-.16-.11a15.51,15.51,0,0,0-7.27-.42c-.05.84-.16,1.74-.21,2.63-.11,2.69-.21,5.32-.26,8-.05,1.32,0,2.63-.05,4-.05,1.16-.74,2.69-3.63,2,0-2.32-.05-3.79,0-5.27.1-3.58.21-7.21.47-10.8.21-2.74.63-5.43.95-8.16.42-3.53.74-7,1.16-10.54.42-3.21.95-6.43,1.42-9.64.16-1.27.21-2.58.37-3.9a34.56,34.56,0,0,1,.79-4.06,2.25,2.25,0,0,1,.84-1.05c.21-.16.47-.37,1.79-1.47.79,1.58,1,1.95,1.21,2.32a3.55,3.55,0,0,1,.53,1.37c.58,3,1,6,1.42,9s.63,5.9,1.11,8.85c.53,3.27,1.26,6.48,1.84,9.74.63,3.63,1.26,7.32,1.79,11,.37,2.53.63,5,.95,7.48.16,1,.32,1.95.47,2.9,0,.16.05.37.05.58a1.36,1.36,0,0,1-.42,1.05A2.25,2.25,0,0,1,70.37,322ZM58.73,301.63l6.53.32c-1.79-7.64-2.27-15.49-3.63-23.18Z" style="fill: #fff"/>
      <path d="M94.24,298.16c-.05,1.37-.21,2.74-.21,4.11.05,2.05.26,4.16.32,6.27.05,3.05-.05,6.11-.11,9.17a13.66,13.66,0,0,1-.16,2.95,2.56,2.56,0,0,1-1.74,1.84c-1.84.42-2.21-1.26-2.16-2.11.16-2.53.42-5.11.53-7.64.05-1.69-.1-3.37-.1-5,0-2.05.1-4.11.1-6.11a78,78,0,0,1,.05-7.85c.42-3.58-.05-7.11.16-10.69.21-3.37.47-6.74.63-10.11a17.69,17.69,0,0,0-.16-2.32,2.15,2.15,0,0,1,2-2.42c.79-.11,1.63-.37,2.42-.42a20.92,20.92,0,0,1,3.63.05,2.49,2.49,0,0,1,1.95,1.9,2.08,2.08,0,0,1-2.11,2.32,7.77,7.77,0,0,1-1.11-.05c-.32,0-.58-.05-.9-.05a14.76,14.76,0,0,0-2.16,0l-.58,13.33,1.69.32a4.5,4.5,0,0,1,1.21.26,1.69,1.69,0,0,1,1,1.9c-.26,1.84-2.05,1.79-2.95,1.58a4.52,4.52,0,0,0-.9-.16C94.5,292.2,94.34,295.15,94.24,298.16Z" style="fill: #fff"/>
      <path d="M114.73,300.63c.21-4,.42-6.85.53-9.8.05-1.84-.11-3.74-.05-5.58.05-2,.21-4.06.32-6.06.1-2.79.21-5.58.26-8.37.05-1.11.26-2.48,2.16-2.32s2,1.69,1.95,2.63c-.21,2.79-.32,5.53-.47,8.32-.21,4.11-.42,8.22-.58,12.27-.21,4.85-.37,9.69-.63,14.54-.1,1.95-.32,3.9-.58,5.9-.21,1.63-.37,3.27-.74,4.9a26.14,26.14,0,0,1-1.32,3.9c-.95,2.16-4.69,1.95-5.79.32-1.53-2.32-1.79-4.85-2.11-7.48q-.71-5.29-.95-10.59c-.1-3.21.21-6.48.32-9.69.05-2.84,0-5.69.05-8.48,0-.89.16-1.79.16-2.69.05-3.32.11-6.58.16-9.85,0-.37-.05-.74-.05-1.11a12.79,12.79,0,0,1,0-1.42v-.32a1.8,1.8,0,0,1,.11-.68,1.63,1.63,0,0,1,1.63-1.21c1.63,0,1.84,1.42,1.84,2.21,0,4.63-.1,9.27-.16,13.91,0,2.58,0,5.16-.05,7.74-.05,3.9-.37,7.85-.16,11.75.26,4.16.37,8.43,1.48,12.48.16.53.16,1.05.26,1.58.05.21.05.37.11.53.26-.79.47-1.53.74-2.32a17.86,17.86,0,0,0,.69-3c.47-3.69.68-7.43,1-11.17a4.51,4.51,0,0,0,.05-.84Z" style="fill: #fff"/>
      <path d="M137.27,319.75c-.95,1.74-2.9,3.21-5,2.69a5.81,5.81,0,0,1-4-3.58c-1.63-3.53-1.74-7.22-2-11.06-.16-2.53-.47-5.11-.53-7.69-.05-2.42.21-4.79.32-7.22.05-1.89-.11-3.84.05-5.74A81.25,81.25,0,0,1,127.21,277a44.57,44.57,0,0,1,2.53-7.16c.74-1.95,3.32-2.32,5.11-2A4.12,4.12,0,0,1,137.9,271a18.64,18.64,0,0,1,.79,4.64c.05.63-.26,3-3.27,1.9-.26-1.63-.37-2.74-.58-3.79a2.32,2.32,0,0,0-.37-1,3.65,3.65,0,0,0-.63-.63c-.05-.11-.1-.26-.16-.21a1.58,1.58,0,0,0-1,.84,26.08,26.08,0,0,0-1.63,5.48c-.53,2.85-.9,5.74-1.16,8.69-.16,2.16,0,4.42-.05,6.64,0,1.9-.21,3.79-.21,5.69s.16,3.79.26,5.63c.21,2.69.37,5.43.63,8.11a8.25,8.25,0,0,0,1.9,5c2.05,2.26,3.21-6.32,3.32-7.48a2,2,0,0,1,2.32-2,2,2,0,0,1,1.84,2.53c-.37,1.42-.68,2.9-1.05,4.32A20.28,20.28,0,0,1,137.27,319.75Z" style="fill: #fff"/>
      <path d="M149.07,287.41c.42-1,.95-2,1.42-3.05,1.05-2.37,2.05-4.74,3.06-7.11,1.11-2.63,2.11-5.27,3.16-7.9a4,4,0,0,1,.53-1.05,1.67,1.67,0,0,1,2.05-.32,2.2,2.2,0,0,1,.95,3c-1.05,2.42-1.84,5-2.9,7.38-1.9,4.21-3.9,8.32-5.79,12.54-.37.79-.74,1.58-1.05,2.37,0,.05.05.11.11.21.69,1.63,1.48,3.32,2.21,5a28,28,0,0,1,1.11,2.63c.63,1.74,1.21,3.48,1.79,5.21,1.05,3.37,2.11,6.74,3.11,10.11a11.87,11.87,0,0,1,.42,3.63,2.47,2.47,0,0,1-1.79,2.21c-1.37.32-2.11-1.11-2.27-1.74-.68-2.69-1.32-6.32-2-9.06-.32-1.16-.79-2.26-1.11-3.47a30.11,30.11,0,0,0-3.11-8c0,.53-.05,1.05-.05,1.53-.05,1.48-.05,3-.05,4.43.11,4.63.16,9.27.26,13.91a2.57,2.57,0,0,1-.47,1.84,2.6,2.6,0,0,1-2.05.9,2.22,2.22,0,0,1-1.63-2c0-2.47.16-5,.16-7.43.05-4.42,0-8.85.05-13.27,0-3.74.05-7.48.21-11.22.16-3.05.47-6.11.63-9.17.11-2.9.11-5.74.16-8.64a1.68,1.68,0,0,1-.16-.47,1.46,1.46,0,0,1,.47-1.63,1.69,1.69,0,0,1,1.74-.9c1.32.16,1.9,4.74,1.79,6.64-.26,4.21-.68,8.38-.9,12.59Z" style="fill: #fff"/>
    </g>
    <g>
      <path d="M86.8,361.22a11.09,11.09,0,0,1,.52-1.63c.2-.48,1.11-1.28,1.63-1.12a2.46,2.46,0,0,1,1.47,1.19,5.8,5.8,0,0,1,.32,2.11c0,1.55-.08,3.11,0,4.66.08,3,.2,5.93.36,8.88.12,2.59.28,5.21.44,7.8.16,2.19.44,4.42.52,6.65.12,2.47.08,4.94.08,7.4v.4a1.55,1.55,0,0,1-1.27,2.15,1.6,1.6,0,0,1-1.71-1.83,27.06,27.06,0,0,0,.2-3.11c0-2.55-.2-5.06-.32-7.6,0-.76-.12-1.51-.16-2.31a24.88,24.88,0,0,1,0-3,16.15,16.15,0,0,0-.16-2.79c-.08-1.07-.24-2.15-.32-3.22-.16-1.87-.28-3.74-.4-5.61,0-.92-.08-1.87-.08-2.79l-.16.52c-.4,1.35-.6,2.79-.92,4.18A2,2,0,0,1,85,373.88c-1.47.12-1.75-1.12-1.87-1.67-.24-1.27-.48-2.55-.8-3.82a4.28,4.28,0,0,0-.28-.76,2.46,2.46,0,0,0-.2-.48c0,1.75.08,3.5.08,5.26,0,3.66,0,7.32,0,11,0,2.51,0,5.06.12,7.56.08,2,.36,4,.4,5.93a2,2,0,0,1-1.31,1.71c-1.43.44-1.79-1-1.79-1.51,0-2.87-.08-5.69-.12-8.52,0-2-.12-3.9-.12-5.81,0-2.43.08-4.82.08-7.21,0-3.18-.16-6.37-.2-9.55,0-1.35,0-2.71,0-4.06,0-.24-.08-.52-.08-.76a4.22,4.22,0,0,1-.08-1c0-.4.28-1.39,1-1.67a1.56,1.56,0,0,1,2.27.88c.68,2,1.39,3.94,2.11,5.93.24.72.48,1.47.68,2.19Z" style="fill: #fff"/>
      <path d="M108.93,399.27c-.16.12-.32.2-1.11.76-.52-.8-.64-.92-.72-1a1.35,1.35,0,0,1-.36-.8c-.12-1.31-.16-2.63-.32-3.94-.24-2.39-.56-4.78-.88-7.12,0,0-.08,0-.12-.08a11.72,11.72,0,0,0-5.49-.32c0,.64-.12,1.31-.16,2-.08,2-.16,4-.2,6.05,0,1,0,2,0,3,0,.88-.56,2-2.75,1.51,0-1.75,0-2.87,0-4,.08-2.71.16-5.45.36-8.16.16-2.07.48-4.1.72-6.17.32-2.67.56-5.29.88-8,.32-2.43.72-4.86,1.08-7.29.12-1,.16-2,.28-2.95a26.27,26.27,0,0,1,.6-3.07,1.71,1.71,0,0,1,.64-.8c.16-.12.36-.28,1.35-1.11.6,1.19.76,1.47.92,1.75a2.67,2.67,0,0,1,.4,1c.44,2.27.76,4.54,1.07,6.81s.48,4.46.84,6.69c.4,2.47,1,4.9,1.39,7.37.48,2.75,1,5.53,1.35,8.28.28,1.91.48,3.78.72,5.65.12.76.24,1.47.36,2.19,0,.12,0,.28,0,.44a1,1,0,0,1-.32.8A1.68,1.68,0,0,1,108.93,399.27Zm-8.8-15.37,4.94.24c-1.35-5.77-1.71-11.71-2.75-17.52Z" style="fill: #fff"/>
      <path d="M122.07,398.24a36.85,36.85,0,0,0-.72-4.1c-.64-2.55-1.39-5.1-2.07-7.6-.76-2.67-1.47-5.29-2.23-7.92-.08-.24-.16-.48-.24-.68v3c0,1.79,0,3.58,0,5.37,0,.8.16,1.59.16,2.39,0,1.23-.16,2.47-.12,3.74,0,1.79.2,3.54.36,5.34a1.92,1.92,0,0,1,0,.48,1.46,1.46,0,0,1-.08.56,1.29,1.29,0,0,1-1.31.84,1.59,1.59,0,0,1-1.71-1.79c0-2.11,0-4.22-.12-6.37,0-1.91-.12-3.78-.12-5.69,0-2.43.12-4.82.12-7.24s-.16-4.7-.12-7c0-1.47.28-2.91.36-4.34.08-2.39.08-4.78.16-7.21a1.55,1.55,0,0,1,.2-.72c0-.16.12-.28.48-1.19,1.08.48,1.35.64,1.63.76l.72.48c.84.68,1.71,1.35,2.59,2a4,4,0,0,1,1.23,1.75,12.73,12.73,0,0,1,.52,1.75c.8,3.22-.72,5.69-2.51,7.72a1.94,1.94,0,0,1-.48.4l-.32.16c.28,1,.6,2,.88,2.95.72,2.59,1.51,5.17,2.23,7.76s1.23,5.06,1.87,7.56c.48,1.91,1,3.78,1.43,5.65a6.55,6.55,0,0,1,.12.8c.12.52.24,1.75-1.15,1.91A1.55,1.55,0,0,1,122.07,398.24Zm-5.14-27.71a6,6,0,0,0,2.11-3.42,4.64,4.64,0,0,0-1.79-4.5Z" style="fill: #fff"/>
      <path d="M132.3,373.16c.32-.76.72-1.51,1.07-2.31.8-1.79,1.55-3.58,2.31-5.37.84-2,1.59-4,2.39-6a3,3,0,0,1,.4-.8,1.26,1.26,0,0,1,1.55-.24,1.66,1.66,0,0,1,.72,2.27c-.8,1.83-1.39,3.74-2.19,5.57-1.43,3.19-2.95,6.29-4.38,9.47-.28.6-.56,1.2-.8,1.79,0,0,0,.08.08.16.52,1.23,1.11,2.51,1.67,3.74a21.53,21.53,0,0,1,.84,2c.48,1.31.92,2.63,1.35,3.94.8,2.55,1.59,5.1,2.35,7.64a9,9,0,0,1,.32,2.75,1.86,1.86,0,0,1-1.35,1.67c-1,.24-1.59-.84-1.71-1.31-.52-2-1-4.78-1.51-6.85-.24-.88-.6-1.71-.84-2.63a22.76,22.76,0,0,0-2.35-6.05c0,.4,0,.8,0,1.15,0,1.12,0,2.23,0,3.35.08,3.5.12,7,.2,10.51a1.79,1.79,0,0,1-1.91,2.07,1.68,1.68,0,0,1-1.23-1.51c0-1.87.12-3.74.12-5.61,0-3.34,0-6.69,0-10,0-2.83,0-5.65.16-8.48.12-2.31.36-4.62.48-6.93s.08-4.34.12-6.53a1.29,1.29,0,0,1-.12-.36,1.11,1.11,0,0,1,.36-1.23,1.27,1.27,0,0,1,1.31-.68c1,.12,1.43,3.58,1.35,5-.2,3.19-.52,6.33-.68,9.51Z" style="fill: #fff"/>
      <path d="M163.11,361.22a11.09,11.09,0,0,1,.52-1.63c.2-.48,1.11-1.28,1.63-1.12a2.46,2.46,0,0,1,1.47,1.19,5.8,5.8,0,0,1,.32,2.11c0,1.55-.08,3.11,0,4.66.08,3,.2,5.93.36,8.88.12,2.59.28,5.21.44,7.8.16,2.19.44,4.42.52,6.65.12,2.47.08,4.94.08,7.4v.4a1.55,1.55,0,0,1-1.27,2.15,1.6,1.6,0,0,1-1.71-1.83,27,27,0,0,0,.2-3.11c0-2.55-.2-5.06-.32-7.6,0-.76-.12-1.51-.16-2.31a24.88,24.88,0,0,1,0-3,16.15,16.15,0,0,0-.16-2.79c-.08-1.07-.24-2.15-.32-3.22-.16-1.87-.28-3.74-.4-5.61,0-.92-.08-1.87-.08-2.79L164,368c-.4,1.35-.6,2.79-.92,4.18a2,2,0,0,1-1.79,1.71c-1.47.12-1.75-1.12-1.87-1.67-.24-1.27-.48-2.55-.8-3.82a4.28,4.28,0,0,0-.28-.76,2.46,2.46,0,0,0-.2-.48c0,1.75.08,3.5.08,5.26,0,3.66,0,7.32,0,11,0,2.51,0,5.06.12,7.56.08,2,.36,4,.4,5.93a2,2,0,0,1-1.31,1.71c-1.43.44-1.79-1-1.79-1.51,0-2.87-.08-5.69-.12-8.52,0-2-.12-3.9-.12-5.81,0-2.43.08-4.82.08-7.21,0-3.18-.16-6.37-.2-9.55,0-1.35,0-2.71,0-4.06,0-.24-.08-.52-.08-.76a4.22,4.22,0,0,1-.08-1c0-.4.28-1.39,1-1.67a1.56,1.56,0,0,1,2.27.88c.68,2,1.39,3.94,2.11,5.93.24.72.48,1.47.68,2.19Z" style="fill: #fff"/>
      <path d="M185.24,399.27c-.16.12-.32.2-1.11.76-.52-.8-.64-.92-.72-1a1.35,1.35,0,0,1-.36-.8c-.12-1.31-.16-2.63-.32-3.94-.24-2.39-.56-4.78-.88-7.12,0,0-.08,0-.12-.08a11.72,11.72,0,0,0-5.49-.32c0,.64-.12,1.31-.16,2-.08,2-.16,4-.2,6.05,0,1,0,2,0,3,0,.88-.56,2-2.75,1.51,0-1.75,0-2.87,0-4,.08-2.71.16-5.45.36-8.16.16-2.07.48-4.1.72-6.17.32-2.67.56-5.29.88-8,.32-2.43.72-4.86,1.08-7.29.12-1,.16-2,.28-2.95a26.27,26.27,0,0,1,.6-3.07,1.71,1.71,0,0,1,.64-.8c.16-.12.36-.28,1.35-1.11.6,1.19.76,1.47.92,1.75a2.67,2.67,0,0,1,.4,1c.44,2.27.76,4.54,1.07,6.81s.48,4.46.84,6.69c.4,2.47,1,4.9,1.39,7.37.48,2.75,1,5.53,1.35,8.28.28,1.91.48,3.78.72,5.65.12.76.24,1.47.36,2.19,0,.12,0,.28,0,.44a1,1,0,0,1-.32.8A1.68,1.68,0,0,1,185.24,399.27Zm-8.8-15.37,4.94.24c-1.35-5.77-1.71-11.71-2.75-17.52Z" style="fill: #fff"/>
      <path d="M200.6,384.07c0-1.07-.16-2.15-.16-3.19,0-2.35,0-4.7,0-7,0-3.07,0-6.13,0-9.16,0-1.59,0-3.19.16-4.78a1.81,1.81,0,0,1,.68-1.15,7.47,7.47,0,0,0,.84-1,10.09,10.09,0,0,0,.72,1,1.81,1.81,0,0,1,.52,1.12c0,3-.16,6-.16,9s0,6.13,0,9.16c0,2,.16,4.06.2,6.09v13.58c0,1.43-.88,2.15-1.87,2a2.28,2.28,0,0,1-2-2c-.24-2.15-.44-4.34-.8-6.49-.4-2.51-1-5-1.47-7.53-.2-.84-.52-1.67-.72-2.51-.24-1-.44-2.07-.64-3.11-.56-2.63-1.08-5.21-1.71-7.8-.44-1.87-1-3.7-1.55-5.57a7.91,7.91,0,0,0-.44-1l.72-.36a4,4,0,0,1,.36,1.55c0,.56,0,1.12,0,1.71,0,1.55,0,3.1.08,4.7,0,.79.08,1.59.08,2.39,0,3,0,6.05,0,9,0,2.19.24,4.34.32,6.53.08,2.59.12,5.22.24,7.8a1.58,1.58,0,0,1-1.63,1.79c-.44,0-1.63-.64-1.47-1.51a15,15,0,0,0,.16-3.54c-.08-1.23-.2-2.47-.2-3.66,0-1.63-.12-8.52-.16-9.67-.08-2.59,0-5.14,0-7.72,0-1.28.08-2.55,0-3.82,0-1-.2-2-.24-2.91-.08-1.51-.08-3-.12-4.54,0-.12,0-.4,0-.52a1.53,1.53,0,0,1,1-2.15,1.82,1.82,0,0,1,2.35,1.11,45.16,45.16,0,0,1,1.63,4.42c.76,2.71,1.35,5.49,2,8.24.92,3.82,1.87,7.6,2.71,11.46.12.6.24,1.15.36,1.75C200.52,385.18,200.6,384.62,200.6,384.07Z" style="fill: #fff"/>
      <path d="M217.59,397.6c-.92,1.2-2.35,2.55-4.54,2a5.4,5.4,0,0,1-1.63-1,7,7,0,0,1-2.47-4.3c-.2-.8-.24-1.63-.44-2.43a1.44,1.44,0,1,1,2.83-.52c.16,1,.24,1.95.48,2.91a3.86,3.86,0,0,0,2,2.55c.32.16.76.12,1.35-.64a8.29,8.29,0,0,0,1.51-4.86,33.71,33.71,0,0,0-.44-9,8.32,8.32,0,0,0-.6-1.75c-.28-.64-.6-1.27-.84-1.91a20.17,20.17,0,0,0-3.07-4.46,15.62,15.62,0,0,1-3-5.61,2.75,2.75,0,0,1,0-1.27,10.86,10.86,0,0,0,.2-1.12c.24-1.55.4-3.18.76-4.7a5.32,5.32,0,0,1,1.55-2.79,3.33,3.33,0,0,1,3.07,0,4.56,4.56,0,0,1,2.59,4.14,1.46,1.46,0,0,0,.12.44,5.33,5.33,0,0,1,.2.76,3,3,0,0,1,0,1.2c-.2.84-1.51.91-1.91.48a3.27,3.27,0,0,1-.48-1c-.24-.56-.4-1.12-.6-1.67a8.2,8.2,0,0,0-.6-1.47c-.28-.52-.52-.48-.92.08a3.52,3.52,0,0,0-.72,1.67c-.12.64-.12,1.31-.24,2q-.18,1.31-.24,2.63a3.76,3.76,0,0,0,.88,2.47c.2.28.4.6.6.88.76,1.12,1.59,2.15,2.35,3.22a24.74,24.74,0,0,1,2.23,3.58,21.83,21.83,0,0,1,1.87,10.63c-.08,1.23,0,2.51-.08,3.7A9.86,9.86,0,0,1,217.59,397.6Z" style="fill: #fff"/>
      <path d="M234.15,385.26c-.16,2.23-.28,4.42-.56,6.61a43.7,43.7,0,0,1-1,5.06,3.29,3.29,0,0,1-2.59,2.75,3.9,3.9,0,0,1-3.86-1.83,6.06,6.06,0,0,1-.72-1.95c-.32-1.67-.6-3.38-1.08-5.85h.16c-.2-1.23-.44-2.43-.52-3.66-.16-2.59-.24-5.21-.24-7.8,0-2.43.08-4.9.28-7.32a38.49,38.49,0,0,1,.76-4.7,25.77,25.77,0,0,1,1.11-4.26,14.51,14.51,0,0,1,1.87-3.27c.8-1.11,3.34-.79,4.1-.08a6,6,0,0,1,2.27,4.42c.08,1.31.48,2.63.52,4,.08,2.19,0,4.38,0,6.57,0,1.31,0,2.67,0,4C234.47,380.36,234.31,382.83,234.15,385.26Zm-3.86-23.57a1.63,1.63,0,0,0-.28-.24,1.4,1.4,0,0,1-.28-.36c0-.08,0,0-.12.12a6.67,6.67,0,0,0-1.75,3.9c-.6,3.46-1.08,6.93-1.35,10.43-.2,2.95-.08,5.89-.08,8.8.48,3.14.92,6.25,1.39,9.36a7.48,7.48,0,0,0,.76,2.47,1.8,1.8,0,0,0,1,.64s0-.08-.08-.08c.12-.16.2-.4.28-.52a5.65,5.65,0,0,0,.28-.88,8.81,8.81,0,0,0,.28-1,24.59,24.59,0,0,0,.84-5.69c.16-1.95.2-3.94.44-5.89.24-2.27.12-4.58.16-6.89s.16-4.46.08-6.69c0-1.75-.44-3.5-.56-5.25A2.83,2.83,0,0,0,230.29,361.69Z" style="fill: #fff"/>
      <path d="M249.36,384.07c0-1.07-.16-2.15-.16-3.19,0-2.35,0-4.7,0-7,0-3.07,0-6.13,0-9.16,0-1.59,0-3.19.16-4.78a1.81,1.81,0,0,1,.68-1.15,7.47,7.47,0,0,0,.84-1,10.09,10.09,0,0,0,.72,1,1.81,1.81,0,0,1,.52,1.12c0,3-.16,6-.16,9s0,6.13,0,9.16c0,2,.16,4.06.2,6.09v13.58c0,1.43-.88,2.15-1.87,2a2.28,2.28,0,0,1-2-2c-.24-2.15-.44-4.34-.8-6.49-.4-2.51-1-5-1.47-7.53-.2-.84-.52-1.67-.72-2.51-.24-1-.44-2.07-.64-3.11-.56-2.63-1.08-5.21-1.71-7.8-.44-1.87-1-3.7-1.55-5.57a7.91,7.91,0,0,0-.44-1l.72-.36a4,4,0,0,1,.36,1.55c0,.56,0,1.12,0,1.71,0,1.55,0,3.1.08,4.7,0,.79.08,1.59.08,2.39,0,3,0,6.05,0,9,0,2.19.24,4.34.32,6.53.08,2.59.12,5.22.24,7.8a1.58,1.58,0,0,1-1.63,1.79c-.44,0-1.63-.64-1.47-1.51a15,15,0,0,0,.16-3.54c-.08-1.23-.2-2.47-.2-3.66,0-1.63-.12-8.52-.16-9.67-.08-2.59,0-5.14,0-7.72,0-1.28.08-2.55,0-3.82,0-1-.2-2-.24-2.91-.08-1.51-.08-3-.12-4.54,0-.12,0-.4,0-.52a1.53,1.53,0,0,1,1-2.15,1.82,1.82,0,0,1,2.35,1.11,45.16,45.16,0,0,1,1.63,4.42c.76,2.71,1.35,5.49,2,8.24.92,3.82,1.87,7.6,2.71,11.46.12.6.24,1.15.36,1.75C249.28,385.18,249.36,384.62,249.36,384.07Z" style="fill: #fff"/>
    </g>
  </g>
</svg>
