<svg id="Layer_2" data-name="Layer 2" xmlns="http://www.w3.org/2000/svg" width="331.93" height="503.64" viewBox="0 0 331.93 503.64">
  <title>newbookArtboard 2</title>
  <path d="M290.93,431.9H41a4.54,4.54,0,0,1-4.53-4.53V56.08A4.54,4.54,0,0,1,41,51.55H290.93a4.54,4.54,0,0,1,4.53,4.53V427.37A4.54,4.54,0,0,1,290.93,431.9ZM41,52.55a3.53,3.53,0,0,0-3.53,3.53V427.37A3.54,3.54,0,0,0,41,430.9H290.93a3.54,3.54,0,0,0,3.53-3.53V56.08a3.53,3.53,0,0,0-3.53-3.53Z" style="fill: #fff"/>
  <path d="M287,427.7H44.92a4.43,4.43,0,0,1-4.42-4.42V59.32a4.43,4.43,0,0,1,4.42-4.42H287a4.43,4.43,0,0,1,4.42,4.42V423.27A4.43,4.43,0,0,1,287,427.7ZM44.92,55.9a3.43,3.43,0,0,0-3.42,3.42V423.27a3.43,3.43,0,0,0,3.42,3.42H287a3.43,3.43,0,0,0,3.42-3.42V59.32A3.43,3.43,0,0,0,287,55.9Z" style="fill: #fff"/>
  <path d="M312.24,503.64H19.69A19.71,19.71,0,0,1,0,484V19.69A19.71,19.71,0,0,1,19.69,0H312.24a19.71,19.71,0,0,1,19.69,19.69V484A19.71,19.71,0,0,1,312.24,503.64ZM19.69,1A18.71,18.71,0,0,0,1,19.69V484a18.71,18.71,0,0,0,18.69,18.69H312.24A18.71,18.71,0,0,0,330.93,484V19.69A18.71,18.71,0,0,0,312.24,1Z" style="fill: #fff"/>
  <path d="M307.74,496.32H24.19a19.12,19.12,0,0,1-19.1-19.1V26.42a19.12,19.12,0,0,1,19.1-19.1H307.74a19.12,19.12,0,0,1,19.1,19.1v450.8A19.12,19.12,0,0,1,307.74,496.32ZM24.19,8.33a18.12,18.12,0,0,0-18.1,18.1v450.8a18.12,18.12,0,0,0,18.1,18.1H307.74a18.12,18.12,0,0,0,18.1-18.1V26.42a18.12,18.12,0,0,0-18.1-18.1Z" style="fill: #fff"/>
  <path d="M52.64,29.27a3.22,3.22,0,1,1,3.22-3.22A3.22,3.22,0,0,1,52.64,29.27Zm0-5.43a2.22,2.22,0,1,0,2.22,2.22A2.22,2.22,0,0,0,52.64,23.83Z" style="fill: #fff"/>
  <path d="M65.41,29.27a3.22,3.22,0,1,1,3.22-3.22A3.22,3.22,0,0,1,65.41,29.27Zm0-5.43a2.22,2.22,0,1,0,2.22,2.22A2.22,2.22,0,0,0,65.41,23.83Z" style="fill: #fff"/>
  <path d="M166,469.43a9.31,9.31,0,1,1,9.31-9.31A9.32,9.32,0,0,1,166,469.43Zm0-17.61a8.31,8.31,0,1,0,8.31,8.31A8.32,8.32,0,0,0,166,451.82Z" style="fill: #fff"/>
  <g>
    <path d="M64.88,187a45.26,45.26,0,0,0-.88-5c-.78-3.12-1.71-6.24-2.53-9.31-.93-3.27-1.8-6.48-2.73-9.7-.1-.29-.19-.58-.29-.83v3.66c0,2.19,0,4.39,0,6.58,0,1,.19,1.95.19,2.92,0,1.51-.19,3-.15,4.58,0,2.19.24,4.34.44,6.53a2.37,2.37,0,0,1,0,.58,1.77,1.77,0,0,1-.1.68,1.58,1.58,0,0,1-1.61,1,2,2,0,0,1-2.1-2.19c0-2.58,0-5.17-.15-7.8,0-2.34-.15-4.63-.15-7,0-3,.15-5.9.15-8.87s-.19-5.75-.15-8.63c0-1.8.34-3.56.44-5.31.1-2.92.1-5.85.19-8.82a1.89,1.89,0,0,1,.24-.88c0-.19.15-.34.58-1.46,1.32.58,1.66.78,2,.93l.88.58c1,.83,2.1,1.66,3.17,2.49A4.83,4.83,0,0,1,64,143.95a15.61,15.61,0,0,1,.63,2.14c1,3.95-.88,7-3.07,9.46a2.36,2.36,0,0,1-.58.49l-.39.19c.34,1.22.73,2.44,1.07,3.61.88,3.17,1.85,6.34,2.73,9.5s1.51,6.19,2.29,9.26c.58,2.34,1.17,4.63,1.75,6.92a7.79,7.79,0,0,1,.15,1c.15.63.29,2.14-1.41,2.34A1.9,1.9,0,0,1,64.88,187Zm-6.29-33.92a7.33,7.33,0,0,0,2.58-4.19A5.68,5.68,0,0,0,59,143.41Z" style="fill: #fff"/>
    <path d="M75.7,144.83l2.24-2.34c-.24,5.17-.44,9-.54,12.82-.1,3.22,0,6.43-.1,9.7,0,2.88-.2,5.75-.24,8.63,0,1.27.15,2.53.2,3.85,0,3.12.15,6.24.1,9.41a2.21,2.21,0,0,1-1.85,1.95,1.93,1.93,0,0,1-1.9-2.19c.1-3.27.15-6.58.15-9.84,0-3.66,0-7.31,0-10.92,0-2.63,0-5.26,0-7.9.1-3,.34-6,.39-9s-.1-5.7-.2-8.53c0-.78.15-2.34,1.95-2.34a1.62,1.62,0,0,1,1.61,1,8.89,8.89,0,0,1,.15,1.12c.1,1.12.19,2.24.39,4.34Z" style="fill: #fff"/>
    <path d="M95,186.25c-1.12,1.46-2.88,3.12-5.56,2.44a6.62,6.62,0,0,1-2-1.27c-1.9-1.36-2.53-3.41-3-5.26-.24-1-.29-2-.54-3a1.77,1.77,0,1,1,3.46-.63c.2,1.17.29,2.39.58,3.56a4.73,4.73,0,0,0,2.44,3.12c.39.19.93.15,1.66-.78a10.14,10.14,0,0,0,1.85-5.95,41.24,41.24,0,0,0-.54-11,10.13,10.13,0,0,0-.73-2.14c-.34-.78-.73-1.56-1-2.34-.83-2-2.44-3.75-3.75-5.46a19.13,19.13,0,0,1-3.7-6.87,3.36,3.36,0,0,1,0-1.56,13.46,13.46,0,0,0,.24-1.36c.29-1.9.49-3.9.93-5.75a6.5,6.5,0,0,1,1.9-3.41c1-.78,2.88-.49,3.75,0a5.58,5.58,0,0,1,3.17,5.07,1.77,1.77,0,0,0,.15.54,6.53,6.53,0,0,1,.24.93,3.7,3.7,0,0,1,0,1.46c-.24,1-1.85,1.12-2.34.58a4,4,0,0,1-.58-1.22c-.29-.68-.49-1.36-.73-2a10,10,0,0,0-.73-1.8c-.34-.63-.63-.58-1.12.1a4.31,4.31,0,0,0-.88,2c-.15.78-.15,1.61-.29,2.39q-.22,1.61-.29,3.22a4.6,4.6,0,0,0,1.07,3c.24.34.49.73.73,1.07.93,1.36,1.95,2.63,2.88,3.95a30.29,30.29,0,0,1,2.73,4.39,26.74,26.74,0,0,1,2.29,13c-.1,1.51,0,3.07-.1,4.53C96.9,181.92,96.56,184.3,95,186.25Z" style="fill: #fff"/>
    <path d="M104.6,144.83l2.24-2.34c-.24,5.17-.44,9-.54,12.82-.1,3.22,0,6.43-.1,9.7,0,2.88-.2,5.75-.24,8.63,0,1.27.15,2.53.2,3.85,0,3.12.15,6.24.1,9.41a2.21,2.21,0,0,1-1.85,1.95,1.93,1.93,0,0,1-1.9-2.19c.1-3.27.15-6.58.15-9.84,0-3.66,0-7.31,0-10.92,0-2.63,0-5.26,0-7.9.1-3,.34-6,.39-9s-.1-5.7-.2-8.53c0-.78.15-2.34,1.95-2.34a1.62,1.62,0,0,1,1.61,1,8.89,8.89,0,0,1,.15,1.12c.1,1.12.19,2.24.39,4.34Z" style="fill: #fff"/>
    <path d="M125.41,169.68c0-1.32-.19-2.63-.19-3.9,0-2.87,0-5.75,0-8.63,0-3.75,0-7.51,0-11.21,0-1.95,0-3.9.19-5.85a2.22,2.22,0,0,1,.83-1.41,8.84,8.84,0,0,0,1-1.22,12.15,12.15,0,0,0,.88,1.27,2.22,2.22,0,0,1,.63,1.36c0,3.66-.19,7.31-.19,11s0,7.51,0,11.21c0,2.49.19,5,.24,7.46v16.62c0,1.75-1.07,2.63-2.29,2.49a2.79,2.79,0,0,1-2.44-2.49c-.29-2.63-.54-5.31-1-7.94-.49-3.07-1.17-6.14-1.8-9.21-.24-1-.63-2-.88-3.07-.29-1.27-.54-2.53-.78-3.8-.68-3.22-1.32-6.38-2.1-9.55-.54-2.29-1.27-4.53-1.9-6.82a9.91,9.91,0,0,0-.54-1.27l.88-.44a4.93,4.93,0,0,1,.44,1.9c0,.68,0,1.36,0,2.1,0,1.9,0,3.8.1,5.75,0,1,.1,1.95.1,2.92,0,3.7,0,7.41,0,11.06,0,2.68.29,5.31.39,8,.1,3.17.15,6.38.29,9.55a1.93,1.93,0,0,1-2,2.19c-.54,0-2-.78-1.8-1.85a18.4,18.4,0,0,0,.2-4.34c-.1-1.51-.24-3-.24-4.48,0-2-.15-10.43-.2-11.84-.1-3.17,0-6.29,0-9.46,0-1.56.1-3.12,0-4.68,0-1.22-.24-2.39-.29-3.56-.1-1.85-.1-3.7-.15-5.56,0-.15,0-.49,0-.63a1.87,1.87,0,0,1,1.27-2.63,2.23,2.23,0,0,1,2.88,1.36,55.57,55.57,0,0,1,2,5.41c.93,3.31,1.66,6.73,2.49,10.09,1.12,4.68,2.29,9.31,3.31,14,.15.73.29,1.41.44,2.14C125.31,171,125.41,170.37,125.41,169.68Z" style="fill: #fff"/>
    <path d="M145.88,184.3a8.07,8.07,0,0,1-1.17,2.83c-1.61,2.49-4.92,2.1-6.68-.15a6.34,6.34,0,0,1-1.12-2.58c-.34-1.41-.39-2.88-.78-4.29a36.18,36.18,0,0,1-1-7.94,79.81,79.81,0,0,1,.15-9.65c.1-3,.29-6,.63-9.06a86.9,86.9,0,0,1,1.41-8.68,32.58,32.58,0,0,1,1.51-4.34c.78-2.19,4.68-3.07,6.43-1.51,1.07.58,3.66,3,3.07,4.39a1.47,1.47,0,0,1-.93.78,2,2,0,0,1-2-.49l-.49-.49-.15-.15a2.81,2.81,0,0,1-.68-.39c-.15-.1-.24-.2-.39-.29-1.12-.68-1.61-.54-1.95.78-.73,2.78-1.36,5.51-1.9,8.33a54.23,54.23,0,0,0-.63,5.65c-.24,2.53-.49,5.07-.58,7.6-.1,1.9.19,3.75.1,5.65a48.36,48.36,0,0,0,1.07,10.58,14.5,14.5,0,0,0,1.27,3.7c.1.19.34.49.44.49s.34-.1.44-.49c.73-3.27,1.61-6.53,2.19-9.8.39-2.24.44-4.53.63-6.92a10.13,10.13,0,0,1-2.14-.15c-.63-.1-2.19-1-2.14-1.75a2.15,2.15,0,0,1,2.53-2.14c1.27.19,2.49.15,3.7.39a2.47,2.47,0,0,1,1.75,2.14c-.19,2.83-.44,5.7-.83,8.48C147.14,178,146.51,181.18,145.88,184.3Z" style="fill: #fff"/>
    <path d="M176.82,186.25c-1.12,1.46-2.88,3.12-5.56,2.44a6.62,6.62,0,0,1-2-1.27c-1.9-1.36-2.53-3.41-3-5.26-.24-1-.29-2-.54-3a1.77,1.77,0,1,1,3.46-.63c.2,1.17.29,2.39.58,3.56a4.73,4.73,0,0,0,2.44,3.12c.39.19.93.15,1.66-.78a10.14,10.14,0,0,0,1.85-5.95,41.24,41.24,0,0,0-.54-11,10.13,10.13,0,0,0-.73-2.14c-.34-.78-.73-1.56-1-2.34-.83-2-2.44-3.75-3.75-5.46a19.13,19.13,0,0,1-3.7-6.87,3.36,3.36,0,0,1,0-1.56,13.46,13.46,0,0,0,.24-1.36c.29-1.9.49-3.9.93-5.75a6.5,6.5,0,0,1,1.9-3.41c1-.78,2.88-.49,3.75,0a5.58,5.58,0,0,1,3.17,5.07,1.77,1.77,0,0,0,.15.54,6.53,6.53,0,0,1,.24.93,3.7,3.7,0,0,1,0,1.46c-.24,1-1.85,1.12-2.34.58a4,4,0,0,1-.58-1.22c-.29-.68-.49-1.36-.73-2a10,10,0,0,0-.73-1.8c-.34-.63-.63-.58-1.12.1a4.31,4.31,0,0,0-.88,2c-.15.78-.15,1.61-.29,2.39q-.22,1.61-.29,3.22a4.6,4.6,0,0,0,1.07,3c.24.34.49.73.73,1.07.93,1.36,1.95,2.63,2.88,3.95a30.29,30.29,0,0,1,2.73,4.39,26.74,26.74,0,0,1,2.29,13c-.1,1.51,0,3.07-.1,4.53C178.72,181.92,178.38,184.3,176.82,186.25Z" style="fill: #fff"/>
    <path d="M186.62,141.61c-1.66,0-2.39-.58-2.29-2,0-.44,1.46-1.32,3.46-1.36,1.41,0,3.07,0,4.19,0s2.19,0,3.31-.1c.78,0,2.29,0,2.34,1.8s-1.66,2-2.29,2c-.83,0-1.61,0-2.39-.1,0,4.53,0,9,0,13.4,0,2.73.15,5.46.24,8.14.1,2.29.24,4.53.29,6.82.1,4.24,0,8.53.1,12.77,0,1.32.15,2.58.1,3.85a2.36,2.36,0,0,1-1.51,1.9,1.75,1.75,0,0,1-2.29-1.85c0-1.56,0-3.12,0-4.63,0-4.24.1-8.43,0-12.67,0-3.61-.34-7.21-.49-10.82-.1-2-.19-4.14-.19-6.19,0-2.83.1-5.7.1-8.58a12.61,12.61,0,0,0-.24-2.29A21.57,21.57,0,0,0,186.62,141.61Z" style="fill: #fff"/>
    <path d="M212.79,187a45.26,45.26,0,0,0-.88-5c-.78-3.12-1.71-6.24-2.53-9.31-.93-3.27-1.8-6.48-2.73-9.7-.1-.29-.19-.58-.29-.83v3.66c0,2.19,0,4.39,0,6.58,0,1,.19,1.95.19,2.92,0,1.51-.19,3-.15,4.58,0,2.19.24,4.34.44,6.53a2.37,2.37,0,0,1,0,.58,1.77,1.77,0,0,1-.1.68,1.58,1.58,0,0,1-1.61,1,2,2,0,0,1-2.1-2.19c0-2.58,0-5.17-.15-7.8,0-2.34-.15-4.63-.15-7,0-3,.15-5.9.15-8.87s-.19-5.75-.15-8.63c0-1.8.34-3.56.44-5.31.1-2.92.1-5.85.19-8.82a1.89,1.89,0,0,1,.24-.88c0-.19.15-.34.58-1.46,1.32.58,1.66.78,2,.93l.88.58c1,.83,2.1,1.66,3.17,2.49a4.83,4.83,0,0,1,1.51,2.14,15.61,15.61,0,0,1,.63,2.14c1,3.95-.88,7-3.07,9.46a2.36,2.36,0,0,1-.58.49l-.39.19c.34,1.22.73,2.44,1.07,3.61.88,3.17,1.85,6.34,2.73,9.5s1.51,6.19,2.29,9.26c.58,2.34,1.17,4.63,1.75,6.92a7.79,7.79,0,0,1,.15,1c.15.63.29,2.14-1.41,2.34A1.9,1.9,0,0,1,212.79,187Zm-6.29-33.92a7.33,7.33,0,0,0,2.58-4.19,5.68,5.68,0,0,0-2.19-5.51Z" style="fill: #fff"/>
    <path d="M234.28,171.15c-.2,2.73-.34,5.41-.68,8.09a53.59,53.59,0,0,1-1.27,6.19,4,4,0,0,1-3.17,3.36,4.78,4.78,0,0,1-4.73-2.24,7.45,7.45,0,0,1-.88-2.39c-.39-2-.73-4.14-1.32-7.16h.19c-.24-1.51-.54-3-.63-4.48-.2-3.17-.29-6.38-.29-9.55,0-3,.1-6,.34-9a47.06,47.06,0,0,1,.93-5.75,31.55,31.55,0,0,1,1.36-5.21,17.8,17.8,0,0,1,2.29-4c1-1.36,4.09-1,5-.1a7.38,7.38,0,0,1,2.78,5.41c.1,1.61.58,3.22.63,4.87.1,2.68,0,5.36,0,8,0,1.61,0,3.27,0,4.92C234.67,165.15,234.47,168.17,234.28,171.15Zm-4.73-28.85a2.12,2.12,0,0,0-.34-.29,1.73,1.73,0,0,1-.34-.44c0-.1,0,0-.15.15a8.17,8.17,0,0,0-2.14,4.78c-.73,4.24-1.32,8.48-1.66,12.77-.24,3.61-.1,7.21-.1,10.77.58,3.85,1.12,7.65,1.71,11.45a9.17,9.17,0,0,0,.93,3,2.19,2.19,0,0,0,1.22.78s0-.1-.1-.1c.15-.19.24-.49.34-.63a6.87,6.87,0,0,0,.34-1.07,10.67,10.67,0,0,0,.34-1.17,30.11,30.11,0,0,0,1-7c.19-2.39.24-4.83.54-7.21.29-2.78.15-5.6.19-8.43s.19-5.46.1-8.19c0-2.14-.54-4.29-.68-6.43A3.47,3.47,0,0,0,229.55,142.29Z" style="fill: #fff"/>
    <path d="M252.89,169.68c0-1.32-.19-2.63-.19-3.9,0-2.87,0-5.75,0-8.63,0-3.75,0-7.51,0-11.21,0-1.95,0-3.9.19-5.85a2.22,2.22,0,0,1,.83-1.41,8.84,8.84,0,0,0,1-1.22,12.38,12.38,0,0,0,.88,1.27,2.22,2.22,0,0,1,.63,1.36c0,3.66-.19,7.31-.19,11s0,7.51,0,11.21c0,2.49.19,5,.24,7.46v16.62c0,1.75-1.07,2.63-2.29,2.49a2.8,2.8,0,0,1-2.44-2.49c-.29-2.63-.54-5.31-1-7.94-.49-3.07-1.17-6.14-1.8-9.21-.24-1-.63-2-.88-3.07-.29-1.27-.54-2.53-.78-3.8-.68-3.22-1.32-6.38-2.1-9.55-.54-2.29-1.27-4.53-1.9-6.82a9.84,9.84,0,0,0-.54-1.27l.88-.44a4.94,4.94,0,0,1,.44,1.9c0,.68,0,1.36,0,2.1,0,1.9,0,3.8.1,5.75,0,1,.1,1.95.1,2.92,0,3.7,0,7.41,0,11.06,0,2.68.29,5.31.39,8,.1,3.17.15,6.38.29,9.55a1.93,1.93,0,0,1-2,2.19c-.54,0-2-.78-1.8-1.85a18.4,18.4,0,0,0,.2-4.34c-.1-1.51-.24-3-.24-4.48,0-2-.15-10.43-.2-11.84-.1-3.17,0-6.29,0-9.46,0-1.56.1-3.12,0-4.68,0-1.22-.24-2.39-.29-3.56-.1-1.85-.1-3.7-.15-5.56,0-.15,0-.49,0-.63a1.87,1.87,0,0,1,1.27-2.63,2.23,2.23,0,0,1,2.88,1.36,55.57,55.57,0,0,1,2,5.41c.93,3.31,1.66,6.73,2.49,10.09,1.12,4.68,2.29,9.31,3.31,14,.15.73.29,1.41.44,2.14C252.8,171,252.89,170.37,252.89,169.68Z" style="fill: #fff"/>
    <path d="M273.36,184.3a8.07,8.07,0,0,1-1.17,2.83c-1.61,2.49-4.92,2.1-6.68-.15a6.34,6.34,0,0,1-1.12-2.58c-.34-1.41-.39-2.88-.78-4.29a36.18,36.18,0,0,1-1-7.94,79.81,79.81,0,0,1,.15-9.65c.1-3,.29-6,.63-9.06a86.9,86.9,0,0,1,1.41-8.68,32.58,32.58,0,0,1,1.51-4.34c.78-2.19,4.68-3.07,6.43-1.51,1.07.58,3.66,3,3.07,4.39a1.47,1.47,0,0,1-.93.78,2,2,0,0,1-2-.49l-.49-.49-.15-.15a2.82,2.82,0,0,1-.68-.39c-.15-.1-.24-.2-.39-.29-1.12-.68-1.61-.54-1.95.78-.73,2.78-1.36,5.51-1.9,8.33a54.23,54.23,0,0,0-.63,5.65c-.24,2.53-.49,5.07-.58,7.6-.1,1.9.19,3.75.1,5.65a48.36,48.36,0,0,0,1.07,10.58,14.5,14.5,0,0,0,1.27,3.7c.1.19.34.49.44.49s.34-.1.44-.49c.73-3.27,1.61-6.53,2.19-9.8.39-2.24.44-4.53.63-6.92a10.13,10.13,0,0,1-2.14-.15c-.63-.1-2.19-1-2.14-1.75a2.15,2.15,0,0,1,2.53-2.14c1.27.19,2.49.15,3.7.39a2.47,2.47,0,0,1,1.75,2.14c-.19,2.83-.44,5.7-.83,8.48C274.63,178,274,181.18,273.36,184.3Z" style="fill: #fff"/>
  </g>
  <g>
    <path d="M65.51,341.71a6.78,6.78,0,0,1-3.19,1.57c-1.88.52-2.66-.94-2.61-2.3.1-2.82.21-5.7.26-8.57,0-2.66-.16-5.38-.1-8,0-2.3.21-4.65.26-6.95.05-.84-.16-1.72-.16-2.56-.05-5-.26-10-.05-14.94a70.92,70.92,0,0,0-.57-8.83,2,2,0,0,1,1.62-2,6.67,6.67,0,0,1,6.58,4c.31.68.68,1.25,1,1.88a8.86,8.86,0,0,1,.94,2.14c1,3.55,1.88,7,1.15,10.87a10.69,10.69,0,0,1-4.13,6.43,6.84,6.84,0,0,0,1.25.89A5.47,5.47,0,0,1,70.31,318a27,27,0,0,1,1,2.87,12.78,12.78,0,0,1,.78,4,32.31,32.31,0,0,1-.37,6C71,335.28,68.33,338.73,65.51,341.71Zm-2-29.73.1-.05c2.77-1.41,3.87-3.87,3.71-6.9a14.33,14.33,0,0,0-.42-2.61c-.21-.94-.47-1.88-.63-2.82a11.24,11.24,0,0,0-2.77-5.7Zm0,5.12v21a10.6,10.6,0,0,0,2.87-3.4c.31-.73.73-1.46,1.1-2.25a8.69,8.69,0,0,0,.78-2,16.93,16.93,0,0,0-.68-9.09A6.36,6.36,0,0,0,63.47,317.1Z" style="fill: #fff"/>
    <path d="M88.44,341.45a48.33,48.33,0,0,0-.94-5.38c-.84-3.34-1.83-6.69-2.72-10-1-3.5-1.93-6.95-2.93-10.4-.1-.31-.21-.63-.31-.89v3.92c0,2.35,0,4.7.05,7.05,0,1,.21,2.09.21,3.13,0,1.62-.21,3.24-.16,4.91.05,2.35.26,4.65.47,7a2.54,2.54,0,0,1,.05.63,1.9,1.9,0,0,1-.1.73,1.69,1.69,0,0,1-1.72,1.1,2.09,2.09,0,0,1-2.25-2.35c.05-2.77-.05-5.54-.16-8.36-.05-2.51-.16-5-.16-7.47,0-3.19.16-6.32.16-9.51s-.21-6.17-.16-9.25c0-1.93.37-3.81.47-5.7.1-3.13.1-6.27.21-9.46a2,2,0,0,1,.26-.94c.05-.21.16-.37.63-1.57,1.41.63,1.78.84,2.14,1l.94.63c1.1.89,2.25,1.78,3.4,2.67a5.18,5.18,0,0,1,1.62,2.3,16.61,16.61,0,0,1,.68,2.3c1,4.23-.94,7.47-3.29,10.13a2.55,2.55,0,0,1-.63.52l-.42.21c.37,1.31.78,2.61,1.15,3.87.94,3.4,2,6.79,2.93,10.19s1.62,6.64,2.46,9.93c.63,2.51,1.25,5,1.88,7.42a8.48,8.48,0,0,1,.16,1c.16.68.31,2.3-1.52,2.51A2,2,0,0,1,88.44,341.45ZM81.7,305.08a7.86,7.86,0,0,0,2.77-4.49c.26-3-.78-4.7-2.35-5.9Z" style="fill: #fff"/>
    <path d="M105.58,339.62a2,2,0,0,1,1.1.89,1.55,1.55,0,0,0,.21.42c0,.05.05.16.73,1.1-1,.68-1.2.84-1.36.94a2.41,2.41,0,0,1-1.15.42,29.92,29.92,0,0,1-3-.26l-.89-.16a8.73,8.73,0,0,1-1.57-.21,2.09,2.09,0,0,1-1.83-2.14c0-.42,0-.94.05-1.67.1-2.35.16-4.7.21-7s.21-4.75.21-7.11c.05-3.55-.05-7.11.05-10.66.05-3.4.31-6.84.37-10.29.05-3.71-.05-7.42-.05-11.13,0-.26-.1-.58-.1-.84a2.09,2.09,0,0,1,.31-1.46,3.93,3.93,0,0,1,2.46-1.31c1.88-.16,3.81-.05,5.69-.1a2,2,0,0,1,2.35,1.93,2.11,2.11,0,0,1-2.3,2.2h-4.75v12a23.57,23.57,0,0,0,2.77-.37,1.87,1.87,0,0,1,2.4,1.52,2,2,0,0,1-1.88,2.46c-1.15.05-2.3.16-3.45.16-.05,3.29-.16,6.58-.21,9.87-.1,5.22-.16,10.45-.26,15.67V339A15.76,15.76,0,0,1,105.58,339.62Z" style="fill: #fff"/>
    <path d="M127.94,322.85c0-1.41-.21-2.82-.21-4.18-.05-3.08-.05-6.17-.05-9.25-.05-4,0-8,.05-12,0-2.09.05-4.18.21-6.27a2.38,2.38,0,0,1,.89-1.51,9.48,9.48,0,0,0,1.1-1.31,13.14,13.14,0,0,0,.94,1.36,2.37,2.37,0,0,1,.68,1.46c0,3.92-.21,7.84-.21,11.75s-.05,8,0,12c0,2.66.21,5.33.26,8v17.82c0,1.88-1.15,2.82-2.46,2.67a3,3,0,0,1-2.61-2.67c-.31-2.82-.57-5.69-1-8.52-.52-3.29-1.25-6.58-1.93-9.87-.26-1.1-.68-2.19-.94-3.29-.31-1.36-.57-2.72-.84-4.08-.73-3.45-1.41-6.84-2.25-10.24-.57-2.46-1.36-4.86-2-7.31a10.63,10.63,0,0,0-.57-1.36l.94-.47a5.3,5.3,0,0,1,.47,2c.05.73.05,1.46.05,2.25.05,2,.05,4.07.1,6.16.05,1,.1,2.09.1,3.13,0,4,0,7.94.05,11.86.05,2.87.31,5.69.42,8.57.1,3.4.16,6.84.31,10.24a2.07,2.07,0,0,1-2.14,2.35c-.57,0-2.14-.84-1.93-2a19.71,19.71,0,0,0,.21-4.65c-.1-1.62-.26-3.24-.26-4.81-.05-2.14-.16-11.18-.21-12.7-.1-3.4-.05-6.74-.05-10.14,0-1.67.1-3.34.05-5,0-1.31-.26-2.56-.31-3.81-.1-2-.1-4-.16-6-.05-.16,0-.52-.05-.68a2,2,0,0,1,1.36-2.82,2.39,2.39,0,0,1,3.08,1.46,59.48,59.48,0,0,1,2.14,5.8c1,3.55,1.78,7.21,2.66,10.81,1.2,5,2.46,10,3.55,15,.16.78.31,1.52.47,2.3C127.84,324.31,127.94,323.58,127.94,322.85Z" style="fill: #fff"/>
    <path d="M146.07,339.62a2,2,0,0,1,1.1.89,1.55,1.55,0,0,0,.21.42c0,.05.05.16.73,1.1-1,.68-1.2.84-1.36.94a2.41,2.41,0,0,1-1.15.42,29.92,29.92,0,0,1-3-.26l-.89-.16a8.73,8.73,0,0,1-1.57-.21,2.09,2.09,0,0,1-1.83-2.14c0-.42,0-.94.05-1.67.1-2.35.16-4.7.21-7s.21-4.75.21-7.11c.05-3.55-.05-7.11.05-10.66.05-3.4.31-6.84.37-10.29.05-3.71-.05-7.42-.05-11.13,0-.26-.1-.58-.1-.84a2.09,2.09,0,0,1,.31-1.46,3.93,3.93,0,0,1,2.46-1.31c1.88-.16,3.81-.05,5.69-.1a2,2,0,0,1,2.35,1.93,2.11,2.11,0,0,1-2.3,2.2h-4.75v12a23.57,23.57,0,0,0,2.77-.37,1.87,1.87,0,0,1,2.4,1.52,2,2,0,0,1-1.88,2.46c-1.15.05-2.3.16-3.45.16-.05,3.29-.16,6.58-.21,9.87-.1,5.22-.16,10.45-.26,15.67V339A15.76,15.76,0,0,1,146.07,339.62Z" style="fill: #fff"/>
    <path d="M174.08,341.71a6.78,6.78,0,0,1-3.19,1.57c-1.88.52-2.66-.94-2.61-2.3.1-2.82.21-5.7.26-8.57,0-2.66-.16-5.38-.1-8,0-2.3.21-4.65.26-6.95.05-.84-.16-1.72-.16-2.56-.05-5-.26-10-.05-14.94a70.92,70.92,0,0,0-.57-8.83,2,2,0,0,1,1.62-2,6.67,6.67,0,0,1,6.58,4c.31.68.68,1.25,1,1.88a8.86,8.86,0,0,1,.94,2.14c1,3.55,1.88,7,1.15,10.87a10.69,10.69,0,0,1-4.13,6.43,6.84,6.84,0,0,0,1.25.89,5.47,5.47,0,0,1,2.56,2.66,27,27,0,0,1,1,2.87,12.78,12.78,0,0,1,.78,4,32.31,32.31,0,0,1-.37,6C179.57,335.28,176.9,338.73,174.08,341.71ZM172,312l.1-.05c2.77-1.41,3.87-3.87,3.71-6.9a14.33,14.33,0,0,0-.42-2.61c-.21-.94-.47-1.88-.63-2.82a11.24,11.24,0,0,0-2.77-5.7Zm0,5.12v21a10.6,10.6,0,0,0,2.87-3.4c.31-.73.73-1.46,1.1-2.25a8.69,8.69,0,0,0,.78-2,16.93,16.93,0,0,0-.68-9.09A6.36,6.36,0,0,0,172,317.1Z" style="fill: #fff"/>
    <path d="M197,341.45a48.33,48.33,0,0,0-.94-5.38c-.84-3.34-1.83-6.69-2.72-10-1-3.5-1.93-6.95-2.93-10.4-.1-.31-.21-.63-.31-.89v3.92c0,2.35,0,4.7.05,7.05,0,1,.21,2.09.21,3.13,0,1.62-.21,3.24-.16,4.91.05,2.35.26,4.65.47,7a2.54,2.54,0,0,1,.05.63,1.9,1.9,0,0,1-.1.73,1.69,1.69,0,0,1-1.72,1.1,2.09,2.09,0,0,1-2.25-2.35c.05-2.77-.05-5.54-.16-8.36-.05-2.51-.16-5-.16-7.47,0-3.19.16-6.32.16-9.51s-.21-6.17-.16-9.25c0-1.93.37-3.81.47-5.7.1-3.13.1-6.27.21-9.46a2,2,0,0,1,.26-.94c.05-.21.16-.37.63-1.57,1.41.63,1.78.84,2.14,1l.94.63c1.1.89,2.25,1.78,3.4,2.67a5.18,5.18,0,0,1,1.62,2.3,16.61,16.61,0,0,1,.68,2.3c1,4.23-.94,7.47-3.29,10.13a2.55,2.55,0,0,1-.63.52l-.42.21c.37,1.31.78,2.61,1.15,3.87.94,3.4,2,6.79,2.93,10.19s1.62,6.64,2.46,9.93c.63,2.51,1.25,5,1.88,7.42a8.48,8.48,0,0,1,.16,1c.16.68.31,2.3-1.52,2.51A2,2,0,0,1,197,341.45Zm-6.74-36.36a7.86,7.86,0,0,0,2.77-4.49c.26-3-.78-4.7-2.35-5.9Z" style="fill: #fff"/>
    <path d="M220.06,324.41c-.21,2.93-.37,5.8-.73,8.67a57.46,57.46,0,0,1-1.36,6.63,4.32,4.32,0,0,1-3.4,3.61,5.12,5.12,0,0,1-5.07-2.4,8,8,0,0,1-.94-2.56c-.42-2.19-.78-4.44-1.41-7.68h.21c-.26-1.62-.57-3.19-.68-4.81-.21-3.4-.31-6.84-.31-10.24,0-3.19.1-6.43.37-9.61a50.43,50.43,0,0,1,1-6.16,33.83,33.83,0,0,1,1.46-5.59,19.07,19.07,0,0,1,2.46-4.28c1-1.46,4.39-1,5.38-.1a7.92,7.92,0,0,1,3,5.8c.1,1.72.63,3.45.68,5.22.1,2.87,0,5.75,0,8.62,0,1.72,0,3.5-.05,5.28C220.48,318,220.27,321.23,220.06,324.41ZM215,293.48a2.27,2.27,0,0,0-.37-.31,1.86,1.86,0,0,1-.37-.47c-.05-.1,0,.05-.16.16a8.75,8.75,0,0,0-2.3,5.12c-.78,4.54-1.41,9.09-1.78,13.69-.26,3.87-.1,7.73-.1,11.55.63,4.13,1.2,8.2,1.83,12.28a9.83,9.83,0,0,0,1,3.24,2.36,2.36,0,0,0,1.31.84c-.05-.05-.05-.11-.1-.11.16-.21.26-.52.37-.68a7.42,7.42,0,0,0,.37-1.15,11.35,11.35,0,0,0,.37-1.25,32.25,32.25,0,0,0,1.1-7.47c.21-2.56.26-5.17.57-7.73.31-3,.16-6,.21-9s.21-5.85.1-8.78c-.05-2.3-.57-4.6-.73-6.9A3.72,3.72,0,0,0,215,293.48Z" style="fill: #fff"/>
    <path d="M239.23,324.67c.57-3.87,1.31-7.73,1.88-11.65s1-8.1,1.46-12.17c.21-2.14.31-4.34.47-6.48.1-1,.1-2,.26-3,.05-.42,1.25-1.93,2.25-1.36.63.42,1.36,1.15,1.36,1.72a25.25,25.25,0,0,1-.16,4c-.42,4.08-.94,8.1-1.46,12.12-.42,3.55-1,7.05-1.46,10.61-.37,2.82-.73,5.64-1,8.41-.42,3.45-.84,6.84-1.2,10.24a23.29,23.29,0,0,0-.16,3.81c.05,1.2-.42,2.56-2.3,2.46a1.87,1.87,0,0,1-1.88-1.62c0-.21-.05-.42-.05-.63a9,9,0,0,0-.37-1.62c-.16-.63-.37-1.25-.52-1.88-.31-1.46-.68-2.87-1-4.28-.63,2.72-1.25,5.43-1.78,8.15a1.84,1.84,0,0,1-2.3,1.57,2.25,2.25,0,0,1-1.57-1.88c-.26-3.55-.47-7.16-.68-10.76-.21-2.93-.42-5.9-.68-8.83-.31-3.71-.73-7.47-.94-11.18-.21-2.93-.16-5.8-.31-8.72-.16-3.55-.37-7.05-.57-10.55a1.51,1.51,0,0,1,.63-1.67c1.46-1.36,2.25.37,2.4.94a14.54,14.54,0,0,1,.63,3.34c.21,3.4.21,6.79.42,10.19s.37,6.64.63,10,.47,6.64.78,9.93c.16,2,.37,4,.52,6.06.37-1.41.57-2.77.94-4.13a2.18,2.18,0,0,1,1.31-1.52,2,2,0,0,1,2,.63,5.27,5.27,0,0,1,.94,1.78c.31,1.2.63,2.46.94,3.66C238.82,328.44,239,326.56,239.23,324.67Z" style="fill: #fff"/>
    <path d="M266.14,322.85c0-1.41-.21-2.82-.21-4.18-.05-3.08-.05-6.17-.05-9.25-.05-4,0-8,.05-12,0-2.09.05-4.18.21-6.27a2.38,2.38,0,0,1,.89-1.51,9.48,9.48,0,0,0,1.1-1.31,13.14,13.14,0,0,0,.94,1.36,2.37,2.37,0,0,1,.68,1.46c0,3.92-.21,7.84-.21,11.75s-.05,8,0,12c0,2.66.21,5.33.26,8v17.82c0,1.88-1.15,2.82-2.46,2.67a3,3,0,0,1-2.61-2.67c-.31-2.82-.57-5.69-1-8.52-.52-3.29-1.25-6.58-1.93-9.87-.26-1.1-.68-2.19-.94-3.29-.31-1.36-.57-2.72-.84-4.08-.73-3.45-1.41-6.84-2.25-10.24-.57-2.46-1.36-4.86-2-7.31a10.63,10.63,0,0,0-.57-1.36l.94-.47a5.3,5.3,0,0,1,.47,2c.05.73.05,1.46.05,2.25.05,2,.05,4.07.1,6.16.05,1,.1,2.09.1,3.13,0,4,0,7.94.05,11.86.05,2.87.31,5.69.42,8.57.1,3.4.16,6.84.31,10.24a2.07,2.07,0,0,1-2.14,2.35c-.57,0-2.14-.84-1.93-2a19.71,19.71,0,0,0,.21-4.65c-.1-1.62-.26-3.24-.26-4.81-.05-2.14-.16-11.18-.21-12.7-.1-3.4-.05-6.74-.05-10.14,0-1.67.1-3.34.05-5,0-1.31-.26-2.56-.31-3.81-.1-2-.1-4-.16-6-.05-.16,0-.52-.05-.68a2,2,0,0,1,1.36-2.82,2.39,2.39,0,0,1,3.08,1.46,59.48,59.48,0,0,1,2.14,5.8c1,3.55,1.78,7.21,2.66,10.81,1.2,5,2.46,10,3.55,15,.16.78.31,1.52.47,2.3C266,324.31,266.14,323.58,266.14,322.85Z" style="fill: #fff"/>
  </g>
  <g>
    <path d="M63.66,203.18c.73,0,1.46,0,2.2-.06.48,0,.86,0,.86.57s-.41.64-.86.64l-2.2-.1c0,3.21,0,6.33,0,9.42,0,1.78.1,3.56.16,5.34.06,1.46.16,3,.19,4.42.06,2.77,0,5.57.06,8.37,0,.8.1,1.62.06,2.45a.83.83,0,0,1-.54.67c-.38.13-.67-.13-.67-.6,0-1,0-2,0-3,0-2.77.06-5.5,0-8.27,0-2.35-.22-4.74-.32-7.09-.06-1.34-.13-2.67-.13-4,0-1.85,0-3.72.06-5.6a9.16,9.16,0,0,0-.22-1.88c0-.13-.32-.25-.48-.25a16.13,16.13,0,0,0-1.75-.06c-.86,0-.89-.19-.86-.6S62.2,203.18,63.66,203.18Z" style="fill: #fff"/>
    <path d="M69.74,222.71c.06,1.81.13,3.66.16,5.47,0,1.15,0,2.32,0,3.5,0,.83.13,1.62.13,2.45a1,1,0,0,1-.25.67.6.6,0,0,1-.6.06.83.83,0,0,1-.32-.64c0-1.4.1-2.8.1-4.2,0-2.83-.13-5.63-.06-8.46.06-3.12.32-6.24.48-9.35,0-1,0-2,0-3.05,0-1.62,0-3.75,0-5.38a.65.65,0,0,1,.38-.51.7.7,0,0,1,.54.32,1.38,1.38,0,0,1,.13.73c0,1.5-.06,3.5-.13,5-.06,2.42-.13,4.84-.22,7.29,0,1-.1,2.1-.13,3.12h4.07v-1.85c0-1.94,0-3.91,0-5.85,0-1.56,0-3.12-.06-4.68,0-1.15-.13-2.29-.13-3.44,0-.32,0-.76.54-.8s.6.32.6.7c0,1.08,0,2.2,0,3.28,0,1.46,0,2.9,0,4.36,0,1.85-.16,3.66-.13,5.47.1,3.44.29,6.87.41,10.28.1,1.94.19,3.88.32,5.82,0,.25.19.54.1.73-.13.35-.38.8-.64.83s-.6-.29-.6-.76c0-1.85.06-3.69,0-5.5-.06-2.1-.25-4.17-.38-6.27a1.29,1.29,0,0,1,0-.35c.13-.73-.32-.92-.89-.89-1.08,0-2.13.13-3.31.16Z" style="fill: #fff"/>
    <path d="M79.47,213a21.35,21.35,0,0,0,2.45-.29c.48-.1.67.1.73.38a.61.61,0,0,1-.57.76l-2.13.1c-.41,0-.57.16-.57.57,0,2-.1,4-.13,6.08-.06,3.18-.1,6.36-.16,9.54V233c0,.38.06.57.6.57a8,8,0,0,1,2.26.35c.22.06.35.45.51.67-.22.13-.41.38-.64.38a16.75,16.75,0,0,1-1.78-.16l-.54-.1c-1.56-.16-1.53-.16-1.46-1.78.06-1.43.06-2.86.13-4.29s.13-2.9.13-4.33c0-2.16,0-4.29,0-6.46s.19-4.2.22-6.3c0-2.26,0-4.52,0-6.78,0-.35-.16-.8,0-1a1.65,1.65,0,0,1,1-.57c1.15-.06,2.29,0,3.4-.06.41,0,.76.06.8.54s-.29.7-.76.7H79.47Z" style="fill: #fff"/>
    <path d="M96.53,216.79c.6,2.07,1.24,4.14,1.78,6.2s1,4,1.53,6c.38,1.53.76,3,1.15,4.52a4.34,4.34,0,0,0,.1.64c.06.35.06.67-.41.73s-.67-.16-.73-.64a28.82,28.82,0,0,0-.57-3.31c-.51-2.07-1.11-4.1-1.69-6.14s-1.18-4.23-1.78-6.33a25.67,25.67,0,0,0-1.3-3.47,2.5,2.5,0,0,0-.1.48c0,1.65,0,3.34,0,5,0,1.43,0,2.86,0,4.29,0,.64.13,1.27.13,1.91,0,1-.13,2-.1,3,0,1.46.16,2.9.29,4.33,0,.41.1.8-.45.8s-.73-.22-.73-.76c0-1.72,0-3.44-.1-5.12,0-1.53-.1-3-.1-4.55,0-1.94.1-3.85.1-5.79s-.13-3.75-.1-5.63c0-1.15.25-2.29.29-3.44.1-1.94.06-3.85.1-5.76a3.25,3.25,0,0,1,.29-.7,3.93,3.93,0,0,1,.64.32,1.78,1.78,0,0,1,.48.32l2.07,1.62a3.81,3.81,0,0,1,1.18,2.45c.6,2.26-.45,4-1.88,5.6a.69.69,0,0,1-.22.19l-.67.38C96,214.95,96.27,215.87,96.53,216.79Zm1-7.22a4.49,4.49,0,0,0-2.67-4.77c-.13,2.83-.22,5.66-.35,8.49C95.79,213.07,97.39,211,97.51,209.57Z" style="fill: #fff"/>
    <path d="M104.51,213a21.35,21.35,0,0,0,2.45-.29c.48-.1.67.1.73.38a.61.61,0,0,1-.57.76l-2.13.1c-.41,0-.57.16-.57.57,0,2-.1,4-.13,6.08-.06,3.18-.1,6.36-.16,9.54V233c0,.38.06.57.6.57a8,8,0,0,1,2.26.35c.22.06.35.45.51.67-.22.13-.41.38-.64.38a16.75,16.75,0,0,1-1.78-.16l-.54-.1c-1.56-.16-1.53-.16-1.46-1.78.06-1.43.06-2.86.13-4.29s.13-2.9.13-4.33c0-2.16,0-4.29,0-6.46s.19-4.2.22-6.3c0-2.26,0-4.52,0-6.78,0-.35-.16-.8,0-1a1.65,1.65,0,0,1,1.05-.57c1.15-.06,2.29,0,3.4-.06.41,0,.76.06.8.54s-.29.7-.76.7h-3.53Z" style="fill: #fff"/>
    <path d="M116,205.94a2,2,0,0,0-.35-.89c-.32-.32-.76-.8-1.08-.73a1.64,1.64,0,0,0-1.08.92,19,19,0,0,0-1,3.4c-.32,1.75-.54,3.53-.7,5.31-.1,1.34,0,2.7,0,4,0,1.18-.13,2.32-.13,3.5s.1,2.26.16,3.4c.13,1.65.22,3.28.38,4.93a5.66,5.66,0,0,0,1.3,3.4,1.16,1.16,0,0,0,1.94-.25,14.69,14.69,0,0,0,1.18-4.65c.06-.48.25-.67.7-.64a.54.54,0,0,1,.54.73,22.11,22.11,0,0,1-1.53,5.12,2.2,2.2,0,0,1-2.26,1.34,3.06,3.06,0,0,1-2-1.81c-1-2.07-1-4.26-1.15-6.46-.1-1.53-.29-3.09-.32-4.61s.13-2.9.19-4.36c0-1.11-.06-2.26,0-3.4a54,54,0,0,1,.64-6,25.68,25.68,0,0,1,1.46-4.23c.25-.7,1.34-1,2.39-.8a1.8,1.8,0,0,1,1.37,1.43,10.93,10.93,0,0,1,.45,2.67c0,.35-.1.86-.76.64C116.19,207.25,116.09,206.61,116,205.94Z" style="fill: #fff"/>
    <path d="M121.66,218.26c.45,1,.92,2,1.37,3,.22.48.45,1,.64,1.53.38,1,.73,2.07,1.08,3.12.64,2,1.27,4.07,1.88,6.11a6.74,6.74,0,0,1,.22,1.94.84.84,0,0,1-.57.79c-.35.06-.54-.35-.6-.6-.45-1.62-.8-3.82-1.21-5.47-.19-.7-.48-1.37-.67-2.1a17.78,17.78,0,0,0-2-5,17.1,17.1,0,0,1-.86-2.23.41.41,0,0,0-.19,0c-.06,1.15-.13,2.29-.16,3.44,0,.89,0,1.78,0,2.7.06,2.77.1,5.57.16,8.37a1.21,1.21,0,0,1-.13.7,1,1,0,0,1-.7.32.73.73,0,0,1-.41-.57c0-1.5.1-3,.1-4.49,0-2.67,0-5.34,0-8,0-2.26,0-4.55.13-6.81.1-1.81.29-3.66.38-5.5s.06-3.5.1-5.25c0-.29-.38-.64.06-.86a.41.41,0,0,1,.48-.32c.64.06.57,2.42.51,3.34-.13,2.54-.38,5.06-.54,7.6-.06.8,0,1.59,0,2.39a1,1,0,0,0,.25.06c.6-1.27,1.24-2.51,1.81-3.79.64-1.43,1.27-2.86,1.88-4.33s1.24-3.18,1.88-4.74c.13-.32.25-.73.7-.51s.45.51.25,1c-.6,1.46-1.08,3-1.75,4.45-1.11,2.55-2.32,5-3.47,7.54a13,13,0,0,0-.67,1.53A.92.92,0,0,0,121.66,218.26Z" style="fill: #fff"/>
    <path d="M129.9,224.87c-.16-2.07-.19-4.14-.19-6.2s.1-3.88.22-5.79a28.85,28.85,0,0,1,.6-3.69,22.85,22.85,0,0,1,.83-3.31,11.76,11.76,0,0,1,1.43-2.45c.32-.45,1.88-.41,2.35,0a4.34,4.34,0,0,1,1.59,3.12c.06,1,.38,2.1.41,3.18.06,1.72,0,3.47,0,5.22,0,1,0,2.1,0,3.18-.1,1.94-.22,3.91-.35,5.85-.13,1.75-.22,3.5-.45,5.25-.16,1.34-.51,2.64-.8,3.95a2,2,0,0,1-1.59,1.72,2.5,2.5,0,0,1-2.42-1.15,5,5,0,0,1-.48-1.37c-.29-1.34-.51-2.67-.73-4a.12.12,0,0,1,.1,0A32.64,32.64,0,0,1,129.9,224.87Zm1.85,6a7.56,7.56,0,0,0,.64,2.2,2.24,2.24,0,0,0,1.27.83c.19,0,.64-.48.83-.83a12.57,12.57,0,0,0,.48-1.56c.86-3.05.7-6.24,1-9.35a54.75,54.75,0,0,0,.13-5.6c0-1.78.13-3.56.06-5.34,0-1.43-.38-2.83-.45-4.23a3.08,3.08,0,0,0-1-2.29.9.9,0,0,1-.32-.29c-.32-.57-.64-.41-1,0a5.83,5.83,0,0,0-1.59,3.47,82,82,0,0,0-1.11,8.4c-.16,2.35-.06,4.74-.06,7.09C131,225.86,131.33,228.37,131.74,230.85Z" style="fill: #fff"/>
    <path d="M140.94,209.06c0,1.27,0,2.51.06,3.75,0,.64.06,1.27.06,1.94,0,2.39,0,4.8,0,7.22,0,1.72.19,3.47.25,5.22.06,2.07.1,4.17.19,6.24,0,.54-.25.76-.67.76-.19,0-.57-.32-.54-.45.38-2,0-3.94,0-5.89,0-1.3-.1-6.84-.13-7.76-.06-2,0-4.07,0-6.14,0-1,.06-2.07,0-3.09,0-.76-.16-1.53-.19-2.32-.06-1.21-.06-2.42-.1-3.63a2.81,2.81,0,0,0-.06-.54c-.13-.45-.13-.83.38-1s.89-.1,1.11.51c.41,1.15,1,2.29,1.3,3.47.6,2.16,1.08,4.36,1.59,6.55.73,3.05,1.5,6.11,2.2,9.16.41,1.91.7,3.85,1,5.76a1.16,1.16,0,0,0,.41.73c0-1.43,0-2.86,0-4.29,0-.73.13-1.5.13-2.26s-.13-1.72-.13-2.58c0-1.88,0-3.72,0-5.6,0-2.45,0-4.9,0-7.32,0-1.27,0-2.51.13-3.79,0-.22.35-.45.51-.67.16.22.41.45.41.64,0,2.39-.13,4.77-.13,7.16s0,4.9,0,7.35c0,1.59.13,3.21.16,4.84v10.85c0,.54-.16.92-.73,1a1.18,1.18,0,0,1-1.08-1c-.19-1.75-.35-3.5-.64-5.22-.35-2-.76-4-1.21-6-.13-.67-.41-1.34-.57-2s-.32-1.65-.51-2.48c-.45-2.07-.83-4.14-1.34-6.2-.35-1.53-.83-3-1.24-4.49-.13-.41-.35-.8-.51-1.18h-.22Z" style="fill: #fff"/>
    <path d="M153,213.64c-.06,2.13,0,4.23-.06,6.33,0,1.88-.13,3.79-.16,5.66,0,.83.1,1.69.13,2.51,0,2,.1,4.07.06,6.11,0,.25-.35.67-.54.67-.38,0-.67-.25-.64-.8.06-2.13.1-4.29.1-6.43,0-2.39,0-4.77,0-7.13,0-1.72,0-3.44,0-5.15.06-1.94.22-3.88.25-5.82s-.06-3.75-.13-5.63c0-.45.1-.86.64-.86s.48.45.51.8c.06.73.13,1.5.19,2.23h0C153.19,208.65,153.09,211.16,153,213.64Z" style="fill: #fff"/>
    <path d="M157.07,209.06c0,1.27,0,2.51.06,3.75,0,.64.06,1.27.06,1.94,0,2.39,0,4.8,0,7.22,0,1.72.19,3.47.25,5.22.06,2.07.1,4.17.19,6.24,0,.54-.25.76-.67.76-.19,0-.57-.32-.54-.45.38-2,0-3.94,0-5.89,0-1.3-.1-6.84-.13-7.76-.06-2,0-4.07,0-6.14,0-1,.06-2.07,0-3.09,0-.76-.16-1.53-.19-2.32-.06-1.21-.06-2.42-.1-3.63a2.81,2.81,0,0,0-.06-.54c-.13-.45-.13-.83.38-1s.89-.1,1.11.51c.41,1.15,1,2.29,1.3,3.47.6,2.16,1.08,4.36,1.59,6.55.73,3.05,1.5,6.11,2.2,9.16.41,1.91.7,3.85,1,5.76a1.16,1.16,0,0,0,.41.73c0-1.43,0-2.86,0-4.29,0-.73.13-1.5.13-2.26s-.13-1.72-.13-2.58c0-1.88,0-3.72,0-5.6,0-2.45,0-4.9,0-7.32,0-1.27,0-2.51.13-3.79,0-.22.35-.45.51-.67.16.22.41.45.41.64,0,2.39-.13,4.77-.13,7.16s0,4.9,0,7.35c0,1.59.13,3.21.16,4.84v10.85c0,.54-.16.92-.73,1a1.18,1.18,0,0,1-1.08-1c-.19-1.75-.35-3.5-.64-5.22-.35-2-.76-4-1.21-6-.13-.67-.41-1.34-.57-2s-.32-1.65-.51-2.48c-.45-2.07-.83-4.14-1.34-6.2-.35-1.53-.83-3-1.24-4.49-.13-.41-.35-.8-.51-1.18h-.22Z" style="fill: #fff"/>
    <path d="M174.85,226.34c-.29,2.07-.7,4.1-1.11,6.14a4.92,4.92,0,0,1-.7,1.62c-.73,1.15-2.35,1.08-3.34-.16a4.23,4.23,0,0,1-.6-1.4c-.22-1-.25-1.91-.51-2.83a24.72,24.72,0,0,1-.6-5.06,51,51,0,0,1,.1-6.24c.06-2,.16-3.94.38-5.89s.54-3.75.92-5.6a16.38,16.38,0,0,1,1-2.74c.38-1,2.51-1.46,3.25-.67.48.1,2,1.56,1.78,2.07a.17.17,0,0,1-.19.13c-.57.29-1-.51-1.34-.67a6.57,6.57,0,0,1-.57-.41c-1.08-.7-1.91-.41-2.23.89-.48,1.81-.89,3.63-1.24,5.47a30.16,30.16,0,0,0-.45,3.75c-.16,1.65-.32,3.34-.38,5-.06,1.24.13,2.48.06,3.69a34.68,34.68,0,0,0,.7,7,12.25,12.25,0,0,0,.86,2.58,1.29,1.29,0,0,0,.89.7,1,1,0,0,0,.89-.83c.48-2.13,1.08-4.26,1.46-6.43a52.28,52.28,0,0,0,.45-5.22,17.57,17.57,0,0,1-1.94-.13c-.32-.06-.89-.32-.89-.48a.76.76,0,0,1,1-.8c.76.1,1.59.06,2.35.22a1.1,1.1,0,0,1,.64.76C175.27,222.71,175.11,224.52,174.85,226.34Z" style="fill: #fff"/>
    <path d="M189.62,203.18c.73,0,1.46,0,2.2-.06.48,0,.86,0,.86.57s-.41.64-.86.64l-2.2-.1c0,3.21,0,6.33,0,9.42,0,1.78.1,3.56.16,5.34.06,1.46.16,3,.19,4.42.06,2.77,0,5.57.06,8.37,0,.8.1,1.62.06,2.45a.83.83,0,0,1-.54.67c-.38.13-.67-.13-.67-.6,0-1,0-2,0-3,0-2.77.06-5.5,0-8.27,0-2.35-.22-4.74-.32-7.09-.06-1.34-.13-2.67-.13-4,0-1.85,0-3.72.06-5.6a9.16,9.16,0,0,0-.22-1.88c0-.13-.32-.25-.48-.25a16.13,16.13,0,0,0-1.75-.06c-.86,0-.89-.19-.86-.6S188.15,203.18,189.62,203.18Z" style="fill: #fff"/>
    <path d="M195.69,222.71c.06,1.81.13,3.66.16,5.47,0,1.15,0,2.32,0,3.5,0,.83.13,1.62.13,2.45a1,1,0,0,1-.25.67.6.6,0,0,1-.6.06.83.83,0,0,1-.32-.64c0-1.4.1-2.8.1-4.2,0-2.83-.13-5.63-.06-8.46.06-3.12.32-6.24.48-9.35,0-1,0-2,0-3.05,0-1.62,0-3.75,0-5.38a.65.65,0,0,1,.38-.51.7.7,0,0,1,.54.32,1.38,1.38,0,0,1,.13.73c0,1.5-.06,3.5-.13,5-.06,2.42-.13,4.84-.22,7.29,0,1-.1,2.1-.13,3.12h4.07v-1.85c0-1.94,0-3.91,0-5.85,0-1.56,0-3.12-.06-4.68,0-1.15-.13-2.29-.13-3.44,0-.32,0-.76.54-.8s.6.32.6.7c0,1.08,0,2.2,0,3.28,0,1.46,0,2.9,0,4.36,0,1.85-.16,3.66-.13,5.47.1,3.44.29,6.87.41,10.28.1,1.94.19,3.88.32,5.82,0,.25.19.54.1.73-.13.35-.38.8-.64.83s-.6-.29-.6-.76c0-1.85.06-3.69,0-5.5-.06-2.1-.25-4.17-.38-6.27a1.29,1.29,0,0,1,0-.35c.13-.73-.32-.92-.89-.89-1.08,0-2.13.13-3.31.16Z" style="fill: #fff"/>
    <path d="M205.43,213a21.35,21.35,0,0,0,2.45-.29c.48-.1.67.1.73.38a.61.61,0,0,1-.57.76l-2.13.1c-.41,0-.57.16-.57.57,0,2-.1,4-.13,6.08-.06,3.18-.1,6.36-.16,9.54V233c0,.38.06.57.6.57a8,8,0,0,1,2.26.35c.22.06.35.45.51.67-.22.13-.41.38-.64.38a16.75,16.75,0,0,1-1.78-.16l-.54-.1c-1.56-.16-1.53-.16-1.46-1.78.06-1.43.06-2.86.13-4.29s.13-2.9.13-4.33c0-2.16,0-4.29,0-6.46s.19-4.2.22-6.3c0-2.26,0-4.52,0-6.78,0-.35-.16-.8,0-1a1.65,1.65,0,0,1,1-.57c1.15-.06,2.29,0,3.4-.06.41,0,.76.06.8.54s-.29.7-.76.7h-3.53Z" style="fill: #fff"/>
    <path d="M222.48,216.79c.6,2.07,1.24,4.14,1.78,6.2s1,4,1.53,6c.38,1.53.76,3,1.15,4.52a4.34,4.34,0,0,0,.1.64c.06.35.06.67-.41.73s-.67-.16-.73-.64a28.82,28.82,0,0,0-.57-3.31c-.51-2.07-1.11-4.1-1.69-6.14s-1.18-4.23-1.78-6.33a25.67,25.67,0,0,0-1.3-3.47,2.5,2.5,0,0,0-.1.48c0,1.65,0,3.34,0,5,0,1.43,0,2.86,0,4.29,0,.64.13,1.27.13,1.91,0,1-.13,2-.1,3,0,1.46.16,2.9.29,4.33,0,.41.1.8-.45.8s-.73-.22-.73-.76c0-1.72,0-3.44-.1-5.12,0-1.53-.1-3-.1-4.55,0-1.94.1-3.85.1-5.79s-.13-3.75-.1-5.63c0-1.15.25-2.29.29-3.44.1-1.94.06-3.85.1-5.76a3.25,3.25,0,0,1,.29-.7,3.93,3.93,0,0,1,.64.32,1.78,1.78,0,0,1,.48.32l2.07,1.62a3.81,3.81,0,0,1,1.18,2.45c.6,2.26-.45,4-1.88,5.6a.69.69,0,0,1-.22.19l-.67.38C221.94,214.95,222.23,215.87,222.48,216.79Zm1-7.22a4.49,4.49,0,0,0-2.67-4.77c-.13,2.83-.22,5.66-.35,8.49C221.75,213.07,223.34,211,223.47,209.57Z" style="fill: #fff"/>
    <path d="M234.15,216.44c0-1.15-.06-2.26,0-3.37s.13-2.45.19-3.69c.06-1.65.13-3.34.16-5,0-.45.06-.83.64-.8s.6.38.57.89c-.13,1.69-.19,3.37-.29,5.06-.13,2.48-.25,5-.35,7.41-.13,2.93-.22,5.85-.38,8.78-.06,1.18-.22,2.35-.35,3.5a28.9,28.9,0,0,1-.45,2.9,11.68,11.68,0,0,1-.73,2.26,1.59,1.59,0,0,1-2.39.06,9.36,9.36,0,0,1-1.18-4.2c-.25-2.13-.48-4.23-.57-6.36-.06-1.91.13-3.85.19-5.79,0-1.72,0-3.44,0-5.15,0-.54.1-1.08.1-1.62,0-2,.06-3.94.1-5.95,0-.48-.1-1-.06-1.46,0-.25,0-.76.45-.76s.48.48.48.7c0,2.8-.06,5.6-.1,8.37,0,1.59,0,3.15,0,4.71,0,2.39-.25,4.77-.1,7.13a35.07,35.07,0,0,0,.89,7.7,4.78,4.78,0,0,0,.48,1.72,6.12,6.12,0,0,1,.45.48c.16-.16.38-.29.45-.48a26.08,26.08,0,0,0,1-3.75c.32-2.26.41-4.52.6-6.81,0-.38,0-.76,0-1.15h0C234,220,234.09,218.19,234.15,216.44Z" style="fill: #fff"/>
    <path d="M244.37,205c.13-.38.22-.83.38-1.21.1-.22.41-.57.54-.54a1.23,1.23,0,0,1,.76.6,4.35,4.35,0,0,1,.22,1.43c0,1.24-.06,2.51,0,3.75.06,2.35.16,4.74.29,7.09.1,2.1.19,4.17.35,6.24.13,1.78.35,3.53.41,5.31.1,1.94.06,3.91.06,5.89a1.51,1.51,0,0,0,0,.54.59.59,0,0,1-.48.86c-.41,0-.7-.29-.67-.8a22.25,22.25,0,0,0,.16-2.54c0-2-.16-4-.25-6,0-.64-.1-1.24-.13-1.88a18.82,18.82,0,0,1,0-2.32,13.82,13.82,0,0,0-.13-2.29c-.06-.89-.19-1.75-.25-2.61-.13-1.46-.22-3-.32-4.45s-.1-3-.13-4.45c0-.32,0-.67.06-1-.1,0-.19,0-.25,0-.38,1.18-.8,2.35-1.11,3.56s-.45,2.23-.73,3.34a1,1,0,0,1-.89.89c-.57.06-.7-.35-.8-.83-.19-1-.41-2.07-.67-3.09a12.28,12.28,0,0,0-.51-1.4c-.25-.86-.48-1.78-.73-2.64a.56.56,0,0,0-.38-.38v2.86c0,1.65.06,3.28.06,4.93,0,2.93,0,5.89,0,8.81,0,2,0,4,.1,6.08.06,1.59.25,3.15.32,4.74a1,1,0,0,1-.6.73c-.41.13-.6-.19-.6-.6,0-2.29-.06-4.55-.1-6.84,0-1.53-.1-3.09-.1-4.61,0-1.94.06-3.85.06-5.76,0-2.55-.13-5.12-.16-7.67,0-1.08.06-2.13,0-3.21,0-.48-.16-.92-.13-1.37s.19-.73.41-.83.76-.22,1,.32c.54,1.59,1.15,3.18,1.69,4.74.25.76.48,1.53.67,2.26.16.51.25,1,.41,1.69C242.94,209.7,243.64,207.34,244.37,205Z" style="fill: #fff"/>
    <path d="M254.07,219.05c1.3.6,1.5,1.88,1.88,3a6.59,6.59,0,0,1,.45,2.2,18.32,18.32,0,0,1-.22,3.5,12.29,12.29,0,0,1-3.66,6.36,3.61,3.61,0,0,1-1.65.76c-.54.16-.8-.19-.76-.76.06-1.75.13-3.5.16-5.22s-.1-3.28-.06-4.93c0-1.4.13-2.8.16-4.2,0-.54-.1-1.08-.1-1.62,0-3-.16-6,0-9.07a38.75,38.75,0,0,0-.35-5.44c0-.16.25-.51.41-.51a3.4,3.4,0,0,1,3.37,2.07,17.87,17.87,0,0,1,1.15,2.35,13.31,13.31,0,0,1,.67,6.33,6.57,6.57,0,0,1-2.86,4A11.12,11.12,0,0,0,254.07,219.05Zm-2.74-1.62c.25-.16.51-.29.8-.45a4.8,4.8,0,0,0,2.58-4.8,25.64,25.64,0,0,0-.64-3.4,7,7,0,0,0-2.26-4.14,3.13,3.13,0,0,0-.7-.41v13.11Zm.29,15.91a9.51,9.51,0,0,0,2.45-2.83,14.51,14.51,0,0,0,1.18-2.7,10.5,10.5,0,0,0-.41-5.85,4.29,4.29,0,0,0-3.72-3.12v14.63C251.4,233.4,251.56,233.4,251.62,233.34Z" style="fill: #fff"/>
    <path d="M263.14,234.29c-.13.8-3.05.7-3.94.48-.41-.1-.51-.35-.51-.73,0-.76.06-1.56.06-2.32.06-3.69.13-7.38.22-11,0-2.07.16-4.14.16-6.2,0-2.29-.1-4.58-.16-6.87,0-1.21-.1-2.42-.06-3.63,0-.29,0-.76.51-.86s.48.54.48.83c.06,3,.1,5.92.13,8.88,0,2.32.06,4.64,0,7s-.22,4.42-.22,6.65.13,4.26.16,6.43a2,2,0,0,1,.06.8C261.13,233.69,263.36,233.08,263.14,234.29Z" style="fill: #fff"/>
    <path d="M266.61,213a21.35,21.35,0,0,0,2.45-.29c.48-.1.67.1.73.38a.61.61,0,0,1-.57.76l-2.13.1c-.41,0-.57.16-.57.57,0,2-.1,4-.13,6.08-.06,3.18-.1,6.36-.16,9.54V233c0,.38.06.57.6.57a8,8,0,0,1,2.26.35c.22.06.35.45.51.67-.22.13-.41.38-.64.38a16.75,16.75,0,0,1-1.78-.16l-.54-.1c-1.56-.16-1.53-.16-1.46-1.78.06-1.43.06-2.86.13-4.29s.13-2.9.13-4.33c0-2.16,0-4.29,0-6.46s.19-4.2.22-6.3c0-2.26,0-4.52,0-6.78,0-.35-.16-.8,0-1a1.65,1.65,0,0,1,1-.57c1.15-.06,2.29,0,3.4-.06.41,0,.76.06.8.54s-.29.7-.76.7h-3.53Z" style="fill: #fff"/>
    <path d="M108.79,241.35c.73,0,1.46,0,2.2-.06.48,0,.86,0,.86.57s-.41.64-.86.64l-2.2-.1c0,3.21,0,6.33,0,9.42,0,1.78.1,3.56.16,5.34.06,1.46.16,3,.19,4.42.06,2.77,0,5.57.06,8.37,0,.8.1,1.62.06,2.45a.83.83,0,0,1-.54.67c-.38.13-.67-.13-.67-.6,0-1,0-2,0-3,0-2.77.06-5.5,0-8.27,0-2.35-.22-4.74-.32-7.09-.06-1.34-.13-2.67-.13-4,0-1.85,0-3.72.06-5.6a9.17,9.17,0,0,0-.22-1.88c0-.13-.32-.25-.48-.25a16.13,16.13,0,0,0-1.75-.06c-.86,0-.89-.19-.86-.6S107.33,241.35,108.79,241.35Z" style="fill: #fff"/>
    <path d="M114.87,260.89c.06,1.81.13,3.66.16,5.47,0,1.15,0,2.32,0,3.5,0,.83.13,1.62.13,2.45a1,1,0,0,1-.25.67.6.6,0,0,1-.6.06.83.83,0,0,1-.32-.64c0-1.4.1-2.8.1-4.2,0-2.83-.13-5.63-.06-8.46.06-3.12.32-6.24.48-9.35,0-1,0-2,0-3.05,0-1.62,0-3.75,0-5.38a.65.65,0,0,1,.38-.51.7.7,0,0,1,.54.32,1.38,1.38,0,0,1,.13.73c0,1.5-.06,3.5-.13,5-.06,2.42-.13,4.84-.22,7.29,0,1-.1,2.1-.13,3.12h4.07v-1.84c0-1.94,0-3.91,0-5.85,0-1.56,0-3.12-.06-4.68,0-1.15-.13-2.29-.13-3.44,0-.32,0-.76.54-.8s.6.32.6.7c0,1.08,0,2.2,0,3.28,0,1.46,0,2.9,0,4.36,0,1.85-.16,3.66-.13,5.47.1,3.44.29,6.87.41,10.28.1,1.94.19,3.88.32,5.82,0,.25.19.54.1.73-.13.35-.38.8-.64.83s-.6-.29-.6-.76c0-1.84.06-3.69,0-5.5-.06-2.1-.25-4.17-.38-6.27a1.28,1.28,0,0,1,0-.35c.13-.73-.32-.92-.89-.89-1.08,0-2.13.13-3.31.16Z" style="fill: #fff"/>
    <path d="M124.6,251.15a21.35,21.35,0,0,0,2.45-.29c.48-.1.67.1.73.38a.61.61,0,0,1-.57.76l-2.13.1c-.41,0-.57.16-.57.57,0,2-.1,4-.13,6.08-.06,3.18-.1,6.36-.16,9.54v2.83c0,.38.06.57.6.57a8,8,0,0,1,2.26.35c.22.06.35.45.51.67-.22.13-.41.38-.64.38a16.88,16.88,0,0,1-1.78-.16l-.54-.1c-1.56-.16-1.53-.16-1.46-1.78.06-1.43.06-2.86.13-4.29s.13-2.9.13-4.33c0-2.16,0-4.29,0-6.46s.19-4.2.22-6.3c0-2.26,0-4.52,0-6.78,0-.35-.16-.8,0-1a1.65,1.65,0,0,1,1-.57c1.15-.06,2.29,0,3.4-.06.41,0,.76.06.8.54s-.29.7-.76.7H124.6Z" style="fill: #fff"/>
    <path d="M141.66,255c.6,2.07,1.24,4.14,1.78,6.2s1,4,1.53,6c.38,1.53.76,3,1.15,4.52a4.33,4.33,0,0,0,.1.64c.06.35.06.67-.41.73s-.67-.16-.73-.64a28.84,28.84,0,0,0-.57-3.31c-.51-2.07-1.11-4.1-1.69-6.14s-1.18-4.23-1.78-6.33a25.75,25.75,0,0,0-1.3-3.47,2.51,2.51,0,0,0-.1.48c0,1.65,0,3.34,0,5,0,1.43,0,2.86,0,4.29,0,.64.13,1.27.13,1.91,0,1-.13,2-.1,3,0,1.46.16,2.9.29,4.33,0,.41.1.79-.45.79s-.73-.22-.73-.76c0-1.72,0-3.44-.1-5.12,0-1.53-.1-3-.1-4.55,0-1.94.1-3.85.1-5.79s-.13-3.75-.1-5.63c0-1.15.25-2.29.29-3.44.1-1.94.06-3.85.1-5.76a3.25,3.25,0,0,1,.29-.7,3.93,3.93,0,0,1,.64.32,1.79,1.79,0,0,1,.48.32l2.07,1.62A3.81,3.81,0,0,1,143.6,246c.6,2.26-.45,4-1.88,5.6a.69.69,0,0,1-.22.19l-.67.38C141.11,253.13,141.4,254,141.66,255Zm1-7.22A4.49,4.49,0,0,0,140,243c-.13,2.83-.22,5.66-.35,8.49C140.92,251.25,142.51,249.15,142.64,247.75Z" style="fill: #fff"/>
    <path d="M149.64,251.15a21.35,21.35,0,0,0,2.45-.29c.48-.1.67.1.73.38a.61.61,0,0,1-.57.76l-2.13.1c-.41,0-.57.16-.57.57,0,2-.1,4-.13,6.08-.06,3.18-.1,6.36-.16,9.54v2.83c0,.38.06.57.6.57a8,8,0,0,1,2.26.35c.22.06.35.45.51.67-.22.13-.41.38-.64.38a16.88,16.88,0,0,1-1.78-.16l-.54-.1c-1.56-.16-1.53-.16-1.46-1.78.06-1.43.06-2.86.13-4.29s.13-2.9.13-4.33c0-2.16,0-4.29,0-6.46s.19-4.2.22-6.3c0-2.26,0-4.52,0-6.78,0-.35-.16-.8,0-1a1.65,1.65,0,0,1,1.05-.57c1.15-.06,2.29,0,3.4-.06.41,0,.76.06.8.54s-.29.7-.76.7h-3.53Z" style="fill: #fff"/>
    <path d="M156.7,242.12c.22,1.56.48,3.09.6,4.65.25,2.64.35,5.28.6,7.92.22,2.26.54,4.49.8,6.74.19,1.56.29,3.12.45,4.65.06.64.19,1.24.25,1.84a.63.63,0,0,0,.25,0c.25-1.75.48-3.5.73-5.28.22-1.62.48-3.25.7-4.87.29-1.88.57-3.79.83-5.66.25-1.72.51-3.47.73-5.22.19-1.56.32-3.12.48-4.71,0-.1,0-.22,0-.25.16-.22-.06-.57.51-.6s.41.45.41.67c-.1,1.15-.19,2.29-.35,3.44-.38,3-.86,5.95-1.24,8.94-.54,3.94-1,7.92-1.56,11.9-.25,2-.51,4-.7,6a.89.89,0,0,1-.92.89c-.45,0-.54-.41-.57-.86-.19-2.74-.38-5.44-.67-8.18-.22-2-.57-4.07-.8-6.14S157,254,156.83,252c0-.29,0-.57-.06-.86L156,243.9c-.06-.6-.25-1.21-.35-1.81a1.38,1.38,0,0,1,.13-.6A.67.67,0,0,1,156.7,242.12Z" style="fill: #fff"/>
    <path d="M166.41,263.05c-.16-2.07-.19-4.14-.19-6.2s.1-3.88.22-5.79a28.85,28.85,0,0,1,.6-3.69,22.85,22.85,0,0,1,.83-3.31,11.76,11.76,0,0,1,1.43-2.45c.32-.45,1.88-.41,2.35,0a4.34,4.34,0,0,1,1.59,3.12c.06,1,.38,2.1.41,3.18.06,1.72,0,3.47,0,5.22,0,1,0,2.1,0,3.18-.1,1.94-.22,3.91-.35,5.85-.13,1.75-.22,3.5-.45,5.25-.16,1.34-.51,2.64-.8,3.95a2,2,0,0,1-1.59,1.72,2.5,2.5,0,0,1-2.42-1.15,5,5,0,0,1-.48-1.37c-.29-1.34-.51-2.67-.73-4a.12.12,0,0,1,.1,0A32.62,32.62,0,0,1,166.41,263.05Zm1.85,6a7.57,7.57,0,0,0,.64,2.2,2.25,2.25,0,0,0,1.27.83c.19,0,.64-.48.83-.83a12.62,12.62,0,0,0,.48-1.56c.86-3.05.7-6.24,1-9.35a54.75,54.75,0,0,0,.13-5.6c0-1.78.13-3.56.06-5.34,0-1.43-.38-2.83-.45-4.23a3.08,3.08,0,0,0-1-2.29.9.9,0,0,1-.32-.29c-.32-.57-.64-.41-1,0a5.83,5.83,0,0,0-1.59,3.47,82,82,0,0,0-1.11,8.4c-.16,2.35-.06,4.74-.06,7.09C167.49,264,167.84,266.55,168.25,269Z" style="fill: #fff"/>
    <path d="M180.72,272.47c-.13.8-3.05.7-3.95.48-.41-.1-.51-.35-.51-.73,0-.76.06-1.56.06-2.32.06-3.69.13-7.38.22-11,0-2.07.16-4.14.16-6.2,0-2.29-.1-4.58-.16-6.87,0-1.21-.1-2.42-.06-3.63,0-.29,0-.76.51-.86s.48.54.48.83c.06,3,.1,5.92.13,8.88,0,2.32.06,4.64,0,7s-.22,4.42-.22,6.65.13,4.26.16,6.43a2,2,0,0,1,.06.8C178.72,271.86,180.95,271.26,180.72,272.47Z" style="fill: #fff"/>
    <path d="M187.88,254.62c0-1.15-.06-2.26,0-3.37s.13-2.45.19-3.69c.06-1.65.13-3.34.16-5,0-.45.06-.83.64-.8s.6.38.57.89c-.13,1.69-.19,3.37-.29,5.06-.13,2.48-.25,5-.35,7.41-.13,2.93-.22,5.85-.38,8.78-.06,1.18-.22,2.35-.35,3.5a28.94,28.94,0,0,1-.45,2.89,11.68,11.68,0,0,1-.73,2.26,1.59,1.59,0,0,1-2.39.06,9.36,9.36,0,0,1-1.18-4.2c-.25-2.13-.48-4.23-.57-6.36-.06-1.91.13-3.85.19-5.79,0-1.72,0-3.44,0-5.15,0-.54.1-1.08.1-1.62,0-2,.06-3.94.1-5.95,0-.48-.1-1-.06-1.46,0-.25,0-.76.45-.76s.48.48.48.7c0,2.8-.06,5.6-.1,8.37,0,1.59,0,3.15,0,4.71,0,2.39-.25,4.77-.1,7.13a35.07,35.07,0,0,0,.89,7.7,4.78,4.78,0,0,0,.48,1.72,6.12,6.12,0,0,1,.45.48c.16-.16.38-.29.45-.48a26.08,26.08,0,0,0,1-3.75c.32-2.26.41-4.52.6-6.81,0-.38,0-.76,0-1.15h0C187.69,258.15,187.82,256.37,187.88,254.62Z" style="fill: #fff"/>
    <path d="M196.12,241.35c.73,0,1.46,0,2.2-.06.48,0,.86,0,.86.57s-.41.64-.86.64l-2.2-.1c0,3.21,0,6.33,0,9.42,0,1.78.1,3.56.16,5.34.06,1.46.16,3,.19,4.42.06,2.77,0,5.57.06,8.37,0,.8.1,1.62.06,2.45a.83.83,0,0,1-.54.67c-.38.13-.67-.13-.67-.6,0-1,0-2,0-3,0-2.77.06-5.5,0-8.27,0-2.35-.22-4.74-.32-7.09-.06-1.34-.13-2.67-.13-4,0-1.85,0-3.72.06-5.6a9.17,9.17,0,0,0-.22-1.88c0-.13-.32-.25-.48-.25a16.13,16.13,0,0,0-1.75-.06c-.86,0-.89-.19-.86-.6S194.66,241.35,196.12,241.35Z" style="fill: #fff"/>
    <path d="M202.52,251.82c-.06,2.13,0,4.23-.06,6.33,0,1.88-.13,3.79-.16,5.66,0,.83.1,1.69.13,2.51,0,2,.1,4.07.06,6.11,0,.25-.35.67-.54.67-.38,0-.67-.25-.64-.8.06-2.13.1-4.29.1-6.43,0-2.39,0-4.77,0-7.13,0-1.72,0-3.44,0-5.15.06-1.94.22-3.88.25-5.82s-.06-3.75-.13-5.63c0-.45.1-.86.64-.86s.48.45.51.8c.06.73.13,1.5.19,2.23h0C202.71,246.83,202.61,249.34,202.52,251.82Z" style="fill: #fff"/>
    <path d="M205.6,263.05c-.16-2.07-.19-4.14-.19-6.2s.1-3.88.22-5.79a28.85,28.85,0,0,1,.6-3.69,22.85,22.85,0,0,1,.83-3.31,11.74,11.74,0,0,1,1.43-2.45c.32-.45,1.88-.41,2.35,0a4.34,4.34,0,0,1,1.59,3.12c.06,1,.38,2.1.41,3.18.06,1.72,0,3.47,0,5.22,0,1,0,2.1,0,3.18-.1,1.94-.22,3.91-.35,5.85-.13,1.75-.22,3.5-.45,5.25-.16,1.34-.51,2.64-.79,3.95a2,2,0,0,1-1.59,1.72,2.5,2.5,0,0,1-2.42-1.15,5,5,0,0,1-.48-1.37c-.29-1.34-.51-2.67-.73-4a.12.12,0,0,1,.1,0A32.5,32.5,0,0,1,205.6,263.05Zm1.85,6a7.57,7.57,0,0,0,.64,2.2,2.25,2.25,0,0,0,1.27.83c.19,0,.64-.48.83-.83a12.62,12.62,0,0,0,.48-1.56c.86-3.05.7-6.24,1-9.35a54.75,54.75,0,0,0,.13-5.6c0-1.78.13-3.56.06-5.34,0-1.43-.38-2.83-.45-4.23a3.08,3.08,0,0,0-1-2.29.9.9,0,0,1-.32-.29c-.32-.57-.64-.41-1,0a5.83,5.83,0,0,0-1.59,3.47,82,82,0,0,0-1.11,8.4c-.16,2.35-.06,4.74-.06,7.09C206.68,264,207,266.55,207.45,269Z" style="fill: #fff"/>
    <path d="M216.64,247.24c0,1.27,0,2.51.06,3.75,0,.64.06,1.27.06,1.94,0,2.39,0,4.8,0,7.22,0,1.72.19,3.47.25,5.22.06,2.07.1,4.17.19,6.24,0,.54-.25.76-.67.76-.19,0-.57-.32-.54-.45.38-2,0-3.94,0-5.89,0-1.3-.1-6.84-.13-7.76-.06-2,0-4.07,0-6.14,0-1,.06-2.07,0-3.09,0-.76-.16-1.53-.19-2.32-.06-1.21-.06-2.42-.1-3.63a2.81,2.81,0,0,0-.06-.54c-.13-.45-.13-.83.38-1s.89-.1,1.11.51c.41,1.15,1,2.29,1.3,3.47.6,2.16,1.08,4.36,1.59,6.55.73,3.05,1.5,6.11,2.2,9.16.41,1.91.7,3.85,1,5.76a1.16,1.16,0,0,0,.41.73c0-1.43,0-2.86,0-4.29,0-.73.13-1.5.13-2.26s-.13-1.72-.13-2.58c0-1.88,0-3.72,0-5.6,0-2.45,0-4.9,0-7.32,0-1.27,0-2.51.13-3.79,0-.22.35-.45.51-.67.16.22.41.45.41.64,0,2.39-.13,4.77-.13,7.16s0,4.9,0,7.35c0,1.59.13,3.21.16,4.84v10.85c0,.54-.16.92-.73,1a1.19,1.19,0,0,1-1.08-1c-.19-1.75-.35-3.5-.64-5.22-.35-2-.76-4-1.21-6-.13-.67-.41-1.34-.57-2s-.32-1.65-.51-2.48c-.45-2.07-.83-4.14-1.34-6.2-.35-1.53-.83-3-1.24-4.49-.13-.41-.35-.8-.51-1.18h-.22Z" style="fill: #fff"/>
  </g>
  <path d="M144,287.31a2,2,0,0,1-.67-3.89l8.38-3a2,2,0,1,1,1.33,3.77l-8.38,3A2,2,0,0,1,144,287.31Z" style="fill: #fff"/>
</svg>
