<svg id="Layer_2" data-name="Layer 2" xmlns="http://www.w3.org/2000/svg" width="331.93" height="503.64" viewBox="0 0 331.93 503.64">
  <title>newbookArtboard 3</title>
  <g>
    <path d="M290.93,431.9H41a4.54,4.54,0,0,1-4.53-4.53V56.08A4.54,4.54,0,0,1,41,51.55H290.93a4.54,4.54,0,0,1,4.53,4.53V427.37A4.54,4.54,0,0,1,290.93,431.9ZM41,52.55a3.54,3.54,0,0,0-3.53,3.53V427.37A3.54,3.54,0,0,0,41,430.9H290.93a3.54,3.54,0,0,0,3.53-3.53V56.08a3.54,3.54,0,0,0-3.53-3.53Z" style="fill: #fff"/>
    <path d="M287,427.7H44.92a4.43,4.43,0,0,1-4.42-4.42V59.32a4.43,4.43,0,0,1,4.42-4.42H287a4.43,4.43,0,0,1,4.42,4.42V423.27A4.43,4.43,0,0,1,287,427.7ZM44.92,55.9a3.43,3.43,0,0,0-3.42,3.42V423.27a3.43,3.43,0,0,0,3.42,3.42H287a3.43,3.43,0,0,0,3.42-3.42V59.32A3.43,3.43,0,0,0,287,55.9Z" style="fill: #fff"/>
    <path d="M312.24,503.64H19.69A19.71,19.71,0,0,1,0,484V19.69A19.71,19.71,0,0,1,19.69,0H312.24a19.71,19.71,0,0,1,19.69,19.69V484A19.71,19.71,0,0,1,312.24,503.64ZM19.69,1A18.71,18.71,0,0,0,1,19.69V484a18.71,18.71,0,0,0,18.69,18.69H312.24A18.71,18.71,0,0,0,330.93,484V19.69A18.71,18.71,0,0,0,312.24,1Z" style="fill: #fff"/>
    <path d="M307.74,496.32H24.19a19.12,19.12,0,0,1-19.1-19.1V26.42a19.12,19.12,0,0,1,19.1-19.1H307.74a19.12,19.12,0,0,1,19.1,19.1v450.8A19.12,19.12,0,0,1,307.74,496.32ZM24.19,8.32a18.12,18.12,0,0,0-18.1,18.1v450.8a18.12,18.12,0,0,0,18.1,18.1H307.74a18.12,18.12,0,0,0,18.1-18.1V26.42a18.12,18.12,0,0,0-18.1-18.1Z" style="fill: #fff"/>
    <path d="M52.64,29.27a3.22,3.22,0,1,1,3.22-3.22A3.22,3.22,0,0,1,52.64,29.27Zm0-5.43a2.22,2.22,0,1,0,2.22,2.22A2.22,2.22,0,0,0,52.64,23.83Z" style="fill: #fff"/>
    <path d="M65.41,29.27a3.22,3.22,0,1,1,3.22-3.22A3.22,3.22,0,0,1,65.41,29.27Zm0-5.43a2.22,2.22,0,1,0,2.22,2.22A2.22,2.22,0,0,0,65.41,23.83Z" style="fill: #fff"/>
    <path d="M166,469.43a9.31,9.31,0,1,1,9.31-9.31A9.32,9.32,0,0,1,166,469.43Zm0-17.61a8.31,8.31,0,1,0,8.31,8.31A8.32,8.32,0,0,0,166,451.82Z" style="fill: #fff"/>
    <g>
      <path d="M138.22,93c-1.66,0-2.39-.58-2.29-2,0-.44,1.46-1.32,3.46-1.36,1.41,0,3.07,0,4.19,0s2.19,0,3.31-.1c.78,0,2.29,0,2.34,1.8s-1.66,2-2.29,2c-.83,0-1.61,0-2.39-.1,0,4.53,0,9,0,13.4,0,2.73.15,5.46.24,8.14.1,2.29.24,4.53.29,6.82.1,4.24,0,8.53.1,12.77,0,1.32.15,2.58.1,3.85a2.36,2.36,0,0,1-1.51,1.9,1.75,1.75,0,0,1-2.29-1.85c0-1.56,0-3.12,0-4.63,0-4.24.1-8.43,0-12.67,0-3.61-.34-7.21-.49-10.82-.1-2-.19-4.14-.19-6.19,0-2.83.1-5.7.1-8.58a12.61,12.61,0,0,0-.24-2.29A21.57,21.57,0,0,0,138.22,93Z" style="fill: #fff"/>
      <path d="M164.88,139.67c-1.61.29-2-1.41-2-2.14,0-2.78.1-5.6,0-8.43-.1-3.17-.39-6.34-.58-9.5a4.69,4.69,0,0,1,0-.83c0-.2-.1-.2-.34-.2-1.36,0-2.73.15-4.14.24v1.71c.1,2.78.19,5.56.24,8.33,0,1.8,0,3.61,0,5.36,0,1.27.19,2.53.19,3.8a2.44,2.44,0,0,1-.68,1.75,2,2,0,0,1-2.19.2,2.39,2.39,0,0,1-.88-1.8c0-2.14.15-4.29.15-6.43,0-4.34-.19-8.67-.1-13,.1-4.78.49-9.55.73-14.33,0-1.56,0-3.07,0-4.63,0-2.49,0-5.75,0-8.24a2,2,0,0,1,1.36-1.75,1.85,1.85,0,0,1,1.85,1,3.18,3.18,0,0,1,.34,1.61c0,2.29-.1,5.36-.19,7.65-.1,3.75-.19,7.46-.34,11.21,0,1.22-.1,2.49-.15,3.75h4.24v-1.85c0-3,0-5.95,0-9,0-2.39,0-4.78-.1-7.12,0-1.75-.19-3.56-.19-5.31,0-.73.1-2.1,1.75-2.19a1.8,1.8,0,0,1,1.95,2c0,1.66,0,3.36,0,5,0,2.24,0,4.48,0,6.73,0,2.78-.24,5.56-.19,8.33.15,5.21.44,10.48.63,15.69.15,3,.34,5.95.49,8.92,0,0,0,0,0,.1a2.15,2.15,0,0,1,0,1.46C166.34,138.46,165.71,139.53,164.88,139.67Z" style="fill: #fff"/>
      <path d="M179.6,136.7a1.91,1.91,0,0,1,1,.83,1.45,1.45,0,0,0,.19.39s0,.15.68,1c-1,.63-1.12.78-1.27.88a2.24,2.24,0,0,1-1.07.39,27.61,27.61,0,0,1-2.83-.24l-.83-.15a8.19,8.19,0,0,1-1.46-.19,2,2,0,0,1-1.71-2c0-.39,0-.88,0-1.56.1-2.19.15-4.39.19-6.53s.19-4.43.19-6.63c0-3.31,0-6.63,0-9.94s.29-6.38.34-9.6c0-3.46,0-6.92,0-10.38,0-.24-.1-.54-.1-.78a2,2,0,0,1,.29-1.36,3.66,3.66,0,0,1,2.29-1.22c1.75-.15,3.56,0,5.31-.1a1.9,1.9,0,0,1,2.19,1.8,2,2,0,0,1-2.14,2h-4.44v11.16a22,22,0,0,0,2.58-.34,1.75,1.75,0,0,1,2.24,1.41,1.85,1.85,0,0,1-1.75,2.29c-1.07,0-2.14.15-3.22.15,0,3.07-.15,6.14-.19,9.21-.1,4.87-.15,9.75-.24,14.62v4.24A14.72,14.72,0,0,1,179.6,136.7Z" style="fill: #fff"/>
      <path d="M91.66,196.11c-.88,1.61-2.68,3-4.58,2.49a5.38,5.38,0,0,1-3.7-3.31C81.86,192,81.77,188.6,81.52,185c-.15-2.34-.44-4.73-.49-7.12s.19-4.43.29-6.68c0-1.75-.1-3.56,0-5.31a75.22,75.22,0,0,1,1-9.36A41.24,41.24,0,0,1,84.69,150c.68-1.8,3.07-2.14,4.73-1.85A3.81,3.81,0,0,1,92.24,151a17.21,17.21,0,0,1,.73,4.29c0,.58-.24,2.78-3,1.75-.24-1.51-.34-2.53-.54-3.51a2.14,2.14,0,0,0-.34-.93,3.32,3.32,0,0,0-.58-.58c0-.1-.1-.24-.15-.2a1.46,1.46,0,0,0-.93.78,24.14,24.14,0,0,0-1.51,5.07c-.49,2.63-.83,5.31-1.07,8-.15,2,0,4.09,0,6.14,0,1.75-.19,3.51-.19,5.26s.15,3.51.24,5.21c.19,2.49.34,5,.58,7.5a7.62,7.62,0,0,0,1.75,4.63c1.9,2.1,3-5.85,3.07-6.92a1.88,1.88,0,0,1,2.14-1.85A1.8,1.8,0,0,1,94.1,188c-.34,1.32-.63,2.68-1,4A18.7,18.7,0,0,1,91.66,196.11Z" style="fill: #fff"/>
      <path d="M111.54,181c-.2,2.73-.34,5.41-.68,8.09a53.59,53.59,0,0,1-1.27,6.19,4,4,0,0,1-3.17,3.36,4.78,4.78,0,0,1-4.73-2.24,7.46,7.46,0,0,1-.88-2.39c-.39-2-.73-4.14-1.32-7.16h.19c-.24-1.51-.54-3-.63-4.48-.2-3.17-.29-6.38-.29-9.55,0-3,.1-6,.34-9a47.09,47.09,0,0,1,.93-5.75,31.56,31.56,0,0,1,1.36-5.21,17.8,17.8,0,0,1,2.29-4c1-1.36,4.09-1,5-.1a7.39,7.39,0,0,1,2.78,5.41c.1,1.61.58,3.22.63,4.87.1,2.68,0,5.36,0,8,0,1.61,0,3.27,0,4.92C111.93,175,111.74,178,111.54,181Zm-4.73-28.85a2.12,2.12,0,0,0-.34-.29,1.71,1.71,0,0,1-.34-.44c0-.1,0,0-.15.15a8.16,8.16,0,0,0-2.14,4.78c-.73,4.24-1.32,8.48-1.66,12.77-.24,3.61-.1,7.21-.1,10.77.58,3.85,1.12,7.65,1.71,11.45a9.17,9.17,0,0,0,.93,3,2.19,2.19,0,0,0,1.22.78s0-.1-.1-.1c.15-.19.24-.49.34-.63a6.86,6.86,0,0,0,.34-1.07,10.66,10.66,0,0,0,.34-1.17,30.11,30.11,0,0,0,1-7c.19-2.39.24-4.83.54-7.21.29-2.78.15-5.6.19-8.43s.19-5.46.1-8.19c0-2.14-.54-4.29-.68-6.43A3.47,3.47,0,0,0,106.82,152.15Z" style="fill: #fff"/>
      <path d="M130.16,179.54c0-1.32-.19-2.63-.19-3.9,0-2.87,0-5.75,0-8.63,0-3.75,0-7.5,0-11.21,0-2,0-3.9.19-5.85a2.22,2.22,0,0,1,.83-1.41,8.84,8.84,0,0,0,1-1.22,12.58,12.58,0,0,0,.88,1.27,2.22,2.22,0,0,1,.63,1.36c0,3.66-.19,7.31-.19,11s0,7.5,0,11.21c0,2.49.19,5,.24,7.46v16.62c0,1.75-1.07,2.63-2.29,2.49a2.8,2.8,0,0,1-2.44-2.49c-.29-2.63-.54-5.31-1-7.94-.49-3.07-1.17-6.14-1.8-9.21-.24-1-.63-2-.88-3.07-.29-1.27-.54-2.53-.78-3.8-.68-3.22-1.32-6.38-2.1-9.55-.54-2.29-1.27-4.53-1.9-6.82a9.82,9.82,0,0,0-.54-1.27l.88-.44a4.94,4.94,0,0,1,.44,1.9c0,.68,0,1.37,0,2.1,0,1.9,0,3.8.1,5.75,0,1,.1,1.95.1,2.92,0,3.7,0,7.41,0,11.06,0,2.68.29,5.31.39,8,.1,3.17.15,6.38.29,9.55a1.93,1.93,0,0,1-2,2.19c-.54,0-2-.78-1.8-1.85a18.41,18.41,0,0,0,.2-4.34c-.1-1.51-.24-3-.24-4.48,0-2-.15-10.43-.2-11.84-.1-3.17,0-6.29,0-9.46,0-1.56.1-3.12,0-4.68,0-1.22-.24-2.39-.29-3.56-.1-1.85-.1-3.7-.15-5.56,0-.15,0-.49,0-.63a1.87,1.87,0,0,1,1.27-2.63,2.23,2.23,0,0,1,2.88,1.36,55.57,55.57,0,0,1,2,5.41c.93,3.31,1.66,6.73,2.49,10.09,1.12,4.68,2.29,9.31,3.31,14,.15.73.29,1.41.44,2.14C130.06,180.9,130.16,180.22,130.16,179.54Z" style="fill: #fff"/>
      <path d="M143.56,176.13c0,1.27-.19,2.53-.19,3.8,0,1.9.24,3.85.29,5.8,0,2.83,0,5.65-.1,8.48a12.67,12.67,0,0,1-.15,2.73,2.37,2.37,0,0,1-1.61,1.71c-1.71.39-2-1.17-2-1.95.15-2.34.39-4.73.49-7.07,0-1.56-.1-3.12-.1-4.63,0-1.9.1-3.8.1-5.65a72.1,72.1,0,0,1,0-7.26c.39-3.31,0-6.58.15-9.89.19-3.12.44-6.24.58-9.36a16.39,16.39,0,0,0-.15-2.14,2,2,0,0,1,1.85-2.24c.73-.1,1.51-.34,2.24-.39a19.44,19.44,0,0,1,3.36,0,2.3,2.3,0,0,1,1.8,1.75,1.93,1.93,0,0,1-1.95,2.14,7.19,7.19,0,0,1-1,0c-.29,0-.54,0-.83,0a13.64,13.64,0,0,0-2,0l-.54,12.33,1.56.29a4.2,4.2,0,0,1,1.12.24,1.56,1.56,0,0,1,.93,1.75c-.24,1.71-1.9,1.66-2.73,1.46a4.18,4.18,0,0,0-.83-.15C143.8,170.62,143.66,173.35,143.56,176.13Z" style="fill: #fff"/>
      <path d="M157.21,154.68l2.24-2.34c-.24,5.17-.44,9-.54,12.82-.1,3.22,0,6.43-.1,9.7,0,2.88-.19,5.75-.24,8.63,0,1.27.15,2.54.2,3.85,0,3.12.15,6.24.1,9.41a2.21,2.21,0,0,1-1.85,1.95,1.93,1.93,0,0,1-1.9-2.19c.1-3.26.15-6.58.15-9.84,0-3.66,0-7.31,0-10.92,0-2.63,0-5.26,0-7.9.1-3,.34-6,.39-9s-.1-5.7-.2-8.53c0-.78.15-2.34,1.95-2.34a1.62,1.62,0,0,1,1.61,1,8.87,8.87,0,0,1,.15,1.12c.1,1.12.19,2.24.39,4.34Z" style="fill: #fff"/>
      <path d="M176.41,186.31a22.92,22.92,0,0,1-1.17,3.22,6.41,6.41,0,0,0-.24.93,8.15,8.15,0,0,1-2,3.9,50,50,0,0,1-3.56,3.66c-1.46,1.41-2.58.34-3.22-.39a2.83,2.83,0,0,1-.83-2c0-.49.1-1,.1-1.46.15-3.12.29-6.19.34-9.31.1-3.85.15-7.65.15-11.5,0-4.92,0-9.8,0-14.72,0-1.75.24-3.51.29-5.31a25.32,25.32,0,0,0-.15-2.68c0-2.19,1.22-3.12,3.31-2.34,3.36,1.22,6.19,3.41,7.41,6.92a19.71,19.71,0,0,1,1.51,8.77,46.23,46.23,0,0,1,.19,5.26c-.15,2.83-.44,5.7-.78,8.53S176.94,183.48,176.41,186.31Zm-7.21,7a14.34,14.34,0,0,0,3.7-6.48,64.73,64.73,0,0,0,1.51-8.14,31.93,31.93,0,0,0,.44-4.34c.1-3,0-6,.15-9a24.55,24.55,0,0,0-1.22-8.58,7,7,0,0,0-4-4.39Z" style="fill: #fff"/>
      <path d="M191.17,195.18a1.91,1.91,0,0,1,1,.83,1.47,1.47,0,0,0,.19.39s0,.15.68,1c-1,.63-1.12.78-1.27.88a2.24,2.24,0,0,1-1.07.39,27.88,27.88,0,0,1-2.83-.24l-.83-.15a8.17,8.17,0,0,1-1.46-.2,2,2,0,0,1-1.71-2c0-.39,0-.88,0-1.56.1-2.19.15-4.39.19-6.53s.19-4.44.19-6.63c0-3.31,0-6.63,0-9.94s.29-6.38.34-9.6c0-3.46,0-6.92,0-10.38,0-.24-.1-.54-.1-.78a2,2,0,0,1,.29-1.36,3.66,3.66,0,0,1,2.29-1.22c1.75-.15,3.56,0,5.31-.1a1.9,1.9,0,0,1,2.19,1.8,2,2,0,0,1-2.14,2H188.1V163a22,22,0,0,0,2.58-.34,1.75,1.75,0,0,1,2.24,1.41,1.84,1.84,0,0,1-1.75,2.29c-1.07,0-2.14.15-3.22.15,0,3.07-.15,6.14-.19,9.21-.1,4.87-.15,9.75-.24,14.62v4.24A14.68,14.68,0,0,1,191.17,195.18Z" style="fill: #fff"/>
      <path d="M212,179.54c0-1.32-.19-2.63-.19-3.9,0-2.87,0-5.75,0-8.63,0-3.75,0-7.5,0-11.21,0-2,0-3.9.19-5.85a2.22,2.22,0,0,1,.83-1.41,8.84,8.84,0,0,0,1-1.22,12.34,12.34,0,0,0,.88,1.27,2.22,2.22,0,0,1,.63,1.36c0,3.66-.19,7.31-.19,11s0,7.5,0,11.21c0,2.49.19,5,.24,7.46v16.62c0,1.75-1.07,2.63-2.29,2.49a2.79,2.79,0,0,1-2.44-2.49c-.29-2.63-.54-5.31-1-7.94-.49-3.07-1.17-6.14-1.8-9.21-.24-1-.63-2-.88-3.07-.29-1.27-.54-2.53-.78-3.8-.68-3.22-1.32-6.38-2.1-9.55-.54-2.29-1.27-4.53-1.9-6.82a9.89,9.89,0,0,0-.54-1.27l.88-.44a4.93,4.93,0,0,1,.44,1.9c0,.68,0,1.37,0,2.1,0,1.9,0,3.8.1,5.75,0,1,.1,1.95.1,2.92,0,3.7,0,7.41,0,11.06,0,2.68.29,5.31.39,8,.1,3.17.15,6.38.29,9.55a1.93,1.93,0,0,1-2,2.19c-.54,0-2-.78-1.8-1.85a18.41,18.41,0,0,0,.2-4.34c-.1-1.51-.24-3-.24-4.48,0-2-.15-10.43-.2-11.84-.1-3.17,0-6.29,0-9.46,0-1.56.1-3.12,0-4.68,0-1.22-.24-2.39-.29-3.56-.1-1.85-.1-3.7-.15-5.56,0-.15,0-.49,0-.63a1.87,1.87,0,0,1,1.27-2.63,2.23,2.23,0,0,1,2.88,1.36,55.57,55.57,0,0,1,2,5.41c.93,3.31,1.66,6.73,2.49,10.09,1.12,4.68,2.29,9.31,3.31,14,.15.73.29,1.41.44,2.14C211.93,180.9,212,180.22,212,179.54Z" style="fill: #fff"/>
      <path d="M232.3,196.11c-.88,1.61-2.68,3-4.58,2.49a5.38,5.38,0,0,1-3.7-3.31c-1.51-3.27-1.61-6.68-1.85-10.24-.15-2.34-.44-4.73-.49-7.12s.19-4.43.29-6.68c0-1.75-.1-3.56,0-5.31a75.22,75.22,0,0,1,1-9.36,41.24,41.24,0,0,1,2.34-6.63c.68-1.8,3.07-2.14,4.73-1.85a3.81,3.81,0,0,1,2.83,2.88,17.21,17.21,0,0,1,.73,4.29c0,.58-.24,2.78-3,1.75-.24-1.51-.34-2.53-.54-3.51a2.14,2.14,0,0,0-.34-.93,3.32,3.32,0,0,0-.58-.58c0-.1-.1-.24-.15-.2a1.46,1.46,0,0,0-.93.78,24.14,24.14,0,0,0-1.51,5.07c-.49,2.63-.83,5.31-1.07,8-.15,2,0,4.09,0,6.14,0,1.75-.19,3.51-.19,5.26s.15,3.51.24,5.21c.19,2.49.34,5,.58,7.5a7.62,7.62,0,0,0,1.75,4.63c1.9,2.1,3-5.85,3.07-6.92a1.88,1.88,0,0,1,2.14-1.85,1.8,1.8,0,0,1,1.71,2.34c-.34,1.32-.63,2.68-1,4A18.7,18.7,0,0,1,232.3,196.11Z" style="fill: #fff"/>
      <path d="M246.68,195.18a1.91,1.91,0,0,1,1,.83,1.47,1.47,0,0,0,.19.39s0,.15.68,1c-1,.63-1.12.78-1.27.88a2.24,2.24,0,0,1-1.07.39,27.88,27.88,0,0,1-2.83-.24l-.83-.15a8.17,8.17,0,0,1-1.46-.2,2,2,0,0,1-1.71-2c0-.39,0-.88,0-1.56.1-2.19.15-4.39.19-6.53s.19-4.44.19-6.63c0-3.31,0-6.63,0-9.94s.29-6.38.34-9.6c0-3.46,0-6.92,0-10.38,0-.24-.1-.54-.1-.78a2,2,0,0,1,.29-1.36,3.66,3.66,0,0,1,2.29-1.22c1.75-.15,3.56,0,5.31-.1a1.9,1.9,0,0,1,2.19,1.8,2,2,0,0,1-2.14,2h-4.44V163a22,22,0,0,0,2.58-.34,1.75,1.75,0,0,1,2.24,1.41,1.84,1.84,0,0,1-1.75,2.29c-1.07,0-2.14.15-3.22.15,0,3.07-.15,6.14-.19,9.21-.1,4.87-.15,9.75-.24,14.62v4.24A14.68,14.68,0,0,1,246.68,195.18Z" style="fill: #fff"/>
      <path d="M140.34,252.64a8.08,8.08,0,0,1-1.17,2.83c-1.61,2.49-4.92,2.1-6.68-.15a6.34,6.34,0,0,1-1.12-2.58c-.34-1.41-.39-2.88-.78-4.29a36.18,36.18,0,0,1-1-7.94,79.81,79.81,0,0,1,.15-9.65c.1-3,.29-6,.63-9.07a86.94,86.94,0,0,1,1.41-8.67,32.63,32.63,0,0,1,1.51-4.34c.78-2.19,4.68-3.07,6.43-1.51,1.07.58,3.66,3,3.07,4.39a1.46,1.46,0,0,1-.93.78,2,2,0,0,1-2-.49l-.49-.49-.15-.15a2.82,2.82,0,0,1-.68-.39c-.15-.1-.24-.19-.39-.29-1.12-.68-1.61-.54-1.95.78-.73,2.78-1.36,5.51-1.9,8.33a54.25,54.25,0,0,0-.63,5.65c-.24,2.53-.49,5.07-.58,7.6-.1,1.9.19,3.75.1,5.65a48.37,48.37,0,0,0,1.07,10.58,14.52,14.52,0,0,0,1.27,3.7c.1.19.34.49.44.49s.34-.1.44-.49c.73-3.27,1.61-6.53,2.19-9.8.39-2.24.44-4.53.63-6.92a10.09,10.09,0,0,1-2.14-.15c-.63-.1-2.19-1-2.14-1.75a2.15,2.15,0,0,1,2.53-2.14c1.27.2,2.49.15,3.7.39a2.46,2.46,0,0,1,1.75,2.14c-.19,2.83-.44,5.7-.83,8.48C141.61,246.35,141,249.52,140.34,252.64Z" style="fill: #fff"/>
      <path d="M162.81,256.64c-.2.15-.39.24-1.36.93-.63-1-.78-1.12-.88-1.27a1.65,1.65,0,0,1-.44-1c-.15-1.61-.19-3.22-.39-4.83-.29-2.92-.68-5.85-1.07-8.72,0,0-.1,0-.15-.1a14.37,14.37,0,0,0-6.73-.39c0,.78-.15,1.61-.19,2.44-.1,2.49-.2,4.92-.24,7.41,0,1.22,0,2.44,0,3.7,0,1.07-.68,2.49-3.36,1.85,0-2.14,0-3.51,0-4.87.1-3.31.19-6.68.44-10,.19-2.53.58-5,.88-7.55.39-3.26.68-6.48,1.07-9.75.39-3,.88-5.95,1.32-8.92.15-1.17.2-2.39.34-3.61a32,32,0,0,1,.73-3.75,2.08,2.08,0,0,1,.78-1c.2-.15.44-.34,1.66-1.36.73,1.46.93,1.8,1.12,2.14a3.28,3.28,0,0,1,.49,1.27c.54,2.78.93,5.56,1.32,8.33s.58,5.46,1,8.19c.49,3,1.17,6,1.71,9,.58,3.36,1.17,6.77,1.66,10.14.34,2.34.58,4.63.88,6.92.15.93.29,1.8.44,2.68,0,.15,0,.34,0,.54a1.26,1.26,0,0,1-.39,1A2,2,0,0,1,162.81,256.64ZM152,237.82l6,.29c-1.66-7.07-2.1-14.33-3.36-21.44Z" style="fill: #fff"/>
      <path d="M178.7,210a13.66,13.66,0,0,1,.63-2c.24-.58,1.36-1.56,2-1.36a3,3,0,0,1,1.8,1.46,7.09,7.09,0,0,1,.39,2.58c0,1.9-.1,3.8,0,5.7.1,3.66.24,7.26.44,10.87.15,3.17.34,6.38.54,9.55.19,2.68.54,5.41.63,8.14.15,3,.1,6,.1,9.06v.49a1.9,1.9,0,0,1-1.56,2.63,2,2,0,0,1-2.1-2.24,33.12,33.12,0,0,0,.24-3.8c0-3.12-.24-6.19-.39-9.31,0-.93-.15-1.85-.19-2.83a30.44,30.44,0,0,1,0-3.66,19.81,19.81,0,0,0-.19-3.41c-.1-1.32-.29-2.63-.39-3.95-.19-2.29-.34-4.58-.49-6.87,0-1.12-.1-2.29-.1-3.41l-.19.63c-.49,1.66-.73,3.41-1.12,5.12a2.48,2.48,0,0,1-2.19,2.1c-1.8.15-2.14-1.36-2.29-2-.29-1.56-.58-3.12-1-4.68a5.18,5.18,0,0,0-.34-.93,3,3,0,0,0-.24-.58c0,2.14.1,4.29.1,6.43,0,4.48,0,9,0,13.5,0,3.07,0,6.19.15,9.26.1,2.44.44,4.87.49,7.26a2.4,2.4,0,0,1-1.61,2.1c-1.75.54-2.19-1.22-2.19-1.85,0-3.51-.1-7-.15-10.43,0-2.39-.15-4.78-.15-7.12,0-3,.1-5.9.1-8.82,0-3.9-.19-7.8-.24-11.7,0-1.66,0-3.31,0-5,0-.29-.1-.63-.1-.93a5.16,5.16,0,0,1-.1-1.27c0-.49.34-1.71,1.22-2a1.91,1.91,0,0,1,2.78,1.07c.83,2.44,1.71,4.83,2.58,7.26.29.88.58,1.8.83,2.68Z" style="fill: #fff"/>
      <path d="M198.19,253.66a1.91,1.91,0,0,1,1,.83,1.48,1.48,0,0,0,.19.39s0,.15.68,1c-1,.63-1.12.78-1.27.88a2.24,2.24,0,0,1-1.07.39,27.6,27.6,0,0,1-2.83-.24l-.83-.15a8.28,8.28,0,0,1-1.46-.19,2,2,0,0,1-1.71-2c0-.39,0-.88,0-1.56.1-2.19.15-4.39.19-6.53s.19-4.44.19-6.63c0-3.31,0-6.63,0-9.94s.29-6.38.34-9.6c0-3.46,0-6.92,0-10.38,0-.24-.1-.54-.1-.78a2,2,0,0,1,.29-1.37,3.66,3.66,0,0,1,2.29-1.22c1.75-.15,3.56,0,5.31-.1a1.9,1.9,0,0,1,2.19,1.8,2,2,0,0,1-2.14,2h-4.44V221.5a22.16,22.16,0,0,0,2.58-.34,1.75,1.75,0,0,1,2.24,1.41,1.85,1.85,0,0,1-1.75,2.29c-1.07,0-2.14.15-3.22.15,0,3.07-.15,6.14-.19,9.21-.1,4.87-.15,9.75-.24,14.62v4.24A14.72,14.72,0,0,1,198.19,253.66Z" style="fill: #fff"/>
    </g>
    <g>
      <path d="M62.62,332.22a11.06,11.06,0,0,1,.52-1.63c.2-.48,1.11-1.27,1.63-1.12a2.47,2.47,0,0,1,1.47,1.19,5.8,5.8,0,0,1,.32,2.11c0,1.55-.08,3.11,0,4.66.08,3,.2,5.93.36,8.88.12,2.59.28,5.21.44,7.8.16,2.19.44,4.42.52,6.65.12,2.47.08,4.94.08,7.4v.4a1.55,1.55,0,0,1-1.27,2.15,1.6,1.6,0,0,1-1.71-1.83,27.06,27.06,0,0,0,.2-3.11c0-2.55-.2-5.06-.32-7.6,0-.76-.12-1.51-.16-2.31a24.88,24.88,0,0,1,0-3,16.13,16.13,0,0,0-.16-2.79c-.08-1.08-.24-2.15-.32-3.22-.16-1.87-.28-3.74-.4-5.61,0-.92-.08-1.87-.08-2.79l-.16.52c-.4,1.35-.6,2.79-.92,4.18a2,2,0,0,1-1.79,1.71c-1.47.12-1.75-1.12-1.87-1.67-.24-1.27-.48-2.55-.8-3.82a4.29,4.29,0,0,0-.28-.76,2.45,2.45,0,0,0-.2-.48c0,1.75.08,3.5.08,5.25,0,3.66,0,7.33,0,11,0,2.51,0,5.06.12,7.56.08,2,.36,4,.4,5.93a2,2,0,0,1-1.31,1.71c-1.43.44-1.79-1-1.79-1.51,0-2.87-.08-5.69-.12-8.52,0-2-.12-3.9-.12-5.81,0-2.43.08-4.82.08-7.21,0-3.18-.16-6.37-.2-9.55,0-1.35,0-2.71,0-4.06,0-.24-.08-.52-.08-.76a4.23,4.23,0,0,1-.08-1c0-.4.28-1.39,1-1.67a1.56,1.56,0,0,1,2.27.88c.68,2,1.39,3.94,2.11,5.93.24.72.48,1.47.68,2.19Z" style="fill: #fff"/>
      <path d="M84.75,370.27c-.16.12-.32.2-1.11.76-.52-.8-.64-.92-.72-1a1.35,1.35,0,0,1-.36-.8c-.12-1.31-.16-2.63-.32-3.94-.24-2.39-.56-4.78-.88-7.13,0,0-.08,0-.12-.08a11.74,11.74,0,0,0-5.49-.32c0,.64-.12,1.31-.16,2-.08,2-.16,4-.2,6.05,0,1,0,2,0,3,0,.88-.56,2-2.75,1.51,0-1.75,0-2.87,0-4,.08-2.71.16-5.45.36-8.16.16-2.07.48-4.1.72-6.17.32-2.67.56-5.29.88-8,.32-2.43.72-4.86,1.08-7.29.12-1,.16-2,.28-2.95a26.22,26.22,0,0,1,.6-3.07,1.7,1.7,0,0,1,.64-.8c.16-.12.36-.28,1.35-1.11.6,1.19.76,1.47.92,1.75a2.68,2.68,0,0,1,.4,1c.44,2.27.76,4.54,1.07,6.81s.48,4.46.84,6.69c.4,2.47,1,4.9,1.39,7.37.48,2.75,1,5.53,1.35,8.28.28,1.91.48,3.78.72,5.65.12.76.24,1.47.36,2.19,0,.12,0,.28,0,.44a1,1,0,0,1-.32.8A1.7,1.7,0,0,1,84.75,370.27ZM76,354.91l4.94.24c-1.35-5.77-1.71-11.7-2.75-17.52Z" style="fill: #fff"/>
      <path d="M97.89,369.24a36.87,36.87,0,0,0-.72-4.1c-.64-2.55-1.39-5.1-2.07-7.6-.76-2.67-1.47-5.29-2.23-7.92-.08-.24-.16-.48-.24-.68v3c0,1.79,0,3.58,0,5.37,0,.8.16,1.59.16,2.39,0,1.23-.16,2.47-.12,3.74,0,1.79.2,3.54.36,5.33a1.93,1.93,0,0,1,0,.48,1.45,1.45,0,0,1-.08.56,1.29,1.29,0,0,1-1.31.84A1.59,1.59,0,0,1,90,368.84c0-2.11,0-4.22-.12-6.37,0-1.91-.12-3.78-.12-5.69,0-2.43.12-4.82.12-7.25s-.16-4.7-.12-7c0-1.47.28-2.91.36-4.34.08-2.39.08-4.78.16-7.21a1.54,1.54,0,0,1,.2-.72c0-.16.12-.28.48-1.19,1.08.48,1.35.64,1.63.76l.72.48c.84.68,1.71,1.35,2.59,2A4,4,0,0,1,97.13,334a12.77,12.77,0,0,1,.52,1.75c.8,3.22-.72,5.69-2.51,7.72a1.93,1.93,0,0,1-.48.4l-.32.16c.28,1,.6,2,.88,2.95.72,2.59,1.51,5.17,2.23,7.76s1.23,5.06,1.87,7.56c.48,1.91,1,3.78,1.43,5.65a6.52,6.52,0,0,1,.12.8c.12.52.24,1.75-1.15,1.91A1.55,1.55,0,0,1,97.89,369.24Zm-5.14-27.71a6,6,0,0,0,2.11-3.42,4.64,4.64,0,0,0-1.79-4.5Z" style="fill: #fff"/>
      <path d="M106.72,334.76l1.83-1.91c-.2,4.22-.36,7.33-.44,10.47-.08,2.63,0,5.25-.08,7.92,0,2.35-.16,4.7-.2,7,0,1,.12,2.07.16,3.14,0,2.55.12,5.1.08,7.68a1.8,1.8,0,0,1-1.51,1.59,1.57,1.57,0,0,1-1.55-1.79c.08-2.67.12-5.37.12-8,0-3,0-6,0-8.92,0-2.15,0-4.3,0-6.45.08-2.47.28-4.9.32-7.33s-.08-4.66-.16-7c0-.64.12-1.91,1.59-1.91a1.33,1.33,0,0,1,1.31.84,7.17,7.17,0,0,1,.12.92c.08.92.16,1.83.32,3.54Z" style="fill: #fff"/>
      <path d="M125.51,370.27c-.16.12-.32.2-1.11.76-.52-.8-.64-.92-.72-1a1.35,1.35,0,0,1-.36-.8c-.12-1.31-.16-2.63-.32-3.94-.24-2.39-.56-4.78-.88-7.13,0,0-.08,0-.12-.08a11.74,11.74,0,0,0-5.49-.32c0,.64-.12,1.31-.16,2-.08,2-.16,4-.2,6.05,0,1,0,2,0,3,0,.88-.56,2-2.75,1.51,0-1.75,0-2.87,0-4,.08-2.71.16-5.45.36-8.16.16-2.07.48-4.1.72-6.17.32-2.67.56-5.29.88-8,.32-2.43.72-4.86,1.08-7.29.12-1,.16-2,.28-2.95a26.22,26.22,0,0,1,.6-3.07,1.7,1.7,0,0,1,.64-.8c.16-.12.36-.28,1.35-1.11.6,1.19.76,1.47.92,1.75a2.68,2.68,0,0,1,.4,1c.44,2.27.76,4.54,1.07,6.81s.48,4.46.84,6.69c.4,2.47,1,4.9,1.39,7.37.48,2.75,1,5.53,1.35,8.28.28,1.91.48,3.78.72,5.65.12.76.24,1.47.36,2.19,0,.12,0,.28,0,.44a1,1,0,0,1-.32.8A1.7,1.7,0,0,1,125.51,370.27Zm-8.8-15.37,4.94.24c-1.35-5.77-1.71-11.7-2.75-17.52Z" style="fill: #fff"/>
      <path d="M143.58,344.16c.32-.76.72-1.51,1.07-2.31.8-1.79,1.55-3.58,2.31-5.37.84-2,1.59-4,2.39-6a3,3,0,0,1,.4-.8,1.26,1.26,0,0,1,1.55-.24,1.66,1.66,0,0,1,.72,2.27c-.8,1.83-1.39,3.74-2.19,5.57-1.43,3.18-2.95,6.29-4.38,9.47-.28.6-.56,1.19-.8,1.79,0,0,0,.08.08.16.52,1.23,1.11,2.51,1.67,3.74a21.31,21.31,0,0,1,.84,2c.48,1.31.92,2.63,1.35,3.94.8,2.55,1.59,5.1,2.35,7.64a9,9,0,0,1,.32,2.75,1.86,1.86,0,0,1-1.35,1.67c-1,.24-1.59-.84-1.71-1.31-.52-2-1-4.78-1.51-6.85-.24-.88-.6-1.71-.84-2.63a22.75,22.75,0,0,0-2.35-6.05c0,.4,0,.8,0,1.15,0,1.12,0,2.23,0,3.34.08,3.5.12,7,.2,10.51a1.79,1.79,0,0,1-1.91,2.07,1.68,1.68,0,0,1-1.23-1.51c0-1.87.12-3.74.12-5.61,0-3.34,0-6.69,0-10,0-2.83,0-5.65.16-8.48.12-2.31.36-4.62.48-6.93s.08-4.34.12-6.53a1.27,1.27,0,0,1-.12-.36,1.11,1.11,0,0,1,.36-1.23,1.27,1.27,0,0,1,1.31-.68c1,.12,1.43,3.58,1.35,5-.2,3.19-.52,6.33-.68,9.51Z" style="fill: #fff"/>
      <path d="M166.91,356.26c-.16,2.23-.28,4.42-.56,6.61a43.72,43.72,0,0,1-1,5.06,3.29,3.29,0,0,1-2.59,2.75,3.9,3.9,0,0,1-3.86-1.83,6.08,6.08,0,0,1-.72-2c-.32-1.67-.6-3.38-1.08-5.85h.16c-.2-1.23-.44-2.43-.52-3.66-.16-2.59-.24-5.21-.24-7.8,0-2.43.08-4.9.28-7.33a38.49,38.49,0,0,1,.76-4.7,25.77,25.77,0,0,1,1.11-4.26A14.53,14.53,0,0,1,160.5,330c.8-1.11,3.34-.8,4.1-.08a6,6,0,0,1,2.27,4.42c.08,1.31.48,2.63.52,4,.08,2.19,0,4.38,0,6.57,0,1.31,0,2.67,0,4C167.23,351.36,167.07,353.83,166.91,356.26ZM163,332.69a1.72,1.72,0,0,0-.28-.24,1.41,1.41,0,0,1-.28-.36c0-.08,0,0-.12.12a6.67,6.67,0,0,0-1.75,3.9c-.6,3.46-1.08,6.93-1.35,10.43-.2,2.95-.08,5.89-.08,8.8.48,3.14.92,6.25,1.39,9.36a7.49,7.49,0,0,0,.76,2.47,1.8,1.8,0,0,0,1,.64s0-.08-.08-.08c.12-.16.2-.4.28-.52a5.61,5.61,0,0,0,.28-.88,8.7,8.7,0,0,0,.28-1,24.59,24.59,0,0,0,.84-5.69c.16-2,.2-3.94.44-5.89.24-2.27.12-4.58.16-6.89s.16-4.46.08-6.69c0-1.75-.44-3.5-.56-5.25A2.83,2.83,0,0,0,163,332.69Z" style="fill: #fff"/>
      <path d="M182.11,355.07c0-1.08-.16-2.15-.16-3.19,0-2.35,0-4.7,0-7,0-3.07,0-6.13,0-9.16,0-1.59,0-3.19.16-4.78a1.81,1.81,0,0,1,.68-1.15,7.26,7.26,0,0,0,.84-1,9.9,9.9,0,0,0,.72,1,1.81,1.81,0,0,1,.52,1.12c0,3-.16,6-.16,9s0,6.13,0,9.16c0,2,.16,4.06.2,6.09v13.58c0,1.43-.88,2.15-1.87,2a2.28,2.28,0,0,1-2-2c-.24-2.15-.44-4.34-.8-6.49-.4-2.51-1-5-1.47-7.52-.2-.84-.52-1.67-.72-2.51-.24-1-.44-2.07-.64-3.11-.56-2.63-1.08-5.21-1.71-7.8-.44-1.87-1-3.7-1.55-5.57a8,8,0,0,0-.44-1l.72-.36a4,4,0,0,1,.36,1.55c0,.56,0,1.11,0,1.71,0,1.55,0,3.1.08,4.7,0,.8.08,1.59.08,2.39,0,3,0,6.05,0,9,0,2.19.24,4.34.32,6.53.08,2.59.12,5.22.24,7.8A1.57,1.57,0,0,1,174,369.8c-.44,0-1.63-.64-1.47-1.51a15,15,0,0,0,.16-3.54c-.08-1.23-.2-2.47-.2-3.66,0-1.63-.12-8.52-.16-9.67-.08-2.59,0-5.14,0-7.72,0-1.27.08-2.55,0-3.82,0-1-.2-2-.24-2.91-.08-1.51-.08-3-.12-4.54,0-.12,0-.4,0-.52a1.53,1.53,0,0,1,1-2.15,1.82,1.82,0,0,1,2.35,1.11,45.23,45.23,0,0,1,1.63,4.42c.76,2.71,1.35,5.49,2,8.24.92,3.82,1.87,7.6,2.71,11.46.12.6.24,1.15.36,1.75C182,356.18,182.11,355.62,182.11,355.07Z" style="fill: #fff"/>
      <path d="M200.34,355.07c0-1.08-.16-2.15-.16-3.19,0-2.35,0-4.7,0-7,0-3.07,0-6.13,0-9.16,0-1.59,0-3.19.16-4.78a1.81,1.81,0,0,1,.68-1.15,7.26,7.26,0,0,0,.84-1,9.9,9.9,0,0,0,.72,1,1.81,1.81,0,0,1,.52,1.12c0,3-.16,6-.16,9s0,6.13,0,9.16c0,2,.16,4.06.2,6.09v13.58c0,1.43-.88,2.15-1.87,2a2.28,2.28,0,0,1-2-2c-.24-2.15-.44-4.34-.8-6.49-.4-2.51-1-5-1.47-7.52-.2-.84-.52-1.67-.72-2.51-.24-1-.44-2.07-.64-3.11-.56-2.63-1.08-5.21-1.71-7.8-.44-1.87-1-3.7-1.55-5.57a8,8,0,0,0-.44-1l.72-.36a4,4,0,0,1,.36,1.55c0,.56,0,1.11,0,1.71,0,1.55,0,3.1.08,4.7,0,.8.08,1.59.08,2.39,0,3,0,6.05,0,9,0,2.19.24,4.34.32,6.53.08,2.59.12,5.22.24,7.8a1.57,1.57,0,0,1-1.63,1.79c-.44,0-1.63-.64-1.47-1.51a15,15,0,0,0,.16-3.54c-.08-1.23-.2-2.47-.2-3.66,0-1.63-.12-8.52-.16-9.67-.08-2.59,0-5.14,0-7.72,0-1.27.08-2.55,0-3.82,0-1-.2-2-.24-2.91-.08-1.51-.08-3-.12-4.54,0-.12,0-.4,0-.52a1.53,1.53,0,0,1,1-2.15,1.82,1.82,0,0,1,2.35,1.11,45.23,45.23,0,0,1,1.63,4.42c.76,2.71,1.35,5.49,2,8.24.92,3.82,1.87,7.6,2.71,11.46.12.6.24,1.15.36,1.75C200.26,356.18,200.34,355.62,200.34,355.07Z" style="fill: #fff"/>
      <path d="M209.93,334.76l1.83-1.91c-.2,4.22-.36,7.33-.44,10.47-.08,2.63,0,5.25-.08,7.92,0,2.35-.16,4.7-.2,7,0,1,.12,2.07.16,3.14,0,2.55.12,5.1.08,7.68a1.8,1.8,0,0,1-1.51,1.59,1.57,1.57,0,0,1-1.55-1.79c.08-2.67.12-5.37.12-8,0-3,0-6,0-8.92,0-2.15,0-4.3,0-6.45.08-2.47.28-4.9.32-7.33s-.08-4.66-.16-7c0-.64.12-1.91,1.59-1.91a1.33,1.33,0,0,1,1.31.84,7.17,7.17,0,0,1,.12.92c.08.92.16,1.83.32,3.54Z" style="fill: #fff"/>
      <path d="M219.68,344.16c.32-.76.72-1.51,1.07-2.31.8-1.79,1.55-3.58,2.31-5.37.84-2,1.59-4,2.39-6a3,3,0,0,1,.4-.8,1.26,1.26,0,0,1,1.55-.24,1.66,1.66,0,0,1,.72,2.27c-.8,1.83-1.39,3.74-2.19,5.57-1.43,3.18-2.95,6.29-4.38,9.47-.28.6-.56,1.19-.8,1.79,0,0,0,.08.08.16.52,1.23,1.11,2.51,1.67,3.74a21.18,21.18,0,0,1,.84,2c.48,1.31.92,2.63,1.35,3.94.8,2.55,1.59,5.1,2.35,7.64a9,9,0,0,1,.32,2.75,1.86,1.86,0,0,1-1.35,1.67c-1,.24-1.59-.84-1.71-1.31-.52-2-1-4.78-1.51-6.85-.24-.88-.6-1.71-.84-2.63a22.75,22.75,0,0,0-2.35-6.05c0,.4,0,.8,0,1.15,0,1.12,0,2.23,0,3.34.08,3.5.12,7,.2,10.51a1.79,1.79,0,0,1-1.91,2.07,1.68,1.68,0,0,1-1.23-1.51c0-1.87.12-3.74.12-5.61,0-3.34,0-6.69,0-10,0-2.83,0-5.65.16-8.48.12-2.31.36-4.62.48-6.93s.08-4.34.12-6.53a1.27,1.27,0,0,1-.12-.36,1.11,1.11,0,0,1,.36-1.23,1.27,1.27,0,0,1,1.31-.68c1,.12,1.43,3.58,1.35,5-.2,3.19-.52,6.33-.68,9.51Z" style="fill: #fff"/>
      <path d="M243,356.26c-.16,2.23-.28,4.42-.56,6.61a43.72,43.72,0,0,1-1,5.06,3.29,3.29,0,0,1-2.59,2.75,3.9,3.9,0,0,1-3.86-1.83,6.08,6.08,0,0,1-.72-2c-.32-1.67-.6-3.38-1.08-5.85h.16c-.2-1.23-.44-2.43-.52-3.66-.16-2.59-.24-5.21-.24-7.8,0-2.43.08-4.9.28-7.33a38.49,38.49,0,0,1,.76-4.7,25.77,25.77,0,0,1,1.11-4.26A14.53,14.53,0,0,1,236.6,330c.8-1.11,3.34-.8,4.1-.08a6,6,0,0,1,2.27,4.42c.08,1.31.48,2.63.52,4,.08,2.19,0,4.38,0,6.57,0,1.31,0,2.67,0,4C243.33,351.36,243.17,353.83,243,356.26Zm-3.86-23.57a1.72,1.72,0,0,0-.28-.24,1.41,1.41,0,0,1-.28-.36c0-.08,0,0-.12.12a6.67,6.67,0,0,0-1.75,3.9c-.6,3.46-1.08,6.93-1.35,10.43-.2,2.95-.08,5.89-.08,8.8.48,3.14.92,6.25,1.39,9.36a7.49,7.49,0,0,0,.76,2.47,1.8,1.8,0,0,0,1,.64s0-.08-.08-.08c.12-.16.2-.4.28-.52a5.61,5.61,0,0,0,.28-.88,8.81,8.81,0,0,0,.28-1,24.59,24.59,0,0,0,.84-5.69c.16-2,.2-3.94.44-5.89.24-2.27.12-4.58.16-6.89s.16-4.46.08-6.69c0-1.75-.44-3.5-.56-5.25A2.83,2.83,0,0,0,239.15,332.69Z" style="fill: #fff"/>
      <path d="M257.38,330.19a1.24,1.24,0,0,1,1.23-.88,1.23,1.23,0,0,1,1.35.92,2.66,2.66,0,0,1,0,.52c0,.08,0,.16,0,.24-.08,1.47-.28,2.91-.48,4.34-.48,3.74-1,7.48-1.51,11.19-.68,5-1.35,10-2,14.93-.32,2.47-.6,5-.84,7.48a1.89,1.89,0,0,1-2,1.79c-1.15,0-1.43-1-1.51-1.83-.24-3.38-.48-6.81-.84-10.19-.28-2.55-.72-5.1-1-7.68s-.36-4.94-.52-7.44c0-.32,0-.68-.08-1l-1-9.08c-.08-.76-.32-1.51-.44-2.27a1.67,1.67,0,0,1,.08-.68,4.54,4.54,0,0,1,.2-.84c1.67-.36,2.47.24,2.63,1.35.24,2,.6,3.9.76,5.85.32,3.3.44,6.61.76,9.91.28,2.83.68,5.61,1,8.44.12,1,.2,2.07.32,3.1l.2-1.63c.24-2.07.64-4.1.92-6.13.36-2.35.72-4.7,1-7.09.32-2.15.6-4.34.88-6.49.24-2,.4-3.9.6-5.81a1.13,1.13,0,0,1,.08-.72A.75.75,0,0,1,257.38,330.19Z" style="fill: #fff"/>
      <path d="M276.4,370.27c-.16.12-.32.2-1.11.76-.52-.8-.64-.92-.72-1a1.35,1.35,0,0,1-.36-.8c-.12-1.31-.16-2.63-.32-3.94-.24-2.39-.56-4.78-.88-7.13,0,0-.08,0-.12-.08a11.74,11.74,0,0,0-5.49-.32c0,.64-.12,1.31-.16,2-.08,2-.16,4-.2,6.05,0,1,0,2,0,3,0,.88-.56,2-2.75,1.51,0-1.75,0-2.87,0-4,.08-2.71.16-5.45.36-8.16.16-2.07.48-4.1.72-6.17.32-2.67.56-5.29.88-8,.32-2.43.72-4.86,1.08-7.29.12-1,.16-2,.28-2.95a26.22,26.22,0,0,1,.6-3.07,1.7,1.7,0,0,1,.64-.8c.16-.12.36-.28,1.35-1.11.6,1.19.76,1.47.92,1.75a2.68,2.68,0,0,1,.4,1c.44,2.27.76,4.54,1.07,6.81s.48,4.46.84,6.69c.4,2.47,1,4.9,1.39,7.37.48,2.75,1,5.53,1.35,8.28.28,1.91.48,3.78.72,5.65.12.76.24,1.47.36,2.19,0,.12,0,.28,0,.44a1,1,0,0,1-.32.8A1.7,1.7,0,0,1,276.4,370.27Zm-8.8-15.37,4.94.24c-1.35-5.77-1.71-11.7-2.75-17.52Z" style="fill: #fff"/>
    </g>
    <g>
      <path d="M62.4,290c-.35,1.47-.71,2.94-1,4.43-.08.38-.33.41-.52.35a.59.59,0,0,1-.41-.46c-.14-1.88-.25-3.75-.35-5.63-.11-1.52-.22-3-.35-4.6-.16-1.93-.38-3.86-.49-5.79-.11-1.52-.08-3-.16-4.54-.08-1.85-.19-3.7-.3-5.55,0-.11-.11-.16.14-.38s.35.11.38.22a8.58,8.58,0,0,1,.3,1.63c.11,1.77.11,3.54.22,5.3s.19,3.48.33,5.19.24,3.45.41,5.19.3,3.26.46,4.92c0,.11.11.25.22.49.22-.73.46-1.36.63-2s.33-1.55.52-2.34a.75.75,0,0,1,.33-.38.65.65,0,0,1,.46.16,1.73,1.73,0,0,1,.35.71c.35,1.28.65,2.58,1,3.86a.41.41,0,0,0,.27.3c.08-.6.16-1.17.22-1.77.14-1.17.24-2.34.41-3.48.3-2,.68-4.05,1-6.06s.54-4.24.79-6.36c.11-1.11.16-2.26.25-3.37.05-.52.05-1,.14-1.55,0-.11.3-.33.33-.3.19.11.46.3.46.46a12.09,12.09,0,0,1-.05,2c-.22,2.09-.52,4.19-.79,6.28-.22,1.85-.52,3.67-.76,5.52-.22,1.47-.38,2.94-.54,4.4-.22,1.77-.44,3.54-.63,5.33a13,13,0,0,0-.08,2.07c0,.46-.11.73-.63.71s-.46-.27-.49-.68a12.13,12.13,0,0,0-.46-1.9l-.9-3.78s-.05-.05-.22-.14C62.7,289,62.51,289.52,62.4,290Z" style="fill: #fff"/>
      <path d="M71,284.55c.05,1.55.11,3.13.14,4.68,0,1,0,2,0,3,0,.71.11,1.39.11,2.09a.82.82,0,0,1-.22.57.51.51,0,0,1-.52.05.71.71,0,0,1-.27-.54c0-1.2.08-2.39.08-3.59,0-2.42-.11-4.81-.05-7.23.05-2.66.27-5.33.41-8,0-.87,0-1.74,0-2.61,0-1.39,0-3.21,0-4.59a.55.55,0,0,1,.33-.44.6.6,0,0,1,.46.27,1.17,1.17,0,0,1,.11.63c0,1.28-.05,3-.11,4.27-.05,2.07-.11,4.13-.19,6.23,0,.9-.08,1.79-.11,2.66h3.48v-1.58c0-1.66,0-3.34,0-5,0-1.33,0-2.66-.05-4,0-1-.11-2-.11-2.94,0-.27,0-.65.46-.68s.52.27.52.6c0,.92,0,1.88,0,2.8,0,1.25,0,2.47,0,3.73,0,1.58-.14,3.13-.11,4.68.08,2.94.24,5.87.35,8.78.08,1.66.16,3.32.27,5,0,.22.16.46.08.63s-.33.68-.54.71-.52-.24-.52-.65c0-1.58.05-3.15,0-4.7-.05-1.79-.22-3.56-.33-5.36a1.09,1.09,0,0,1,0-.3c.11-.63-.27-.79-.76-.76-.92,0-1.82.11-2.83.14Z" style="fill: #fff"/>
      <path d="M81.81,294c-.05-2.2-.05-4.41-.14-6.61-.05-1.41-.24-2.8-.33-4.19s-.24-2.8-.24-4.19a15,15,0,0,0-.79-4.41c-.52-1.74-1.22-3.45-1.85-5.17a4.61,4.61,0,0,1-.38-1,.76.76,0,0,1,.24-.62c.33-.19.52.11.63.38.52,1.39,1,2.77,1.55,4.19.3.82.6,1.63,1,2.69.05-.16.11-.27.14-.38.46-1.5.9-3,1.36-4.51a13,13,0,0,1,.63-1.82.52.52,0,0,1,.57-.38c.33,0,.19.43.14.63-.57,2-1.14,3.92-1.79,5.87a11.25,11.25,0,0,0-.41,4.46c.11,1.22.08,2.47.14,3.72.08,1.85.16,3.7.27,5.57.05,1.31.14,2.64.19,3.94a11.09,11.09,0,0,0,.11,1.66c.11.57-.08.9-.73,1.12A3.63,3.63,0,0,1,81.81,294Z" style="fill: #fff"/>
      <path d="M96.69,290c-.35,1.47-.71,2.94-1,4.43-.08.38-.33.41-.52.35a.59.59,0,0,1-.41-.46c-.14-1.88-.25-3.75-.35-5.63-.11-1.52-.22-3-.35-4.6-.16-1.93-.38-3.86-.49-5.79-.11-1.52-.08-3-.16-4.54-.08-1.85-.19-3.7-.3-5.55,0-.11-.11-.16.14-.38s.35.11.38.22a8.58,8.58,0,0,1,.3,1.63c.11,1.77.11,3.54.22,5.3s.19,3.48.33,5.19.24,3.45.41,5.19.3,3.26.46,4.92c0,.11.11.25.22.49.22-.73.46-1.36.63-2s.33-1.55.52-2.34a.75.75,0,0,1,.33-.38.65.65,0,0,1,.46.16,1.73,1.73,0,0,1,.35.71c.35,1.28.65,2.58,1,3.86a.41.41,0,0,0,.27.3c.08-.6.16-1.17.22-1.77.14-1.17.24-2.34.41-3.48.3-2,.68-4.05,1-6.06s.54-4.24.79-6.36c.11-1.11.16-2.26.25-3.37.05-.52.05-1,.14-1.55,0-.11.3-.33.33-.3.19.11.46.3.46.46a12.09,12.09,0,0,1-.05,2c-.22,2.09-.52,4.19-.79,6.28-.22,1.85-.52,3.67-.76,5.52-.22,1.47-.38,2.94-.54,4.4-.22,1.77-.44,3.54-.63,5.33a13,13,0,0,0-.08,2.07c0,.46-.11.73-.63.71s-.46-.27-.49-.68a12.13,12.13,0,0,0-.46-1.9l-.9-3.78s-.05-.05-.22-.14C97,289,96.8,289.52,96.69,290Z" style="fill: #fff"/>
      <path d="M105.8,276.23a18.43,18.43,0,0,0,2.09-.25c.41-.08.57.08.63.33a.52.52,0,0,1-.49.65l-1.82.08c-.35,0-.49.14-.49.49,0,1.74-.08,3.45-.11,5.19-.05,2.72-.08,5.44-.14,8.16v2.42c0,.33.05.49.52.49a6.79,6.79,0,0,1,1.93.3c.19.05.3.38.44.57-.19.11-.35.33-.54.33a14.56,14.56,0,0,1-1.52-.14l-.46-.08c-1.33-.14-1.31-.14-1.25-1.52.05-1.22.05-2.45.11-3.67s.11-2.47.11-3.7c0-1.85,0-3.67,0-5.52s.16-3.59.19-5.38,0-3.86,0-5.79c0-.3-.14-.68,0-.84a1.41,1.41,0,0,1,.9-.49c1-.05,2,0,2.91-.05.35,0,.65.05.68.46s-.24.6-.65.6h-3Z" style="fill: #fff"/>
      <path d="M118.88,276.74c.49.11.92.16,1.33.24s.79.08.71.52-.44.49-.84.38a6.18,6.18,0,0,0-1.09-.16c0,.14-.05.27-.05.41-.05,1.58-.11,3.18-.19,4.79,0,.71-.11,1.44-.11,2.15,0,1.09.14,2.15.16,3.24,0,1.58,0,3.15-.05,4.73a8.63,8.63,0,0,1-.05,1.44.78.78,0,0,1-.52.49c-.35.11-.46-.19-.44-.52.08-1.31.22-2.64.27-3.94,0-.87-.05-1.74-.05-2.61,0-1.06.05-2.12.05-3.15a39.12,39.12,0,0,1,0-4c.22-1.85,0-3.7.11-5.55s.24-3.48.33-5.22a9.68,9.68,0,0,0-.08-1.25c-.05-.44.19-.63.57-.68s.79-.19,1.22-.22a9.58,9.58,0,0,1,1.77,0,.71.71,0,0,1,.52.52.53.53,0,0,1-.57.57c-.33,0-.65-.05-1-.05-.57,0-1.11,0-1.66,0C119.1,271.6,119,274.16,118.88,276.74Z" style="fill: #fff"/>
      <path d="M127.94,268.94c.27,1.52.52,3.07.73,4.6s.3,3.07.54,4.6c.27,1.69.65,3.34,1,5,.33,1.9.65,3.78,1,5.66.19,1.28.33,2.58.49,3.86.05.49.14,1,.22,1.5,0,.14,0,.33,0,.41a3.28,3.28,0,0,1-.6.41c-.11-.19-.3-.35-.33-.54-.11-.9-.11-1.79-.22-2.69-.16-1.63-.38-3.26-.62-4.89a.76.76,0,0,0-.46-.49,8.24,8.24,0,0,0-4.38-.14c-.05.57-.14,1.17-.16,1.77-.05,1.39-.11,2.77-.14,4.13,0,.68,0,1.39,0,2.07,0,.44-.19.79-.79.63,0-.76,0-1.5,0-2.26.05-1.85.11-3.73.24-5.57.11-1.39.33-2.77.49-4.19.19-1.79.38-3.62.6-5.41s.49-3.32.73-5c.08-.68.08-1.33.19-2a12.6,12.6,0,0,1,.41-2c.05-.22.35-.35.63-.6A5,5,0,0,1,127.94,268.94Zm-.6,1.52a.92.92,0,0,0-.27,0c-.63,4.95-1.25,9.92-1.88,14.76l4.7.22C128.62,280.55,128.54,275.41,127.34,270.46Z" style="fill: #fff"/>
      <path d="M137.46,294.44c-.11.68-2.61.6-3.37.41-.35-.08-.44-.3-.44-.63,0-.65.05-1.33.05-2,.05-3.15.11-6.31.19-9.44,0-1.77.14-3.54.14-5.3,0-2-.08-3.92-.14-5.87,0-1-.08-2.07-.05-3.1,0-.25,0-.65.44-.73s.41.46.41.71c.05,2.53.08,5.06.11,7.59,0,2,.05,4,0,6s-.19,3.78-.19,5.68.11,3.64.14,5.49a1.72,1.72,0,0,1,.05.68C135.75,293.93,137.65,293.41,137.46,294.44Z" style="fill: #fff"/>
      <path d="M143,294.44c-.11.68-2.61.6-3.37.41-.35-.08-.44-.3-.44-.63,0-.65.05-1.33.05-2,.05-3.15.11-6.31.19-9.44,0-1.77.14-3.54.14-5.3,0-2-.08-3.92-.14-5.87,0-1-.08-2.07-.05-3.1,0-.25,0-.65.44-.73s.41.46.41.71c.05,2.53.08,5.06.11,7.59,0,2,.05,4,0,6s-.19,3.78-.19,5.68.11,3.64.14,5.49a1.73,1.73,0,0,1,.05.68C141.27,293.93,143.17,293.41,143,294.44Z" style="fill: #fff"/>
      <path d="M152.63,276.74c.49.11.92.16,1.33.24s.79.08.71.52-.44.49-.84.38a6.18,6.18,0,0,0-1.09-.16c0,.14-.05.27-.05.41-.05,1.58-.11,3.18-.19,4.79,0,.71-.11,1.44-.11,2.15,0,1.09.14,2.15.16,3.24,0,1.58,0,3.15-.05,4.73a8.63,8.63,0,0,1-.05,1.44.77.77,0,0,1-.52.49c-.35.11-.46-.19-.44-.52.08-1.31.22-2.64.27-3.94,0-.87-.05-1.74-.05-2.61,0-1.06.05-2.12.05-3.15a39.12,39.12,0,0,1,0-4c.22-1.85,0-3.7.11-5.55s.24-3.48.33-5.22a9.59,9.59,0,0,0-.08-1.25c-.05-.44.19-.63.57-.68s.79-.19,1.22-.22a9.58,9.58,0,0,1,1.77,0,.71.71,0,0,1,.52.52.53.53,0,0,1-.57.57c-.33,0-.65-.05-1-.05-.57,0-1.11,0-1.66,0C152.85,271.6,152.74,274.16,152.63,276.74Z" style="fill: #fff"/>
      <path d="M158,286.4c-.14-1.77-.16-3.54-.16-5.3s.08-3.32.19-4.95a24.55,24.55,0,0,1,.52-3.15,19.6,19.6,0,0,1,.71-2.83,10.07,10.07,0,0,1,1.22-2.09c.27-.38,1.6-.35,2,0a3.71,3.71,0,0,1,1.36,2.67c.05.9.33,1.79.35,2.72.05,1.47,0,3,0,4.46,0,.9,0,1.79,0,2.72-.08,1.66-.19,3.34-.3,5-.11,1.5-.19,3-.38,4.49-.14,1.14-.44,2.26-.68,3.37a1.74,1.74,0,0,1-1.36,1.47,2.14,2.14,0,0,1-2.07-1,4.26,4.26,0,0,1-.41-1.17c-.24-1.14-.44-2.28-.63-3.43a.1.1,0,0,1,.08,0A27.91,27.91,0,0,1,158,286.4Zm1.58,5.11a6.46,6.46,0,0,0,.54,1.88,1.92,1.92,0,0,0,1.09.71c.16,0,.54-.41.71-.71a10.79,10.79,0,0,0,.41-1.33c.73-2.61.6-5.33.9-8a46.71,46.71,0,0,0,.11-4.79c0-1.52.11-3,.05-4.57,0-1.22-.33-2.42-.38-3.62a2.64,2.64,0,0,0-.87-2,.77.77,0,0,1-.27-.24c-.27-.49-.54-.35-.9,0a5,5,0,0,0-1.36,3,69.92,69.92,0,0,0-1,7.18c-.14,2-.05,4.05-.05,6.06C158.92,287.24,159.22,289.39,159.57,291.51Z" style="fill: #fff"/>
      <path d="M169.06,279.49c.52,1.77,1.06,3.54,1.52,5.3s.87,3.45,1.31,5.17c.33,1.3.65,2.58,1,3.86a3.8,3.8,0,0,0,.08.54c.05.3.05.57-.35.63s-.57-.14-.63-.54a24.55,24.55,0,0,0-.49-2.83c-.44-1.77-1-3.51-1.44-5.25s-1-3.62-1.52-5.41a22,22,0,0,0-1.11-3,2.17,2.17,0,0,0-.08.41c0,1.41,0,2.86,0,4.3,0,1.22,0,2.45,0,3.67,0,.54.11,1.09.11,1.63,0,.84-.11,1.71-.08,2.56,0,1.25.14,2.47.25,3.7,0,.35.08.68-.38.68s-.63-.19-.63-.65c0-1.47,0-2.94-.08-4.38s-.08-2.58-.08-3.89c0-1.66.08-3.29.08-4.95s-.11-3.21-.08-4.81c0-1,.22-2,.24-2.94.08-1.66.05-3.29.08-4.92a2.79,2.79,0,0,1,.24-.6,3.45,3.45,0,0,1,.54.27,1.53,1.53,0,0,1,.41.27l1.77,1.39a3.25,3.25,0,0,1,1,2.09c.52,1.93-.38,3.43-1.6,4.79a.58.58,0,0,1-.19.16l-.57.33C168.6,277.91,168.84,278.7,169.06,279.49Zm.84-6.17a3.83,3.83,0,0,0-2.28-4.08c-.11,2.42-.19,4.84-.3,7.26C168.44,276.31,169.79,274.51,169.9,273.32Z" style="fill: #fff"/>
      <path d="M182.47,276.8c-.05,1.82,0,3.62-.05,5.41,0,1.6-.11,3.24-.14,4.84,0,.71.08,1.44.11,2.15,0,1.74.08,3.48.05,5.22,0,.22-.3.57-.46.57-.33,0-.57-.22-.54-.68.05-1.82.08-3.67.08-5.49,0-2,0-4.08,0-6.09,0-1.47,0-2.94,0-4.4.05-1.66.19-3.32.22-5s-.05-3.21-.11-4.81c0-.38.08-.73.54-.73s.41.38.44.68c.05.63.11,1.28.16,1.9h0C182.63,272.53,182.55,274.68,182.47,276.8Z" style="fill: #fff"/>
      <path d="M188.67,267.85c.63,0,1.25,0,1.88-.05.41,0,.73,0,.73.49s-.35.54-.73.54l-1.88-.08c0,2.75,0,5.41,0,8,0,1.52.08,3,.14,4.57.05,1.25.14,2.53.16,3.78.05,2.37,0,4.76.05,7.15,0,.68.08,1.39.05,2.09a.71.71,0,0,1-.46.57c-.33.11-.57-.11-.57-.52,0-.87,0-1.71,0-2.58,0-2.37.05-4.7,0-7.07,0-2-.19-4.05-.27-6.06-.05-1.14-.11-2.28-.11-3.43,0-1.58,0-3.18.05-4.79a7.86,7.86,0,0,0-.19-1.6c0-.11-.27-.22-.41-.22a13.66,13.66,0,0,0-1.5-.05c-.73,0-.76-.16-.73-.52S187.42,267.85,188.67,267.85Z" style="fill: #fff"/>
      <path d="M201.15,276.23a18.43,18.43,0,0,0,2.09-.25c.41-.08.57.08.63.33a.52.52,0,0,1-.49.65l-1.82.08c-.35,0-.49.14-.49.49,0,1.74-.08,3.45-.11,5.19-.05,2.72-.08,5.44-.14,8.16v2.42c0,.33.05.49.52.49a6.79,6.79,0,0,1,1.93.3c.19.05.3.38.44.57-.19.11-.35.33-.54.33a14.57,14.57,0,0,1-1.52-.14l-.46-.08c-1.33-.14-1.31-.14-1.25-1.52.05-1.22.05-2.45.11-3.67s.11-2.47.11-3.7c0-1.85,0-3.67,0-5.52s.16-3.59.19-5.38,0-3.86,0-5.79c0-.3-.14-.68,0-.84a1.41,1.41,0,0,1,.9-.49c1-.05,2,0,2.91-.05.35,0,.65.05.68.46s-.24.6-.65.6h-3Z" style="fill: #fff"/>
      <path d="M207.19,268.5c.19,1.33.41,2.64.52,4,.22,2.26.3,4.51.52,6.77.19,1.93.46,3.83.68,5.76.16,1.33.24,2.67.38,4,.05.54.16,1.06.22,1.58a.53.53,0,0,0,.22,0c.22-1.5.41-3,.63-4.51s.41-2.77.6-4.16c.24-1.6.49-3.24.71-4.84s.44-3,.63-4.46c.16-1.33.27-2.67.41-4,0-.08,0-.19,0-.22.14-.19-.05-.49.44-.52s.35.38.35.57c-.08,1-.16,2-.3,2.94-.33,2.53-.73,5.08-1.06,7.64-.46,3.37-.9,6.77-1.33,10.17-.22,1.71-.44,3.43-.6,5.11a.76.76,0,0,1-.79.76c-.38,0-.46-.35-.49-.73-.16-2.34-.33-4.65-.57-7-.19-1.74-.49-3.48-.68-5.25s-.24-3.37-.35-5.06c0-.24,0-.49-.05-.73l-.65-6.2c-.05-.52-.22-1-.3-1.55a1.17,1.17,0,0,1,.11-.52A.57.57,0,0,1,207.19,268.5Z" style="fill: #fff"/>
      <path d="M216.57,276.23a18.43,18.43,0,0,0,2.09-.25c.41-.08.57.08.63.33a.52.52,0,0,1-.49.65L217,277c-.35,0-.49.14-.49.49,0,1.74-.08,3.45-.11,5.19-.05,2.72-.08,5.44-.14,8.16v2.42c0,.33.05.49.52.49a6.79,6.79,0,0,1,1.93.3c.19.05.3.38.44.57-.19.11-.35.33-.54.33a14.57,14.57,0,0,1-1.52-.14l-.46-.08c-1.33-.14-1.31-.14-1.25-1.52.05-1.22.05-2.45.11-3.67s.11-2.47.11-3.7c0-1.85,0-3.67,0-5.52s.16-3.59.19-5.38,0-3.86,0-5.79c0-.3-.14-.68,0-.84a1.41,1.41,0,0,1,.9-.49c1-.05,2,0,2.91-.05.35,0,.65.05.68.46s-.24.6-.65.6h-3Z" style="fill: #fff"/>
      <path d="M224.35,279.49c.52,1.77,1.06,3.54,1.52,5.3s.87,3.45,1.31,5.17c.33,1.3.65,2.58,1,3.86a3.8,3.8,0,0,0,.08.54c.05.3.05.57-.35.63s-.57-.14-.63-.54a24.55,24.55,0,0,0-.49-2.83c-.44-1.77-1-3.51-1.44-5.25s-1-3.62-1.52-5.41a22,22,0,0,0-1.11-3,2.17,2.17,0,0,0-.08.41c0,1.41,0,2.86,0,4.3,0,1.22,0,2.45,0,3.67,0,.54.11,1.09.11,1.63,0,.84-.11,1.71-.08,2.56,0,1.25.14,2.47.25,3.7,0,.35.08.68-.38.68s-.63-.19-.63-.65c0-1.47,0-2.94-.08-4.38s-.08-2.58-.08-3.89c0-1.66.08-3.29.08-4.95s-.11-3.21-.08-4.81c0-1,.22-2,.24-2.94.08-1.66.05-3.29.08-4.92a2.79,2.79,0,0,1,.24-.6,3.45,3.45,0,0,1,.54.27,1.53,1.53,0,0,1,.41.27l1.77,1.39a3.25,3.25,0,0,1,1,2.09c.52,1.93-.38,3.43-1.6,4.79a.58.58,0,0,1-.19.16l-.57.33C223.89,277.91,224.13,278.7,224.35,279.49Zm.84-6.17a3.83,3.83,0,0,0-2.28-4.08c-.11,2.42-.19,4.84-.3,7.26C223.73,276.31,225.08,274.51,225.19,273.32Z" style="fill: #fff"/>
      <path d="M233.65,294c-.05-2.2-.05-4.41-.14-6.61-.05-1.41-.24-2.8-.33-4.19s-.24-2.8-.24-4.19a15,15,0,0,0-.79-4.41c-.52-1.74-1.22-3.45-1.85-5.17a4.61,4.61,0,0,1-.38-1,.76.76,0,0,1,.24-.62c.33-.19.52.11.63.38.52,1.39,1,2.77,1.55,4.19.3.82.6,1.63,1,2.69.05-.16.11-.27.14-.38.46-1.5.9-3,1.36-4.51a13,13,0,0,1,.63-1.82A.52.52,0,0,1,236,268c.33,0,.19.43.14.63-.57,2-1.14,3.92-1.79,5.87a11.25,11.25,0,0,0-.41,4.46c.11,1.22.08,2.47.14,3.72.08,1.85.16,3.7.27,5.57.05,1.31.14,2.64.19,3.94a11.09,11.09,0,0,0,.11,1.66c.11.57-.08.9-.73,1.12A3.63,3.63,0,0,1,233.65,294Z" style="fill: #fff"/>
      <path d="M248.66,267.85c.63,0,1.25,0,1.88-.05.41,0,.73,0,.73.49s-.35.54-.73.54l-1.88-.08c0,2.75,0,5.41,0,8,0,1.52.08,3,.14,4.57.05,1.25.14,2.53.16,3.78.05,2.37,0,4.76.05,7.15,0,.68.08,1.39.05,2.09a.71.71,0,0,1-.46.57c-.33.11-.57-.11-.57-.52,0-.87,0-1.71,0-2.58,0-2.37.05-4.7,0-7.07,0-2-.19-4.05-.27-6.06-.05-1.14-.11-2.28-.11-3.43,0-1.58,0-3.18.05-4.79a7.86,7.86,0,0,0-.19-1.6c0-.11-.27-.22-.41-.22a13.66,13.66,0,0,0-1.5-.05c-.73,0-.76-.16-.73-.52S247.41,267.85,248.66,267.85Z" style="fill: #fff"/>
      <path d="M254.13,276.8c-.05,1.82,0,3.62-.05,5.41,0,1.6-.11,3.24-.14,4.84,0,.71.08,1.44.11,2.15,0,1.74.08,3.48.05,5.22,0,.22-.3.57-.46.57-.33,0-.57-.22-.54-.68.05-1.82.08-3.67.08-5.49,0-2,0-4.08,0-6.09,0-1.47,0-2.94,0-4.4.05-1.66.19-3.32.22-5s-.05-3.21-.11-4.81c0-.38.08-.73.54-.73s.41.38.44.68c.05.63.11,1.28.16,1.9h0C254.29,272.53,254.21,274.68,254.13,276.8Z" style="fill: #fff"/>
      <path d="M262,269.37c.11-.33.19-.71.33-1s.35-.49.46-.46a1,1,0,0,1,.65.52,3.7,3.7,0,0,1,.19,1.22c0,1.06-.05,2.15,0,3.21.05,2,.14,4.05.25,6.06.08,1.79.16,3.56.3,5.33.11,1.52.3,3,.35,4.54s.05,3.34.05,5a1.29,1.29,0,0,0,0,.46.5.5,0,0,1-.41.73c-.35,0-.6-.25-.57-.68a19.08,19.08,0,0,0,.14-2.18c0-1.71-.14-3.45-.22-5.17,0-.54-.08-1.06-.11-1.6a16.05,16.05,0,0,1,0-2,11.8,11.8,0,0,0-.11-2c-.05-.76-.16-1.5-.22-2.23-.11-1.25-.19-2.53-.27-3.81s-.08-2.53-.11-3.81c0-.27,0-.57.05-.87-.08,0-.16,0-.22,0-.33,1-.68,2-1,3s-.38,1.9-.63,2.86a.84.84,0,0,1-.76.76c-.49.05-.6-.3-.68-.71-.16-.87-.35-1.77-.57-2.64a10.59,10.59,0,0,0-.44-1.2c-.22-.73-.41-1.52-.63-2.26a.48.48,0,0,0-.33-.33v2.45c0,1.41.05,2.8.05,4.21,0,2.5,0,5,0,7.53,0,1.74,0,3.45.08,5.19.05,1.36.22,2.69.27,4.05a.86.86,0,0,1-.52.63c-.35.11-.52-.16-.52-.52,0-2-.05-3.89-.08-5.85,0-1.3-.08-2.64-.08-3.94,0-1.66.05-3.29.05-4.92,0-2.17-.11-4.38-.14-6.55,0-.92.05-1.82,0-2.75,0-.41-.14-.79-.11-1.17s.16-.62.35-.71.65-.19.82.27c.46,1.36,1,2.72,1.44,4.05.22.65.41,1.3.57,1.93.14.43.22.87.35,1.44C260.79,273.43,261.39,271.41,262,269.37Z" style="fill: #fff"/>
      <path d="M268,276.23a18.43,18.43,0,0,0,2.09-.25c.41-.08.57.08.63.33a.52.52,0,0,1-.49.65l-1.82.08c-.35,0-.49.14-.49.49,0,1.74-.08,3.45-.11,5.19-.05,2.72-.08,5.44-.14,8.16v2.42c0,.33.05.49.52.49a6.79,6.79,0,0,1,1.93.3c.19.05.3.38.44.57-.19.11-.35.33-.54.33a14.56,14.56,0,0,1-1.52-.14l-.46-.08c-1.33-.14-1.31-.14-1.25-1.52.05-1.22.05-2.45.11-3.67s.11-2.47.11-3.7c0-1.85,0-3.67,0-5.52s.16-3.59.19-5.38,0-3.86,0-5.79c0-.3-.14-.68,0-.84a1.41,1.41,0,0,1,.9-.49c1-.05,2,0,2.91-.05.35,0,.65.05.68.46s-.24.6-.65.6h-3Z" style="fill: #fff"/>
    </g>
  </g>
</svg>
