<svg id="Layer_1" data-name="Layer 1" xmlns="http://www.w3.org/2000/svg" xmlns:xlink="http://www.w3.org/1999/xlink" width="1280" height="1024" viewBox="0 0 1280 1024">
  <defs>
    <radialGradient id="radial-gradient" cx="621.17" cy="495.69" r="1124.53" gradientTransform="translate(0 248.19) scale(1 0.5)" gradientUnits="userSpaceOnUse">
      <stop offset="0" stop-color="#922bb4"/>
      <stop offset="1" stop-color="#2444e7"/>
    </radialGradient>
  </defs>
  <title>cloud2Artboard 1</title>
  <path d="M1285.07,545.09a122.71,122.71,0,0,0-244-18.7A53,53,0,0,0,969.52,596a38.12,38.12,0,0,0-37.87,18.48A38.5,38.5,0,0,0,873,601.87a65.08,65.08,0,0,0-126.87,8,55.39,55.39,0,0,0-58.68,18.92,33.69,33.69,0,0,0-55.77-10.44,33.73,33.73,0,0,0-63.87,6.3c-.26,0-.52,0-.79,0a33.65,33.65,0,0,0-26.51,12.91,33.71,33.71,0,0,0-59.45,28.1c-.27,0-.53,0-.81,0a19.23,19.23,0,0,0-15.54,7.9,28.9,28.9,0,0,0-44.12-8.27,28.82,28.82,0,0,0-39.56-16.07L378.69,648a45.8,45.8,0,0,0-35.84-39.24c0-.34.05-.68.05-1a45.8,45.8,0,0,0-41-45.54,45.56,45.56,0,0,0-49.3-60.07,45.55,45.55,0,0,0-12.44-42.61,45.77,45.77,0,1,0-69.39-59.19A21.59,21.59,0,0,0,145.84,399a21.61,21.61,0,0,0-27.38-11.58A21.66,21.66,0,0,0,86.9,371.69a21.67,21.67,0,0,0-25.66-16.52,33.72,33.72,0,1,0-63,24.05V1044H1280.46V578.38A122.71,122.71,0,0,0,1285.07,545.09Zm-221.91,72.18c.78,1.07,1.58,2.12,2.4,3.17l-1.3.47C1063.94,619.68,1063.56,618.48,1063.16,617.28Z" style="fill: url(#radial-gradient)"/>
</svg>
