<svg xmlns="http://www.w3.org/2000/svg" width="1878" height="834" viewBox="0 0 1878 834">
  <title>mountainArtboard 1</title>
  <g id="Layer_2" data-name="Layer 2">
    <g>
      <path d="M-27.19,240.61c9.53-2,22.15-4.67,36.34-7.59L3.5,801.5h1874V283.89l61,27.61v581h-2082l52-509,46-139S-38.54,243-27.19,240.61Z" style="fill: #93278f"/>
      <path d="M1877.5,654.5v147H3.5L9.15,233c58.33-12,143.13-28.78,148.35-25.52,8,5,181,23,181,23l15,14,32,19,63,54,59,39,61,30,22,21,39,9,35-9,39-17,100,17,66,9,70-9,114-17,34-4,59,30,61-9,124-46,150-50s86-29,93-30,68-15,68-15l95-8c15,8,106,10,106,10l34,15.39V654.5Z" style="fill: #93278f"/>
      <path d="M1877.5,181.5V283.89l-34-15.39s-91-2-106-10l-95,8s-61,14-68,15-93,30-93,30l-150,50-124,46-61,9-59-30-34,4-114,17-70,9-66-9-100-17-39,17-35,9-39-9-22-21-61-30-59-39-63-54-32-19-15-14s-173-18-181-23C152.28,204.24,67.48,221,9.15,233L10.4,108l16.1,9.54,16,3,6-3-6-8,4-1,5-2h16a92,92,0,0,0,9-3c2-1,6,1,8,2s6,7,6,7l14,8s44,8,57,9,25-17,30-22-6-12-6-12l-2-7,23,19a13.58,13.58,0,0,0,8-9c2-7-8-16-8-16s41,21,43,15-15-25-17-29-14-11-19-15c-2.79-2.23-8.37-10-12.77-16.54l.77-.46,23,13,15,8,7,5,10,3,8,7h9l23,13L298,85l38.5,40.53,1.08-3.79,7.92,10.79s7,12,8,14,6,23,6,23l15,15,30,25h29l28,14,22,15,7,6s21,11,22,13,6,14,6,14l29,10,43-5,17-7-8-4-20,2-11-1-4-1-3.78-6H580.5l15-3,35,3,23,10,8-3,27,7,22-3,3-2,35-10,10-5,25-9,3-2,37,1,15-8,21-7,11-6,64.25-28.45L928.5,205.5l-13,5-46,20,20-6,21-5,24,5,18-10,34-19,24-8,9-7,28,8,16,2,29,5h15a46.75,46.75,0,0,0,6,5c3,2,0,7,0,7l8,7,28-15v-7l-1-10,3-12,19-19,16-7v-5l-10,4-23,8,27-15,9-13,4-5,8-14-3-2-13,5-8,4-22,8-20,17h-10l4-7,13-13,1-2-1-3-6,1-10,8,1-4,4-9,15-7,4-6,1-3,2-10,13-12,5-15-13,13-18,7-16,17,4-8,11-13,4-7,8-14-30,9,13-11s1-2.25,2.33-5h9.67l15-19,29-10h12l13,7,13,12,17,4,11,1s21,4,21,7,4,7,4,7l6,16,45,22,34,1h26l9-4,20,12,37,10,17,5,23,3,33-11,15-15,17-3,25-4,17.89,2.28L1594.5,94.5l-36,10-27,16s-12,5-16,7-17,5-17,5l-41-14-16-5-31-13h-93l14,14s7,3,10,4,18,2,18,2l36,12,17,6,25,20,20,4,63,11,50-9s84-26,86-27,35-10,35-10L1700,86.17l29.55,2.33,80,17Zm-595-85,20-9-24-15-6-17-7-3-9-5h-35l-20,7-6,15,8,14,15,11-3,11,1,23,19-8Zm-38,68,24-26-11,5-30,22-53,52-28,27,58-23,3-11Z" style="fill: #c41b8b"/>
      <polygon points="1695.5 77.5 1700.5 83.5 1699.95 86.17 1691.5 85.5 1668.5 79.5 1635.5 89.5 1606.39 85.78 1624.5 72.5 1671.5 72.5 1695.5 77.5" style="fill: #c55b9f"/>
      <path d="M1700,86.17l-8.45,41.33s-33,9-35,10-86,27-86,27l-50,9-63-11-20-4-25-20-17-6-36-12s-15-1-18-2-10-4-10-4l-14-14h93l31,13,16,5,41,14s13-3,17-5,16-7,16-7l27-16,36-10,11.89-8.72,29.11,3.72,33-10,23,6Z" style="fill: #c55b9f"/>
      <polygon points="1302.5 87.5 1282.5 96.5 1235.5 120.5 1216.5 128.5 1215.5 105.5 1218.5 94.5 1203.5 83.5 1195.5 69.5 1201.5 54.5 1221.5 47.5 1256.5 47.5 1265.5 52.5 1272.5 55.5 1278.5 72.5 1302.5 87.5" style="fill: #c55b9f"/>
      <polygon points="1268.5 138.5 1244.5 164.5 1207.5 210.5 1204.5 221.5 1146.5 244.5 1174.5 217.5 1227.5 165.5 1257.5 143.5 1268.5 138.5" style="fill: #c55b9f"/>
      <path d="M1201.5,104.5l-8,14-4,5-9,13-27,15,23-8,10-4v5l-16,7-19,19-3,12,1,10v7l-28,15-8-7s3-5,0-7a46.75,46.75,0,0,1-6-5h-15l-29-5-16-2-28-8-9,7-24,8-34,19-18,10-24-5-21,5-20,6,46-20,13-5,6.25-11.45,5.75-2.55,9-12,14-3,16-5,7-11,37-28,42-20,6-10,14-10,12-29,10-6,18-10,7-5h4.33c-1.31,2.75-2.33,5-2.33,5l-13,11,30-9-8,14-4,7-11,13-4,8,16-17,18-7,13-13-5,15-13,12-2,10-1,3-4,6-15,7-4,9-1,4,10-8,6-1,1,3-1,2-13,13-4,7h10l20-17,22-8,8-4,13-5Z" style="fill: #c55b9f"/>
      <path d="M607.5,269.5l-17,7-43,5-29-10s-5-12-6-14-22-13-22-13l-7-6-22-15-28-14h-29l-30-25-15-15s-5-21-6-23-8-14-8-14l-7.92-10.79.92-3.21-11-13-4-10-5-6,.5-11v0h7.5l33,38s18,19,20,21,28,33,28,33l22,10,12,7,14,11,15,14,6,4,20,7,4,3,19,6,4,6,16,17,10,4h11.22l3.78,6,4,1,11,1,20-2Z" style="fill: #c55b9f"/>
      <polygon points="337.58 121.71 336.5 125.5 298 84.97 316.5 78.5 319 78.5 319 78.52 318.5 89.5 323.5 95.5 327.5 105.5 338.5 118.5 337.58 121.71" style="fill: #c55b9f"/>
      <path d="M232.5,68.5c2,4,19,23,17,29s-43-15-43-15,10,9,8,16a13.58,13.58,0,0,1-8,9l-23-19,2,7s11,7,6,12-17,23-30,22-57-9-57-9l-14-8s-4-6-6-7-6-3-8-2a92,92,0,0,1-9,3h-16l-5,2-4,1,6,8-6,3-16-3L10.4,108l.1-10.46,22,11s11-5,13-6,11,0,11,0l15-2,5-3,16-5,27.06-17.8c-3,9.08-6.16,19.25-5.06,19.8,1.54.77,15-15.75,21.53-24.7l6.47,2.7,14-17h13l10-6L200.73,37c4.4,6.49,10,14.31,12.77,16.54C218.5,57.5,230.5,64.5,232.5,68.5Z" style="fill: #c55b9f"/>
      <path d="M130.5,67.5,136,69.8c-6.51,9-20,25.47-21.53,24.7-1.1-.55,2-10.72,5.06-19.8Z" style="fill: #c55b9f"/>
      <path d="M10.4,108,9.15,233c-14.19,2.92-26.81,5.57-36.34,7.59L-13.5,102.5l13-1Z" style="fill: #c41b8b"/>
    </g>
  </g>
</svg>
