<svg id="Layer_1" data-name="Layer 1" xmlns="http://www.w3.org/2000/svg" xmlns:xlink="http://www.w3.org/1999/xlink" width="922" height="916" viewBox="0 0 922 916">
  <defs>
    <clipPath id="clip-path">
      <circle cx="463.5" cy="455.5" r="444" style="fill: none"/>
    </clipPath>
    <clipPath id="clip-path-2">
      <rect x="326.83" y="357.16" width="102.97" height="72.52" rx="12.01" ry="12.01" transform="translate(13.13 -12.22) rotate(1.88)" style="fill: none"/>
    </clipPath>
    <clipPath id="clip-path-3">
      <rect x="509.36" y="363.16" width="102.97" height="72.52" rx="12.01" ry="12.01" transform="translate(13.43 -18.22) rotate(1.88)" style="fill: none"/>
    </clipPath>
  </defs>
  <title>stacey-lifetimeArtboard 1</title>
  <g style="clip-path: url(#clip-path)">
    <g>
      <circle cx="463.5" cy="455.5" r="444" style="fill: #134461"/>
      <g>
        <polygon points="599.2 732.89 306.62 786.41 306.62 641.3 599.2 641.3 599.2 732.89" style="fill: #3a82b0"/>
        <polygon points="599.2 905.72 306.62 905.72 306.62 786.41 599.2 732.89 599.2 905.72" style="fill: #4190c3"/>
      </g>
      <path d="M304,378.39c-83-102-79.07,112.06-5.35,119.56Z" style="fill: #3a82b0"/>
      <path d="M615.84,387c88.45-97.28,72.77,116.25-1.25,119.67Z" style="fill: #3a82b0"/>
      <g>
        <path d="M336.36,516.54s-3.62,84.55-18.72,88c-10,2.27-21.87-140.09-28.85-237.58l3.77-136.67c2.06-74.69,64.86-134.12,139.55-132.06l71.3,2c74.68,2.06,134.11,64.86,132,139.55L632.11,361C575.53,779.59,581.45,541,581.45,541l-121.36-9.78Z" style="fill: #479fd7"/>
        <path d="M317.64,604.53c15.1-3.45,18.72-88,18.72-88l123.72,14.71L581.45,541S575.53,779.59,632.11,361l-2.27,82.39-2.18,79.11L612.31,659s-1.86,63.67-138.73,59.89l-45.78-1.26c-128.63-3.55-135.23-67.45-135.23-67.45L284.77,513l2.18-79.11,1.85-67C295.77,464.44,307.68,606.81,317.64,604.53Z" style="fill: #134461"/>
      </g>
      <ellipse cx="374.96" cy="392.86" rx="30.62" ry="45.47" transform="translate(-28.09 756.85) rotate(-88.42)" style="fill: #4190c3"/>
      <ellipse cx="554.36" cy="399.1" rx="30.62" ry="45.47" transform="translate(140.13 942.25) rotate(-88.42)" style="fill: #4190c3"/>
      <path d="M586.79,342.43c-13.92-12.74-67.87-16.8-91,9.24,0,1.3-4.2,157.43-4.2,157.43s-36.4,17.65-87.09-13.59" style="fill: none;stroke: #053650;stroke-linecap: round;stroke-miterlimit: 10;stroke-width: 12.867536412719005px"/>
      <path d="M426.32,345s-31.26-37.61-76.91-11.78" style="fill: none;stroke: #053650;stroke-linecap: round;stroke-miterlimit: 10;stroke-width: 12.867536412719005px"/>
      <g id="_Group_" data-name="&lt;Group&gt;">
        <path d="M569,381.28a66.16,66.16,0,0,1,12.63,8.15,36.14,36.14,0,0,1-13.46,8.27,21.63,21.63,0,0,0,2-8.61A21.87,21.87,0,0,0,569,381.28Z" style="fill: #053650"/>
        <path d="M569,381.28a21.87,21.87,0,0,1,1.2,7.81,21.63,21.63,0,0,1-2,8.61c-12.18,4.45-26.89,4.11-38.22,2.78a21.84,21.84,0,0,1-3.55-12.6,22.4,22.4,0,0,1,.6-4.57C543.48,372.74,559,376.38,569,381.28Z" style="fill: #053650"/>
        <path d="M527,383.31a22.4,22.4,0,0,0-.6,4.57,21.84,21.84,0,0,0,3.55,12.6,133.09,133.09,0,0,1-18-3.34A65.34,65.34,0,0,1,527,383.31Z" style="fill: #053650"/>
        <path d="M407.44,380A57.91,57.91,0,0,1,418,389.25c-10.88,7.75-22.74,9.77-33.84,8.94l0-.24,1.13.06A21.91,21.91,0,0,0,407.44,380Z" style="fill: #053650"/>
        <path d="M407.44,380a21.91,21.91,0,0,1-22.16,18l-1.13-.06A21.91,21.91,0,0,1,364,375.51a20.89,20.89,0,0,1,.72-4.94C383.27,366.66,398.17,373.52,407.44,380Z" style="fill: #053650"/>
        <path d="M384.14,397.95l0,.24c-23.73-1.76-44-16.57-44-16.57,8.73-6,17-9.44,24.6-11a20.89,20.89,0,0,0-.72,4.94A21.91,21.91,0,0,0,384.14,397.95Z" style="fill: #053650"/>
      </g>
      <g>
        <path d="M368.32,540.42l178.44,20.37a147.27,147.27,0,0,1-14.3,13,707.9,707.9,0,0,1-151.31-13.62A201.6,201.6,0,0,1,368.32,540.42Z" style="fill: #fff"/>
        <path d="M532.47,573.76A163.5,163.5,0,0,1,501,593.82L398.88,580.15a142.19,142.19,0,0,1-17.73-20A707.9,707.9,0,0,0,532.47,573.76Z" style="fill: #00172e"/>
        <path d="M501,593.82c-28.45,13.61-66.34,19.45-102.15-13.67Z" style="fill: #fff"/>
      </g>
      <rect x="326.83" y="357.16" width="102.97" height="72.52" rx="12.01" ry="12.01" transform="translate(13.13 -12.22) rotate(1.88)" style="fill: #fff;opacity: 0.15"/>
      <rect x="509.36" y="363.16" width="102.97" height="72.52" rx="12.01" ry="12.01" transform="translate(13.43 -18.22) rotate(1.88)" style="fill: #fff;opacity: 0.15"/>
      <g style="opacity: 0.39">
        <g style="clip-path: url(#clip-path-2)">
          <g>
            <rect x="365.65" y="337.07" width="8.36" height="122.24" transform="translate(-98.58 122.65) rotate(-16.65)" style="fill: #fff;opacity: 0.16"/>
            <rect x="382.76" y="335" width="27.73" height="122.24" transform="translate(-96.86 130.24) rotate(-16.65)" style="fill: #fff;opacity: 0.16"/>
          </g>
        </g>
      </g>
      <g style="opacity: 0.39">
        <g style="clip-path: url(#clip-path-3)">
          <g>
            <rect x="552.69" y="337.07" width="8.36" height="122.24" transform="translate(-90.74 176.24) rotate(-16.65)" style="fill: #fff;opacity: 0.16"/>
            <rect x="569.8" y="335" width="27.73" height="122.24" transform="matrix(0.96, -0.29, 0.29, 0.96, -89.02, 183.83)" style="fill: #fff;opacity: 0.16"/>
          </g>
        </g>
      </g>
      <rect x="326.83" y="357.16" width="102.97" height="72.52" rx="12.01" ry="12.01" transform="translate(13.13 -12.22) rotate(1.88)" style="fill: none;stroke: #134461;stroke-miterlimit: 10;stroke-width: 3.8602609238157015px"/>
      <rect x="509.36" y="363.16" width="102.97" height="72.52" rx="12.01" ry="12.01" transform="translate(13.43 -18.22) rotate(1.88)" style="fill: none;stroke: #134461;stroke-miterlimit: 10;stroke-width: 3.8602609238157015px"/>
    </g>
  </g>
</svg>
