<svg id="Layer_1" data-name="Layer 1" xmlns="http://www.w3.org/2000/svg" xmlns:xlink="http://www.w3.org/1999/xlink" width="1920" height="1080" viewBox="0 0 1920 1080">
  <defs>
    <symbol id="star" data-name="star" viewBox="0 0 4.64 4.82">
      <polygon points="1.84 0 2.87 1.53 4.64 1.03 3.5 2.48 4.52 4.01 2.8 3.37 1.66 4.82 1.73 2.98 0 2.34 1.77 1.84 1.84 0" style="fill: #fff"/>
    </symbol>
  </defs>
  <title>starsArtboard 1</title>
  <g style="opacity: 0.5">
    <use width="4.64" height="4.82" transform="translate(597.61 547.76) rotate(18.6)" xlink:href="#star"/>
    <use width="4.64" height="4.82" transform="translate(597.06 529.01) rotate(17.56)" xlink:href="#star"/>
    <use width="4.64" height="4.82" transform="translate(459.94 410.05) rotate(18.88)" xlink:href="#star"/>
    <use width="4.64" height="4.82" transform="translate(444.89 484.7) rotate(4.75)" xlink:href="#star"/>
    <use width="4.64" height="4.82" transform="translate(300.66 479.33) rotate(-15.38)" xlink:href="#star"/>
    <use width="4.64" height="4.82" transform="translate(261.47 322.49) rotate(16.33)" xlink:href="#star"/>
    <use width="4.64" height="4.82" transform="translate(871.93 406.38)" xlink:href="#star"/>
    <use width="4.64" height="4.82" transform="translate(849.38 330.85)" xlink:href="#star"/>
    <use width="4.64" height="4.82" transform="translate(777.91 248.2)" xlink:href="#star"/>
    <use width="4.64" height="4.82" transform="translate(602.63 803.59) rotate(-0.57)" xlink:href="#star"/>
    <use width="4.64" height="4.82" transform="translate(520.58 477.31) rotate(19.42)" xlink:href="#star"/>
    <use width="4.64" height="4.82" transform="translate(490.3 396.79) rotate(19.1)" xlink:href="#star"/>
    <use width="4.64" height="4.82" transform="translate(475.55 223.16) rotate(7.35)" xlink:href="#star"/>
    <use width="4.64" height="4.82" transform="translate(189.79 431.46) rotate(-8.25)" xlink:href="#star"/>
    <use width="4.64" height="4.82" transform="translate(192.66 361.04) rotate(8.58)" xlink:href="#star"/>
    <use width="4.64" height="4.82" transform="matrix(0.99, 0.14, -0.14, 0.99, 211.57, 364.91)" xlink:href="#star"/>
    <use width="4.64" height="4.82" transform="translate(20.92 302.91) rotate(7.26)" xlink:href="#star"/>
    <use width="4.64" height="4.82" transform="translate(8.73 532.07) rotate(-19.68)" xlink:href="#star"/>
    <use width="4.64" height="4.82" transform="translate(127.34 425.66) rotate(-9.75)" xlink:href="#star"/>
    <use width="4.64" height="4.82" transform="translate(278.47 553.65) rotate(0.91)" xlink:href="#star"/>
    <use width="4.64" height="4.82" transform="translate(64.39 515.83) rotate(-18.25)" xlink:href="#star"/>
    <use width="4.64" height="4.82" transform="translate(188.08 649.12) rotate(29.14)" xlink:href="#star"/>
    <use width="4.64" height="4.82" transform="translate(295.3 707.43) rotate(67.98)" xlink:href="#star"/>
    <use width="4.64" height="4.82" transform="translate(483.39 932.26) rotate(-0.3)" xlink:href="#star"/>
    <use width="4.64" height="4.82" transform="translate(70.58 420.88) rotate(-11.54)" xlink:href="#star"/>
    <use width="4.64" height="4.82" transform="translate(132.38 526.15) rotate(-15.92)" xlink:href="#star"/>
    <use width="4.64" height="4.82" transform="translate(-2.02 561.92) rotate(-16.17)" xlink:href="#star"/>
    <use width="4.64" height="4.82" transform="translate(93.64 693.8) rotate(6.99)" xlink:href="#star"/>
    <use width="4.64" height="4.82" transform="translate(448.17 691.22) rotate(70.98)" xlink:href="#star"/>
    <use width="4.64" height="4.82" transform="translate(545.01 385.25) rotate(14.84)" xlink:href="#star"/>
    <use width="4.64" height="4.82" transform="translate(625.53 376.63) rotate(6.51)" xlink:href="#star"/>
    <use width="4.64" height="4.82" transform="translate(683.61 511.32) rotate(6.91)" xlink:href="#star"/>
    <use width="4.64" height="4.82" transform="translate(345.63 205.09) rotate(11.73)" xlink:href="#star"/>
    <use width="4.64" height="4.82" transform="translate(142.94 235.13) rotate(16.14)" xlink:href="#star"/>
    <use width="4.64" height="4.82" transform="translate(241.05 137.54) rotate(5.59)" xlink:href="#star"/>
    <use width="4.64" height="4.82" transform="translate(405.88 166.77) rotate(4.76)" xlink:href="#star"/>
    <use width="4.64" height="4.82" transform="translate(312.71 570.16) rotate(12.29)" xlink:href="#star"/>
    <use width="4.64" height="4.82" transform="translate(232.43 407.16) rotate(-2.06)" xlink:href="#star"/>
    <use width="4.64" height="4.82" transform="translate(231.41 747.37) rotate(51.25)" xlink:href="#star"/>
    <use width="4.64" height="4.82" transform="translate(67.28 750.93) rotate(8.57)" xlink:href="#star"/>
    <use width="4.64" height="4.82" transform="translate(121.05 577.47) rotate(-12.9)" xlink:href="#star"/>
    <use width="4.64" height="4.82" transform="translate(215.33 776.75) rotate(40.99)" xlink:href="#star"/>
    <use width="4.64" height="4.82" transform="translate(165.42 740.13) rotate(28.69)" xlink:href="#star"/>
    <use width="4.64" height="4.82" transform="translate(149.4 716.34) rotate(22.43)" xlink:href="#star"/>
    <use width="4.64" height="4.82" transform="translate(186.19 688.39) rotate(37.66)" xlink:href="#star"/>
    <use width="4.64" height="4.82" transform="translate(318.89 671.79) rotate(60.71)" xlink:href="#star"/>
    <use width="4.64" height="4.82" transform="translate(524.25 674.27) rotate(58.75)" xlink:href="#star"/>
    <use width="4.64" height="4.82" transform="translate(581.52 650.29) rotate(31.12)" xlink:href="#star"/>
    <use width="4.64" height="4.82" transform="translate(549.01 219.21) rotate(1.96)" xlink:href="#star"/>
    <use width="4.64" height="4.82" transform="translate(523.87 205.59) rotate(2.04)" xlink:href="#star"/>
    <use width="4.64" height="4.82" transform="translate(438.14 227.46) rotate(10.22)" xlink:href="#star"/>
    <use width="4.64" height="4.82" transform="translate(668.37 492.98) rotate(8.2)" xlink:href="#star"/>
    <use width="4.64" height="4.82" transform="translate(713.55 571.99) rotate(5.14)" xlink:href="#star"/>
    <use width="4.64" height="4.82" transform="translate(741.36 923.59) rotate(-0.33)" xlink:href="#star"/>
    <use width="4.64" height="4.82" transform="translate(665.63 735.91) rotate(3.17)" xlink:href="#star"/>
    <use width="4.64" height="4.82" transform="translate(101.78 638.01) rotate(-2.25)" xlink:href="#star"/>
  </g>
  <g style="opacity: 0.5">
    <use width="4.64" height="4.82" transform="translate(1896.79 431.46) rotate(-8.25)" xlink:href="#star"/>
    <use width="4.64" height="4.82" transform="translate(1899.66 361.04) rotate(8.58)" xlink:href="#star"/>
    <use width="4.64" height="4.82" transform="matrix(0.99, 0.14, -0.14, 0.99, 1918.57, 364.91)" xlink:href="#star"/>
    <use width="4.64" height="4.82" transform="translate(1605.4 319.37) rotate(-2.7)" xlink:href="#star"/>
    <use width="4.64" height="4.82" transform="translate(1298.25 257.97) rotate(2.11)" xlink:href="#star"/>
    <use width="4.64" height="4.82" transform="translate(1130.59 305.55) rotate(9.97)" xlink:href="#star"/>
    <use width="4.64" height="4.82" transform="translate(1002.2 242.95) rotate(-0.81)" xlink:href="#star"/>
    <use width="4.64" height="4.82" transform="translate(1042.42 232.28) rotate(-0.26)" xlink:href="#star"/>
    <use width="4.64" height="4.82" transform="translate(1698.81 275.28) rotate(8.89)" xlink:href="#star"/>
    <use width="4.64" height="4.82" transform="translate(1727.92 302.91) rotate(7.26)" xlink:href="#star"/>
    <use width="4.64" height="4.82" transform="translate(1715.73 532.07) rotate(-19.68)" xlink:href="#star"/>
    <use width="4.64" height="4.82" transform="translate(1834.34 425.66) rotate(-9.75)" xlink:href="#star"/>
    <use width="4.64" height="4.82" transform="translate(1771.39 515.83) rotate(-18.25)" xlink:href="#star"/>
    <use width="4.64" height="4.82" transform="translate(1895.08 649.12) rotate(29.14)" xlink:href="#star"/>
    <use width="4.64" height="4.82" transform="translate(1777.58 420.88) rotate(-11.54)" xlink:href="#star"/>
    <use width="4.64" height="4.82" transform="translate(1462.57 215.47) rotate(1.59)" xlink:href="#star"/>
    <use width="4.64" height="4.82" transform="translate(1211.6 209.84)" xlink:href="#star"/>
    <use width="4.64" height="4.82" transform="translate(1055.82 322.55) rotate(5.89)" xlink:href="#star"/>
    <use width="4.64" height="4.82" transform="translate(1015.34 421.48) rotate(9.4)" xlink:href="#star"/>
    <use width="4.64" height="4.82" transform="translate(1104.26 169.18)" xlink:href="#star"/>
    <use width="4.64" height="4.82" transform="translate(1059.95 194.04)" xlink:href="#star"/>
    <use width="4.64" height="4.82" transform="translate(955.87 271.38) rotate(-1.53)" xlink:href="#star"/>
    <use width="4.64" height="4.82" transform="translate(969.23 294.02) rotate(-2.85)" xlink:href="#star"/>
    <use width="4.64" height="4.82" transform="translate(1839.38 526.15) rotate(-15.92)" xlink:href="#star"/>
    <use width="4.64" height="4.82" transform="translate(1626.74 613.12) rotate(9.75)" xlink:href="#star"/>
    <use width="4.64" height="4.82" transform="matrix(0.56, 0.83, -0.83, 0.56, 1279.97, 736.06)" xlink:href="#star"/>
    <use width="4.64" height="4.82" transform="translate(1271.69 802.6) rotate(41.37)" xlink:href="#star"/>
    <use width="4.64" height="4.82" transform="translate(1166.2 700.78) rotate(44.08)" xlink:href="#star"/>
    <use width="4.64" height="4.82" transform="translate(1053.79 558.98) rotate(27.06)" xlink:href="#star"/>
    <use width="4.64" height="4.82" transform="translate(1374.01 366.95) rotate(19.22)" xlink:href="#star"/>
    <use width="4.64" height="4.82" transform="translate(1514.79 389.31) rotate(-14.76)" xlink:href="#star"/>
    <use width="4.64" height="4.82" transform="translate(1304.92 229.11)" xlink:href="#star"/>
    <use width="4.64" height="4.82" transform="translate(1174.78 383.6) rotate(29.26)" xlink:href="#star"/>
    <use width="4.64" height="4.82" transform="translate(1172.71 406.18) rotate(34.29)" xlink:href="#star"/>
    <use width="4.64" height="4.82" transform="translate(1055.31 429.42) rotate(17.25)" xlink:href="#star"/>
    <use width="4.64" height="4.82" transform="translate(712.43 462.69)" xlink:href="#star"/>
    <use width="4.64" height="4.82" transform="translate(830.67 217.73)" xlink:href="#star"/>
    <use width="4.64" height="4.82" transform="translate(774.98 280.35)" xlink:href="#star"/>
    <use width="4.64" height="4.82" transform="translate(720.77 365.14)" xlink:href="#star"/>
    <use width="4.64" height="4.82" transform="translate(908.67 730.84)" xlink:href="#star"/>
    <use width="4.64" height="4.82" transform="translate(1010.34 920.25)" xlink:href="#star"/>
    <use width="4.64" height="4.82" transform="translate(892.48 1048.94)" xlink:href="#star"/>
    <use width="4.64" height="4.82" transform="translate(800.39 803.71)" xlink:href="#star"/>
    <use width="4.64" height="4.82" transform="translate(1296.1 703.42) rotate(62.13)" xlink:href="#star"/>
    <use width="4.64" height="4.82" transform="translate(1431.42 558.25) rotate(73.76)" xlink:href="#star"/>
    <use width="4.64" height="4.82" transform="translate(1388.73 570.79) rotate(80.8)" xlink:href="#star"/>
    <use width="4.64" height="4.82" transform="translate(1434.22 755.34) rotate(65.58)" xlink:href="#star"/>
    <use width="4.64" height="4.82" transform="translate(1361.15 282.24) rotate(3.34)" xlink:href="#star"/>
    <use width="4.64" height="4.82" transform="translate(1262.73 483.85) rotate(68.75)" xlink:href="#star"/>
    <use width="4.64" height="4.82" transform="translate(1704.98 561.92) rotate(-16.17)" xlink:href="#star"/>
    <use width="4.64" height="4.82" transform="translate(1800.64 693.8) rotate(6.99)" xlink:href="#star"/>
    <use width="4.64" height="4.82" transform="translate(1643.81 718.42) rotate(34.81)" xlink:href="#star"/>
    <use width="4.64" height="4.82" transform="translate(1627.9 706.49) rotate(39.06)" xlink:href="#star"/>
    <use width="4.64" height="4.82" transform="translate(1849.94 235.13) rotate(16.14)" xlink:href="#star"/>
    <use width="4.64" height="4.82" transform="translate(1774.28 750.93) rotate(8.57)" xlink:href="#star"/>
    <use width="4.64" height="4.82" transform="translate(1533.33 661.38) rotate(68.17)" xlink:href="#star"/>
    <use width="4.64" height="4.82" transform="translate(1828.05 577.47) rotate(-12.9)" xlink:href="#star"/>
    <use width="4.64" height="4.82" transform="translate(1618.76 746.28) rotate(43.82)" xlink:href="#star"/>
    <use width="4.64" height="4.82" transform="translate(1872.42 740.13) rotate(28.69)" xlink:href="#star"/>
    <use width="4.64" height="4.82" transform="translate(1856.4 716.34) rotate(22.43)" xlink:href="#star"/>
    <use width="4.64" height="4.82" transform="translate(1893.19 688.39) rotate(37.66)" xlink:href="#star"/>
    <use width="4.64" height="4.82" transform="translate(1808.78 638.01) rotate(-2.25)" xlink:href="#star"/>
    <use width="4.64" height="4.82" transform="translate(900.98 631.99) rotate(-0.57)" xlink:href="#star"/>
    <use width="4.64" height="4.82" transform="translate(753.85 664.41)" xlink:href="#star"/>
    <use width="4.64" height="4.82" transform="translate(784.2 651.2)" xlink:href="#star"/>
  </g>
</svg>
