<svg id="Layer_1" data-name="Layer 1" xmlns="http://www.w3.org/2000/svg" width="800" height="555.06" viewBox="0 0 800 555.06">
  <title>Artboard 2 copy 2</title>
  <rect x="472.78" y="52.76" width="65" height="83.68" rx="14.55" ry="14.55" style="fill: none;stroke: #231f20;stroke-miterlimit: 10;stroke-width: 7px"/>
  <rect x="232.63" y="71.74" width="334.74" height="310" rx="37.95" ry="37.95" style="fill: #fff;stroke: #231f20;stroke-miterlimit: 10;stroke-width: 7px"/>
  <circle cx="400" cy="178.28" r="71.07" style="fill: #fff;stroke: #231f20;stroke-miterlimit: 10;stroke-width: 7px"/>
  <rect x="249.5" y="286.28" width="301" height="29.45" rx="14.72" ry="14.72" style="fill: #231f20"/>
  <g>
    <rect x="294.72" y="297.36" width="210.55" height="210.55" rx="3.51" ry="3.51" style="fill: #fff;stroke: #231f20;stroke-miterlimit: 10;stroke-width: 7px"/>
    <path d="M331.26,483.52a72.14,72.14,0,1,1,144.27,0" style="fill: none;stroke: #231f20;stroke-miterlimit: 10;stroke-width: 7px"/>
    <circle cx="403.4" cy="374.51" r="36.66" style="fill: none;stroke: #231f20;stroke-miterlimit: 10;stroke-width: 7px"/>
    <rect x="313.09" y="308.5" width="173.82" height="173.82" rx="2.89" ry="2.89" style="fill: none;stroke: #231f20;stroke-miterlimit: 10;stroke-width: 7px"/>
  </g>
  <circle cx="400" cy="178.28" r="56.94" style="fill: #fff;stroke: #231f20;stroke-miterlimit: 10;stroke-width: 7px"/>
  <circle cx="400" cy="178.28" r="35.22" style="fill: #231f20"/>
  <rect x="477.13" y="107.32" width="65" height="29.12" rx="8.58" ry="8.58" style="fill: #fff;stroke: #231f20;stroke-miterlimit: 10;stroke-width: 7px"/>
  <g>
    <polygon points="592.78 260.97 581.87 294.08 524.02 199.07 635.12 206.15 610.49 231.01 675.78 270.48 657.77 300.26 592.78 260.97" style="fill: #fff"/>
    <path d="M528.66,201.87l100.82,6.42-23,23.22,65.87,39.82-15.42,25.5-65.54-39.62-10.2,31-52.54-86.29m-9.26-5.6,5,8.2,52.54,86.29,5.63,9.25,3.39-10.28,8.24-25,60.17,36.37,4.28,2.59,2.59-4.28,15.42-25.5,2.59-4.28L674.93,267,614.5,230.51,633,211.81l7.74-7.81-11-.7L529,196.88l-9.58-.61Z" style="fill: #fff"/>
  </g>
  <g>
    <polygon points="593.8 259.85 584.31 288.67 533.09 204.54 631.49 210.81 610.04 232.47 664.12 265.16 647.65 292.4 593.8 259.85" style="fill: #fff"/>
    <path d="M539.57,208.47l84,5.35-19.16,19.35,54.89,33.18-12.85,21.25-54.62-33-8.5,25.79-43.78-71.91m-13-7.84,7,11.48L577.38,284,585.26,297l4.74-14.4,5.75-17.45,47.1,28.47,6,3.62,3.62-6L665.31,270l3.62-6-6-3.62-47.28-28.58,12.91-13,10.83-10.93-15.36-1-84-5.35-13.41-.85Z" style="fill: #231f20"/>
  </g>
</svg>
