<svg id="Layer_1" data-name="Layer 1" xmlns="http://www.w3.org/2000/svg" width="800" height="600" viewBox="0 0 800 600">
  <title>Artboard 1 copy</title>
  <rect x="544.19" y="106.18" width="206.83" height="68.1" rx="29.68" ry="29.68" transform="translate(195.07 -343.78) rotate(34.71)" style="fill: #231f20"/>
  <rect x="645.51" y="191.92" width="149.78" height="68.1" rx="34.05" ry="34.05" transform="translate(804.34 -524.36) rotate(78.97)" style="fill: #231f20"/>
  <rect x="499.53" y="153.25" width="204.66" height="68.1" rx="31.49" ry="31.49" transform="translate(30.49 -78.87) rotate(7.69)" style="fill: #231f20"/>
  <rect x="543.18" y="212.73" width="224.85" height="68.1" rx="33" ry="33" transform="translate(155.18 -243.42) rotate(23.78)" style="fill: #231f20"/>
  <rect x="528.88" y="263.58" width="176.03" height="53.31" rx="25.84" ry="25.84" transform="translate(450.06 951.27) rotate(-101.03)" style="fill: #231f20"/>
  <rect x="420.32" y="153.25" width="143.15" height="68.1" rx="34.05" ry="34.05" transform="translate(-26.75 97.58) rotate(-11.03)" style="fill: #231f20"/>
  <rect x="478.53" y="219.92" width="143.15" height="68.1" rx="34.05" ry="34.05" transform="translate(257.43 784.49) rotate(-85.9)" style="fill: #231f20"/>
  <path d="M571.64,346.63S645.81,363,659.81,254c-.74,1.47,54.79,3.8,84.14,4.92a18.64,18.64,0,0,1,17.92,18.37l3,221.63a12.23,12.23,0,0,1-18,10.95L582.07,421.52Z" style="fill: #231f20"/>
  <g>
    <path d="M477.2,95.22V312.53a4.81,4.81,0,0,1-4.8,4.78H120a4.81,4.81,0,0,1-4.82-4.78V95.22a4.81,4.81,0,0,1,4.82-4.8H319.6l-9.49,4.91a4.8,4.8,0,0,0,4.78,4.71H124.79V307.71H467.58V100H340.1a4.81,4.81,0,0,0,0-9.62H472.4A4.81,4.81,0,0,1,477.2,95.22Z" style="fill: #231f20"/>
    <path d="M467.58,100V307.71H124.79V100H467.58ZM457,294.11V236.62a4.8,4.8,0,0,0-4.8-4.8H142.48a4.79,4.79,0,0,0-4.78,4.8v57.49a4.79,4.79,0,0,0,4.78,4.8H452.2A4.8,4.8,0,0,0,457,294.11Zm0-177.36a4.8,4.8,0,0,0-4.8-4.82H271.55a4.81,4.81,0,1,0,0,9.62H452.2A4.8,4.8,0,0,0,457,116.75Zm-78.34,47.17a4.77,4.77,0,0,0-4.78-4.78H271.55a4.8,4.8,0,1,0,0,9.6H373.88A4.81,4.81,0,0,0,378.66,163.91ZM357.22,141.2a4.81,4.81,0,0,0-4.82-4.78H271.55a4.8,4.8,0,1,0,0,9.6H352.4A4.8,4.8,0,0,0,357.22,141.2Zm0,47.72a4.82,4.82,0,0,0-4.82-4.82H271.55a4.81,4.81,0,1,0,0,9.62H352.4A4.81,4.81,0,0,0,357.22,188.92Zm-20.1,23.75a4.8,4.8,0,0,0-4.82-4.78H271.55a4.8,4.8,0,1,0,0,9.6H332.3A4.8,4.8,0,0,0,337.12,212.67ZM239,203.38a55.78,55.78,0,1,0-39.49,16.38A55.64,55.64,0,0,0,239,203.38Z" style="fill: #fff"/>
    <path d="M457,236.62v57.49a4.8,4.8,0,0,1-4.8,4.8H142.48a4.79,4.79,0,0,1-4.78-4.8V236.62a4.79,4.79,0,0,1,4.78-4.8H452.2A4.8,4.8,0,0,1,457,236.62Zm-9.6,52.67V241.44H147.3v47.85Z" style="fill: #231f20"/>
    <path d="M452.2,111.92a4.81,4.81,0,0,1,0,9.62H271.55a4.81,4.81,0,1,1,0-9.62Z" style="fill: #231f20"/>
    <rect x="147.3" y="241.44" width="300.09" height="47.85" style="fill: #fff"/>
    <path d="M373.88,159.14a4.8,4.8,0,0,1,0,9.6H271.55a4.8,4.8,0,1,1,0-9.6Z" style="fill: #231f20"/>
    <path d="M352.4,136.42a4.8,4.8,0,1,1,0,9.6H271.55a4.8,4.8,0,1,1,0-9.6Z" style="fill: #231f20"/>
    <path d="M352.4,184.1a4.81,4.81,0,1,1,0,9.62H271.55a4.81,4.81,0,1,1,0-9.62Z" style="fill: #231f20"/>
    <path d="M340.1,90.42a4.81,4.81,0,0,1,0,9.62h-25.2a4.8,4.8,0,0,1-4.78-4.71l9.49-4.91Z" style="fill: #231f20"/>
    <path d="M332.3,207.89a4.8,4.8,0,1,1,0,9.6H271.55a4.8,4.8,0,1,1,0-9.6Z" style="fill: #231f20"/>
    <path d="M255.38,163.91a55.85,55.85,0,1,1-55.84-55.84A55.64,55.64,0,0,1,255.38,163.91ZM236,192.26a46.25,46.25,0,1,0-73.23-.37c2.2-13.49,10.43-23.71,22.32-28.24a20.45,20.45,0,1,1,28.31.29C224.23,168.76,232.75,179.17,236,192.26Zm-8.25,8.23c-.07-.24-.11-.53-.15-.79-1.8-16.57-13.78-29.08-27.82-29.08h-.33c-16.62.15-27.76,11.73-27.76,28.88a3.47,3.47,0,0,1-.15,1.17,46,46,0,0,0,56.22-.18Zm-17.52-51.44a10.82,10.82,0,1,0-10.83,10.83A10.85,10.85,0,0,0,210.23,149.06Z" style="fill: #231f20"/>
    <path d="M245.78,163.91A45.87,45.87,0,0,1,236,192.26c-3.26-13.1-11.78-23.51-22.6-28.33a20.4,20.4,0,1,0-28.31-.29c-11.89,4.53-20.12,14.75-22.32,28.24a45.69,45.69,0,0,1-9.49-28,46.24,46.24,0,1,1,92.49,0Z" style="fill: #fff"/>
    <path d="M227.6,199.7c0,.26.09.55.15.79a46,46,0,0,1-56.22.18,3.47,3.47,0,0,0,.15-1.17c0-17.15,11.14-28.72,27.76-28.88h.33C213.82,170.63,225.79,183.13,227.6,199.7Z" style="fill: #231f20"/>
    <path d="M199.4,138.23a10.83,10.83,0,1,1-10.81,10.83A10.85,10.85,0,0,1,199.4,138.23Z" style="fill: #231f20"/>
  </g>
  <rect x="429.3" y="72.92" width="179.59" height="68.1" rx="29.6" ry="29.6" transform="translate(-10.07 136.8) rotate(-14.87)" style="fill: #231f20"/>
  <path d="M642,503.73l-218-133a34.15,34.15,0,0,1-22-42.84h0a34.15,34.15,0,0,1,42.84-22l193.62,62.25a34.15,34.15,0,0,1,22,42.84h0C654.74,428.78,659.87,509.46,642,503.73Z" style="fill: #231f20"/>
  <path d="M562.77,386.8s39.09,176.5,196.58,122.5l-47.27-83.54Z" style="fill: #231f20"/>
  <path d="M753.67,241.42s38.67,118.54,72,163.21,12.67,182,12.67,182L727,482Z" style="fill: #231f20"/>
</svg>
