<svg id="Layer_1" data-name="Layer 1" xmlns="http://www.w3.org/2000/svg" width="800" height="555.06" viewBox="0 0 800 555.06">
  <title>Artboard 2</title>
  <rect x="124.28" y="182.02" width="551.44" height="213.54" rx="17.9" ry="17.9" style="fill: none;stroke: #231f20;stroke-miterlimit: 10;stroke-width: 7px"/>
  <g>
    <g>
      <rect x="164.77" y="227.98" width="32.58" height="13.51" rx="4.07" ry="4.07" style="fill: #231f20"/>
      <rect x="204.58" y="227.98" width="32.58" height="13.51" rx="4.07" ry="4.07" style="fill: #231f20"/>
      <rect x="244.39" y="227.98" width="32.58" height="13.51" rx="4.07" ry="4.07" style="fill: #231f20"/>
      <rect x="284.2" y="227.98" width="32.58" height="13.51" rx="4.07" ry="4.07" style="fill: #231f20"/>
      <rect x="324" y="227.98" width="32.58" height="13.51" rx="4.07" ry="4.07" style="fill: #231f20"/>
      <rect x="363.81" y="227.98" width="32.58" height="13.51" rx="4.07" ry="4.07" style="fill: #231f20"/>
      <rect x="403.62" y="227.98" width="32.58" height="13.51" rx="4.07" ry="4.07" style="fill: #231f20"/>
      <rect x="443.42" y="227.98" width="32.58" height="13.51" rx="4.07" ry="4.07" style="fill: #231f20"/>
      <rect x="483.23" y="227.98" width="32.58" height="13.51" rx="4.07" ry="4.07" style="fill: #231f20"/>
      <rect x="523.04" y="227.98" width="32.58" height="13.51" rx="4.07" ry="4.07" style="fill: #231f20"/>
      <rect x="562.84" y="227.98" width="32.58" height="13.51" rx="4.07" ry="4.07" style="fill: #231f20"/>
      <rect x="602.65" y="227.98" width="32.58" height="13.51" rx="4.07" ry="4.07" style="fill: #231f20"/>
    </g>
    <g>
      <rect x="164.77" y="264.02" width="32.58" height="13.51" rx="4.07" ry="4.07" style="fill: #231f20"/>
      <rect x="204.58" y="264.02" width="32.58" height="13.51" rx="4.07" ry="4.07" style="fill: #231f20"/>
      <rect x="244.39" y="264.02" width="32.58" height="13.51" rx="4.07" ry="4.07" style="fill: #231f20"/>
      <rect x="284.2" y="264.02" width="32.58" height="13.51" rx="4.07" ry="4.07" style="fill: #231f20"/>
      <rect x="324" y="264.02" width="32.58" height="13.51" rx="4.07" ry="4.07" style="fill: #231f20"/>
      <rect x="363.81" y="264.02" width="32.58" height="13.51" rx="4.07" ry="4.07" style="fill: #231f20"/>
      <rect x="403.62" y="264.02" width="32.58" height="13.51" rx="4.07" ry="4.07" style="fill: #231f20"/>
      <rect x="443.42" y="264.02" width="32.58" height="13.51" rx="4.07" ry="4.07" style="fill: #231f20"/>
      <rect x="483.23" y="264.02" width="32.58" height="13.51" rx="4.07" ry="4.07" style="fill: #231f20"/>
      <rect x="523.04" y="264.02" width="32.58" height="13.51" rx="4.07" ry="4.07" style="fill: #231f20"/>
      <rect x="562.84" y="264.02" width="32.58" height="13.51" rx="4.07" ry="4.07" style="fill: #231f20"/>
      <rect x="602.65" y="264.02" width="32.58" height="13.51" rx="4.07" ry="4.07" style="fill: #231f20"/>
    </g>
    <g>
      <rect x="164.77" y="300.05" width="32.58" height="13.51" rx="4.07" ry="4.07" style="fill: #231f20"/>
      <rect x="204.58" y="300.05" width="32.58" height="13.51" rx="4.07" ry="4.07" style="fill: #231f20"/>
      <rect x="244.39" y="300.05" width="32.58" height="13.51" rx="4.07" ry="4.07" style="fill: #231f20"/>
      <rect x="284.2" y="300.05" width="32.58" height="13.51" rx="4.07" ry="4.07" style="fill: #231f20"/>
      <rect x="324" y="300.05" width="32.58" height="13.51" rx="4.07" ry="4.07" style="fill: #231f20"/>
      <rect x="363.81" y="300.05" width="32.58" height="13.51" rx="4.07" ry="4.07" style="fill: #231f20"/>
      <rect x="403.62" y="300.05" width="32.58" height="13.51" rx="4.07" ry="4.07" style="fill: #231f20"/>
      <rect x="443.42" y="300.05" width="32.58" height="13.51" rx="4.07" ry="4.07" style="fill: #231f20"/>
      <rect x="483.23" y="300.05" width="32.58" height="13.51" rx="4.07" ry="4.07" style="fill: #231f20"/>
      <rect x="523.04" y="300.05" width="32.58" height="13.51" rx="4.07" ry="4.07" style="fill: #231f20"/>
      <rect x="562.84" y="300.05" width="32.58" height="13.51" rx="4.07" ry="4.07" style="fill: #231f20"/>
      <rect x="602.65" y="300.05" width="32.58" height="13.51" rx="4.07" ry="4.07" style="fill: #231f20"/>
    </g>
    <rect x="164.77" y="336.09" width="32.58" height="13.51" rx="4.07" ry="4.07" style="fill: #231f20"/>
    <rect x="204.58" y="336.09" width="142.96" height="13.51" rx="4.07" ry="4.07" style="fill: #231f20"/>
    <path d="M284.2,336.09H591.35a4.07,4.07,0,0,1,4.07,4.07v5.37a4.07,4.07,0,0,1-4.07,4.07H284.2a0,0,0,0,1,0,0V336.09a0,0,0,0,1,0,0Z" style="fill: #231f20"/>
    <rect x="602.65" y="336.09" width="32.58" height="13.51" rx="4.07" ry="4.07" style="fill: #231f20"/>
  </g>
  <g>
    <path d="M508.76,526.43a15.34,15.34,0,0,1-2.27-.18c-13.51-.65-24.72-7.85-33.31-21.4-7.11-11.21-11-24.55-12.93-33.85a10.27,10.27,0,0,1-1.43-5.12l-9.12-70.27v-.1c0-5.61,6.9-10,15.71-10s22.13,18.7,22.13,46.89v6c1.6,5.86,3.45,10.26,5.52,13.14V317.42a15.71,15.71,0,1,1,31.41,0V421h4.62V303a15.71,15.71,0,1,1,31.41,0V421h4.62V320.89A14.87,14.87,0,0,1,580,306h1.7a14.87,14.87,0,0,1,14.86,14.86V421H602v-81.8a12.57,12.57,0,0,1,12.56-12.56h1.78a12.57,12.57,0,0,1,12.56,12.56V510.72a15.72,15.72,0,0,1-15.71,15.71Z" style="fill: #231f20"/>
    <path d="M544.79,288.79A14.25,14.25,0,0,1,559,303V422.45h7.62V320.89A13.4,13.4,0,0,1,580,307.53h1.7A13.4,13.4,0,0,1,595,320.89V422.45h8.52v-83.3a11.09,11.09,0,0,1,11.06-11.06h1.78a11.09,11.09,0,0,1,11.06,11.06V510.72a14.25,14.25,0,0,1-14.21,14.21H508.76a14.1,14.1,0,0,1-2.13-.18c-29.79-1.38-41.05-35.74-45-54.32a8.78,8.78,0,0,1-1.34-4.66l-9.12-70.27c0-4.67,6.39-8.5,14.21-8.5S486,405.11,486,432.4v6.18c2.51,9.29,5.48,14.36,8.52,16.73V317.42a14.21,14.21,0,0,1,28.41,0v105h7.62V303a14.25,14.25,0,0,1,14.21-14.21h0m0-3A17.23,17.23,0,0,0,527.58,303V419.45H526v-102a17.21,17.21,0,0,0-34.41,0V445.6a59.53,59.53,0,0,1-2.52-7.42V432.4c0-12.67-2.75-24.86-7.73-34.33-4.64-8.8-10.58-14.06-15.9-14.06-9.65,0-17.21,5.05-17.21,11.5v.19l0,.19L457.32,466a11.77,11.77,0,0,0,1.51,5.55c2,9.41,5.91,22.81,13.08,34.11,8.85,14,20.44,21.39,34.43,22.09a16.8,16.8,0,0,0,2.42.19H613.24a17.23,17.23,0,0,0,17.21-17.21V339.15a14.08,14.08,0,0,0-14.06-14.06H614.6a14.08,14.08,0,0,0-14.06,14.06v80.3H598V320.89a16.38,16.38,0,0,0-16.36-16.36H580a16.38,16.38,0,0,0-16.36,16.36v98.57H562V303a17.23,17.23,0,0,0-17.21-17.21Z" style="fill: #fff"/>
  </g>
  <g>
    <path d="M203,526.43a15.72,15.72,0,0,1-15.71-15.71V339.15a12.57,12.57,0,0,1,12.56-12.56h1.78a12.57,12.57,0,0,1,12.56,12.56V421h5.52V320.89A14.87,14.87,0,0,1,234.62,306h1.7a14.87,14.87,0,0,1,14.86,14.86V421h4.62V303a15.71,15.71,0,1,1,31.41,0V421h4.62V317.42a15.71,15.71,0,1,1,31.41,0v134.1c2.07-2.88,3.92-7.28,5.52-13.14v-6c0-28.19,13.32-46.89,22.13-46.89s15.71,4.39,15.71,10v.1l-9.12,70.27A10.27,10.27,0,0,1,356,471c-2,9.3-5.82,22.64-12.93,33.85-8.59,13.55-19.8,20.75-33.31,21.4a15.36,15.36,0,0,1-2.27.18Z" style="fill: #231f20"/>
    <path d="M271.5,288.79A14.25,14.25,0,0,1,285.71,303V422.45h7.62v-105a14.21,14.21,0,0,1,28.41,0V455.3c3-2.37,6-7.44,8.52-16.73V432.4c0-27.29,12.82-45.39,20.63-45.39s14.21,3.82,14.21,8.5L356,465.78a8.78,8.78,0,0,1-1.34,4.66c-3.92,18.58-15.18,52.94-45,54.32a14.1,14.1,0,0,1-2.13.18H203a14.25,14.25,0,0,1-14.21-14.21V339.15a11.09,11.09,0,0,1,11.06-11.06h1.78a11.09,11.09,0,0,1,11.06,11.06v83.3h8.52V320.89a13.4,13.4,0,0,1,13.36-13.36h1.7a13.4,13.4,0,0,1,13.36,13.36V422.45h7.62V303a14.25,14.25,0,0,1,14.21-14.21h0m0-3A17.23,17.23,0,0,0,254.29,303V419.45h-1.62V320.89a16.38,16.38,0,0,0-16.36-16.36h-1.7a16.38,16.38,0,0,0-16.36,16.36v98.57h-2.52v-80.3a14.08,14.08,0,0,0-14.06-14.06H199.9a14.08,14.08,0,0,0-14.06,14.06V510.72A17.23,17.23,0,0,0,203,527.93H307.53a16.8,16.8,0,0,0,2.42-.19c14-.7,25.58-8.13,34.43-22.09,7.17-11.3,11.06-24.7,13.08-34.11A11.76,11.76,0,0,0,359,466l9.09-70.09,0-.19v-.19c0-6.45-7.56-11.5-17.21-11.5-5.32,0-11.26,5.26-15.9,14.06-5,9.46-7.73,21.65-7.73,34.33v5.77a59.54,59.54,0,0,1-2.52,7.42V317.42a17.21,17.21,0,0,0-34.41,0v102h-1.62V303a17.23,17.23,0,0,0-17.21-17.21Z" style="fill: #fff"/>
  </g>
</svg>
