<svg id="Layer_1" data-name="Layer 1" xmlns="http://www.w3.org/2000/svg" width="800" height="600" viewBox="0 0 800 600">
  <title>Artboard 1</title>
  <g>
    <path d="M669.28,335.17H598.86a2.18,2.18,0,0,0-2.17,2.17v31.91a2.18,2.18,0,0,0,2.17,2.17h70.41a2.18,2.18,0,0,0,2.19-2.17V337.34A2.18,2.18,0,0,0,669.28,335.17Zm-2.17,31.91H601V339.53H667.1Z" style="fill: #231f20"/>
    <path d="M547.44,299a2.18,2.18,0,1,0,0,4.36H670.2a2.18,2.18,0,0,0,0-4.36Z" style="fill: #231f20"/>
    <path d="M670.2,311.65H547.44a2.18,2.18,0,1,0,0,4.36H670.2a2.18,2.18,0,0,0,0-4.36Z" style="fill: #231f20"/>
    <path d="M545.29,256.12a2.18,2.18,0,0,0,2.17,2.17H668.73a2.18,2.18,0,0,0,0-4.36H547.46A2.18,2.18,0,0,0,545.29,256.12Z" style="fill: #231f20"/>
    <path d="M670.91,268.75a2.18,2.18,0,0,0-2.17-2.19H548.27a2.18,2.18,0,0,0,0,4.36H668.73A2.18,2.18,0,0,0,670.91,268.75Z" style="fill: #231f20"/>
    <path d="M547.21,245.67h45a2.18,2.18,0,1,0,0-4.36h-45a2.18,2.18,0,1,0,0,4.36Z" style="fill: #231f20"/>
    <path d="M547.21,290.75h45a2.18,2.18,0,1,0,0-4.36h-45a2.18,2.18,0,1,0,0,4.36Z" style="fill: #231f20"/>
    <path d="M529.49,254.77a11.28,11.28,0,1,0-11.28-11.28A11.29,11.29,0,0,0,529.49,254.77Zm0-18.19a6.91,6.91,0,1,1-6.91,6.91A6.91,6.91,0,0,1,529.49,236.58Z" style="fill: #231f20"/>
    <path d="M529.49,299.84a11.28,11.28,0,1,0-11.28-11.28A11.29,11.29,0,0,0,529.49,299.84Zm0-18.19a6.92,6.92,0,1,1-6.91,6.91A6.92,6.92,0,0,1,529.49,281.65Z" style="fill: #231f20"/>
    <path d="M670.81,324.79H482.68a88.53,88.53,0,0,0-1.76-17,1.57,1.57,0,0,0-.14-.43,88,88,0,0,0-10.36-26.93,2.18,2.18,0,0,0-3.76,2.22,83.73,83.73,0,0,1,9.94,26,2.37,2.37,0,0,0,.14.45,84.06,84.06,0,0,1,1.59,16.71A2.1,2.1,0,0,0,478,327a2.18,2.18,0,0,0,2.17,2.17H670.81a2.18,2.18,0,1,0,0-4.36Z" style="fill: #231f20"/>
    <path d="M473.7,441.09H404.28l-.86-35.7a120.1,120.1,0,0,0,16.25-68.48,2.19,2.19,0,0,0-4.36.28,115.77,115.77,0,0,1-16,66.51,2.14,2.14,0,0,0-.31,1.17l.93,38.45a2.18,2.18,0,0,0,2.17,2.13h69.37V539.8H315.77V445.45H391.4a2.18,2.18,0,0,0,0-4.36h-77.8a2.18,2.18,0,0,0-2.19,2.17V542a2.18,2.18,0,0,0,2.19,2.17H473.7a2.18,2.18,0,0,0,2.17-2.17V443.26A2.18,2.18,0,0,0,473.7,441.09Z" style="fill: #231f20"/>
    <path d="M471.63,344.51a2.18,2.18,0,0,0-2.17,2.16,174.21,174.21,0,0,1-1.28,18.88,2.16,2.16,0,0,0,1.9,2.43l.26,0a2.18,2.18,0,0,0,2.16-1.91,176.47,176.47,0,0,0,1.32-19.36,2.18,2.18,0,0,0-2.16-2.2Z" style="fill: #231f20"/>
    <path d="M470.27,309.64a76.86,76.86,0,0,0-22.74-40.82,2.17,2.17,0,1,0-3,3.16,72.5,72.5,0,0,1,21.5,38.8,2,2,0,0,0,.07.28,171.41,171.41,0,0,1,3,22.31,2.19,2.19,0,0,0,2.17,2h.14a2.16,2.16,0,0,0,2-2.31,177.29,177.29,0,0,0-3.09-23.16A1.62,1.62,0,0,0,470.27,309.64Z" style="fill: #231f20"/>
    <path d="M321.64,507.5v26.13a2.18,2.18,0,0,0,2.17,2.17h140.7a2.18,2.18,0,0,0,2.19-2.17V507.5a2.18,2.18,0,0,0-2.19-2.17H323.81A2.18,2.18,0,0,0,321.64,507.5Zm4.36,2.19H462.34v21.75H326Z" style="fill: #231f20"/>
    <path d="M464.52,450.86H382.45a2.18,2.18,0,1,0,0,4.36h82.07a2.18,2.18,0,1,0,0-4.36Z" style="fill: #231f20"/>
    <path d="M407.26,237.8a2.18,2.18,0,1,0-.64,4.31,83.89,83.89,0,0,1,52.77,30,2.19,2.19,0,0,0,1.7.81,2.22,2.22,0,0,0,1.37-.49,2.19,2.19,0,0,0,.32-3.07A88.2,88.2,0,0,0,407.26,237.8Z" style="fill: #231f20"/>
    <path d="M454.85,388.13a2.55,2.55,0,0,0,.56.07,2.17,2.17,0,0,0,2.11-1.62A164,164,0,0,0,459.76,312,67.49,67.49,0,0,0,454.35,296a2.18,2.18,0,0,0-3.92,1.91,62.69,62.69,0,0,1,5.06,15,159.86,159.86,0,0,1-2.19,72.55A2.19,2.19,0,0,0,454.85,388.13Z" style="fill: #231f20"/>
    <path d="M428.9,281.17a2.18,2.18,0,0,0-2.69,3.43A51.54,51.54,0,0,1,444.94,315c.81,4,1.45,8,1.92,12a2.17,2.17,0,0,0,2.16,1.92h.25a2.18,2.18,0,0,0,1.91-2.43c-.49-4.07-1.14-8.23-2-12.31A56,56,0,0,0,428.9,281.17Z" style="fill: #231f20"/>
    <path d="M439.37,400.31a2.16,2.16,0,0,0,.78.15,2.19,2.19,0,0,0,2-1.41,151.79,151.79,0,0,0,10.08-54.29,2.18,2.18,0,0,0-4.36,0,147.54,147.54,0,0,1-9.79,52.72A2.17,2.17,0,0,0,439.37,400.31Z" style="fill: #231f20"/>
    <path d="M388.52,260.76a2.17,2.17,0,0,0,2.29,2.06,62.46,62.46,0,0,1,53.57,25.12,2.18,2.18,0,0,0,3.05.45,2.19,2.19,0,0,0,.45-3.05,66.84,66.84,0,0,0-57.3-26.88A2.18,2.18,0,0,0,388.52,260.76Z" style="fill: #231f20"/>
    <path d="M424.18,407.74a2.17,2.17,0,0,0,2.91-1,142.53,142.53,0,0,0,11.54-90.42,45.22,45.22,0,0,0-48.81-36.18,2.18,2.18,0,1,0,.42,4.34,40.88,40.88,0,0,1,44.11,32.71,138.09,138.09,0,0,1-11.18,87.65A2.18,2.18,0,0,0,424.18,407.74Z" style="fill: #231f20"/>
    <path d="M396.36,252a73.6,73.6,0,0,1,36.12,10.75,2.11,2.11,0,0,0,1.13.32,2.17,2.17,0,0,0,1.14-4,77.76,77.76,0,0,0-38.27-11.4,2.22,2.22,0,0,0-2.24,2.12A2.16,2.16,0,0,0,396.36,252Z" style="fill: #231f20"/>
    <path d="M426.43,105.74a2.09,2.09,0,0,0,.86.18,2.21,2.21,0,0,0,2-1.32l.1-.24a2.21,2.21,0,0,0,.18-.85,14,14,0,0,1,3.74-10,13.16,13.16,0,0,1,9.49-3.75H443a12.21,12.21,0,0,1,8.63,3.75,16.91,16.91,0,0,1,4.66,10.11,2.15,2.15,0,0,0,2.3,1.94s.07,0,.1,0a2.18,2.18,0,0,0,1.92-2.41,22.15,22.15,0,0,0-2.16-7.46,19.65,19.65,0,0,0-5.16-6.54,16.72,16.72,0,0,0-4-2.44,9.49,9.49,0,0,0,3.14-7.07,9.58,9.58,0,1,0-16.17,6.94,16,16,0,0,0-4.57,2.57,16.33,16.33,0,0,0-3.81,4.36,19.24,19.24,0,0,0-2.61,9.59A2.18,2.18,0,0,0,426.43,105.74ZM442.8,74.38a5.22,5.22,0,1,1-5.21,5.23A5.23,5.23,0,0,1,442.8,74.38Z" style="fill: #231f20"/>
    <path d="M427.67,359.45h.21a2.19,2.19,0,0,0,2.17-2,132,132,0,0,0-2-39,35.51,35.51,0,0,0-1.63-5.62,2.16,2.16,0,0,0-2.8-1.25,2.18,2.18,0,0,0-1.27,2.82,30,30,0,0,1,1.42,4.91,126.73,126.73,0,0,1,1.91,37.77A2.2,2.2,0,0,0,427.67,359.45Z" style="fill: #231f20"/>
    <path d="M382.45,476.66h46.49a2.18,2.18,0,0,0,0-4.36H382.45a2.18,2.18,0,1,0,0,4.36Z" style="fill: #231f20"/>
    <path d="M409.6,411.8a2.12,2.12,0,0,0,1.1.31,2.17,2.17,0,0,0,1.88-1.09,131.45,131.45,0,0,0,14-34,2.18,2.18,0,0,0-4.22-1.09,127.37,127.37,0,0,1-13.54,32.84A2.2,2.2,0,0,0,409.6,411.8Z" style="fill: #231f20"/>
    <path d="M382.45,466.35h36.73a2.18,2.18,0,1,0,0-4.36H382.45a2.18,2.18,0,1,0,0,4.36Z" style="fill: #231f20"/>
    <path d="M382.45,488h36.73a2.18,2.18,0,1,0,0-4.36H382.45a2.18,2.18,0,1,0,0,4.36Z" style="fill: #231f20"/>
    <path d="M356,287.11a2.19,2.19,0,0,0,3.08.13,51.59,51.59,0,0,1,57.14-8.8,2.18,2.18,0,0,0,1.85-3.95,55.94,55.94,0,0,0-62,9.54A2.19,2.19,0,0,0,356,287.11Z" style="fill: #231f20"/>
    <path d="M415.49,320.95a2.18,2.18,0,0,0,1.44-2.72,23.79,23.79,0,0,0-46,11.77,2.73,2.73,0,0,0,.17.47,73,73,0,0,1-3.14,39.29,2.19,2.19,0,0,0,1.3,2.8,2.06,2.06,0,0,0,.75.14,2.17,2.17,0,0,0,2-1.44,77.24,77.24,0,0,0,3.21-42.14,2,2,0,0,0-.15-.46,19.43,19.43,0,0,1,37.7-9.15A2.17,2.17,0,0,0,415.49,320.95Z" style="fill: #231f20"/>
    <path d="M388.23,295.66a30,30,0,0,1,22.68,4.45,2.18,2.18,0,1,0,2.41-3.62,34.56,34.56,0,0,0-53,35.63,1.79,1.79,0,0,0,.15.46c.26,1.42.5,2.86.68,4.29a2.17,2.17,0,0,0,2.16,1.91h.26a2.18,2.18,0,0,0,1.9-2.44c-.21-1.69-.49-3.4-.82-5.07a2.4,2.4,0,0,0-.15-.45,30.23,30.23,0,0,1,23.73-35.14Z" style="fill: #231f20"/>
    <path d="M382.45,498.82H410a2.18,2.18,0,1,0,0-4.36h-27.6a2.18,2.18,0,1,0,0,4.36Z" style="fill: #231f20"/>
    <path d="M408.52,356A109.66,109.66,0,0,0,407,323.08a1.73,1.73,0,0,0,0-.38,13,13,0,0,0-25.53,5.14,2.05,2.05,0,0,0,.18.52,84,84,0,0,1-22.39,74.92,2.17,2.17,0,0,0,1.55,3.71,2.12,2.12,0,0,0,1.56-.66A88.34,88.34,0,0,0,385.79,327a1.89,1.89,0,0,0-.15-.47,8.66,8.66,0,0,1,17-3.28,1.37,1.37,0,0,0,0,.33,105.26,105.26,0,0,1,1.52,32,2.19,2.19,0,0,0,2,2.4A2.16,2.16,0,0,0,408.52,356Z" style="fill: #231f20"/>
    <path d="M318.51,203.08h68.11l-.91,45a77.53,77.53,0,0,0-38,15,2.18,2.18,0,0,0,2.61,3.5,73.22,73.22,0,0,1,37.88-14.33,2.15,2.15,0,0,0,1.94-2.27,3.78,3.78,0,0,0-.06-.39l1-48.63a2.19,2.19,0,0,0-2.17-2.23H318.51a3.72,3.72,0,0,1-3.72-3.71V97.18a3.72,3.72,0,0,1,3.72-3.71h88.66v22.83a2.18,2.18,0,0,0,2.17,2.17h49.2V195a3.71,3.71,0,0,1-3.71,3.71h-57a2.18,2.18,0,1,0,0,4.36h57a8.09,8.09,0,0,0,8.07-8.07V118.48h13.44a2.18,2.18,0,0,0,2.17-2.17V60.7a2.18,2.18,0,0,0-2.17-2.19h-67a2.18,2.18,0,0,0-2.17,2.19V89.11H318.51a8.08,8.08,0,0,0-8.07,8.07V195A8.08,8.08,0,0,0,318.51,203.08Zm93-114V62.87h62.62v51.25H411.54v-25Z" style="fill: #231f20"/>
    <path d="M390,403a2.17,2.17,0,0,0,1.14.33,2.22,2.22,0,0,0,1.87-1,110.64,110.64,0,0,0,13.63-34.88,2.18,2.18,0,1,0-4.27-.92A106,106,0,0,1,389.32,400,2.17,2.17,0,0,0,390,403Z" style="fill: #231f20"/>
    <path d="M377.37,400a2.18,2.18,0,1,0,4.36,0,1.6,1.6,0,0,1,.26-.85,98.42,98.42,0,0,0,14.36-74.36,2.19,2.19,0,0,0-2.57-1.7,2.16,2.16,0,0,0-1.7,2.57,94.21,94.21,0,0,1-13.73,71.1A5.89,5.89,0,0,0,377.37,400Z" style="fill: #231f20"/>
    <path d="M356.38,177.29l0,.06a2.17,2.17,0,0,0,1.14,2.86,2.07,2.07,0,0,0,.85.18,2.17,2.17,0,0,0,2-1.31l.2-.47a2,2,0,0,0,.18-.86c0-17.16,11.6-29.18,28.26-29.3h.29c14.33,0,26.52,12.57,28.33,29.25a2.18,2.18,0,1,0,4.34-.47c-1.73-15.78-11.81-28.33-24.74-32a16.81,16.81,0,1,0-16.66-.11C366.08,148.55,356.54,160.82,356.38,177.29Zm20.14-46.74A12.43,12.43,0,1,1,389,143,12.44,12.44,0,0,1,376.52,130.54Z" style="fill: #231f20"/>
    <path d="M377.64,260.47A66.87,66.87,0,0,0,335.08,294a2.18,2.18,0,0,0,.91,2.94,2.28,2.28,0,0,0,1,.25,2.19,2.19,0,0,0,1.94-1.16,62.42,62.42,0,0,1,39.79-31.34,2.18,2.18,0,1,0-1.09-4.22Z" style="fill: #231f20"/>
    <path d="M373.37,290a2.18,2.18,0,0,0-2.22-3.76,45.42,45.42,0,0,0-21.4,48,1.84,1.84,0,0,0,.14.42,51.83,51.83,0,0,1-.92,23.53,2.18,2.18,0,0,0,1.52,2.68,2.12,2.12,0,0,0,.59.08,2.19,2.19,0,0,0,2.11-1.6,56,56,0,0,0,.89-26,2.38,2.38,0,0,0-.13-.42A41,41,0,0,1,373.37,290Z" style="fill: #231f20"/>
    <path d="M324.84,276.18a2.15,2.15,0,0,0,1.76-.89,83.26,83.26,0,0,1,41-29.76,2.18,2.18,0,1,0-1.38-4.14,87.57,87.57,0,0,0-43.1,31.32,2.15,2.15,0,0,0,.46,3A2.12,2.12,0,0,0,324.84,276.18Z" style="fill: #231f20"/>
    <path d="M350.59,401.86a2.19,2.19,0,0,0,1.49-.59,78.09,78.09,0,0,0,14-17.54,2.17,2.17,0,0,0-.78-3,2.2,2.2,0,0,0-3,.78,73.64,73.64,0,0,1-13.23,16.56,2.18,2.18,0,0,0-.1,3.08A2.15,2.15,0,0,0,350.59,401.86Z" style="fill: #231f20"/>
    <path d="M341.39,395.64a2.2,2.2,0,0,0,1.42-.53,66.82,66.82,0,0,0,22.93-44.89,2.18,2.18,0,0,0-4.35-.38,62.4,62.4,0,0,1-21.43,42,2.17,2.17,0,0,0-.22,3.08A2.15,2.15,0,0,0,341.39,395.64Z" style="fill: #231f20"/>
    <path d="M350.74,293.25a2.19,2.19,0,0,0-3,.59,56.27,56.27,0,0,0-8.52,42.52,2.19,2.19,0,0,0,2.13,1.76h0a2.17,2.17,0,0,0,2.16-2.19,2.35,2.35,0,0,0-.11-.7,51.84,51.84,0,0,1,7.9-38.94A2.19,2.19,0,0,0,350.74,293.25Z" style="fill: #231f20"/>
    <path d="M333.21,388.43a2.19,2.19,0,0,0,1.38-.5,56.06,56.06,0,0,0,12.62-14.62,2.17,2.17,0,0,0-.74-3,2.2,2.2,0,0,0-3,.75,51.66,51.66,0,0,1-11.65,13.49,2.18,2.18,0,0,0-.29,3.07A2.14,2.14,0,0,0,333.21,388.43Z" style="fill: #231f20"/>
    <path d="M326.06,380.33a2.2,2.2,0,0,0,1.37-.47,45.56,45.56,0,0,0,16.92-32.79,2.18,2.18,0,1,0-4.35-.25,41.24,41.24,0,0,1-15.31,29.64,2.18,2.18,0,0,0,1.37,3.88Z" style="fill: #231f20"/>
    <path d="M313.38,360.79a2.18,2.18,0,0,0,3.08-.11,23.83,23.83,0,0,0,5.9-20.93,1.16,1.16,0,0,0-.08-.29,73.37,73.37,0,0,1,18.19-64,2.18,2.18,0,0,0-3.19-3,77.68,77.68,0,0,0-19.21,68.17,1,1,0,0,0,.08.29,19.49,19.49,0,0,1-4.88,16.8A2.18,2.18,0,0,0,313.38,360.79Z" style="fill: #231f20"/>
    <path d="M349.73,499.85a25.41,25.41,0,1,0-17-6.55A25.3,25.3,0,0,0,349.73,499.85Zm0-4.36A20.81,20.81,0,0,1,337,491.18a1.68,1.68,0,0,0,.07-.53c0-7.79,5.06-13,12.6-13.12h.15c6.38,0,11.82,5.67,12.64,13.2a2.8,2.8,0,0,0,.07.36A20.83,20.83,0,0,1,349.73,495.48Zm-.06-22.84a4.92,4.92,0,1,1,4.92-4.92A4.92,4.92,0,0,1,349.67,472.65Zm-21,1.83a21,21,0,1,1,37.58,12.88A18.86,18.86,0,0,0,356,474.49a9.27,9.27,0,1,0-12.85-.14A16,16,0,0,0,333,487.19,20.81,20.81,0,0,1,328.72,474.48Z" style="fill: #231f20"/>
    <path d="M320,371.4a2.14,2.14,0,0,0,1.41-.52,34.48,34.48,0,0,0,11.29-18.29,2.81,2.81,0,0,0,.06-.33,34.71,34.71,0,0,0,.22-14.62,2.76,2.76,0,0,0-.11-.36,62.72,62.72,0,0,1,1-28.41,2.18,2.18,0,0,0-4.21-1.16,67,67,0,0,0-1,30.8,1.63,1.63,0,0,0,.1.35,30.15,30.15,0,0,1-.32,12.73.31.31,0,0,0,0,.11,30.07,30.07,0,0,1-9.84,15.86A2.18,2.18,0,0,0,320,371.4Z" style="fill: #231f20"/>
    <path d="M256.18,271.23h16.59a6.69,6.69,0,0,0,6.68-6.68V242.36a6.68,6.68,0,0,0-6.68-6.66H256.18a6.68,6.68,0,0,0-6.66,6.66v22.19A6.68,6.68,0,0,0,256.18,271.23Zm-2.3-28.87a2.3,2.3,0,0,1,2.3-2.3h16.59a2.31,2.31,0,0,1,2.31,2.3v22.19a2.31,2.31,0,0,1-2.31,2.31H256.18a2.31,2.31,0,0,1-2.3-2.31Z" style="fill: #231f20"/>
    <path d="M250.47,280H233.88a6.68,6.68,0,0,0-6.66,6.66v22.19a6.68,6.68,0,0,0,6.66,6.68h16.59a6.68,6.68,0,0,0,6.66-6.68V286.65A6.67,6.67,0,0,0,250.47,280Zm2.31,28.86a2.32,2.32,0,0,1-2.31,2.31H233.88a2.31,2.31,0,0,1-2.3-2.31V286.65a2.3,2.3,0,0,1,2.3-2.3h16.59a2.31,2.31,0,0,1,2.31,2.3Z" style="fill: #231f20"/>
    <path d="M218,271.23h16.59a6.68,6.68,0,0,0,6.66-6.68V242.36a6.68,6.68,0,0,0-6.66-6.66H218a6.68,6.68,0,0,0-6.68,6.66v22.19A6.69,6.69,0,0,0,218,271.23Zm-2.31-28.87a2.31,2.31,0,0,1,2.31-2.3h16.59a2.3,2.3,0,0,1,2.3,2.3v22.19a2.31,2.31,0,0,1-2.3,2.31H218a2.32,2.32,0,0,1-2.31-2.31Z" style="fill: #231f20"/>
    <path d="M311.79,341.88a84.23,84.23,0,0,1,6.41-52.57,2.18,2.18,0,0,0-3.95-1.87,88.74,88.74,0,0,0-7.24,52.7H207.59V323.92a13.75,13.75,0,0,0,11.36-12.66,6.58,6.58,0,0,0,1.42-4.1V285a6.68,6.68,0,0,0-6.66-6.68H197.12a6.69,6.69,0,0,0-6.68,6.68v22.18a6.59,6.59,0,0,0,1,3.55A13.8,13.8,0,0,0,203.22,324v18.33a2.18,2.18,0,0,0,2.19,2.19H309.65a2.19,2.19,0,0,0,1.7-.81A2.22,2.22,0,0,0,311.79,341.88Zm-116-31.51a7.33,7.33,0,0,1,.1-1.24,9.38,9.38,0,0,1,18.62.17,9.06,9.06,0,0,1,.06,1.07,9.18,9.18,0,0,1-.67,3.44,9.34,9.34,0,0,1-6.36,5.63,8.81,8.81,0,0,1-2.36.31,8.69,8.69,0,0,1-2-.22,9.39,9.39,0,0,1-7.39-9.16Zm-1-25.4a2.31,2.31,0,0,1,2.31-2.31h16.59A2.31,2.31,0,0,1,216,285v16.87a13.75,13.75,0,0,0-21.2-.43Z" style="fill: #231f20"/>
    <path d="M179.86,271.23h16.59a6.68,6.68,0,0,0,6.66-6.68V242.36a6.67,6.67,0,0,0-6.66-6.66H179.86a6.67,6.67,0,0,0-6.66,6.66v22.19A6.68,6.68,0,0,0,179.86,271.23Zm-2.3-28.87a2.3,2.3,0,0,1,2.3-2.3h16.59a2.31,2.31,0,0,1,2.31,2.3v22.19a2.32,2.32,0,0,1-2.31,2.31H179.86a2.31,2.31,0,0,1-2.3-2.31Z" style="fill: #231f20"/>
    <path d="M178.32,280H161.74a6.67,6.67,0,0,0-6.66,6.66v22.19a6.68,6.68,0,0,0,6.66,6.68h16.59a6.68,6.68,0,0,0,6.66-6.68V286.65A6.67,6.67,0,0,0,178.32,280Zm2.31,28.86a2.32,2.32,0,0,1-2.31,2.31H161.74a2.31,2.31,0,0,1-2.3-2.31V286.65a2.3,2.3,0,0,1,2.3-2.3h16.59a2.31,2.31,0,0,1,2.31,2.3Z" style="fill: #231f20"/>
    <path d="M167.6,264.56V242.36a6.68,6.68,0,0,0-6.68-6.66H144.34a6.68,6.68,0,0,0-6.66,6.66v22.19a6.68,6.68,0,0,0,6.66,6.68h16.59A6.69,6.69,0,0,0,167.6,264.56Zm-25.57,0V242.36a2.3,2.3,0,0,1,2.3-2.3h16.59a2.31,2.31,0,0,1,2.31,2.3v22.19a2.32,2.32,0,0,1-2.31,2.31H144.34A2.31,2.31,0,0,1,142,264.56Z" style="fill: #231f20"/>
  </g>
</svg>
