<svg id="Layer_1" data-name="Layer 1" xmlns="http://www.w3.org/2000/svg" width="800" height="555.06" viewBox="0 0 800 555.06">
  <title>Artboard 2 copy 4</title>
  <rect x="107.09" y="19.81" width="585.83" height="504.71" style="fill: #fff;stroke: #231f20;stroke-miterlimit: 10;stroke-width: 2px"/>
  <rect x="126.26" y="431.52" width="547.47" height="76.55" rx="16.4" ry="16.4" style="fill: none;stroke: #c4c6c8;stroke-miterlimit: 10;stroke-width: 4px"/>
  <rect x="126.26" y="333.61" width="547.47" height="76.55" rx="16.4" ry="16.4" style="fill: none;stroke: #c4c6c8;stroke-miterlimit: 10;stroke-width: 4px"/>
  <rect x="126.26" y="234.69" width="547.47" height="76.55" rx="16.4" ry="16.4" style="fill: none;stroke: #c4c6c8;stroke-miterlimit: 10;stroke-width: 4px"/>
  <rect x="126.26" y="134.78" width="547.47" height="76.55" rx="16.4" ry="16.4" style="fill: #231f20"/>
  <rect x="126.26" y="38.86" width="547.47" height="76.55" rx="16.4" ry="16.4" style="fill: none;stroke: #c4c6c8;stroke-miterlimit: 10;stroke-width: 4px"/>
  <circle cx="159.25" cy="76.78" r="10.25" style="fill: none;stroke: #c4c6c8;stroke-miterlimit: 10;stroke-width: 4px"/>
  <circle cx="159.25" cy="272.97" r="10.25" style="fill: none;stroke: #c4c6c8;stroke-miterlimit: 10;stroke-width: 4px"/>
  <circle cx="159.25" cy="372.88" r="10.25" style="fill: none;stroke: #c4c6c8;stroke-miterlimit: 10;stroke-width: 4px"/>
  <circle cx="159.25" cy="470.8" r="10.25" style="fill: none;stroke: #c4c6c8;stroke-miterlimit: 10;stroke-width: 4px"/>
  <circle cx="159.25" cy="173.05" r="10.25" style="fill: #fff"/>
  <circle cx="159.25" cy="173.05" r="6.04" style="fill: #231f20"/>
  <rect x="453" y="66.53" width="200" height="20.5" rx="10.25" ry="10.25" style="fill: #c4c6c8"/>
  <rect x="278.14" y="66.53" width="130.88" height="20.5" rx="8.29" ry="8.29" style="fill: #c4c6c8"/>
  <rect x="419.97" y="66.53" width="25.72" height="20.5" rx="10.25" ry="10.25" style="fill: #c4c6c8"/>
  <rect x="226.14" y="66.53" width="43.57" height="20.5" rx="9.82" ry="9.82" style="fill: #c4c6c8"/>
  <text transform="translate(196 85.53)" style="font-size: 26px;fill: #c4c6c8;font-family: Helvetica-Bold, Helvetica;font-weight: 700;letter-spacing: -0.03662109375em">A</text>
  <rect x="484.78" y="162.8" width="168.22" height="20.5" rx="9.4" ry="9.4" style="fill: #c4c6c8"/>
  <rect x="343.58" y="162.8" width="130.88" height="20.5" rx="8.29" ry="8.29" style="fill: #c4c6c8"/>
  <rect x="278.14" y="162.8" width="25.72" height="20.5" rx="10.25" ry="10.25" style="fill: #c4c6c8"/>
  <rect x="310.64" y="162.8" width="25.72" height="20.5" rx="10.25" ry="10.25" style="fill: #c4c6c8"/>
  <rect x="226.14" y="162.8" width="43.57" height="20.5" rx="9.82" ry="9.82" style="fill: #c4c6c8"/>
  <text transform="translate(196 181.8)" style="font-size: 26px;fill: #c4c6c8;font-family: Helvetica-Bold, Helvetica;font-weight: 700">B</text>
  <rect x="256.28" y="262.08" width="200" height="20.5" rx="10.25" ry="10.25" style="fill: #c4c6c8"/>
  <rect x="522.59" y="262.08" width="130.88" height="20.5" rx="8.29" ry="8.29" style="fill: #c4c6c8"/>
  <rect x="223.25" y="262.08" width="25.72" height="20.5" rx="10.25" ry="10.25" style="fill: #c4c6c8"/>
  <rect x="470.6" y="262.08" width="43.57" height="20.5" rx="9.82" ry="9.82" style="fill: #c4c6c8"/>
  <text transform="translate(196 281.08)" style="font-size: 26px;fill: #c4c6c8;font-family: Helvetica-Bold, Helvetica;font-weight: 700">C</text>
  <rect x="453" y="361.35" width="200" height="20.5" rx="10.25" ry="10.25" style="fill: #c4c6c8"/>
  <rect x="278.14" y="361.35" width="130.88" height="20.5" rx="8.29" ry="8.29" style="fill: #c4c6c8"/>
  <rect x="419.97" y="361.35" width="25.72" height="20.5" rx="10.25" ry="10.25" style="fill: #c4c6c8"/>
  <rect x="226.14" y="361.35" width="43.57" height="20.5" rx="9.82" ry="9.82" style="fill: #c4c6c8"/>
  <text transform="translate(196 380.35)" style="font-size: 26px;fill: #c4c6c8;font-family: Helvetica-Bold, Helvetica;font-weight: 700">D</text>
  <rect x="453" y="460.63" width="200" height="20.5" rx="10.25" ry="10.25" style="fill: #c4c6c8"/>
  <rect x="390.84" y="460.63" width="130.88" height="20.5" rx="8.29" ry="8.29" style="fill: #c4c6c8"/>
  <rect x="278.14" y="460.63" width="25.72" height="20.5" rx="10.25" ry="10.25" style="fill: #c4c6c8"/>
  <rect x="307.64" y="460.63" width="25.72" height="20.5" rx="10.25" ry="10.25" style="fill: #c4c6c8"/>
  <rect x="226.14" y="460.63" width="43.57" height="20.5" rx="9.82" ry="9.82" style="fill: #c4c6c8"/>
  <rect x="343.58" y="460.63" width="43.57" height="20.5" rx="9.82" ry="9.82" style="fill: #c4c6c8"/>
  <text transform="translate(196 479.63)" style="font-size: 26px;fill: #c4c6c8;font-family: Helvetica-Bold, Helvetica;font-weight: 700">E</text>
</svg>
